0
SECTION
2
HEADER
9
$INSUNITS
70
4
0
ENDSEC
0
SECTION
2
TABLES
0
TABLE
2
LTYPE
0
LTYPE
72
65
70
64
2
CONTINUOUS
3
______
73
0
40
0
0
ENDTAB
0
TABLE
2
LAYER
0
ENDTAB
0
ENDSEC
0
SECTION
2
ENTITIES
0
ARC
8
0
10
3.05
20
-39.925
40
0.5
50
180
51
270
0
ARC
8
0
10
16.05
20
-39.925
40
0.5
50
270
51
0
0
ARC
8
0
10
16.05
20
-26.925
40
0.5
50
0
51
90
0
ARC
8
0
10
3.05
20
-26.925
40
0.5
50
90
51
180
0
LINE
8
0
10
3.05
20
-40.425
11
16.05
21
-40.425
0
LINE
8
0
10
16.05
20
-26.425
11
3.05
21
-26.425
0
LINE
8
0
10
16.55
20
-39.925
11
16.55
21
-26.925
0
LINE
8
0
10
2.55
20
-26.925
11
2.55
21
-39.925
0
ARC
8
0
10
22.15
20
-39.925
40
0.5
50
180
51
270
0
ARC
8
0
10
35.15
20
-39.925
40
0.5
50
270
51
0
0
ARC
8
0
10
35.15
20
-26.925
40
0.5
50
0
51
90
0
ARC
8
0
10
22.15
20
-26.925
40
0.5
50
90
51
180
0
LINE
8
0
10
22.15
20
-40.425
11
35.15
21
-40.425
0
LINE
8
0
10
35.15
20
-26.425
11
22.15
21
-26.425
0
LINE
8
0
10
35.65
20
-39.925
11
35.65
21
-26.925
0
LINE
8
0
10
21.65
20
-26.925
11
21.65
21
-39.925
0
ARC
8
0
10
41.25
20
-39.925
40
0.5
50
180
51
270
0
ARC
8
0
10
54.25
20
-39.925
40
0.5
50
270
51
0
0
ARC
8
0
10
54.25
20
-26.925
40
0.5
50
0
51
90
0
ARC
8
0
10
41.25
20
-26.925
40
0.5
50
90
51
180
0
LINE
8
0
10
41.25
20
-40.425
11
54.25
21
-40.425
0
LINE
8
0
10
54.25
20
-26.425
11
41.25
21
-26.425
0
LINE
8
0
10
54.75
20
-39.925
11
54.75
21
-26.925
0
LINE
8
0
10
40.75
20
-26.925
11
40.75
21
-39.925
0
ARC
8
0
10
60.35
20
-39.925
40
0.5
50
180
51
270
0
ARC
8
0
10
73.35
20
-39.925
40
0.5
50
270
51
0
0
ARC
8
0
10
73.35
20
-26.925
40
0.5
50
0
51
90
0
ARC
8
0
10
60.35
20
-26.925
40
0.5
50
90
51
180
0
LINE
8
0
10
60.35
20
-40.425
11
73.35
21
-40.425
0
LINE
8
0
10
73.35
20
-26.425
11
60.35
21
-26.425
0
LINE
8
0
10
73.85
20
-39.925
11
73.85
21
-26.925
0
LINE
8
0
10
59.85
20
-26.925
11
59.85
21
-39.925
0
ARC
8
0
10
79.45
20
-39.925
40
0.5
50
180
51
270
0
ARC
8
0
10
92.45
20
-39.925
40
0.5
50
270
51
0
0
ARC
8
0
10
92.45
20
-26.925
40
0.5
50
0
51
90
0
ARC
8
0
10
79.45
20
-26.925
40
0.5
50
90
51
180
0
LINE
8
0
10
79.45
20
-40.425
11
92.45
21
-40.425
0
LINE
8
0
10
92.45
20
-26.425
11
79.45
21
-26.425
0
LINE
8
0
10
92.95
20
-39.925
11
92.95
21
-26.925
0
LINE
8
0
10
78.95
20
-26.925
11
78.95
21
-39.925
0
ARC
8
0
10
98.55
20
-39.925
40
0.5
50
180
51
270
0
ARC
8
0
10
111.55
20
-39.925
40
0.5
50
270
51
0
0
ARC
8
0
10
111.55
20
-26.925
40
0.5
50
0
51
90
0
ARC
8
0
10
98.55
20
-26.925
40
0.5
50
90
51
180
0
LINE
8
0
10
98.55
20
-40.425
11
111.55
21
-40.425
0
LINE
8
0
10
111.55
20
-26.425
11
98.55
21
-26.425
0
LINE
8
0
10
112.05
20
-39.925
11
112.05
21
-26.925
0
LINE
8
0
10
98.05
20
-26.925
11
98.05
21
-39.925
0
ARC
8
0
10
117.65
20
-39.925
40
0.5
50
180
51
270
0
ARC
8
0
10
130.65
20
-39.925
40
0.5
50
270
51
0
0
ARC
8
0
10
130.65
20
-26.925
40
0.5
50
0
51
90
0
ARC
8
0
10
117.65
20
-26.925
40
0.5
50
90
51
180
0
LINE
8
0
10
117.65
20
-40.425
11
130.65
21
-40.425
0
LINE
8
0
10
130.65
20
-26.425
11
117.65
21
-26.425
0
LINE
8
0
10
131.15
20
-39.925
11
131.15
21
-26.925
0
LINE
8
0
10
117.15
20
-26.925
11
117.15
21
-39.925
0
ARC
8
0
10
136.75
20
-39.925
40
0.5
50
180
51
270
0
ARC
8
0
10
149.75
20
-39.925
40
0.5
50
270
51
0
0
ARC
8
0
10
149.75
20
-26.925
40
0.5
50
0
51
90
0
ARC
8
0
10
136.75
20
-26.925
40
0.5
50
90
51
180
0
LINE
8
0
10
136.75
20
-40.425
11
149.75
21
-40.425
0
LINE
8
0
10
149.75
20
-26.425
11
136.75
21
-26.425
0
LINE
8
0
10
150.25
20
-39.925
11
150.25
21
-26.925
0
LINE
8
0
10
136.25
20
-26.925
11
136.25
21
-39.925
0
ARC
8
0
10
155.85
20
-39.925
40
0.5
50
180
51
270
0
ARC
8
0
10
168.85
20
-39.925
40
0.5
50
270
51
0
0
ARC
8
0
10
168.85
20
-26.925
40
0.5
50
0
51
90
0
ARC
8
0
10
155.85
20
-26.925
40
0.5
50
90
51
180
0
LINE
8
0
10
155.85
20
-40.425
11
168.85
21
-40.425
0
LINE
8
0
10
168.85
20
-26.425
11
155.85
21
-26.425
0
LINE
8
0
10
169.35
20
-39.925
11
169.35
21
-26.925
0
LINE
8
0
10
155.35
20
-26.925
11
155.35
21
-39.925
0
ARC
8
0
10
174.95
20
-39.925
40
0.5
50
180
51
270
0
ARC
8
0
10
187.95
20
-39.925
40
0.5
50
270
51
0
0
ARC
8
0
10
187.95
20
-26.925
40
0.5
50
0
51
90
0
ARC
8
0
10
174.95
20
-26.925
40
0.5
50
90
51
180
0
LINE
8
0
10
174.95
20
-40.425
11
187.95
21
-40.425
0
LINE
8
0
10
187.95
20
-26.425
11
174.95
21
-26.425
0
LINE
8
0
10
188.45
20
-39.925
11
188.45
21
-26.925
0
LINE
8
0
10
174.45
20
-26.925
11
174.45
21
-39.925
0
ARC
8
0
10
194.05
20
-39.925
40
0.5
50
180
51
270
0
ARC
8
0
10
207.05
20
-39.925
40
0.5
50
270
51
0
0
ARC
8
0
10
207.05
20
-26.925
40
0.5
50
0
51
90
0
ARC
8
0
10
194.05
20
-26.925
40
0.5
50
90
51
180
0
LINE
8
0
10
194.05
20
-40.425
11
207.05
21
-40.425
0
LINE
8
0
10
207.05
20
-26.425
11
194.05
21
-26.425
0
LINE
8
0
10
207.55
20
-39.925
11
207.55
21
-26.925
0
LINE
8
0
10
193.55
20
-26.925
11
193.55
21
-39.925
0
ARC
8
0
10
213.15
20
-39.925
40
0.5
50
180
51
270
0
ARC
8
0
10
226.15
20
-39.925
40
0.5
50
270
51
0
0
ARC
8
0
10
226.15
20
-26.925
40
0.5
50
0
51
90
0
ARC
8
0
10
213.15
20
-26.925
40
0.5
50
90
51
180
0
LINE
8
0
10
213.15
20
-40.425
11
226.15
21
-40.425
0
LINE
8
0
10
226.15
20
-26.425
11
213.15
21
-26.425
0
LINE
8
0
10
226.65
20
-39.925
11
226.65
21
-26.925
0
LINE
8
0
10
212.65
20
-26.925
11
212.65
21
-39.925
0
ARC
8
0
10
232.25
20
-39.925
40
0.5
50
180
51
270
0
ARC
8
0
10
245.25
20
-39.925
40
0.5
50
270
51
0
0
ARC
8
0
10
245.25
20
-26.925
40
0.5
50
0
51
90
0
ARC
8
0
10
232.25
20
-26.925
40
0.5
50
90
51
180
0
LINE
8
0
10
232.25
20
-40.425
11
245.25
21
-40.425
0
LINE
8
0
10
245.25
20
-26.425
11
232.25
21
-26.425
0
LINE
8
0
10
245.75
20
-39.925
11
245.75
21
-26.925
0
LINE
8
0
10
231.75
20
-26.925
11
231.75
21
-39.925
0
ARC
8
0
10
251.35
20
-39.925
40
0.5
50
180
51
270
0
ARC
8
0
10
264.35
20
-39.925
40
0.5
50
270
51
0
0
ARC
8
0
10
264.35
20
-26.925
40
0.5
50
0
51
90
0
ARC
8
0
10
251.35
20
-26.925
40
0.5
50
90
51
180
0
LINE
8
0
10
251.35
20
-40.425
11
264.35
21
-40.425
0
LINE
8
0
10
264.35
20
-26.425
11
251.35
21
-26.425
0
LINE
8
0
10
264.85
20
-39.925
11
264.85
21
-26.925
0
LINE
8
0
10
250.85
20
-26.925
11
250.85
21
-39.925
0
ARC
8
0
10
260.9
20
-39.925
40
0.5
50
180
51
270
0
ARC
8
0
10
273.9
20
-39.925
40
0.5
50
270
51
0
0
ARC
8
0
10
273.9
20
-26.925
40
0.5
50
0
51
90
0
ARC
8
0
10
260.9
20
-26.925
40
0.5
50
90
51
180
0
LINE
8
0
10
260.9
20
-40.425
11
273.9
21
-40.425
0
LINE
8
0
10
273.9
20
-26.425
11
260.9
21
-26.425
0
LINE
8
0
10
274.4
20
-39.925
11
274.4
21
-26.925
0
LINE
8
0
10
260.4
20
-26.925
11
260.4
21
-39.925
0
ARC
8
0
10
252.462
20
-40.925
40
0.5
50
180
51
270
0
ARC
8
0
10
258.462
20
-40.925
40
0.5
50
270
51
0
0
ARC
8
0
10
258.462
20
-26.925
40
0.5
50
0
51
90
0
ARC
8
0
10
252.462
20
-26.925
40
0.5
50
90
51
180
0
LINE
8
0
10
252.462
20
-41.425
11
258.462
21
-41.425
0
LINE
8
0
10
258.462
20
-26.425
11
252.462
21
-26.425
0
LINE
8
0
10
258.962
20
-40.925
11
258.962
21
-26.925
0
LINE
8
0
10
251.962
20
-26.925
11
251.962
21
-40.925
0
ARC
8
0
10
276.338
20
-40.925
40
0.5
50
180
51
270
0
ARC
8
0
10
282.338
20
-40.925
40
0.5
50
270
51
0
0
ARC
8
0
10
282.338
20
-26.925
40
0.5
50
0
51
90
0
ARC
8
0
10
276.338
20
-26.925
40
0.5
50
90
51
180
0
LINE
8
0
10
276.338
20
-41.425
11
282.338
21
-41.425
0
LINE
8
0
10
282.338
20
-26.425
11
276.338
21
-26.425
0
LINE
8
0
10
282.838
20
-40.925
11
282.838
21
-26.925
0
LINE
8
0
10
275.838
20
-26.925
11
275.838
21
-40.925
0
ARC
8
0
10
270.45
20
-39.925
40
0.5
50
180
51
270
0
ARC
8
0
10
283.45
20
-39.925
40
0.5
50
270
51
0
0
ARC
8
0
10
283.45
20
-26.925
40
0.5
50
0
51
90
0
ARC
8
0
10
270.45
20
-26.925
40
0.5
50
90
51
180
0
LINE
8
0
10
270.45
20
-40.425
11
283.45
21
-40.425
0
LINE
8
0
10
283.45
20
-26.425
11
270.45
21
-26.425
0
LINE
8
0
10
283.95
20
-39.925
11
283.95
21
-26.925
0
LINE
8
0
10
269.95
20
-26.925
11
269.95
21
-39.925
0
ARC
8
0
10
289.55
20
-39.925
40
0.5
50
180
51
270
0
ARC
8
0
10
302.55
20
-39.925
40
0.5
50
270
51
0
0
ARC
8
0
10
302.55
20
-26.925
40
0.5
50
0
51
90
0
ARC
8
0
10
289.55
20
-26.925
40
0.5
50
90
51
180
0
LINE
8
0
10
289.55
20
-40.425
11
302.55
21
-40.425
0
LINE
8
0
10
302.55
20
-26.425
11
289.55
21
-26.425
0
LINE
8
0
10
303.05
20
-39.925
11
303.05
21
-26.925
0
LINE
8
0
10
289.05
20
-26.925
11
289.05
21
-39.925
0
ARC
8
0
10
7.825
20
-59.025
40
0.5
50
180
51
270
0
ARC
8
0
10
20.825
20
-59.025
40
0.5
50
270
51
0
0
ARC
8
0
10
20.825
20
-46.025
40
0.5
50
0
51
90
0
ARC
8
0
10
7.825
20
-46.025
40
0.5
50
90
51
180
0
LINE
8
0
10
7.825
20
-59.525
11
20.825
21
-59.525
0
LINE
8
0
10
20.825
20
-45.525
11
7.825
21
-45.525
0
LINE
8
0
10
21.325
20
-59.025
11
21.325
21
-46.025
0
LINE
8
0
10
7.325
20
-46.025
11
7.325
21
-59.025
0
ARC
8
0
10
31.7
20
-59.025
40
0.5
50
180
51
270
0
ARC
8
0
10
44.7
20
-59.025
40
0.5
50
270
51
0
0
ARC
8
0
10
44.7
20
-46.025
40
0.5
50
0
51
90
0
ARC
8
0
10
31.7
20
-46.025
40
0.5
50
90
51
180
0
LINE
8
0
10
31.7
20
-59.525
11
44.7
21
-59.525
0
LINE
8
0
10
44.7
20
-45.525
11
31.7
21
-45.525
0
LINE
8
0
10
45.2
20
-59.025
11
45.2
21
-46.025
0
LINE
8
0
10
31.2
20
-46.025
11
31.2
21
-59.025
0
ARC
8
0
10
50.8
20
-59.025
40
0.5
50
180
51
270
0
ARC
8
0
10
63.8
20
-59.025
40
0.5
50
270
51
0
0
ARC
8
0
10
63.8
20
-46.025
40
0.5
50
0
51
90
0
ARC
8
0
10
50.8
20
-46.025
40
0.5
50
90
51
180
0
LINE
8
0
10
50.8
20
-59.525
11
63.8
21
-59.525
0
LINE
8
0
10
63.8
20
-45.525
11
50.8
21
-45.525
0
LINE
8
0
10
64.3
20
-59.025
11
64.3
21
-46.025
0
LINE
8
0
10
50.3
20
-46.025
11
50.3
21
-59.025
0
ARC
8
0
10
69.9
20
-59.025
40
0.5
50
180
51
270
0
ARC
8
0
10
82.9
20
-59.025
40
0.5
50
270
51
0
0
ARC
8
0
10
82.9
20
-46.025
40
0.5
50
0
51
90
0
ARC
8
0
10
69.9
20
-46.025
40
0.5
50
90
51
180
0
LINE
8
0
10
69.9
20
-59.525
11
82.9
21
-59.525
0
LINE
8
0
10
82.9
20
-45.525
11
69.9
21
-45.525
0
LINE
8
0
10
83.4
20
-59.025
11
83.4
21
-46.025
0
LINE
8
0
10
69.4
20
-46.025
11
69.4
21
-59.025
0
ARC
8
0
10
89
20
-59.025
40
0.5
50
180
51
270
0
ARC
8
0
10
102
20
-59.025
40
0.5
50
270
51
0
0
ARC
8
0
10
102
20
-46.025
40
0.5
50
0
51
90
0
ARC
8
0
10
89
20
-46.025
40
0.5
50
90
51
180
0
LINE
8
0
10
89
20
-59.525
11
102
21
-59.525
0
LINE
8
0
10
102
20
-45.525
11
89
21
-45.525
0
LINE
8
0
10
102.5
20
-59.025
11
102.5
21
-46.025
0
LINE
8
0
10
88.5
20
-46.025
11
88.5
21
-59.025
0
ARC
8
0
10
108.1
20
-59.025
40
0.5
50
180
51
270
0
ARC
8
0
10
121.1
20
-59.025
40
0.5
50
270
51
0
0
ARC
8
0
10
121.1
20
-46.025
40
0.5
50
0
51
90
0
ARC
8
0
10
108.1
20
-46.025
40
0.5
50
90
51
180
0
LINE
8
0
10
108.1
20
-59.525
11
121.1
21
-59.525
0
LINE
8
0
10
121.1
20
-45.525
11
108.1
21
-45.525
0
LINE
8
0
10
121.6
20
-59.025
11
121.6
21
-46.025
0
LINE
8
0
10
107.6
20
-46.025
11
107.6
21
-59.025
0
ARC
8
0
10
127.2
20
-59.025
40
0.5
50
180
51
270
0
ARC
8
0
10
140.2
20
-59.025
40
0.5
50
270
51
0
0
ARC
8
0
10
140.2
20
-46.025
40
0.5
50
0
51
90
0
ARC
8
0
10
127.2
20
-46.025
40
0.5
50
90
51
180
0
LINE
8
0
10
127.2
20
-59.525
11
140.2
21
-59.525
0
LINE
8
0
10
140.2
20
-45.525
11
127.2
21
-45.525
0
LINE
8
0
10
140.7
20
-59.025
11
140.7
21
-46.025
0
LINE
8
0
10
126.7
20
-46.025
11
126.7
21
-59.025
0
ARC
8
0
10
146.3
20
-59.025
40
0.5
50
180
51
270
0
ARC
8
0
10
159.3
20
-59.025
40
0.5
50
270
51
0
0
ARC
8
0
10
159.3
20
-46.025
40
0.5
50
0
51
90
0
ARC
8
0
10
146.3
20
-46.025
40
0.5
50
90
51
180
0
LINE
8
0
10
146.3
20
-59.525
11
159.3
21
-59.525
0
LINE
8
0
10
159.3
20
-45.525
11
146.3
21
-45.525
0
LINE
8
0
10
159.8
20
-59.025
11
159.8
21
-46.025
0
LINE
8
0
10
145.8
20
-46.025
11
145.8
21
-59.025
0
ARC
8
0
10
165.4
20
-59.025
40
0.5
50
180
51
270
0
ARC
8
0
10
178.4
20
-59.025
40
0.5
50
270
51
0
0
ARC
8
0
10
178.4
20
-46.025
40
0.5
50
0
51
90
0
ARC
8
0
10
165.4
20
-46.025
40
0.5
50
90
51
180
0
LINE
8
0
10
165.4
20
-59.525
11
178.4
21
-59.525
0
LINE
8
0
10
178.4
20
-45.525
11
165.4
21
-45.525
0
LINE
8
0
10
178.9
20
-59.025
11
178.9
21
-46.025
0
LINE
8
0
10
164.9
20
-46.025
11
164.9
21
-59.025
0
ARC
8
0
10
184.5
20
-59.025
40
0.5
50
180
51
270
0
ARC
8
0
10
197.5
20
-59.025
40
0.5
50
270
51
0
0
ARC
8
0
10
197.5
20
-46.025
40
0.5
50
0
51
90
0
ARC
8
0
10
184.5
20
-46.025
40
0.5
50
90
51
180
0
LINE
8
0
10
184.5
20
-59.525
11
197.5
21
-59.525
0
LINE
8
0
10
197.5
20
-45.525
11
184.5
21
-45.525
0
LINE
8
0
10
198
20
-59.025
11
198
21
-46.025
0
LINE
8
0
10
184
20
-46.025
11
184
21
-59.025
0
ARC
8
0
10
203.6
20
-59.025
40
0.5
50
180
51
270
0
ARC
8
0
10
216.6
20
-59.025
40
0.5
50
270
51
0
0
ARC
8
0
10
216.6
20
-46.025
40
0.5
50
0
51
90
0
ARC
8
0
10
203.6
20
-46.025
40
0.5
50
90
51
180
0
LINE
8
0
10
203.6
20
-59.525
11
216.6
21
-59.525
0
LINE
8
0
10
216.6
20
-45.525
11
203.6
21
-45.525
0
LINE
8
0
10
217.1
20
-59.025
11
217.1
21
-46.025
0
LINE
8
0
10
203.1
20
-46.025
11
203.1
21
-59.025
0
ARC
8
0
10
222.7
20
-59.025
40
0.5
50
180
51
270
0
ARC
8
0
10
235.7
20
-59.025
40
0.5
50
270
51
0
0
ARC
8
0
10
235.7
20
-46.025
40
0.5
50
0
51
90
0
ARC
8
0
10
222.7
20
-46.025
40
0.5
50
90
51
180
0
LINE
8
0
10
222.7
20
-59.525
11
235.7
21
-59.525
0
LINE
8
0
10
235.7
20
-45.525
11
222.7
21
-45.525
0
LINE
8
0
10
236.2
20
-59.025
11
236.2
21
-46.025
0
LINE
8
0
10
222.2
20
-46.025
11
222.2
21
-59.025
0
ARC
8
0
10
241.8
20
-59.025
40
0.5
50
180
51
270
0
ARC
8
0
10
254.8
20
-59.025
40
0.5
50
270
51
0
0
ARC
8
0
10
254.8
20
-46.025
40
0.5
50
0
51
90
0
ARC
8
0
10
241.8
20
-46.025
40
0.5
50
90
51
180
0
LINE
8
0
10
241.8
20
-59.525
11
254.8
21
-59.525
0
LINE
8
0
10
254.8
20
-45.525
11
241.8
21
-45.525
0
LINE
8
0
10
255.3
20
-59.025
11
255.3
21
-46.025
0
LINE
8
0
10
241.3
20
-46.025
11
241.3
21
-59.025
0
ARC
8
0
10
265.675
20
-59.025
40
0.5
50
180
51
270
0
ARC
8
0
10
278.675
20
-59.025
40
0.5
50
270
51
0
0
ARC
8
0
10
278.675
20
-46.025
40
0.5
50
0
51
90
0
ARC
8
0
10
265.675
20
-46.025
40
0.5
50
90
51
180
0
LINE
8
0
10
265.675
20
-59.525
11
278.675
21
-59.525
0
LINE
8
0
10
278.675
20
-45.525
11
265.675
21
-45.525
0
LINE
8
0
10
279.175
20
-59.025
11
279.175
21
-46.025
0
LINE
8
0
10
265.175
20
-46.025
11
265.175
21
-59.025
0
ARC
8
0
10
268.0625
20
-68.575
40
0.5
50
180
51
270
0
ARC
8
0
10
281.0625
20
-68.575
40
0.5
50
270
51
0
0
ARC
8
0
10
281.0625
20
-55.575
40
0.5
50
0
51
90
0
ARC
8
0
10
268.0625
20
-55.575
40
0.5
50
90
51
180
0
LINE
8
0
10
268.0625
20
-69.075
11
281.0625
21
-69.075
0
LINE
8
0
10
281.0625
20
-55.075
11
268.0625
21
-55.075
0
LINE
8
0
10
281.5625
20
-68.575
11
281.5625
21
-55.575
0
LINE
8
0
10
267.5625
20
-55.575
11
267.5625
21
-68.575
0
ARC
8
0
10
267.0625
20
-47.137
40
0.5
50
90
51
180
0
ARC
8
0
10
267.0625
20
-53.137
40
0.5
50
180
51
270
0
ARC
8
0
10
281.0625
20
-53.137
40
0.5
50
270
51
0
0
ARC
8
0
10
281.0625
20
-47.137
40
0.5
50
0
51
90
0
LINE
8
0
10
266.5625
20
-47.137
11
266.5625
21
-53.137
0
LINE
8
0
10
281.5625
20
-53.137
11
281.5625
21
-47.137
0
LINE
8
0
10
267.0625
20
-53.637
11
281.0625
21
-53.637
0
LINE
8
0
10
281.0625
20
-46.637
11
267.0625
21
-46.637
0
ARC
8
0
10
267.0625
20
-71.013
40
0.5
50
90
51
180
0
ARC
8
0
10
267.0625
20
-77.013
40
0.5
50
180
51
270
0
ARC
8
0
10
281.0625
20
-77.013
40
0.5
50
270
51
0
0
ARC
8
0
10
281.0625
20
-71.013
40
0.5
50
0
51
90
0
LINE
8
0
10
266.5625
20
-71.013
11
266.5625
21
-77.013
0
LINE
8
0
10
281.5625
20
-77.013
11
281.5625
21
-71.013
0
LINE
8
0
10
267.0625
20
-77.513
11
281.0625
21
-77.513
0
LINE
8
0
10
281.0625
20
-70.513
11
267.0625
21
-70.513
0
ARC
8
0
10
289.55
20
-59.025
40
0.5
50
180
51
270
0
ARC
8
0
10
302.55
20
-59.025
40
0.5
50
270
51
0
0
ARC
8
0
10
302.55
20
-46.025
40
0.5
50
0
51
90
0
ARC
8
0
10
289.55
20
-46.025
40
0.5
50
90
51
180
0
LINE
8
0
10
289.55
20
-59.525
11
302.55
21
-59.525
0
LINE
8
0
10
302.55
20
-45.525
11
289.55
21
-45.525
0
LINE
8
0
10
303.05
20
-59.025
11
303.05
21
-46.025
0
LINE
8
0
10
289.05
20
-46.025
11
289.05
21
-59.025
0
ARC
8
0
10
10.2125
20
-78.125
40
0.5
50
180
51
270
0
ARC
8
0
10
23.2125
20
-78.125
40
0.5
50
270
51
0
0
ARC
8
0
10
23.2125
20
-65.125
40
0.5
50
0
51
90
0
ARC
8
0
10
10.2125
20
-65.125
40
0.5
50
90
51
180
0
LINE
8
0
10
10.2125
20
-78.625
11
23.2125
21
-78.625
0
LINE
8
0
10
23.2125
20
-64.625
11
10.2125
21
-64.625
0
LINE
8
0
10
23.7125
20
-78.125
11
23.7125
21
-65.125
0
LINE
8
0
10
9.7125
20
-65.125
11
9.7125
21
-78.125
0
ARC
8
0
10
5.4375
20
-78.125
40
0.5
50
180
51
270
0
ARC
8
0
10
18.4375
20
-78.125
40
0.5
50
270
51
0
0
ARC
8
0
10
18.4375
20
-65.125
40
0.5
50
0
51
90
0
ARC
8
0
10
5.4375
20
-65.125
40
0.5
50
90
51
180
0
LINE
8
0
10
5.4375
20
-78.625
11
18.4375
21
-78.625
0
LINE
8
0
10
18.4375
20
-64.625
11
5.4375
21
-64.625
0
LINE
8
0
10
18.9375
20
-78.125
11
18.9375
21
-65.125
0
LINE
8
0
10
4.9375
20
-65.125
11
4.9375
21
-78.125
0
ARC
8
0
10
36.475
20
-78.125
40
0.5
50
180
51
270
0
ARC
8
0
10
49.475
20
-78.125
40
0.5
50
270
51
0
0
ARC
8
0
10
49.475
20
-65.125
40
0.5
50
0
51
90
0
ARC
8
0
10
36.475
20
-65.125
40
0.5
50
90
51
180
0
LINE
8
0
10
36.475
20
-78.625
11
49.475
21
-78.625
0
LINE
8
0
10
49.475
20
-64.625
11
36.475
21
-64.625
0
LINE
8
0
10
49.975
20
-78.125
11
49.975
21
-65.125
0
LINE
8
0
10
35.975
20
-65.125
11
35.975
21
-78.125
0
ARC
8
0
10
55.575
20
-78.125
40
0.5
50
180
51
270
0
ARC
8
0
10
68.575
20
-78.125
40
0.5
50
270
51
0
0
ARC
8
0
10
68.575
20
-65.125
40
0.5
50
0
51
90
0
ARC
8
0
10
55.575
20
-65.125
40
0.5
50
90
51
180
0
LINE
8
0
10
55.575
20
-78.625
11
68.575
21
-78.625
0
LINE
8
0
10
68.575
20
-64.625
11
55.575
21
-64.625
0
LINE
8
0
10
69.075
20
-78.125
11
69.075
21
-65.125
0
LINE
8
0
10
55.075
20
-65.125
11
55.075
21
-78.125
0
ARC
8
0
10
74.675
20
-78.125
40
0.5
50
180
51
270
0
ARC
8
0
10
87.675
20
-78.125
40
0.5
50
270
51
0
0
ARC
8
0
10
87.675
20
-65.125
40
0.5
50
0
51
90
0
ARC
8
0
10
74.675
20
-65.125
40
0.5
50
90
51
180
0
LINE
8
0
10
74.675
20
-78.625
11
87.675
21
-78.625
0
LINE
8
0
10
87.675
20
-64.625
11
74.675
21
-64.625
0
LINE
8
0
10
88.175
20
-78.125
11
88.175
21
-65.125
0
LINE
8
0
10
74.175
20
-65.125
11
74.175
21
-78.125
0
ARC
8
0
10
93.775
20
-78.125
40
0.5
50
180
51
270
0
ARC
8
0
10
106.775
20
-78.125
40
0.5
50
270
51
0
0
ARC
8
0
10
106.775
20
-65.125
40
0.5
50
0
51
90
0
ARC
8
0
10
93.775
20
-65.125
40
0.5
50
90
51
180
0
LINE
8
0
10
93.775
20
-78.625
11
106.775
21
-78.625
0
LINE
8
0
10
106.775
20
-64.625
11
93.775
21
-64.625
0
LINE
8
0
10
107.275
20
-78.125
11
107.275
21
-65.125
0
LINE
8
0
10
93.275
20
-65.125
11
93.275
21
-78.125
0
ARC
8
0
10
112.875
20
-78.125
40
0.5
50
180
51
270
0
ARC
8
0
10
125.875
20
-78.125
40
0.5
50
270
51
0
0
ARC
8
0
10
125.875
20
-65.125
40
0.5
50
0
51
90
0
ARC
8
0
10
112.875
20
-65.125
40
0.5
50
90
51
180
0
LINE
8
0
10
112.875
20
-78.625
11
125.875
21
-78.625
0
LINE
8
0
10
125.875
20
-64.625
11
112.875
21
-64.625
0
LINE
8
0
10
126.375
20
-78.125
11
126.375
21
-65.125
0
LINE
8
0
10
112.375
20
-65.125
11
112.375
21
-78.125
0
ARC
8
0
10
131.975
20
-78.125
40
0.5
50
180
51
270
0
ARC
8
0
10
144.975
20
-78.125
40
0.5
50
270
51
0
0
ARC
8
0
10
144.975
20
-65.125
40
0.5
50
0
51
90
0
ARC
8
0
10
131.975
20
-65.125
40
0.5
50
90
51
180
0
LINE
8
0
10
131.975
20
-78.625
11
144.975
21
-78.625
0
LINE
8
0
10
144.975
20
-64.625
11
131.975
21
-64.625
0
LINE
8
0
10
145.475
20
-78.125
11
145.475
21
-65.125
0
LINE
8
0
10
131.475
20
-65.125
11
131.475
21
-78.125
0
ARC
8
0
10
151.075
20
-78.125
40
0.5
50
180
51
270
0
ARC
8
0
10
164.075
20
-78.125
40
0.5
50
270
51
0
0
ARC
8
0
10
164.075
20
-65.125
40
0.5
50
0
51
90
0
ARC
8
0
10
151.075
20
-65.125
40
0.5
50
90
51
180
0
LINE
8
0
10
151.075
20
-78.625
11
164.075
21
-78.625
0
LINE
8
0
10
164.075
20
-64.625
11
151.075
21
-64.625
0
LINE
8
0
10
164.575
20
-78.125
11
164.575
21
-65.125
0
LINE
8
0
10
150.575
20
-65.125
11
150.575
21
-78.125
0
ARC
8
0
10
170.175
20
-78.125
40
0.5
50
180
51
270
0
ARC
8
0
10
183.175
20
-78.125
40
0.5
50
270
51
0
0
ARC
8
0
10
183.175
20
-65.125
40
0.5
50
0
51
90
0
ARC
8
0
10
170.175
20
-65.125
40
0.5
50
90
51
180
0
LINE
8
0
10
170.175
20
-78.625
11
183.175
21
-78.625
0
LINE
8
0
10
183.175
20
-64.625
11
170.175
21
-64.625
0
LINE
8
0
10
183.675
20
-78.125
11
183.675
21
-65.125
0
LINE
8
0
10
169.675
20
-65.125
11
169.675
21
-78.125
0
ARC
8
0
10
189.275
20
-78.125
40
0.5
50
180
51
270
0
ARC
8
0
10
202.275
20
-78.125
40
0.5
50
270
51
0
0
ARC
8
0
10
202.275
20
-65.125
40
0.5
50
0
51
90
0
ARC
8
0
10
189.275
20
-65.125
40
0.5
50
90
51
180
0
LINE
8
0
10
189.275
20
-78.625
11
202.275
21
-78.625
0
LINE
8
0
10
202.275
20
-64.625
11
189.275
21
-64.625
0
LINE
8
0
10
202.775
20
-78.125
11
202.775
21
-65.125
0
LINE
8
0
10
188.775
20
-65.125
11
188.775
21
-78.125
0
ARC
8
0
10
208.375
20
-78.125
40
0.5
50
180
51
270
0
ARC
8
0
10
221.375
20
-78.125
40
0.5
50
270
51
0
0
ARC
8
0
10
221.375
20
-65.125
40
0.5
50
0
51
90
0
ARC
8
0
10
208.375
20
-65.125
40
0.5
50
90
51
180
0
LINE
8
0
10
208.375
20
-78.625
11
221.375
21
-78.625
0
LINE
8
0
10
221.375
20
-64.625
11
208.375
21
-64.625
0
LINE
8
0
10
221.875
20
-78.125
11
221.875
21
-65.125
0
LINE
8
0
10
207.875
20
-65.125
11
207.875
21
-78.125
0
ARC
8
0
10
227.475
20
-78.125
40
0.5
50
180
51
270
0
ARC
8
0
10
240.475
20
-78.125
40
0.5
50
270
51
0
0
ARC
8
0
10
240.475
20
-65.125
40
0.5
50
0
51
90
0
ARC
8
0
10
227.475
20
-65.125
40
0.5
50
90
51
180
0
LINE
8
0
10
227.475
20
-78.625
11
240.475
21
-78.625
0
LINE
8
0
10
240.475
20
-64.625
11
227.475
21
-64.625
0
LINE
8
0
10
240.975
20
-78.125
11
240.975
21
-65.125
0
LINE
8
0
10
226.975
20
-65.125
11
226.975
21
-78.125
0
ARC
8
0
10
258.5125
20
-78.125
40
0.5
50
180
51
270
0
ARC
8
0
10
271.5125
20
-78.125
40
0.5
50
270
51
0
0
ARC
8
0
10
271.5125
20
-65.125
40
0.5
50
0
51
90
0
ARC
8
0
10
258.5125
20
-65.125
40
0.5
50
90
51
180
0
LINE
8
0
10
258.5125
20
-78.625
11
271.5125
21
-78.625
0
LINE
8
0
10
271.5125
20
-64.625
11
258.5125
21
-64.625
0
LINE
8
0
10
272.0125
20
-78.125
11
272.0125
21
-65.125
0
LINE
8
0
10
258.0125
20
-65.125
11
258.0125
21
-78.125
0
ARC
8
0
10
250.0745
20
-79.125
40
0.5
50
180
51
270
0
ARC
8
0
10
256.0745
20
-79.125
40
0.5
50
270
51
0
0
ARC
8
0
10
256.0745
20
-65.125
40
0.5
50
0
51
90
0
ARC
8
0
10
250.0745
20
-65.125
40
0.5
50
90
51
180
0
LINE
8
0
10
250.0745
20
-79.625
11
256.0745
21
-79.625
0
LINE
8
0
10
256.0745
20
-64.625
11
250.0745
21
-64.625
0
LINE
8
0
10
256.5745
20
-79.125
11
256.5745
21
-65.125
0
LINE
8
0
10
249.5745
20
-65.125
11
249.5745
21
-79.125
0
ARC
8
0
10
273.9505
20
-79.125
40
0.5
50
180
51
270
0
ARC
8
0
10
279.9505
20
-79.125
40
0.5
50
270
51
0
0
ARC
8
0
10
279.9505
20
-65.125
40
0.5
50
0
51
90
0
ARC
8
0
10
273.9505
20
-65.125
40
0.5
50
90
51
180
0
LINE
8
0
10
273.9505
20
-79.625
11
279.9505
21
-79.625
0
LINE
8
0
10
279.9505
20
-64.625
11
273.9505
21
-64.625
0
LINE
8
0
10
280.4505
20
-79.125
11
280.4505
21
-65.125
0
LINE
8
0
10
273.4505
20
-65.125
11
273.4505
21
-79.125
0
ARC
8
0
10
246.575
20
-78.125
40
0.5
50
180
51
270
0
ARC
8
0
10
259.575
20
-78.125
40
0.5
50
270
51
0
0
ARC
8
0
10
259.575
20
-65.125
40
0.5
50
0
51
90
0
ARC
8
0
10
246.575
20
-65.125
40
0.5
50
90
51
180
0
LINE
8
0
10
246.575
20
-78.625
11
259.575
21
-78.625
0
LINE
8
0
10
259.575
20
-64.625
11
246.575
21
-64.625
0
LINE
8
0
10
260.075
20
-78.125
11
260.075
21
-65.125
0
LINE
8
0
10
246.075
20
-65.125
11
246.075
21
-78.125
0
ARC
8
0
10
289.55
20
-78.125
40
0.5
50
180
51
270
0
ARC
8
0
10
302.55
20
-78.125
40
0.5
50
270
51
0
0
ARC
8
0
10
302.55
20
-65.125
40
0.5
50
0
51
90
0
ARC
8
0
10
289.55
20
-65.125
40
0.5
50
90
51
180
0
LINE
8
0
10
289.55
20
-78.625
11
302.55
21
-78.625
0
LINE
8
0
10
302.55
20
-64.625
11
289.55
21
-64.625
0
LINE
8
0
10
303.05
20
-78.125
11
303.05
21
-65.125
0
LINE
8
0
10
289.05
20
-65.125
11
289.05
21
-78.125
0
ARC
8
0
10
14.9875
20
-97.225
40
0.5
50
180
51
270
0
ARC
8
0
10
27.9875
20
-97.225
40
0.5
50
270
51
0
0
ARC
8
0
10
27.9875
20
-84.225
40
0.5
50
0
51
90
0
ARC
8
0
10
14.9875
20
-84.225
40
0.5
50
90
51
180
0
LINE
8
0
10
14.9875
20
-97.725
11
27.9875
21
-97.725
0
LINE
8
0
10
27.9875
20
-83.725
11
14.9875
21
-83.725
0
LINE
8
0
10
28.4875
20
-97.225
11
28.4875
21
-84.225
0
LINE
8
0
10
14.4875
20
-84.225
11
14.4875
21
-97.225
0
ARC
8
0
10
6.5495
20
-98.225
40
0.5
50
180
51
270
0
ARC
8
0
10
12.5495
20
-98.225
40
0.5
50
270
51
0
0
ARC
8
0
10
12.5495
20
-84.225
40
0.5
50
0
51
90
0
ARC
8
0
10
6.5495
20
-84.225
40
0.5
50
90
51
180
0
LINE
8
0
10
6.5495
20
-98.725
11
12.5495
21
-98.725
0
LINE
8
0
10
12.5495
20
-83.725
11
6.5495
21
-83.725
0
LINE
8
0
10
13.0495
20
-98.225
11
13.0495
21
-84.225
0
LINE
8
0
10
6.0495
20
-84.225
11
6.0495
21
-98.225
0
ARC
8
0
10
30.4255
20
-98.225
40
0.5
50
180
51
270
0
ARC
8
0
10
36.4255
20
-98.225
40
0.5
50
270
51
0
0
ARC
8
0
10
36.4255
20
-84.225
40
0.5
50
0
51
90
0
ARC
8
0
10
30.4255
20
-84.225
40
0.5
50
90
51
180
0
LINE
8
0
10
30.4255
20
-98.725
11
36.4255
21
-98.725
0
LINE
8
0
10
36.4255
20
-83.725
11
30.4255
21
-83.725
0
LINE
8
0
10
36.9255
20
-98.225
11
36.9255
21
-84.225
0
LINE
8
0
10
29.9255
20
-84.225
11
29.9255
21
-98.225
0
ARC
8
0
10
5.4375
20
-97.225
40
0.5
50
180
51
270
0
ARC
8
0
10
18.4375
20
-97.225
40
0.5
50
270
51
0
0
ARC
8
0
10
18.4375
20
-84.225
40
0.5
50
0
51
90
0
ARC
8
0
10
5.4375
20
-84.225
40
0.5
50
90
51
180
0
LINE
8
0
10
5.4375
20
-97.725
11
18.4375
21
-97.725
0
LINE
8
0
10
18.4375
20
-83.725
11
5.4375
21
-83.725
0
LINE
8
0
10
18.9375
20
-97.225
11
18.9375
21
-84.225
0
LINE
8
0
10
4.9375
20
-84.225
11
4.9375
21
-97.225
0
ARC
8
0
10
26.925
20
-97.225
40
0.5
50
180
51
270
0
ARC
8
0
10
39.925
20
-97.225
40
0.5
50
270
51
0
0
ARC
8
0
10
39.925
20
-84.225
40
0.5
50
0
51
90
0
ARC
8
0
10
26.925
20
-84.225
40
0.5
50
90
51
180
0
LINE
8
0
10
26.925
20
-97.725
11
39.925
21
-97.725
0
LINE
8
0
10
39.925
20
-83.725
11
26.925
21
-83.725
0
LINE
8
0
10
40.425
20
-97.225
11
40.425
21
-84.225
0
LINE
8
0
10
26.425
20
-84.225
11
26.425
21
-97.225
0
ARC
8
0
10
46.025
20
-97.225
40
0.5
50
180
51
270
0
ARC
8
0
10
59.025
20
-97.225
40
0.5
50
270
51
0
0
ARC
8
0
10
59.025
20
-84.225
40
0.5
50
0
51
90
0
ARC
8
0
10
46.025
20
-84.225
40
0.5
50
90
51
180
0
LINE
8
0
10
46.025
20
-97.725
11
59.025
21
-97.725
0
LINE
8
0
10
59.025
20
-83.725
11
46.025
21
-83.725
0
LINE
8
0
10
59.525
20
-97.225
11
59.525
21
-84.225
0
LINE
8
0
10
45.525
20
-84.225
11
45.525
21
-97.225
0
ARC
8
0
10
65.125
20
-97.225
40
0.5
50
180
51
270
0
ARC
8
0
10
78.125
20
-97.225
40
0.5
50
270
51
0
0
ARC
8
0
10
78.125
20
-84.225
40
0.5
50
0
51
90
0
ARC
8
0
10
65.125
20
-84.225
40
0.5
50
90
51
180
0
LINE
8
0
10
65.125
20
-97.725
11
78.125
21
-97.725
0
LINE
8
0
10
78.125
20
-83.725
11
65.125
21
-83.725
0
LINE
8
0
10
78.625
20
-97.225
11
78.625
21
-84.225
0
LINE
8
0
10
64.625
20
-84.225
11
64.625
21
-97.225
0
ARC
8
0
10
84.225
20
-97.225
40
0.5
50
180
51
270
0
ARC
8
0
10
97.225
20
-97.225
40
0.5
50
270
51
0
0
ARC
8
0
10
97.225
20
-84.225
40
0.5
50
0
51
90
0
ARC
8
0
10
84.225
20
-84.225
40
0.5
50
90
51
180
0
LINE
8
0
10
84.225
20
-97.725
11
97.225
21
-97.725
0
LINE
8
0
10
97.225
20
-83.725
11
84.225
21
-83.725
0
LINE
8
0
10
97.725
20
-97.225
11
97.725
21
-84.225
0
LINE
8
0
10
83.725
20
-84.225
11
83.725
21
-97.225
0
ARC
8
0
10
103.325
20
-97.225
40
0.5
50
180
51
270
0
ARC
8
0
10
116.325
20
-97.225
40
0.5
50
270
51
0
0
ARC
8
0
10
116.325
20
-84.225
40
0.5
50
0
51
90
0
ARC
8
0
10
103.325
20
-84.225
40
0.5
50
90
51
180
0
LINE
8
0
10
103.325
20
-97.725
11
116.325
21
-97.725
0
LINE
8
0
10
116.325
20
-83.725
11
103.325
21
-83.725
0
LINE
8
0
10
116.825
20
-97.225
11
116.825
21
-84.225
0
LINE
8
0
10
102.825
20
-84.225
11
102.825
21
-97.225
0
ARC
8
0
10
122.425
20
-97.225
40
0.5
50
180
51
270
0
ARC
8
0
10
135.425
20
-97.225
40
0.5
50
270
51
0
0
ARC
8
0
10
135.425
20
-84.225
40
0.5
50
0
51
90
0
ARC
8
0
10
122.425
20
-84.225
40
0.5
50
90
51
180
0
LINE
8
0
10
122.425
20
-97.725
11
135.425
21
-97.725
0
LINE
8
0
10
135.425
20
-83.725
11
122.425
21
-83.725
0
LINE
8
0
10
135.925
20
-97.225
11
135.925
21
-84.225
0
LINE
8
0
10
121.925
20
-84.225
11
121.925
21
-97.225
0
ARC
8
0
10
141.525
20
-97.225
40
0.5
50
180
51
270
0
ARC
8
0
10
154.525
20
-97.225
40
0.5
50
270
51
0
0
ARC
8
0
10
154.525
20
-84.225
40
0.5
50
0
51
90
0
ARC
8
0
10
141.525
20
-84.225
40
0.5
50
90
51
180
0
LINE
8
0
10
141.525
20
-97.725
11
154.525
21
-97.725
0
LINE
8
0
10
154.525
20
-83.725
11
141.525
21
-83.725
0
LINE
8
0
10
155.025
20
-97.225
11
155.025
21
-84.225
0
LINE
8
0
10
141.025
20
-84.225
11
141.025
21
-97.225
0
ARC
8
0
10
160.625
20
-97.225
40
0.5
50
180
51
270
0
ARC
8
0
10
173.625
20
-97.225
40
0.5
50
270
51
0
0
ARC
8
0
10
173.625
20
-84.225
40
0.5
50
0
51
90
0
ARC
8
0
10
160.625
20
-84.225
40
0.5
50
90
51
180
0
LINE
8
0
10
160.625
20
-97.725
11
173.625
21
-97.725
0
LINE
8
0
10
173.625
20
-83.725
11
160.625
21
-83.725
0
LINE
8
0
10
174.125
20
-97.225
11
174.125
21
-84.225
0
LINE
8
0
10
160.125
20
-84.225
11
160.125
21
-97.225
0
ARC
8
0
10
179.725
20
-97.225
40
0.5
50
180
51
270
0
ARC
8
0
10
192.725
20
-97.225
40
0.5
50
270
51
0
0
ARC
8
0
10
192.725
20
-84.225
40
0.5
50
0
51
90
0
ARC
8
0
10
179.725
20
-84.225
40
0.5
50
90
51
180
0
LINE
8
0
10
179.725
20
-97.725
11
192.725
21
-97.725
0
LINE
8
0
10
192.725
20
-83.725
11
179.725
21
-83.725
0
LINE
8
0
10
193.225
20
-97.225
11
193.225
21
-84.225
0
LINE
8
0
10
179.225
20
-84.225
11
179.225
21
-97.225
0
ARC
8
0
10
198.825
20
-97.225
40
0.5
50
180
51
270
0
ARC
8
0
10
211.825
20
-97.225
40
0.5
50
270
51
0
0
ARC
8
0
10
211.825
20
-84.225
40
0.5
50
0
51
90
0
ARC
8
0
10
198.825
20
-84.225
40
0.5
50
90
51
180
0
LINE
8
0
10
198.825
20
-97.725
11
211.825
21
-97.725
0
LINE
8
0
10
211.825
20
-83.725
11
198.825
21
-83.725
0
LINE
8
0
10
212.325
20
-97.225
11
212.325
21
-84.225
0
LINE
8
0
10
198.325
20
-84.225
11
198.325
21
-97.225
0
ARC
8
0
10
217.925
20
-97.225
40
0.5
50
180
51
270
0
ARC
8
0
10
230.925
20
-97.225
40
0.5
50
270
51
0
0
ARC
8
0
10
230.925
20
-84.225
40
0.5
50
0
51
90
0
ARC
8
0
10
217.925
20
-84.225
40
0.5
50
90
51
180
0
LINE
8
0
10
217.925
20
-97.725
11
230.925
21
-97.725
0
LINE
8
0
10
230.925
20
-83.725
11
217.925
21
-83.725
0
LINE
8
0
10
231.425
20
-97.225
11
231.425
21
-84.225
0
LINE
8
0
10
217.425
20
-84.225
11
217.425
21
-97.225
0
ARC
8
0
10
244.1875
20
-97.225
40
0.5
50
180
51
270
0
ARC
8
0
10
257.1875
20
-97.225
40
0.5
50
270
51
0
0
ARC
8
0
10
257.1875
20
-84.225
40
0.5
50
0
51
90
0
ARC
8
0
10
244.1875
20
-84.225
40
0.5
50
90
51
180
0
LINE
8
0
10
244.1875
20
-97.725
11
257.1875
21
-97.725
0
LINE
8
0
10
257.1875
20
-83.725
11
244.1875
21
-83.725
0
LINE
8
0
10
257.6875
20
-97.225
11
257.6875
21
-84.225
0
LINE
8
0
10
243.6875
20
-84.225
11
243.6875
21
-97.225
0
ARC
8
0
10
270.45
20
-97.225
40
0.5
50
180
51
270
0
ARC
8
0
10
283.45
20
-97.225
40
0.5
50
270
51
0
0
ARC
8
0
10
283.45
20
-84.225
40
0.5
50
0
51
90
0
ARC
8
0
10
270.45
20
-84.225
40
0.5
50
90
51
180
0
LINE
8
0
10
270.45
20
-97.725
11
283.45
21
-97.725
0
LINE
8
0
10
283.45
20
-83.725
11
270.45
21
-83.725
0
LINE
8
0
10
283.95
20
-97.225
11
283.95
21
-84.225
0
LINE
8
0
10
269.95
20
-84.225
11
269.95
21
-97.225
0
ARC
8
0
10
289.55
20
-97.225
40
0.5
50
180
51
270
0
ARC
8
0
10
302.55
20
-97.225
40
0.5
50
270
51
0
0
ARC
8
0
10
302.55
20
-84.225
40
0.5
50
0
51
90
0
ARC
8
0
10
289.55
20
-84.225
40
0.5
50
90
51
180
0
LINE
8
0
10
289.55
20
-97.725
11
302.55
21
-97.725
0
LINE
8
0
10
302.55
20
-83.725
11
289.55
21
-83.725
0
LINE
8
0
10
303.05
20
-97.225
11
303.05
21
-84.225
0
LINE
8
0
10
289.05
20
-84.225
11
289.05
21
-97.225
0
ARC
8
0
10
5.4375
20
-116.325
40
0.5
50
180
51
270
0
ARC
8
0
10
18.4375
20
-116.325
40
0.5
50
270
51
0
0
ARC
8
0
10
18.4375
20
-103.325
40
0.5
50
0
51
90
0
ARC
8
0
10
5.4375
20
-103.325
40
0.5
50
90
51
180
0
LINE
8
0
10
5.4375
20
-116.825
11
18.4375
21
-116.825
0
LINE
8
0
10
18.4375
20
-102.825
11
5.4375
21
-102.825
0
LINE
8
0
10
18.9375
20
-116.325
11
18.9375
21
-103.325
0
LINE
8
0
10
4.9375
20
-103.325
11
4.9375
21
-116.325
0
ARC
8
0
10
5.4375
20
-116.325
40
0.5
50
180
51
270
0
ARC
8
0
10
18.4375
20
-116.325
40
0.5
50
270
51
0
0
ARC
8
0
10
18.4375
20
-103.325
40
0.5
50
0
51
90
0
ARC
8
0
10
5.4375
20
-103.325
40
0.5
50
90
51
180
0
LINE
8
0
10
5.4375
20
-116.825
11
18.4375
21
-116.825
0
LINE
8
0
10
18.4375
20
-102.825
11
5.4375
21
-102.825
0
LINE
8
0
10
18.9375
20
-116.325
11
18.9375
21
-103.325
0
LINE
8
0
10
4.9375
20
-103.325
11
4.9375
21
-116.325
0
ARC
8
0
10
7.825
20
-116.325
40
0.5
50
180
51
270
0
ARC
8
0
10
20.825
20
-116.325
40
0.5
50
270
51
0
0
ARC
8
0
10
20.825
20
-103.325
40
0.5
50
0
51
90
0
ARC
8
0
10
7.825
20
-103.325
40
0.5
50
90
51
180
0
LINE
8
0
10
7.825
20
-116.825
11
20.825
21
-116.825
0
LINE
8
0
10
20.825
20
-102.825
11
7.825
21
-102.825
0
LINE
8
0
10
21.325
20
-116.325
11
21.325
21
-103.325
0
LINE
8
0
10
7.325
20
-103.325
11
7.325
21
-116.325
0
ARC
8
0
10
29.3125
20
-116.325
40
0.5
50
180
51
270
0
ARC
8
0
10
42.3125
20
-116.325
40
0.5
50
270
51
0
0
ARC
8
0
10
42.3125
20
-103.325
40
0.5
50
0
51
90
0
ARC
8
0
10
29.3125
20
-103.325
40
0.5
50
90
51
180
0
LINE
8
0
10
29.3125
20
-116.825
11
42.3125
21
-116.825
0
LINE
8
0
10
42.3125
20
-102.825
11
29.3125
21
-102.825
0
LINE
8
0
10
42.8125
20
-116.325
11
42.8125
21
-103.325
0
LINE
8
0
10
28.8125
20
-103.325
11
28.8125
21
-116.325
0
ARC
8
0
10
29.3125
20
-116.325
40
0.5
50
180
51
270
0
ARC
8
0
10
42.3125
20
-116.325
40
0.5
50
270
51
0
0
ARC
8
0
10
42.3125
20
-103.325
40
0.5
50
0
51
90
0
ARC
8
0
10
29.3125
20
-103.325
40
0.5
50
90
51
180
0
LINE
8
0
10
29.3125
20
-116.825
11
42.3125
21
-116.825
0
LINE
8
0
10
42.3125
20
-102.825
11
29.3125
21
-102.825
0
LINE
8
0
10
42.8125
20
-116.325
11
42.8125
21
-103.325
0
LINE
8
0
10
28.8125
20
-103.325
11
28.8125
21
-116.325
0
ARC
8
0
10
31.7
20
-116.325
40
0.5
50
180
51
270
0
ARC
8
0
10
44.7
20
-116.325
40
0.5
50
270
51
0
0
ARC
8
0
10
44.7
20
-103.325
40
0.5
50
0
51
90
0
ARC
8
0
10
31.7
20
-103.325
40
0.5
50
90
51
180
0
LINE
8
0
10
31.7
20
-116.825
11
44.7
21
-116.825
0
LINE
8
0
10
44.7
20
-102.825
11
31.7
21
-102.825
0
LINE
8
0
10
45.2
20
-116.325
11
45.2
21
-103.325
0
LINE
8
0
10
31.2
20
-103.325
11
31.2
21
-116.325
0
ARC
8
0
10
53.1875
20
-116.325
40
0.5
50
180
51
270
0
ARC
8
0
10
66.1875
20
-116.325
40
0.5
50
270
51
0
0
ARC
8
0
10
66.1875
20
-103.325
40
0.5
50
0
51
90
0
ARC
8
0
10
53.1875
20
-103.325
40
0.5
50
90
51
180
0
LINE
8
0
10
53.1875
20
-116.825
11
66.1875
21
-116.825
0
LINE
8
0
10
66.1875
20
-102.825
11
53.1875
21
-102.825
0
LINE
8
0
10
66.6875
20
-116.325
11
66.6875
21
-103.325
0
LINE
8
0
10
52.6875
20
-103.325
11
52.6875
21
-116.325
0
ARC
8
0
10
53.1875
20
-116.325
40
0.5
50
180
51
270
0
ARC
8
0
10
66.1875
20
-116.325
40
0.5
50
270
51
0
0
ARC
8
0
10
66.1875
20
-103.325
40
0.5
50
0
51
90
0
ARC
8
0
10
53.1875
20
-103.325
40
0.5
50
90
51
180
0
LINE
8
0
10
53.1875
20
-116.825
11
66.1875
21
-116.825
0
LINE
8
0
10
66.1875
20
-102.825
11
53.1875
21
-102.825
0
LINE
8
0
10
66.6875
20
-116.325
11
66.6875
21
-103.325
0
LINE
8
0
10
52.6875
20
-103.325
11
52.6875
21
-116.325
0
ARC
8
0
10
55.575
20
-116.325
40
0.5
50
180
51
270
0
ARC
8
0
10
68.575
20
-116.325
40
0.5
50
270
51
0
0
ARC
8
0
10
68.575
20
-103.325
40
0.5
50
0
51
90
0
ARC
8
0
10
55.575
20
-103.325
40
0.5
50
90
51
180
0
LINE
8
0
10
55.575
20
-116.825
11
68.575
21
-116.825
0
LINE
8
0
10
68.575
20
-102.825
11
55.575
21
-102.825
0
LINE
8
0
10
69.075
20
-116.325
11
69.075
21
-103.325
0
LINE
8
0
10
55.075
20
-103.325
11
55.075
21
-116.325
0
ARC
8
0
10
124.8125
20
-116.325
40
0.5
50
180
51
270
0
ARC
8
0
10
137.8125
20
-116.325
40
0.5
50
270
51
0
0
ARC
8
0
10
137.8125
20
-103.325
40
0.5
50
0
51
90
0
ARC
8
0
10
124.8125
20
-103.325
40
0.5
50
90
51
180
0
LINE
8
0
10
124.8125
20
-116.825
11
137.8125
21
-116.825
0
LINE
8
0
10
137.8125
20
-102.825
11
124.8125
21
-102.825
0
LINE
8
0
10
138.3125
20
-116.325
11
138.3125
21
-103.325
0
LINE
8
0
10
124.3125
20
-103.325
11
124.3125
21
-116.325
0
ARC
8
0
10
184.3125
20
-102.325
40
0.5
50
0
51
90
0
ARC
8
0
10
178.3125
20
-102.325
40
0.5
50
90
51
180
0
ARC
8
0
10
178.3125
20
-116.325
40
0.5
50
180
51
270
0
ARC
8
0
10
184.3125
20
-116.325
40
0.5
50
270
51
0
0
LINE
8
0
10
184.3125
20
-101.825
11
178.3125
21
-101.825
0
LINE
8
0
10
178.3125
20
-116.825
11
184.3125
21
-116.825
0
LINE
8
0
10
177.8125
20
-102.325
11
177.8125
21
-116.325
0
LINE
8
0
10
184.8125
20
-116.325
11
184.8125
21
-102.325
0
ARC
8
0
10
84.3125
20
-102.325
40
0.5
50
0
51
90
0
ARC
8
0
10
78.3125
20
-102.325
40
0.5
50
90
51
180
0
ARC
8
0
10
78.3125
20
-116.325
40
0.5
50
180
51
270
0
ARC
8
0
10
84.3125
20
-116.325
40
0.5
50
270
51
0
0
LINE
8
0
10
84.3125
20
-101.825
11
78.3125
21
-101.825
0
LINE
8
0
10
78.3125
20
-116.825
11
84.3125
21
-116.825
0
LINE
8
0
10
77.8125
20
-102.325
11
77.8125
21
-116.325
0
LINE
8
0
10
84.8125
20
-116.325
11
84.8125
21
-102.325
0
ARC
8
0
10
86.6125
20
-116.325
40
0.5
50
180
51
270
0
ARC
8
0
10
99.6125
20
-116.325
40
0.5
50
270
51
0
0
ARC
8
0
10
99.6125
20
-103.325
40
0.5
50
0
51
90
0
ARC
8
0
10
86.6125
20
-103.325
40
0.5
50
90
51
180
0
LINE
8
0
10
86.6125
20
-116.825
11
99.6125
21
-116.825
0
LINE
8
0
10
99.6125
20
-102.825
11
86.6125
21
-102.825
0
LINE
8
0
10
100.1125
20
-116.325
11
100.1125
21
-103.325
0
LINE
8
0
10
86.1125
20
-103.325
11
86.1125
21
-116.325
0
ARC
8
0
10
108.0505
20
-102.325
40
0.5
50
0
51
90
0
ARC
8
0
10
102.0505
20
-102.325
40
0.5
50
90
51
180
0
ARC
8
0
10
102.0505
20
-116.325
40
0.5
50
180
51
270
0
ARC
8
0
10
108.0505
20
-116.325
40
0.5
50
270
51
0
0
LINE
8
0
10
108.0505
20
-101.825
11
102.0505
21
-101.825
0
LINE
8
0
10
102.0505
20
-116.825
11
108.0505
21
-116.825
0
LINE
8
0
10
101.5505
20
-102.325
11
101.5505
21
-116.325
0
LINE
8
0
10
108.5505
20
-116.325
11
108.5505
21
-102.325
0
ARC
8
0
10
84.1745
20
-102.325
40
0.5
50
0
51
90
0
ARC
8
0
10
78.1745
20
-102.325
40
0.5
50
90
51
180
0
ARC
8
0
10
78.1745
20
-116.325
40
0.5
50
180
51
270
0
ARC
8
0
10
84.1745
20
-116.325
40
0.5
50
270
51
0
0
LINE
8
0
10
84.1745
20
-101.825
11
78.1745
21
-101.825
0
LINE
8
0
10
78.1745
20
-116.825
11
84.1745
21
-116.825
0
LINE
8
0
10
77.6745
20
-102.325
11
77.6745
21
-116.325
0
LINE
8
0
10
84.6745
20
-116.325
11
84.6745
21
-102.325
0
ARC
8
0
10
136.75
20
-116.325
40
0.5
50
180
51
270
0
ARC
8
0
10
149.75
20
-116.325
40
0.5
50
270
51
0
0
ARC
8
0
10
149.75
20
-103.325
40
0.5
50
0
51
90
0
ARC
8
0
10
136.75
20
-103.325
40
0.5
50
90
51
180
0
LINE
8
0
10
136.75
20
-116.825
11
149.75
21
-116.825
0
LINE
8
0
10
149.75
20
-102.825
11
136.75
21
-102.825
0
LINE
8
0
10
150.25
20
-116.325
11
150.25
21
-103.325
0
LINE
8
0
10
136.25
20
-103.325
11
136.25
21
-116.325
0
ARC
8
0
10
203.4
20
-102.325
40
0.5
50
0
51
90
0
ARC
8
0
10
197.4
20
-102.325
40
0.5
50
90
51
180
0
ARC
8
0
10
197.4
20
-116.325
40
0.5
50
180
51
270
0
ARC
8
0
10
203.4
20
-116.325
40
0.5
50
270
51
0
0
LINE
8
0
10
203.4
20
-101.825
11
197.4
21
-101.825
0
LINE
8
0
10
197.4
20
-116.825
11
203.4
21
-116.825
0
LINE
8
0
10
196.9
20
-102.325
11
196.9
21
-116.325
0
LINE
8
0
10
203.9
20
-116.325
11
203.9
21
-102.325
0
ARC
8
0
10
89.1
20
-102.325
40
0.5
50
0
51
90
0
ARC
8
0
10
83.1
20
-102.325
40
0.5
50
90
51
180
0
ARC
8
0
10
83.1
20
-116.325
40
0.5
50
180
51
270
0
ARC
8
0
10
89.1
20
-116.325
40
0.5
50
270
51
0
0
LINE
8
0
10
89.1
20
-101.825
11
83.1
21
-101.825
0
LINE
8
0
10
83.1
20
-116.825
11
89.1
21
-116.825
0
LINE
8
0
10
82.6
20
-102.325
11
82.6
21
-116.325
0
LINE
8
0
10
89.6
20
-116.325
11
89.6
21
-102.325
0
ARC
8
0
10
120.0375
20
-116.325
40
0.5
50
180
51
270
0
ARC
8
0
10
133.0375
20
-116.325
40
0.5
50
270
51
0
0
ARC
8
0
10
133.0375
20
-103.325
40
0.5
50
0
51
90
0
ARC
8
0
10
120.0375
20
-103.325
40
0.5
50
90
51
180
0
LINE
8
0
10
120.0375
20
-116.825
11
133.0375
21
-116.825
0
LINE
8
0
10
133.0375
20
-102.825
11
120.0375
21
-102.825
0
LINE
8
0
10
133.5375
20
-116.325
11
133.5375
21
-103.325
0
LINE
8
0
10
119.5375
20
-103.325
11
119.5375
21
-116.325
0
ARC
8
0
10
158.2375
20
-116.325
40
0.5
50
180
51
270
0
ARC
8
0
10
171.2375
20
-116.325
40
0.5
50
270
51
0
0
ARC
8
0
10
171.2375
20
-103.325
40
0.5
50
0
51
90
0
ARC
8
0
10
158.2375
20
-103.325
40
0.5
50
90
51
180
0
LINE
8
0
10
158.2375
20
-116.825
11
171.2375
21
-116.825
0
LINE
8
0
10
171.2375
20
-102.825
11
158.2375
21
-102.825
0
LINE
8
0
10
171.7375
20
-116.325
11
171.7375
21
-103.325
0
LINE
8
0
10
157.7375
20
-103.325
11
157.7375
21
-116.325
0
ARC
8
0
10
179.6755
20
-102.325
40
0.5
50
0
51
90
0
ARC
8
0
10
173.6755
20
-102.325
40
0.5
50
90
51
180
0
ARC
8
0
10
173.6755
20
-116.325
40
0.5
50
180
51
270
0
ARC
8
0
10
179.6755
20
-116.325
40
0.5
50
270
51
0
0
LINE
8
0
10
179.6755
20
-101.825
11
173.6755
21
-101.825
0
LINE
8
0
10
173.6755
20
-116.825
11
179.6755
21
-116.825
0
LINE
8
0
10
173.1755
20
-102.325
11
173.1755
21
-116.325
0
LINE
8
0
10
180.1755
20
-116.325
11
180.1755
21
-102.325
0
ARC
8
0
10
155.7995
20
-102.325
40
0.5
50
0
51
90
0
ARC
8
0
10
149.7995
20
-102.325
40
0.5
50
90
51
180
0
ARC
8
0
10
149.7995
20
-116.325
40
0.5
50
180
51
270
0
ARC
8
0
10
155.7995
20
-116.325
40
0.5
50
270
51
0
0
LINE
8
0
10
155.7995
20
-101.825
11
149.7995
21
-101.825
0
LINE
8
0
10
149.7995
20
-116.825
11
155.7995
21
-116.825
0
LINE
8
0
10
149.2995
20
-102.325
11
149.2995
21
-116.325
0
LINE
8
0
10
156.2995
20
-116.325
11
156.2995
21
-102.325
0
ARC
8
0
10
196.4375
20
-116.325
40
0.5
50
180
51
270
0
ARC
8
0
10
209.4375
20
-116.325
40
0.5
50
270
51
0
0
ARC
8
0
10
209.4375
20
-103.325
40
0.5
50
0
51
90
0
ARC
8
0
10
196.4375
20
-103.325
40
0.5
50
90
51
180
0
LINE
8
0
10
196.4375
20
-116.825
11
209.4375
21
-116.825
0
LINE
8
0
10
209.4375
20
-102.825
11
196.4375
21
-102.825
0
LINE
8
0
10
209.9375
20
-116.325
11
209.9375
21
-103.325
0
LINE
8
0
10
195.9375
20
-103.325
11
195.9375
21
-116.325
0
ARC
8
0
10
196.4375
20
-116.325
40
0.5
50
180
51
270
0
ARC
8
0
10
209.4375
20
-116.325
40
0.5
50
270
51
0
0
ARC
8
0
10
209.4375
20
-103.325
40
0.5
50
0
51
90
0
ARC
8
0
10
196.4375
20
-103.325
40
0.5
50
90
51
180
0
LINE
8
0
10
196.4375
20
-116.825
11
209.4375
21
-116.825
0
LINE
8
0
10
209.4375
20
-102.825
11
196.4375
21
-102.825
0
LINE
8
0
10
209.9375
20
-116.325
11
209.9375
21
-103.325
0
LINE
8
0
10
195.9375
20
-103.325
11
195.9375
21
-116.325
0
ARC
8
0
10
217.925
20
-116.325
40
0.5
50
180
51
270
0
ARC
8
0
10
230.925
20
-116.325
40
0.5
50
270
51
0
0
ARC
8
0
10
230.925
20
-103.325
40
0.5
50
0
51
90
0
ARC
8
0
10
217.925
20
-103.325
40
0.5
50
90
51
180
0
LINE
8
0
10
217.925
20
-116.825
11
230.925
21
-116.825
0
LINE
8
0
10
230.925
20
-102.825
11
217.925
21
-102.825
0
LINE
8
0
10
231.425
20
-116.325
11
231.425
21
-103.325
0
LINE
8
0
10
217.425
20
-103.325
11
217.425
21
-116.325
0
ARC
8
0
10
220.3125
20
-116.325
40
0.5
50
180
51
270
0
ARC
8
0
10
233.3125
20
-116.325
40
0.5
50
270
51
0
0
ARC
8
0
10
233.3125
20
-103.325
40
0.5
50
0
51
90
0
ARC
8
0
10
220.3125
20
-103.325
40
0.5
50
90
51
180
0
LINE
8
0
10
220.3125
20
-116.825
11
233.3125
21
-116.825
0
LINE
8
0
10
233.3125
20
-102.825
11
220.3125
21
-102.825
0
LINE
8
0
10
233.8125
20
-116.325
11
233.8125
21
-103.325
0
LINE
8
0
10
219.8125
20
-103.325
11
219.8125
21
-116.325
0
ARC
8
0
10
220.3125
20
-116.325
40
0.5
50
180
51
270
0
ARC
8
0
10
233.3125
20
-116.325
40
0.5
50
270
51
0
0
ARC
8
0
10
233.3125
20
-103.325
40
0.5
50
0
51
90
0
ARC
8
0
10
220.3125
20
-103.325
40
0.5
50
90
51
180
0
LINE
8
0
10
220.3125
20
-116.825
11
233.3125
21
-116.825
0
LINE
8
0
10
233.3125
20
-102.825
11
220.3125
21
-102.825
0
LINE
8
0
10
233.8125
20
-116.325
11
233.8125
21
-103.325
0
LINE
8
0
10
219.8125
20
-103.325
11
219.8125
21
-116.325
0
ARC
8
0
10
251.35
20
-116.325
40
0.5
50
180
51
270
0
ARC
8
0
10
264.35
20
-116.325
40
0.5
50
270
51
0
0
ARC
8
0
10
264.35
20
-103.325
40
0.5
50
0
51
90
0
ARC
8
0
10
251.35
20
-103.325
40
0.5
50
90
51
180
0
LINE
8
0
10
251.35
20
-116.825
11
264.35
21
-116.825
0
LINE
8
0
10
264.35
20
-102.825
11
251.35
21
-102.825
0
LINE
8
0
10
264.85
20
-116.325
11
264.85
21
-103.325
0
LINE
8
0
10
250.85
20
-103.325
11
250.85
21
-116.325
0
ARC
8
0
10
270.45
20
-116.325
40
0.5
50
180
51
270
0
ARC
8
0
10
283.45
20
-116.325
40
0.5
50
270
51
0
0
ARC
8
0
10
283.45
20
-103.325
40
0.5
50
0
51
90
0
ARC
8
0
10
270.45
20
-103.325
40
0.5
50
90
51
180
0
LINE
8
0
10
270.45
20
-116.825
11
283.45
21
-116.825
0
LINE
8
0
10
283.45
20
-102.825
11
270.45
21
-102.825
0
LINE
8
0
10
283.95
20
-116.325
11
283.95
21
-103.325
0
LINE
8
0
10
269.95
20
-103.325
11
269.95
21
-116.325
0
ARC
8
0
10
289.55
20
-116.325
40
0.5
50
180
51
270
0
ARC
8
0
10
302.55
20
-116.325
40
0.5
50
270
51
0
0
ARC
8
0
10
302.55
20
-103.325
40
0.5
50
0
51
90
0
ARC
8
0
10
289.55
20
-103.325
40
0.5
50
90
51
180
0
LINE
8
0
10
289.55
20
-116.825
11
302.55
21
-116.825
0
LINE
8
0
10
302.55
20
-102.825
11
289.55
21
-102.825
0
LINE
8
0
10
303.05
20
-116.325
11
303.05
21
-103.325
0
LINE
8
0
10
289.05
20
-103.325
11
289.05
21
-116.325
0
ENDSEC
0
EOF