%FSLAX45Y45*%
G04 Gerber Fmt 4.5, Leading zero omitted, Abs format (unit mm)*
G04 Created by KiCad (PCBNEW (6.0.0-0)) date 2022-10-17 22:47:27*
%MOMM*%
%LPD*%
G01*
G04 APERTURE LIST*
%TA.AperFunction,Profile*%
%ADD10C,0.150000*%
%TD*%
%ADD11C,0.200000*%
%ADD12C,0.220000*%
G04 APERTURE END LIST*
D10*
X36767500Y-18622500D02*
X36767500Y-6685000D01*
X5252500Y-6207500D02*
G75*
G03*
X4775000Y-6685000I0J-477500D01*
G01*
X4775000Y-18622500D02*
G75*
G03*
X5252500Y-19100000I477500J0D01*
G01*
X36290000Y-6207500D02*
X5252500Y-6207500D01*
X36767500Y-6685000D02*
G75*
G03*
X36290000Y-6207500I-477500J0D01*
G01*
X5252500Y-19100000D02*
X36290000Y-19100000D01*
X4775000Y-6685000D02*
X4775000Y-18622500D01*
X36290000Y-19100000D02*
G75*
G03*
X36767500Y-18622500I0J477500D01*
G01*
D11*
D12*
X5142500Y-9201250D02*
X5362500Y-9421250D01*
X5362500Y-9201250D02*
X5142500Y-9421250D01*
X5142500Y-9201250D02*
X5362500Y-9421250D01*
X5362500Y-9201250D02*
X5142500Y-9421250D01*
X5142500Y-13737500D02*
X5362500Y-13957500D01*
X5362500Y-13737500D02*
X5142500Y-13957500D01*
X5142500Y-18512500D02*
X5362500Y-18732500D01*
X5362500Y-18512500D02*
X5142500Y-18732500D01*
X5142500Y-18512500D02*
X5362500Y-18732500D01*
X5362500Y-18512500D02*
X5142500Y-18732500D01*
X13021250Y-18512500D02*
X13241250Y-18732500D01*
X13241250Y-18512500D02*
X13021250Y-18732500D01*
X20661250Y-18512500D02*
X20881250Y-18732500D01*
X20881250Y-18512500D02*
X20661250Y-18732500D01*
X28301250Y-18512500D02*
X28521250Y-18732500D01*
X28521250Y-18512500D02*
X28301250Y-18732500D01*
X36180000Y-9201250D02*
X36400000Y-9421250D01*
X36400000Y-9201250D02*
X36180000Y-9421250D01*
X36180000Y-13737500D02*
X36400000Y-13957500D01*
X36400000Y-13737500D02*
X36180000Y-13957500D01*
X36180000Y-18512500D02*
X36400000Y-18732500D01*
X36400000Y-18512500D02*
X36180000Y-18732500D01*
D11*
X5025119Y-19417976D02*
X5025119Y-19217976D01*
X5072738Y-19217976D01*
X5101310Y-19227500D01*
X5120357Y-19246548D01*
X5129881Y-19265595D01*
X5139405Y-19303690D01*
X5139405Y-19332262D01*
X5129881Y-19370357D01*
X5120357Y-19389405D01*
X5101310Y-19408452D01*
X5072738Y-19417976D01*
X5025119Y-19417976D01*
X5225119Y-19417976D02*
X5225119Y-19284643D01*
X5225119Y-19322738D02*
X5234643Y-19303690D01*
X5244167Y-19294167D01*
X5263214Y-19284643D01*
X5282262Y-19284643D01*
X5348929Y-19417976D02*
X5348929Y-19284643D01*
X5348929Y-19217976D02*
X5339405Y-19227500D01*
X5348929Y-19237024D01*
X5358452Y-19227500D01*
X5348929Y-19217976D01*
X5348929Y-19237024D01*
X5472738Y-19417976D02*
X5453690Y-19408452D01*
X5444167Y-19389405D01*
X5444167Y-19217976D01*
X5577500Y-19417976D02*
X5558452Y-19408452D01*
X5548929Y-19389405D01*
X5548929Y-19217976D01*
X5806071Y-19417976D02*
X5806071Y-19217976D01*
X5872738Y-19360833D01*
X5939405Y-19217976D01*
X5939405Y-19417976D01*
X6120357Y-19417976D02*
X6120357Y-19313214D01*
X6110833Y-19294167D01*
X6091786Y-19284643D01*
X6053690Y-19284643D01*
X6034643Y-19294167D01*
X6120357Y-19408452D02*
X6101309Y-19417976D01*
X6053690Y-19417976D01*
X6034643Y-19408452D01*
X6025119Y-19389405D01*
X6025119Y-19370357D01*
X6034643Y-19351310D01*
X6053690Y-19341786D01*
X6101309Y-19341786D01*
X6120357Y-19332262D01*
X6215595Y-19284643D02*
X6215595Y-19484643D01*
X6215595Y-19294167D02*
X6234643Y-19284643D01*
X6272738Y-19284643D01*
X6291786Y-19294167D01*
X6301309Y-19303690D01*
X6310833Y-19322738D01*
X6310833Y-19379881D01*
X6301309Y-19398929D01*
X6291786Y-19408452D01*
X6272738Y-19417976D01*
X6234643Y-19417976D01*
X6215595Y-19408452D01*
X6396548Y-19398929D02*
X6406071Y-19408452D01*
X6396548Y-19417976D01*
X6387024Y-19408452D01*
X6396548Y-19398929D01*
X6396548Y-19417976D01*
X6396548Y-19294167D02*
X6406071Y-19303690D01*
X6396548Y-19313214D01*
X6387024Y-19303690D01*
X6396548Y-19294167D01*
X6396548Y-19313214D01*
X4567500Y-19647500D02*
X4767500Y-19847500D01*
X4767500Y-19647500D02*
X4567500Y-19847500D01*
X5015595Y-19657024D02*
X5025119Y-19647500D01*
X5044167Y-19637976D01*
X5091786Y-19637976D01*
X5110833Y-19647500D01*
X5120357Y-19657024D01*
X5129881Y-19676071D01*
X5129881Y-19695119D01*
X5120357Y-19723690D01*
X5006071Y-19837976D01*
X5129881Y-19837976D01*
X5215595Y-19818929D02*
X5225119Y-19828452D01*
X5215595Y-19837976D01*
X5206071Y-19828452D01*
X5215595Y-19818929D01*
X5215595Y-19837976D01*
X5301310Y-19657024D02*
X5310833Y-19647500D01*
X5329881Y-19637976D01*
X5377500Y-19637976D01*
X5396548Y-19647500D01*
X5406071Y-19657024D01*
X5415595Y-19676071D01*
X5415595Y-19695119D01*
X5406071Y-19723690D01*
X5291786Y-19837976D01*
X5415595Y-19837976D01*
X5539405Y-19637976D02*
X5558452Y-19637976D01*
X5577500Y-19647500D01*
X5587024Y-19657024D01*
X5596548Y-19676071D01*
X5606071Y-19714167D01*
X5606071Y-19761786D01*
X5596548Y-19799881D01*
X5587024Y-19818929D01*
X5577500Y-19828452D01*
X5558452Y-19837976D01*
X5539405Y-19837976D01*
X5520357Y-19828452D01*
X5510833Y-19818929D01*
X5501310Y-19799881D01*
X5491786Y-19761786D01*
X5491786Y-19714167D01*
X5501310Y-19676071D01*
X5510833Y-19657024D01*
X5520357Y-19647500D01*
X5539405Y-19637976D01*
X5729881Y-19637976D02*
X5748928Y-19637976D01*
X5767976Y-19647500D01*
X5777500Y-19657024D01*
X5787024Y-19676071D01*
X5796548Y-19714167D01*
X5796548Y-19761786D01*
X5787024Y-19799881D01*
X5777500Y-19818929D01*
X5767976Y-19828452D01*
X5748928Y-19837976D01*
X5729881Y-19837976D01*
X5710833Y-19828452D01*
X5701309Y-19818929D01*
X5691786Y-19799881D01*
X5682262Y-19761786D01*
X5682262Y-19714167D01*
X5691786Y-19676071D01*
X5701309Y-19657024D01*
X5710833Y-19647500D01*
X5729881Y-19637976D01*
X5882262Y-19837976D02*
X5882262Y-19704643D01*
X5882262Y-19723690D02*
X5891786Y-19714167D01*
X5910833Y-19704643D01*
X5939405Y-19704643D01*
X5958452Y-19714167D01*
X5967976Y-19733214D01*
X5967976Y-19837976D01*
X5967976Y-19733214D02*
X5977500Y-19714167D01*
X5996548Y-19704643D01*
X6025119Y-19704643D01*
X6044167Y-19714167D01*
X6053690Y-19733214D01*
X6053690Y-19837976D01*
X6148928Y-19837976D02*
X6148928Y-19704643D01*
X6148928Y-19723690D02*
X6158452Y-19714167D01*
X6177500Y-19704643D01*
X6206071Y-19704643D01*
X6225119Y-19714167D01*
X6234643Y-19733214D01*
X6234643Y-19837976D01*
X6234643Y-19733214D02*
X6244167Y-19714167D01*
X6263214Y-19704643D01*
X6291786Y-19704643D01*
X6310833Y-19714167D01*
X6320357Y-19733214D01*
X6320357Y-19837976D01*
X6710833Y-19628452D02*
X6539405Y-19885595D01*
X6967976Y-19637976D02*
X6987024Y-19637976D01*
X7006071Y-19647500D01*
X7015595Y-19657024D01*
X7025119Y-19676071D01*
X7034643Y-19714167D01*
X7034643Y-19761786D01*
X7025119Y-19799881D01*
X7015595Y-19818929D01*
X7006071Y-19828452D01*
X6987024Y-19837976D01*
X6967976Y-19837976D01*
X6948928Y-19828452D01*
X6939405Y-19818929D01*
X6929881Y-19799881D01*
X6920357Y-19761786D01*
X6920357Y-19714167D01*
X6929881Y-19676071D01*
X6939405Y-19657024D01*
X6948928Y-19647500D01*
X6967976Y-19637976D01*
X7120357Y-19818929D02*
X7129881Y-19828452D01*
X7120357Y-19837976D01*
X7110833Y-19828452D01*
X7120357Y-19818929D01*
X7120357Y-19837976D01*
X7253690Y-19637976D02*
X7272738Y-19637976D01*
X7291786Y-19647500D01*
X7301309Y-19657024D01*
X7310833Y-19676071D01*
X7320357Y-19714167D01*
X7320357Y-19761786D01*
X7310833Y-19799881D01*
X7301309Y-19818929D01*
X7291786Y-19828452D01*
X7272738Y-19837976D01*
X7253690Y-19837976D01*
X7234643Y-19828452D01*
X7225119Y-19818929D01*
X7215595Y-19799881D01*
X7206071Y-19761786D01*
X7206071Y-19714167D01*
X7215595Y-19676071D01*
X7225119Y-19657024D01*
X7234643Y-19647500D01*
X7253690Y-19637976D01*
X7434643Y-19723690D02*
X7415595Y-19714167D01*
X7406071Y-19704643D01*
X7396548Y-19685595D01*
X7396548Y-19676071D01*
X7406071Y-19657024D01*
X7415595Y-19647500D01*
X7434643Y-19637976D01*
X7472738Y-19637976D01*
X7491786Y-19647500D01*
X7501309Y-19657024D01*
X7510833Y-19676071D01*
X7510833Y-19685595D01*
X7501309Y-19704643D01*
X7491786Y-19714167D01*
X7472738Y-19723690D01*
X7434643Y-19723690D01*
X7415595Y-19733214D01*
X7406071Y-19742738D01*
X7396548Y-19761786D01*
X7396548Y-19799881D01*
X7406071Y-19818929D01*
X7415595Y-19828452D01*
X7434643Y-19837976D01*
X7472738Y-19837976D01*
X7491786Y-19828452D01*
X7501309Y-19818929D01*
X7510833Y-19799881D01*
X7510833Y-19761786D01*
X7501309Y-19742738D01*
X7491786Y-19733214D01*
X7472738Y-19723690D01*
X7682262Y-19637976D02*
X7644167Y-19637976D01*
X7625119Y-19647500D01*
X7615595Y-19657024D01*
X7596548Y-19685595D01*
X7587024Y-19723690D01*
X7587024Y-19799881D01*
X7596548Y-19818929D01*
X7606071Y-19828452D01*
X7625119Y-19837976D01*
X7663214Y-19837976D01*
X7682262Y-19828452D01*
X7691786Y-19818929D01*
X7701309Y-19799881D01*
X7701309Y-19752262D01*
X7691786Y-19733214D01*
X7682262Y-19723690D01*
X7663214Y-19714167D01*
X7625119Y-19714167D01*
X7606071Y-19723690D01*
X7596548Y-19733214D01*
X7587024Y-19752262D01*
X7872738Y-19637976D02*
X7834643Y-19637976D01*
X7815595Y-19647500D01*
X7806071Y-19657024D01*
X7787024Y-19685595D01*
X7777500Y-19723690D01*
X7777500Y-19799881D01*
X7787024Y-19818929D01*
X7796548Y-19828452D01*
X7815595Y-19837976D01*
X7853690Y-19837976D01*
X7872738Y-19828452D01*
X7882262Y-19818929D01*
X7891786Y-19799881D01*
X7891786Y-19752262D01*
X7882262Y-19733214D01*
X7872738Y-19723690D01*
X7853690Y-19714167D01*
X7815595Y-19714167D01*
X7796548Y-19723690D01*
X7787024Y-19733214D01*
X7777500Y-19752262D01*
X7967976Y-19637976D02*
X7967976Y-19676071D01*
X8044167Y-19637976D02*
X8044167Y-19676071D01*
X8339405Y-19914167D02*
X8329881Y-19904643D01*
X8310833Y-19876071D01*
X8301309Y-19857024D01*
X8291786Y-19828452D01*
X8282262Y-19780833D01*
X8282262Y-19742738D01*
X8291786Y-19695119D01*
X8301309Y-19666548D01*
X8310833Y-19647500D01*
X8329881Y-19618929D01*
X8339405Y-19609405D01*
X8520357Y-19837976D02*
X8406071Y-19837976D01*
X8463214Y-19837976D02*
X8463214Y-19637976D01*
X8444167Y-19666548D01*
X8425119Y-19685595D01*
X8406071Y-19695119D01*
X8710833Y-19837976D02*
X8596548Y-19837976D01*
X8653690Y-19837976D02*
X8653690Y-19637976D01*
X8634643Y-19666548D01*
X8615595Y-19685595D01*
X8596548Y-19695119D01*
X8948929Y-19837976D02*
X8948929Y-19637976D01*
X9034643Y-19837976D02*
X9034643Y-19733214D01*
X9025119Y-19714167D01*
X9006071Y-19704643D01*
X8977500Y-19704643D01*
X8958452Y-19714167D01*
X8948929Y-19723690D01*
X9158452Y-19837976D02*
X9139405Y-19828452D01*
X9129881Y-19818929D01*
X9120357Y-19799881D01*
X9120357Y-19742738D01*
X9129881Y-19723690D01*
X9139405Y-19714167D01*
X9158452Y-19704643D01*
X9187024Y-19704643D01*
X9206071Y-19714167D01*
X9215595Y-19723690D01*
X9225119Y-19742738D01*
X9225119Y-19799881D01*
X9215595Y-19818929D01*
X9206071Y-19828452D01*
X9187024Y-19837976D01*
X9158452Y-19837976D01*
X9339405Y-19837976D02*
X9320357Y-19828452D01*
X9310833Y-19809405D01*
X9310833Y-19637976D01*
X9491786Y-19828452D02*
X9472738Y-19837976D01*
X9434643Y-19837976D01*
X9415595Y-19828452D01*
X9406071Y-19809405D01*
X9406071Y-19733214D01*
X9415595Y-19714167D01*
X9434643Y-19704643D01*
X9472738Y-19704643D01*
X9491786Y-19714167D01*
X9501310Y-19733214D01*
X9501310Y-19752262D01*
X9406071Y-19771310D01*
X9577500Y-19828452D02*
X9596548Y-19837976D01*
X9634643Y-19837976D01*
X9653690Y-19828452D01*
X9663214Y-19809405D01*
X9663214Y-19799881D01*
X9653690Y-19780833D01*
X9634643Y-19771310D01*
X9606071Y-19771310D01*
X9587024Y-19761786D01*
X9577500Y-19742738D01*
X9577500Y-19733214D01*
X9587024Y-19714167D01*
X9606071Y-19704643D01*
X9634643Y-19704643D01*
X9653690Y-19714167D01*
X9729881Y-19914167D02*
X9739405Y-19904643D01*
X9758452Y-19876071D01*
X9767976Y-19857024D01*
X9777500Y-19828452D01*
X9787024Y-19780833D01*
X9787024Y-19742738D01*
X9777500Y-19695119D01*
X9767976Y-19666548D01*
X9758452Y-19647500D01*
X9739405Y-19618929D01*
X9729881Y-19609405D01*
X10091786Y-19914167D02*
X10082262Y-19904643D01*
X10063214Y-19876071D01*
X10053690Y-19857024D01*
X10044167Y-19828452D01*
X10034643Y-19780833D01*
X10034643Y-19742738D01*
X10044167Y-19695119D01*
X10053690Y-19666548D01*
X10063214Y-19647500D01*
X10082262Y-19618929D01*
X10091786Y-19609405D01*
X10167976Y-19704643D02*
X10167976Y-19837976D01*
X10167976Y-19723690D02*
X10177500Y-19714167D01*
X10196548Y-19704643D01*
X10225119Y-19704643D01*
X10244167Y-19714167D01*
X10253690Y-19733214D01*
X10253690Y-19837976D01*
X10377500Y-19837976D02*
X10358452Y-19828452D01*
X10348929Y-19818929D01*
X10339405Y-19799881D01*
X10339405Y-19742738D01*
X10348929Y-19723690D01*
X10358452Y-19714167D01*
X10377500Y-19704643D01*
X10406071Y-19704643D01*
X10425119Y-19714167D01*
X10434643Y-19723690D01*
X10444167Y-19742738D01*
X10444167Y-19799881D01*
X10434643Y-19818929D01*
X10425119Y-19828452D01*
X10406071Y-19837976D01*
X10377500Y-19837976D01*
X10501310Y-19704643D02*
X10577500Y-19704643D01*
X10529881Y-19637976D02*
X10529881Y-19809405D01*
X10539405Y-19828452D01*
X10558452Y-19837976D01*
X10577500Y-19837976D01*
X10796548Y-19704643D02*
X10796548Y-19904643D01*
X10796548Y-19714167D02*
X10815595Y-19704643D01*
X10853690Y-19704643D01*
X10872738Y-19714167D01*
X10882262Y-19723690D01*
X10891786Y-19742738D01*
X10891786Y-19799881D01*
X10882262Y-19818929D01*
X10872738Y-19828452D01*
X10853690Y-19837976D01*
X10815595Y-19837976D01*
X10796548Y-19828452D01*
X11006071Y-19837976D02*
X10987024Y-19828452D01*
X10977500Y-19809405D01*
X10977500Y-19637976D01*
X11167976Y-19837976D02*
X11167976Y-19733214D01*
X11158452Y-19714167D01*
X11139405Y-19704643D01*
X11101310Y-19704643D01*
X11082262Y-19714167D01*
X11167976Y-19828452D02*
X11148929Y-19837976D01*
X11101310Y-19837976D01*
X11082262Y-19828452D01*
X11072738Y-19809405D01*
X11072738Y-19790357D01*
X11082262Y-19771310D01*
X11101310Y-19761786D01*
X11148929Y-19761786D01*
X11167976Y-19752262D01*
X11234643Y-19704643D02*
X11310833Y-19704643D01*
X11263214Y-19637976D02*
X11263214Y-19809405D01*
X11272738Y-19828452D01*
X11291786Y-19837976D01*
X11310833Y-19837976D01*
X11453690Y-19828452D02*
X11434643Y-19837976D01*
X11396548Y-19837976D01*
X11377500Y-19828452D01*
X11367976Y-19809405D01*
X11367976Y-19733214D01*
X11377500Y-19714167D01*
X11396548Y-19704643D01*
X11434643Y-19704643D01*
X11453690Y-19714167D01*
X11463214Y-19733214D01*
X11463214Y-19752262D01*
X11367976Y-19771310D01*
X11634643Y-19837976D02*
X11634643Y-19637976D01*
X11634643Y-19828452D02*
X11615595Y-19837976D01*
X11577500Y-19837976D01*
X11558452Y-19828452D01*
X11548928Y-19818929D01*
X11539405Y-19799881D01*
X11539405Y-19742738D01*
X11548928Y-19723690D01*
X11558452Y-19714167D01*
X11577500Y-19704643D01*
X11615595Y-19704643D01*
X11634643Y-19714167D01*
X11710833Y-19914167D02*
X11720357Y-19904643D01*
X11739405Y-19876071D01*
X11748928Y-19857024D01*
X11758452Y-19828452D01*
X11767976Y-19780833D01*
X11767976Y-19742738D01*
X11758452Y-19695119D01*
X11748928Y-19666548D01*
X11739405Y-19647500D01*
X11720357Y-19618929D01*
X11710833Y-19609405D01*
M02*
