%FSLAX45Y45*%
G04 Gerber Fmt 4.5, Leading zero omitted, Abs format (unit mm)*
G04 Created by KiCad (PCBNEW (6.0.0-0)) date 2022-10-17 22:45:53*
%MOMM*%
%LPD*%
G01*
G04 APERTURE LIST*
%TA.AperFunction,Profile*%
%ADD10C,0.050000*%
%TD*%
%TA.AperFunction,Profile*%
%ADD11C,0.150000*%
%TD*%
%ADD12C,0.200000*%
%ADD13C,0.220000*%
G04 APERTURE END LIST*
D10*
X13675000Y-12908750D02*
G75*
G03*
X13625000Y-12958750I0J-50000D01*
G01*
X21076250Y-14818750D02*
G75*
G03*
X21026250Y-14868750I0J-50000D01*
G01*
D11*
X36051250Y-4297500D02*
X27456250Y-4297500D01*
D10*
X29382500Y-9138750D02*
X29382500Y-10438750D01*
X30337500Y-7228750D02*
X30337500Y-8528750D01*
X6557000Y-14309250D02*
X8245000Y-14309250D01*
X34157500Y-5063750D02*
X34157500Y-6363750D01*
X27950000Y-12348750D02*
G75*
G03*
X28000000Y-12398750I50000J0D01*
G01*
X18367500Y-7228750D02*
G75*
G03*
X18317500Y-7178750I-50000J0D01*
G01*
X30909950Y-12398750D02*
X32403750Y-12398750D01*
X14547500Y-8528750D02*
X14547500Y-7228750D01*
X33597500Y-6413750D02*
G75*
G03*
X33647500Y-6363750I0J50000D01*
G01*
X13065000Y-12908750D02*
X11765000Y-12908750D01*
X15025000Y-12958750D02*
G75*
G03*
X14975000Y-12908750I-50000J0D01*
G01*
X32297500Y-16218750D02*
X33597500Y-16218750D01*
X24575000Y-14258750D02*
X24575000Y-12958750D01*
X32297500Y-6413750D02*
X33597500Y-6413750D01*
X27917500Y-8528750D02*
X27917500Y-7228750D01*
X33597500Y-12908750D02*
X32297500Y-12908750D01*
X16967500Y-8528750D02*
G75*
G03*
X17017500Y-8578750I50000J0D01*
G01*
X11155000Y-12908750D02*
X9855000Y-12908750D01*
X25480000Y-10998750D02*
X24180000Y-10998750D01*
X24896250Y-14818750D02*
G75*
G03*
X24846250Y-14868750I0J-50000D01*
G01*
X34157500Y-14258750D02*
G75*
G03*
X34207500Y-14308750I50000J0D01*
G01*
X9722500Y-16218750D02*
G75*
G03*
X9772500Y-16168750I0J50000D01*
G01*
X10200000Y-12398750D02*
G75*
G03*
X10250000Y-12348750I0J50000D01*
G01*
X15457550Y-16218750D02*
X16057550Y-16218750D01*
X12110000Y-12398750D02*
G75*
G03*
X12160000Y-12348750I0J50000D01*
G01*
X8245050Y-14358750D02*
G75*
G03*
X8295050Y-14408750I50000J0D01*
G01*
X33358750Y-11587550D02*
X33297550Y-11587550D01*
X34157500Y-16168750D02*
G75*
G03*
X34207500Y-16218750I50000J0D01*
G01*
X25085000Y-12958750D02*
X25085000Y-14258750D01*
X9245000Y-12908750D02*
X7945000Y-12908750D01*
X18450000Y-12398750D02*
X19750000Y-12398750D01*
X14630000Y-10998750D02*
G75*
G03*
X14580000Y-11048750I0J-50000D01*
G01*
X13115000Y-14258750D02*
X13115000Y-12958750D01*
X31098700Y-8678750D02*
G75*
G03*
X31148700Y-8628750I0J50000D01*
G01*
X5796250Y-14308750D02*
X5857450Y-14309250D01*
X33408750Y-10093750D02*
G75*
G03*
X33358750Y-10043750I-50000J0D01*
G01*
X31820000Y-9088750D02*
G75*
G03*
X31770000Y-9138750I0J-50000D01*
G01*
X8183750Y-14818750D02*
G75*
G03*
X8133750Y-14868750I0J-50000D01*
G01*
X26196250Y-14818750D02*
X25642500Y-14818750D01*
X15057500Y-7228750D02*
X15057500Y-8528750D01*
X7467500Y-7178750D02*
G75*
G03*
X7417500Y-7228750I0J-50000D01*
G01*
X13147500Y-7228750D02*
X13147500Y-8528750D01*
X32642500Y-7178750D02*
X31342500Y-7178750D01*
X27950000Y-11048750D02*
X27950000Y-12348750D01*
D11*
X36051250Y-17190000D02*
G75*
G03*
X36528750Y-16712500I0J477500D01*
G01*
D10*
X10200000Y-10998750D02*
X8900000Y-10998750D01*
X35507500Y-6413750D02*
G75*
G03*
X35557500Y-6363750I0J50000D01*
G01*
X30732500Y-10488750D02*
G75*
G03*
X30782500Y-10438750I0J50000D01*
G01*
X33597500Y-14818750D02*
X32297500Y-14818750D01*
X12110000Y-14818750D02*
X10571250Y-14818750D01*
X27045000Y-14308750D02*
X28345000Y-14308750D01*
X34207500Y-16218750D02*
X35507500Y-16218750D01*
X33358750Y-12287550D02*
G75*
G03*
X33408750Y-12237550I0J50000D01*
G01*
X23570000Y-12398750D02*
G75*
G03*
X23620000Y-12348750I0J50000D01*
G01*
X22747500Y-7178750D02*
G75*
G03*
X22697500Y-7228750I0J-50000D01*
G01*
X25002500Y-10488750D02*
G75*
G03*
X25052500Y-10438750I0J50000D01*
G01*
X35557500Y-10438750D02*
X35557500Y-9138750D01*
X20310000Y-11048750D02*
X20310000Y-12348750D01*
X5746250Y-14868750D02*
X5746250Y-16168750D01*
X11287500Y-8578750D02*
X12587500Y-8578750D01*
X34207500Y-6413750D02*
X35507500Y-6413750D01*
X19832500Y-10438750D02*
G75*
G03*
X19882500Y-10488750I50000J0D01*
G01*
X12587500Y-7178750D02*
X11287500Y-7178750D01*
X35557500Y-8528750D02*
X35557500Y-7228750D01*
X14580000Y-12348750D02*
G75*
G03*
X14630000Y-12398750I50000J0D01*
G01*
X15535000Y-14258750D02*
G75*
G03*
X15585000Y-14308750I50000J0D01*
G01*
X20277500Y-7228750D02*
G75*
G03*
X20227500Y-7178750I-50000J0D01*
G01*
X29827500Y-8528750D02*
X29827500Y-7228750D01*
X12160000Y-14868750D02*
G75*
G03*
X12110000Y-14818750I-50000J0D01*
G01*
X17890000Y-12348750D02*
X17890000Y-11048750D01*
X12242500Y-9088750D02*
G75*
G03*
X12192500Y-9138750I0J-50000D01*
G01*
X5507500Y-7228750D02*
X5507500Y-8528750D01*
X22665000Y-12958750D02*
G75*
G03*
X22615000Y-12908750I-50000J0D01*
G01*
X25592500Y-14718750D02*
X24992500Y-14718750D01*
X8051250Y-12908750D02*
X6751250Y-12908750D01*
X35507500Y-5013750D02*
X34207500Y-5013750D01*
X35507500Y-7178750D02*
X34207500Y-7178750D01*
X21710000Y-12348750D02*
X21710000Y-11048750D01*
X12670000Y-11048750D02*
X12670000Y-12348750D01*
X18317500Y-8578750D02*
G75*
G03*
X18367500Y-8528750I0J50000D01*
G01*
X17922500Y-9138750D02*
X17922500Y-10438750D01*
X26090000Y-12398750D02*
X27390000Y-12398750D01*
X23620000Y-12348750D02*
X23620000Y-11048750D01*
X33647500Y-7228750D02*
G75*
G03*
X33597500Y-7178750I-50000J0D01*
G01*
X27522500Y-10488750D02*
X28822500Y-10488750D01*
X5857450Y-14309250D02*
X5857450Y-14358750D01*
X25530000Y-12348750D02*
X25530000Y-11048750D01*
X30782500Y-10438750D02*
X30782500Y-9138750D01*
X27472500Y-10438750D02*
G75*
G03*
X27522500Y-10488750I50000J0D01*
G01*
X15930000Y-12398750D02*
G75*
G03*
X15980000Y-12348750I0J50000D01*
G01*
X26435000Y-12908750D02*
X25135000Y-12908750D01*
X28477500Y-7178750D02*
G75*
G03*
X28427500Y-7228750I0J-50000D01*
G01*
X7623750Y-12348750D02*
X7623750Y-11048750D01*
X18927500Y-8578750D02*
X20227500Y-8578750D01*
X27045000Y-14818750D02*
G75*
G03*
X26995000Y-14868750I0J-50000D01*
G01*
X20232450Y-14718750D02*
G75*
G03*
X20182450Y-14768750I0J-50000D01*
G01*
X30971250Y-14308750D02*
G75*
G03*
X31021250Y-14258750I0J50000D01*
G01*
X10521250Y-14868750D02*
X10521250Y-16168750D01*
X16062500Y-10488750D02*
X17362500Y-10488750D01*
X30387500Y-7178750D02*
G75*
G03*
X30337500Y-7228750I0J-50000D01*
G01*
X30448700Y-8628750D02*
G75*
G03*
X30498700Y-8678750I50000J0D01*
G01*
X25530000Y-11048750D02*
G75*
G03*
X25480000Y-10998750I-50000J0D01*
G01*
X32008750Y-10998750D02*
X29910000Y-10998750D01*
X26995000Y-14868750D02*
X26995000Y-16168750D01*
X19322500Y-9138750D02*
G75*
G03*
X19272500Y-9088750I-50000J0D01*
G01*
X18795000Y-12908750D02*
X17495000Y-12908750D01*
X22137500Y-7178750D02*
X20837500Y-7178750D01*
X5557500Y-7178750D02*
G75*
G03*
X5507500Y-7228750I0J-50000D01*
G01*
X35557500Y-14258750D02*
X35557500Y-12958750D01*
X26246250Y-16168750D02*
X26246250Y-14868750D01*
X26995000Y-12958750D02*
X26995000Y-14258750D01*
X11205000Y-12958750D02*
G75*
G03*
X11155000Y-12908750I-50000J0D01*
G01*
X22615000Y-14308750D02*
G75*
G03*
X22665000Y-14258750I0J50000D01*
G01*
X6907500Y-8528750D02*
X6907500Y-7228750D01*
D11*
X4536250Y-16712500D02*
X4536250Y-7401250D01*
D10*
X23142500Y-9138750D02*
G75*
G03*
X23092500Y-9088750I-50000J0D01*
G01*
D11*
X36528750Y-16712500D02*
X36528750Y-4775000D01*
D10*
X35557500Y-12348750D02*
X35557500Y-11048750D01*
X22187500Y-7228750D02*
G75*
G03*
X22137500Y-7178750I-50000J0D01*
G01*
X5796250Y-10998750D02*
G75*
G03*
X5746250Y-11048750I0J-50000D01*
G01*
X26517500Y-7228750D02*
X26517500Y-8528750D01*
X32247500Y-5063750D02*
X32247500Y-6363750D01*
X28000000Y-10998750D02*
G75*
G03*
X27950000Y-11048750I0J-50000D01*
G01*
X19405000Y-14308750D02*
X20705000Y-14308750D01*
X21792500Y-9088750D02*
G75*
G03*
X21742500Y-9138750I0J-50000D01*
G01*
X5796250Y-12908750D02*
G75*
G03*
X5746250Y-12958750I0J-50000D01*
G01*
X34157500Y-9138750D02*
X34157500Y-10438750D01*
X19882500Y-9088750D02*
G75*
G03*
X19832500Y-9138750I0J-50000D01*
G01*
X24130000Y-11048750D02*
X24130000Y-12348750D01*
X12720000Y-10998750D02*
G75*
G03*
X12670000Y-11048750I0J-50000D01*
G01*
X30209950Y-12448750D02*
G75*
G03*
X30259950Y-12498750I50000J0D01*
G01*
X34207500Y-14308750D02*
X35507500Y-14308750D01*
X10521250Y-16168750D02*
G75*
G03*
X10571250Y-16218750I50000J0D01*
G01*
X5746250Y-14258750D02*
G75*
G03*
X5796250Y-14308750I50000J0D01*
G01*
X10571250Y-16218750D02*
X12110000Y-16218750D01*
X8245000Y-14309250D02*
X8245000Y-14358750D01*
X19355000Y-12958750D02*
X19355000Y-14258750D01*
X8767500Y-7178750D02*
X7467500Y-7178750D01*
X17206250Y-16168750D02*
G75*
G03*
X17256250Y-16218750I50000J0D01*
G01*
X30209950Y-12398750D02*
X30209950Y-12448750D01*
X14070000Y-12348750D02*
X14070000Y-11048750D01*
X24896250Y-16218750D02*
X26196250Y-16218750D01*
X32297500Y-12908750D02*
G75*
G03*
X32247500Y-12958750I0J-50000D01*
G01*
X18400000Y-12348750D02*
G75*
G03*
X18450000Y-12398750I50000J0D01*
G01*
X10760000Y-11048750D02*
X10760000Y-12348750D01*
X20182450Y-14768750D02*
X20182450Y-14818250D01*
X32403750Y-12398750D02*
G75*
G03*
X32453750Y-12348750I0J50000D01*
G01*
X30387500Y-16218750D02*
X31687500Y-16218750D01*
X10521250Y-16168750D02*
G75*
G03*
X10571250Y-16218750I50000J0D01*
G01*
X28427500Y-7228750D02*
X28427500Y-8528750D01*
X14020000Y-12398750D02*
G75*
G03*
X14070000Y-12348750I0J50000D01*
G01*
X25612500Y-10488750D02*
X26912500Y-10488750D01*
X18367500Y-8528750D02*
X18367500Y-7228750D01*
X12110000Y-16218750D02*
G75*
G03*
X12160000Y-16168750I0J50000D01*
G01*
X33297550Y-12448750D02*
X33297550Y-12287550D01*
X5746250Y-12958750D02*
X5746250Y-14258750D01*
X33170000Y-9899950D02*
X33358750Y-9899950D01*
X28583750Y-16218750D02*
G75*
G03*
X28633750Y-16168750I0J50000D01*
G01*
X8422500Y-9088750D02*
G75*
G03*
X8372500Y-9138750I0J-50000D01*
G01*
X5746250Y-16168750D02*
G75*
G03*
X5796250Y-16218750I50000J0D01*
G01*
X14102500Y-10438750D02*
G75*
G03*
X14152500Y-10488750I50000J0D01*
G01*
X16885000Y-12908750D02*
X15585000Y-12908750D01*
X12192500Y-9138750D02*
X12192500Y-10438750D01*
X13147500Y-8528750D02*
G75*
G03*
X13197500Y-8578750I50000J0D01*
G01*
X30859950Y-12498750D02*
G75*
G03*
X30909950Y-12448750I0J50000D01*
G01*
X16062500Y-9088750D02*
G75*
G03*
X16012500Y-9138750I0J-50000D01*
G01*
X23683750Y-16218750D02*
G75*
G03*
X23733750Y-16168750I0J50000D01*
G01*
X6035000Y-10488750D02*
X7335000Y-10488750D01*
X28633750Y-16168750D02*
X28633750Y-14868750D01*
X16935000Y-12958750D02*
G75*
G03*
X16885000Y-12908750I-50000J0D01*
G01*
X20832450Y-14718750D02*
X20232450Y-14718750D01*
X34207500Y-12908750D02*
G75*
G03*
X34157500Y-12958750I0J-50000D01*
G01*
X26090000Y-10998750D02*
G75*
G03*
X26040000Y-11048750I0J-50000D01*
G01*
X17972500Y-10488750D02*
X19272500Y-10488750D01*
X13592500Y-10438750D02*
X13592500Y-9138750D01*
X5746250Y-14868750D02*
X5746250Y-16168750D01*
X26007500Y-7228750D02*
G75*
G03*
X25957500Y-7178750I-50000J0D01*
G01*
X24525000Y-14308750D02*
G75*
G03*
X24575000Y-14258750I0J50000D01*
G01*
X13542500Y-10488750D02*
G75*
G03*
X13592500Y-10438750I0J50000D01*
G01*
X35557500Y-12958750D02*
G75*
G03*
X35507500Y-12908750I-50000J0D01*
G01*
X30337500Y-16168750D02*
G75*
G03*
X30387500Y-16218750I50000J0D01*
G01*
X8767500Y-8578750D02*
G75*
G03*
X8817500Y-8528750I0J50000D01*
G01*
X14580000Y-11048750D02*
X14580000Y-12348750D01*
X28477500Y-8578750D02*
X29777500Y-8578750D01*
D11*
X5013750Y-6923750D02*
G75*
G03*
X4536250Y-7401250I0J-477500D01*
G01*
D10*
X35507500Y-12398750D02*
G75*
G03*
X35557500Y-12348750I0J50000D01*
G01*
X25480000Y-12398750D02*
G75*
G03*
X25530000Y-12348750I0J50000D01*
G01*
X20360000Y-12398750D02*
X21660000Y-12398750D01*
X33536300Y-8578750D02*
X33597500Y-8578750D01*
X15502500Y-9138750D02*
G75*
G03*
X15452500Y-9088750I-50000J0D01*
G01*
X7385000Y-16168750D02*
X7385000Y-14868750D01*
X15452500Y-10488750D02*
G75*
G03*
X15502500Y-10438750I0J50000D01*
G01*
X19750000Y-10998750D02*
X18450000Y-10998750D01*
X11632500Y-9088750D02*
X10332500Y-9088750D01*
X6507450Y-14408750D02*
G75*
G03*
X6557450Y-14358750I0J50000D01*
G01*
X11715000Y-14258750D02*
G75*
G03*
X11765000Y-14308750I50000J0D01*
G01*
X10727500Y-7228750D02*
G75*
G03*
X10677500Y-7178750I-50000J0D01*
G01*
X26040000Y-11048750D02*
X26040000Y-12348750D01*
X27045000Y-16218750D02*
X28583750Y-16218750D01*
X21182500Y-9088750D02*
X19882500Y-9088750D01*
X19800000Y-11048750D02*
G75*
G03*
X19750000Y-10998750I-50000J0D01*
G01*
X13115000Y-12958750D02*
G75*
G03*
X13065000Y-12908750I-50000J0D01*
G01*
X16457500Y-7228750D02*
G75*
G03*
X16407500Y-7178750I-50000J0D01*
G01*
X7385000Y-10438750D02*
X7385000Y-9138750D01*
X21232500Y-10438750D02*
X21232500Y-9138750D01*
X23225000Y-12908750D02*
G75*
G03*
X23175000Y-12958750I0J-50000D01*
G01*
X20755000Y-12958750D02*
G75*
G03*
X20705000Y-12908750I-50000J0D01*
G01*
X10677500Y-8578750D02*
G75*
G03*
X10727500Y-8528750I0J50000D01*
G01*
X10332500Y-9088750D02*
G75*
G03*
X10282500Y-9138750I0J-50000D01*
G01*
X33647500Y-16168750D02*
X33647500Y-14868750D01*
X9772500Y-9138750D02*
G75*
G03*
X9722500Y-9088750I-50000J0D01*
G01*
X10571250Y-14818750D02*
G75*
G03*
X10521250Y-14868750I0J-50000D01*
G01*
X31687500Y-16218750D02*
G75*
G03*
X31737500Y-16168750I0J50000D01*
G01*
X9855000Y-12908750D02*
G75*
G03*
X9805000Y-12958750I0J-50000D01*
G01*
X33408750Y-11393750D02*
X33408750Y-10093750D01*
X24846250Y-16168750D02*
G75*
G03*
X24896250Y-16218750I50000J0D01*
G01*
X23702500Y-10488750D02*
X25002500Y-10488750D01*
X13197500Y-7178750D02*
G75*
G03*
X13147500Y-7228750I0J-50000D01*
G01*
X7335000Y-10488750D02*
G75*
G03*
X7385000Y-10438750I0J50000D01*
G01*
X33247550Y-12498750D02*
G75*
G03*
X33297550Y-12448750I0J50000D01*
G01*
X17972500Y-9088750D02*
G75*
G03*
X17922500Y-9138750I0J-50000D01*
G01*
X27390000Y-12398750D02*
G75*
G03*
X27440000Y-12348750I0J50000D01*
G01*
X8183750Y-16218750D02*
X9722500Y-16218750D01*
X25612500Y-9088750D02*
G75*
G03*
X25562500Y-9138750I0J-50000D01*
G01*
X26912500Y-9088750D02*
X25612500Y-9088750D01*
X25052500Y-10438750D02*
X25052500Y-9138750D01*
X14975000Y-14308750D02*
G75*
G03*
X15025000Y-14258750I0J50000D01*
G01*
X35557500Y-7228750D02*
G75*
G03*
X35507500Y-7178750I-50000J0D01*
G01*
X32297500Y-14308750D02*
X33597500Y-14308750D01*
X35507500Y-12908750D02*
X34207500Y-12908750D01*
X28633750Y-14868750D02*
G75*
G03*
X28583750Y-14818750I-50000J0D01*
G01*
X29860000Y-11048750D02*
X29860000Y-12348750D01*
X34207500Y-9088750D02*
G75*
G03*
X34157500Y-9138750I0J-50000D01*
G01*
X27750000Y-5141250D02*
X27750000Y-6516250D01*
X22220000Y-12348750D02*
G75*
G03*
X22270000Y-12398750I50000J0D01*
G01*
X17890000Y-11048750D02*
G75*
G03*
X17840000Y-10998750I-50000J0D01*
G01*
X10521250Y-14868750D02*
X10521250Y-16168750D01*
X18877500Y-7228750D02*
X18877500Y-8528750D01*
X25135000Y-12908750D02*
G75*
G03*
X25085000Y-12958750I0J-50000D01*
G01*
D11*
X36528750Y-4775000D02*
G75*
G03*
X36051250Y-4297500I-477500J0D01*
G01*
D10*
X18845000Y-14258750D02*
X18845000Y-12958750D01*
X6557450Y-14358750D02*
X6557000Y-14309250D01*
X33647500Y-14258750D02*
X33647500Y-12958750D01*
X29350000Y-11048750D02*
G75*
G03*
X29300000Y-10998750I-50000J0D01*
G01*
X20882450Y-16168750D02*
X20882450Y-14768750D01*
X14497500Y-8578750D02*
G75*
G03*
X14547500Y-8528750I0J50000D01*
G01*
X19405000Y-12908750D02*
G75*
G03*
X19355000Y-12958750I0J-50000D01*
G01*
X20755000Y-14258750D02*
X20755000Y-12958750D01*
X26040000Y-12348750D02*
G75*
G03*
X26090000Y-12398750I50000J0D01*
G01*
X25957500Y-7178750D02*
X24657500Y-7178750D01*
X11155000Y-14308750D02*
G75*
G03*
X11205000Y-14258750I0J50000D01*
G01*
X21742500Y-10438750D02*
G75*
G03*
X21792500Y-10488750I50000J0D01*
G01*
X22270000Y-10998750D02*
G75*
G03*
X22220000Y-11048750I0J-50000D01*
G01*
X27522500Y-9088750D02*
G75*
G03*
X27472500Y-9138750I0J-50000D01*
G01*
X9855000Y-14308750D02*
X11155000Y-14308750D01*
X16057550Y-14718750D02*
X15457550Y-14718750D01*
X24846250Y-16168750D02*
G75*
G03*
X24896250Y-16218750I50000J0D01*
G01*
X33358750Y-10043750D02*
X33170000Y-10043750D01*
X16057550Y-16218750D02*
G75*
G03*
X16107550Y-16168750I0J50000D01*
G01*
X16885000Y-14308750D02*
G75*
G03*
X16935000Y-14258750I0J50000D01*
G01*
X22747500Y-8578750D02*
X24047500Y-8578750D01*
X26485000Y-14258750D02*
X26485000Y-12958750D01*
X15025000Y-14258750D02*
X15025000Y-12958750D01*
X8133750Y-16168750D02*
G75*
G03*
X8183750Y-16218750I50000J0D01*
G01*
X34207500Y-12398750D02*
X35507500Y-12398750D01*
X5796250Y-16218750D02*
X7335000Y-16218750D01*
X22187500Y-8528750D02*
X22187500Y-7228750D01*
X15535000Y-12958750D02*
X15535000Y-14258750D01*
X14975000Y-12908750D02*
X13675000Y-12908750D01*
X23652500Y-9138750D02*
X23652500Y-10438750D01*
X31675000Y-5041250D02*
X27850000Y-5041250D01*
X35507500Y-16218750D02*
G75*
G03*
X35557500Y-16168750I0J50000D01*
G01*
D11*
X27456250Y-4297500D02*
G75*
G03*
X26978750Y-4775000I0J-477500D01*
G01*
D10*
X22220000Y-11048750D02*
X22220000Y-12348750D01*
X8133750Y-14868750D02*
X8133750Y-16168750D01*
X25085000Y-14258750D02*
G75*
G03*
X25135000Y-14308750I50000J0D01*
G01*
X12670000Y-12348750D02*
G75*
G03*
X12720000Y-12398750I50000J0D01*
G01*
X34207500Y-10998750D02*
G75*
G03*
X34157500Y-11048750I0J-50000D01*
G01*
X18400000Y-11048750D02*
X18400000Y-12348750D01*
X26912500Y-10488750D02*
G75*
G03*
X26962500Y-10438750I0J50000D01*
G01*
X26435000Y-14308750D02*
G75*
G03*
X26485000Y-14258750I0J50000D01*
G01*
X33486300Y-8678750D02*
G75*
G03*
X33536300Y-8628750I0J50000D01*
G01*
X14102500Y-9138750D02*
X14102500Y-10438750D01*
X33647500Y-5063750D02*
G75*
G03*
X33597500Y-5013750I-50000J0D01*
G01*
X30498700Y-8678750D02*
X31098700Y-8678750D01*
X34157500Y-6363750D02*
G75*
G03*
X34207500Y-6413750I50000J0D01*
G01*
X14547500Y-7228750D02*
G75*
G03*
X14497500Y-7178750I-50000J0D01*
G01*
X31737500Y-16168750D02*
X31737500Y-14868750D01*
X13592500Y-9138750D02*
G75*
G03*
X13542500Y-9088750I-50000J0D01*
G01*
X15452500Y-9088750D02*
X14152500Y-9088750D01*
X34157500Y-7228750D02*
X34157500Y-8528750D01*
X32597550Y-12287550D02*
X32453750Y-12287550D01*
X12720000Y-12398750D02*
X14020000Y-12398750D01*
X14212500Y-14768750D02*
G75*
G03*
X14162500Y-14718750I-50000J0D01*
G01*
X11237500Y-8528750D02*
G75*
G03*
X11287500Y-8578750I50000J0D01*
G01*
X10677500Y-7178750D02*
X9377500Y-7178750D01*
X27867500Y-7178750D02*
X26567500Y-7178750D01*
X24896250Y-14818750D02*
G75*
G03*
X24846250Y-14868750I0J-50000D01*
G01*
X30387500Y-14818750D02*
G75*
G03*
X30337500Y-14868750I0J-50000D01*
G01*
X24607500Y-7228750D02*
X24607500Y-8528750D01*
X16012500Y-9138750D02*
X16012500Y-10438750D01*
X33647500Y-6363750D02*
X33647500Y-5063750D01*
X17495000Y-14308750D02*
X18795000Y-14308750D01*
X16490000Y-12348750D02*
G75*
G03*
X16540000Y-12398750I50000J0D01*
G01*
X8133750Y-14868750D02*
X8133750Y-16168750D01*
X30971250Y-12908750D02*
X29671250Y-12908750D01*
X11715000Y-12958750D02*
X11715000Y-14258750D01*
X7467500Y-8578750D02*
X8767500Y-8578750D01*
X17412500Y-10438750D02*
X17412500Y-9138750D01*
X5507500Y-8528750D02*
G75*
G03*
X5557500Y-8578750I50000J0D01*
G01*
X17206250Y-14868750D02*
X17206250Y-16168750D01*
X21232500Y-9138750D02*
G75*
G03*
X21182500Y-9088750I-50000J0D01*
G01*
X7335000Y-16218750D02*
G75*
G03*
X7385000Y-16168750I0J50000D01*
G01*
X25562500Y-10438750D02*
G75*
G03*
X25612500Y-10488750I50000J0D01*
G01*
X29860000Y-12348750D02*
G75*
G03*
X29910000Y-12398750I50000J0D01*
G01*
X35507500Y-9088750D02*
X34207500Y-9088750D01*
X13675000Y-14308750D02*
X14975000Y-14308750D01*
X24657500Y-8578750D02*
X25957500Y-8578750D01*
X14212500Y-14818250D02*
X14212500Y-14768750D01*
X20787500Y-8528750D02*
G75*
G03*
X20837500Y-8578750I50000J0D01*
G01*
X31770000Y-9138750D02*
X31770000Y-10438750D01*
X15263750Y-14868750D02*
G75*
G03*
X15213750Y-14818750I-50000J0D01*
G01*
X19882500Y-10488750D02*
X21182500Y-10488750D01*
X24575000Y-12958750D02*
G75*
G03*
X24525000Y-12908750I-50000J0D01*
G01*
X26246250Y-16168750D02*
X26246250Y-14868750D01*
X17362500Y-10488750D02*
G75*
G03*
X17412500Y-10438750I0J50000D01*
G01*
X15107500Y-8578750D02*
X16407500Y-8578750D01*
X19272500Y-10488750D02*
G75*
G03*
X19322500Y-10438750I0J50000D01*
G01*
X32836300Y-8628750D02*
G75*
G03*
X32886300Y-8678750I50000J0D01*
G01*
X14152500Y-10488750D02*
X15452500Y-10488750D01*
X13069950Y-14718750D02*
G75*
G03*
X13019950Y-14768750I0J-50000D01*
G01*
D11*
X26501250Y-6923750D02*
G75*
G03*
X26978750Y-6446250I0J477500D01*
G01*
D10*
X6857500Y-8578750D02*
G75*
G03*
X6907500Y-8528750I0J50000D01*
G01*
X26007500Y-8528750D02*
X26007500Y-7228750D01*
X34157500Y-10438750D02*
G75*
G03*
X34207500Y-10488750I50000J0D01*
G01*
X32247500Y-14258750D02*
G75*
G03*
X32297500Y-14308750I50000J0D01*
G01*
D11*
X26978750Y-6446250D02*
X26978750Y-4775000D01*
D10*
X35557500Y-16168750D02*
X35557500Y-14868750D01*
X8183750Y-14818750D02*
G75*
G03*
X8133750Y-14868750I0J-50000D01*
G01*
X8900000Y-10998750D02*
G75*
G03*
X8850000Y-11048750I0J-50000D01*
G01*
X7417500Y-7228750D02*
X7417500Y-8528750D01*
X15213750Y-16218750D02*
G75*
G03*
X15263750Y-16168750I0J50000D01*
G01*
X7623750Y-11048750D02*
G75*
G03*
X7573750Y-10998750I-50000J0D01*
G01*
X21026250Y-16168750D02*
G75*
G03*
X21076250Y-16218750I50000J0D01*
G01*
X32247500Y-14868750D02*
X32247500Y-16168750D01*
X25052500Y-9138750D02*
G75*
G03*
X25002500Y-9088750I-50000J0D01*
G01*
X23175000Y-12958750D02*
X23175000Y-14258750D01*
X20705000Y-14308750D02*
G75*
G03*
X20755000Y-14258750I0J50000D01*
G01*
X33486300Y-7178750D02*
X32886300Y-7178750D01*
X35557500Y-5063750D02*
G75*
G03*
X35507500Y-5013750I-50000J0D01*
G01*
X7573750Y-10998750D02*
X5796250Y-10998750D01*
X30259950Y-12498750D02*
X30859950Y-12498750D01*
X21076250Y-16218750D02*
X22376250Y-16218750D01*
X25957500Y-8578750D02*
G75*
G03*
X26007500Y-8528750I0J50000D01*
G01*
X35557500Y-14868750D02*
G75*
G03*
X35507500Y-14818750I-50000J0D01*
G01*
X12242500Y-10488750D02*
X13542500Y-10488750D01*
X27440000Y-11048750D02*
G75*
G03*
X27390000Y-10998750I-50000J0D01*
G01*
X33597500Y-7178750D02*
X32297500Y-7178750D01*
X33297550Y-11443750D02*
X33358750Y-11443750D01*
X26567500Y-8578750D02*
X27867500Y-8578750D01*
X29671250Y-12908750D02*
G75*
G03*
X29621250Y-12958750I0J-50000D01*
G01*
X31021250Y-14258750D02*
X31021250Y-12958750D01*
X32836300Y-8578750D02*
X32836300Y-8628750D01*
X17840000Y-10998750D02*
X16540000Y-10998750D01*
X8895050Y-14408750D02*
G75*
G03*
X8945050Y-14358750I0J50000D01*
G01*
X29671250Y-14308750D02*
X30971250Y-14308750D01*
X9722500Y-10488750D02*
G75*
G03*
X9772500Y-10438750I0J50000D01*
G01*
X8372500Y-10438750D02*
G75*
G03*
X8422500Y-10488750I50000J0D01*
G01*
X28000000Y-12398750D02*
X29300000Y-12398750D01*
X17017500Y-7178750D02*
G75*
G03*
X16967500Y-7228750I0J-50000D01*
G01*
X30337500Y-8528750D02*
G75*
G03*
X30387500Y-8578750I50000J0D01*
G01*
X19322500Y-10438750D02*
X19322500Y-9138750D01*
X16012500Y-10438750D02*
G75*
G03*
X16062500Y-10488750I50000J0D01*
G01*
X31820000Y-10488750D02*
X32008750Y-10488750D01*
X13065000Y-14308750D02*
G75*
G03*
X13115000Y-14258750I0J50000D01*
G01*
X20837500Y-7178750D02*
G75*
G03*
X20787500Y-7228750I0J-50000D01*
G01*
X29777500Y-7178750D02*
X28477500Y-7178750D01*
X24097500Y-8528750D02*
X24097500Y-7228750D01*
X35557500Y-9138750D02*
G75*
G03*
X35507500Y-9088750I-50000J0D01*
G01*
X19272500Y-9088750D02*
X17972500Y-9088750D01*
X32886300Y-8678750D02*
X33486300Y-8678750D01*
X16457500Y-8528750D02*
X16457500Y-7228750D01*
X31687500Y-7178750D02*
X30387500Y-7178750D01*
X29777500Y-8578750D02*
G75*
G03*
X29827500Y-8528750I0J50000D01*
G01*
X24180000Y-12398750D02*
X25480000Y-12398750D01*
X16540000Y-10998750D02*
G75*
G03*
X16490000Y-11048750I0J-50000D01*
G01*
X20310000Y-12348750D02*
G75*
G03*
X20360000Y-12398750I50000J0D01*
G01*
X22615000Y-12908750D02*
X21315000Y-12908750D01*
X27440000Y-12348750D02*
X27440000Y-11048750D01*
X13913750Y-16218750D02*
X15213750Y-16218750D01*
X8945050Y-14358750D02*
X8945000Y-14309250D01*
X19832500Y-9138750D02*
X19832500Y-10438750D01*
X25002500Y-9088750D02*
X23702500Y-9088750D01*
X33597500Y-5013750D02*
X32297500Y-5013750D01*
X12160000Y-11048750D02*
G75*
G03*
X12110000Y-10998750I-50000J0D01*
G01*
X21710000Y-11048750D02*
G75*
G03*
X21660000Y-10998750I-50000J0D01*
G01*
X9772500Y-14868750D02*
G75*
G03*
X9722500Y-14818750I-50000J0D01*
G01*
X20832450Y-16218750D02*
G75*
G03*
X20882450Y-16168750I0J50000D01*
G01*
X11765000Y-12908750D02*
G75*
G03*
X11715000Y-12958750I0J-50000D01*
G01*
X34157500Y-12348750D02*
G75*
G03*
X34207500Y-12398750I50000J0D01*
G01*
X33597500Y-16218750D02*
G75*
G03*
X33647500Y-16168750I0J50000D01*
G01*
X32597550Y-12287550D02*
X32597550Y-12448750D01*
X24942500Y-14818750D02*
X24896250Y-14818750D01*
X9772500Y-16168750D02*
X9772500Y-14868750D01*
X17922500Y-10438750D02*
G75*
G03*
X17972500Y-10488750I50000J0D01*
G01*
X24846250Y-14868750D02*
X24846250Y-16168750D01*
X32247500Y-16168750D02*
G75*
G03*
X32297500Y-16218750I50000J0D01*
G01*
X33170000Y-9199950D02*
X33170000Y-9138750D01*
X23620000Y-11048750D02*
G75*
G03*
X23570000Y-10998750I-50000J0D01*
G01*
X15407550Y-14768750D02*
X15407550Y-16168750D01*
X32297500Y-5013750D02*
G75*
G03*
X32247500Y-5063750I0J-50000D01*
G01*
X34157500Y-12958750D02*
X34157500Y-14258750D01*
X26962500Y-9138750D02*
G75*
G03*
X26912500Y-9088750I-50000J0D01*
G01*
X33170000Y-9138750D02*
G75*
G03*
X33120000Y-9088750I-50000J0D01*
G01*
X21315000Y-14308750D02*
X22615000Y-14308750D01*
X22376250Y-16218750D02*
G75*
G03*
X22426250Y-16168750I0J50000D01*
G01*
X5557500Y-8578750D02*
X6857500Y-8578750D01*
X30859950Y-10998750D02*
X30259950Y-10998750D01*
X33408750Y-12237550D02*
X33408750Y-11637550D01*
X27045000Y-12908750D02*
G75*
G03*
X26995000Y-12958750I0J-50000D01*
G01*
X12192500Y-10438750D02*
G75*
G03*
X12242500Y-10488750I50000J0D01*
G01*
X20837500Y-8578750D02*
X22137500Y-8578750D01*
X28822500Y-9088750D02*
X27522500Y-9088750D01*
X30387500Y-8578750D02*
X30448700Y-8578750D01*
X10332500Y-10488750D02*
X11632500Y-10488750D01*
X23142500Y-10438750D02*
X23142500Y-9138750D01*
X35507500Y-10488750D02*
G75*
G03*
X35557500Y-10438750I0J50000D01*
G01*
X26196250Y-16218750D02*
G75*
G03*
X26246250Y-16168750I0J50000D01*
G01*
X33297550Y-12287550D02*
X33358750Y-12287550D01*
X32008750Y-10488750D02*
X32008750Y-10998750D01*
X27867500Y-8578750D02*
G75*
G03*
X27917500Y-8528750I0J50000D01*
G01*
X10282500Y-9138750D02*
X10282500Y-10438750D01*
X18927500Y-16218750D02*
X20227500Y-16218750D01*
X22570050Y-14768750D02*
X22570050Y-16168750D01*
X22426250Y-16168750D02*
X22426250Y-14868750D01*
X31021250Y-12958750D02*
G75*
G03*
X30971250Y-12908750I-50000J0D01*
G01*
X22620050Y-14718750D02*
G75*
G03*
X22570050Y-14768750I0J-50000D01*
G01*
X33647500Y-8528750D02*
X33647500Y-7228750D01*
X17256250Y-14818750D02*
G75*
G03*
X17206250Y-14868750I0J-50000D01*
G01*
X25642500Y-14818750D02*
X25642500Y-14768750D01*
X28395000Y-12958750D02*
G75*
G03*
X28345000Y-12908750I-50000J0D01*
G01*
X12637500Y-7228750D02*
G75*
G03*
X12587500Y-7178750I-50000J0D01*
G01*
X20882450Y-14768750D02*
G75*
G03*
X20832450Y-14718750I-50000J0D01*
G01*
X18795000Y-14308750D02*
G75*
G03*
X18845000Y-14258750I0J50000D01*
G01*
X22697500Y-7228750D02*
X22697500Y-8528750D01*
X9805000Y-14258750D02*
G75*
G03*
X9855000Y-14308750I50000J0D01*
G01*
X22137500Y-8578750D02*
G75*
G03*
X22187500Y-8528750I0J50000D01*
G01*
X15213750Y-14818750D02*
X14212500Y-14818250D01*
X8133750Y-16168750D02*
G75*
G03*
X8183750Y-16218750I50000J0D01*
G01*
X8850000Y-11048750D02*
X8850000Y-12348750D01*
X33647500Y-12958750D02*
G75*
G03*
X33597500Y-12908750I-50000J0D01*
G01*
X33408750Y-9249950D02*
G75*
G03*
X33358750Y-9199950I-50000J0D01*
G01*
X31148700Y-8578750D02*
X32836300Y-8578750D01*
X13542500Y-9088750D02*
X12242500Y-9088750D01*
X5796250Y-14818750D02*
G75*
G03*
X5746250Y-14868750I0J-50000D01*
G01*
X30337500Y-14868750D02*
X30337500Y-16168750D01*
X28345000Y-12908750D02*
X27045000Y-12908750D01*
X32647550Y-12498750D02*
X33247550Y-12498750D01*
X17256250Y-16218750D02*
X18927500Y-16218750D01*
X18845000Y-12958750D02*
G75*
G03*
X18795000Y-12908750I-50000J0D01*
G01*
X22270000Y-12398750D02*
X23570000Y-12398750D01*
X27917500Y-7228750D02*
G75*
G03*
X27867500Y-7178750I-50000J0D01*
G01*
X16490000Y-11048750D02*
X16490000Y-12348750D01*
X35507500Y-14308750D02*
G75*
G03*
X35557500Y-14258750I0J50000D01*
G01*
X26995000Y-16168750D02*
G75*
G03*
X27045000Y-16218750I50000J0D01*
G01*
X13019950Y-14768750D02*
X13019950Y-16168750D01*
X15263750Y-16168750D02*
X15263750Y-14868750D01*
X26517500Y-8528750D02*
G75*
G03*
X26567500Y-8578750I50000J0D01*
G01*
X25135000Y-14308750D02*
X26435000Y-14308750D01*
X23702500Y-9088750D02*
G75*
G03*
X23652500Y-9138750I0J-50000D01*
G01*
X23175000Y-14258750D02*
G75*
G03*
X23225000Y-14308750I50000J0D01*
G01*
X5985000Y-10438750D02*
G75*
G03*
X6035000Y-10488750I50000J0D01*
G01*
X9245000Y-14308750D02*
G75*
G03*
X9295000Y-14258750I0J50000D01*
G01*
X28583750Y-16218750D02*
G75*
G03*
X28633750Y-16168750I0J50000D01*
G01*
X5746250Y-12348750D02*
G75*
G03*
X5796250Y-12398750I50000J0D01*
G01*
X24047500Y-7178750D02*
X22747500Y-7178750D01*
X11682500Y-9138750D02*
G75*
G03*
X11632500Y-9088750I-50000J0D01*
G01*
X26485000Y-12958750D02*
G75*
G03*
X26435000Y-12908750I-50000J0D01*
G01*
X26196250Y-16218750D02*
G75*
G03*
X26246250Y-16168750I0J50000D01*
G01*
X32453750Y-12348750D02*
X32453750Y-12287550D01*
X33408750Y-11637550D02*
G75*
G03*
X33358750Y-11587550I-50000J0D01*
G01*
D11*
X36051250Y-17190000D02*
X5013750Y-17190000D01*
D10*
X9295000Y-14258750D02*
X9295000Y-12958750D01*
X33536300Y-8628750D02*
X33536300Y-8578750D01*
X17445000Y-12958750D02*
X17445000Y-14258750D01*
X34157500Y-11048750D02*
X34157500Y-12348750D01*
X33358750Y-9899950D02*
G75*
G03*
X33408750Y-9849950I0J50000D01*
G01*
X5796250Y-14818750D02*
G75*
G03*
X5746250Y-14868750I0J-50000D01*
G01*
X28395000Y-14258750D02*
X28395000Y-12958750D01*
X5796250Y-12398750D02*
X7573750Y-12398750D01*
X22376250Y-14818750D02*
X21076250Y-14818750D01*
X12587500Y-8578750D02*
G75*
G03*
X12637500Y-8528750I0J50000D01*
G01*
X23570000Y-10998750D02*
X22270000Y-10998750D01*
D11*
X4536250Y-16712500D02*
G75*
G03*
X5013750Y-17190000I477500J0D01*
G01*
D10*
X16407500Y-7178750D02*
X15107500Y-7178750D01*
X8295050Y-14408750D02*
X8895050Y-14408750D01*
X21265000Y-14258750D02*
G75*
G03*
X21315000Y-14308750I50000J0D01*
G01*
X20787500Y-7228750D02*
X20787500Y-8528750D01*
X7573750Y-12398750D02*
G75*
G03*
X7623750Y-12348750I0J50000D01*
G01*
X29910000Y-10998750D02*
G75*
G03*
X29860000Y-11048750I0J-50000D01*
G01*
X27390000Y-10998750D02*
X26090000Y-10998750D01*
X17412500Y-9138750D02*
G75*
G03*
X17362500Y-9088750I-50000J0D01*
G01*
X23733750Y-16168750D02*
X23733750Y-14768750D01*
X9377500Y-7178750D02*
G75*
G03*
X9327500Y-7228750I0J-50000D01*
G01*
X11632500Y-10488750D02*
G75*
G03*
X11682500Y-10438750I0J50000D01*
G01*
X34207500Y-14818750D02*
G75*
G03*
X34157500Y-14868750I0J-50000D01*
G01*
X33358750Y-11443750D02*
G75*
G03*
X33408750Y-11393750I0J50000D01*
G01*
X5985000Y-9138750D02*
X5985000Y-10438750D01*
X31675000Y-6616250D02*
G75*
G03*
X31750000Y-6541250I0J75000D01*
G01*
X30732500Y-9088750D02*
X29432500Y-9088750D01*
X23733750Y-14768750D02*
G75*
G03*
X23683750Y-14718750I-50000J0D01*
G01*
X33170000Y-9899950D02*
X33170000Y-10043750D01*
X20182450Y-14818250D02*
X17256250Y-14818750D01*
X11237500Y-7228750D02*
X11237500Y-8528750D01*
X21182500Y-10488750D02*
G75*
G03*
X21232500Y-10438750I0J50000D01*
G01*
X6857500Y-7178750D02*
X5557500Y-7178750D01*
X21660000Y-12398750D02*
G75*
G03*
X21710000Y-12348750I0J50000D01*
G01*
X30448700Y-8578750D02*
X30448700Y-8628750D01*
X16935000Y-14258750D02*
X16935000Y-12958750D01*
X5746250Y-16168750D02*
G75*
G03*
X5796250Y-16218750I50000J0D01*
G01*
X35507500Y-8578750D02*
G75*
G03*
X35557500Y-8528750I0J50000D01*
G01*
X16540000Y-12398750D02*
X17840000Y-12398750D01*
X13069950Y-16218750D02*
X14162500Y-16218750D01*
X18317500Y-7178750D02*
X17017500Y-7178750D01*
X19750000Y-12398750D02*
G75*
G03*
X19800000Y-12348750I0J50000D01*
G01*
X6907500Y-7228750D02*
G75*
G03*
X6857500Y-7178750I-50000J0D01*
G01*
X11765000Y-14308750D02*
X13065000Y-14308750D01*
X5857450Y-14358750D02*
G75*
G03*
X5907450Y-14408750I50000J0D01*
G01*
X34157500Y-8528750D02*
G75*
G03*
X34207500Y-8578750I50000J0D01*
G01*
X8900000Y-12398750D02*
X10200000Y-12398750D01*
X9327500Y-7228750D02*
X9327500Y-8528750D01*
X8850000Y-12348750D02*
G75*
G03*
X8900000Y-12398750I50000J0D01*
G01*
X8372500Y-9138750D02*
X8372500Y-10438750D01*
X31770000Y-10438750D02*
G75*
G03*
X31820000Y-10488750I50000J0D01*
G01*
X10250000Y-11048750D02*
G75*
G03*
X10200000Y-10998750I-50000J0D01*
G01*
X7335000Y-9088750D02*
X6035000Y-9088750D01*
X24180000Y-10998750D02*
G75*
G03*
X24130000Y-11048750I0J-50000D01*
G01*
X34207500Y-8578750D02*
X35507500Y-8578750D01*
X28633750Y-14868750D02*
G75*
G03*
X28583750Y-14818750I-50000J0D01*
G01*
X9722500Y-14818750D02*
X8183750Y-14818750D01*
X11682500Y-10438750D02*
X11682500Y-9138750D01*
X15502500Y-10438750D02*
X15502500Y-9138750D01*
X32597550Y-12448750D02*
G75*
G03*
X32647550Y-12498750I50000J0D01*
G01*
X24657500Y-7178750D02*
G75*
G03*
X24607500Y-7228750I0J-50000D01*
G01*
X33358750Y-9199950D02*
X33170000Y-9199950D01*
X14070000Y-11048750D02*
G75*
G03*
X14020000Y-10998750I-50000J0D01*
G01*
X27850000Y-6616250D02*
X31675000Y-6616250D01*
X28872500Y-10438750D02*
X28872500Y-9138750D01*
X10760000Y-12348750D02*
G75*
G03*
X10810000Y-12398750I50000J0D01*
G01*
X24992500Y-14718750D02*
G75*
G03*
X24942500Y-14768750I0J-50000D01*
G01*
X15980000Y-11048750D02*
G75*
G03*
X15930000Y-10998750I-50000J0D01*
G01*
X6035000Y-9088750D02*
G75*
G03*
X5985000Y-9138750I0J-50000D01*
G01*
X8817500Y-8528750D02*
X8817500Y-7228750D01*
X26567500Y-7178750D02*
G75*
G03*
X26517500Y-7228750I0J-50000D01*
G01*
X29827500Y-7228750D02*
G75*
G03*
X29777500Y-7178750I-50000J0D01*
G01*
X15407550Y-16168750D02*
G75*
G03*
X15457550Y-16218750I50000J0D01*
G01*
X9722500Y-9088750D02*
X8422500Y-9088750D01*
X28427500Y-8528750D02*
G75*
G03*
X28477500Y-8578750I50000J0D01*
G01*
X13625000Y-12958750D02*
X13625000Y-14258750D01*
X7385000Y-14868750D02*
G75*
G03*
X7335000Y-14818750I-50000J0D01*
G01*
X29621250Y-14258750D02*
G75*
G03*
X29671250Y-14308750I50000J0D01*
G01*
X14020000Y-10998750D02*
X12720000Y-10998750D01*
X17017500Y-8578750D02*
X18317500Y-8578750D01*
X24097500Y-7228750D02*
G75*
G03*
X24047500Y-7178750I-50000J0D01*
G01*
X15057500Y-8528750D02*
G75*
G03*
X15107500Y-8578750I50000J0D01*
G01*
X12637500Y-8528750D02*
X12637500Y-7228750D01*
X33120000Y-9088750D02*
X31820000Y-9088750D01*
X14630000Y-12398750D02*
X15930000Y-12398750D01*
X26995000Y-14258750D02*
G75*
G03*
X27045000Y-14308750I50000J0D01*
G01*
X29300000Y-12398750D02*
G75*
G03*
X29350000Y-12348750I0J50000D01*
G01*
X9805000Y-12958750D02*
X9805000Y-14258750D01*
X14152500Y-9088750D02*
G75*
G03*
X14102500Y-9138750I0J-50000D01*
G01*
X27472500Y-9138750D02*
X27472500Y-10438750D01*
X24047500Y-8578750D02*
G75*
G03*
X24097500Y-8528750I0J50000D01*
G01*
X20360000Y-10998750D02*
G75*
G03*
X20310000Y-11048750I0J-50000D01*
G01*
X21742500Y-9138750D02*
X21742500Y-10438750D01*
X7385000Y-9138750D02*
G75*
G03*
X7335000Y-9088750I-50000J0D01*
G01*
X10571250Y-14818750D02*
G75*
G03*
X10521250Y-14868750I0J-50000D01*
G01*
X15107500Y-7178750D02*
G75*
G03*
X15057500Y-7228750I0J-50000D01*
G01*
X29432500Y-9088750D02*
G75*
G03*
X29382500Y-9138750I0J-50000D01*
G01*
X20277500Y-8528750D02*
X20277500Y-7228750D01*
X32247500Y-12958750D02*
X32247500Y-14258750D01*
X23683750Y-14718750D02*
X22620050Y-14718750D01*
X31687500Y-14818750D02*
X30387500Y-14818750D01*
X32297500Y-14818750D02*
G75*
G03*
X32247500Y-14868750I0J-50000D01*
G01*
X5746250Y-11048750D02*
X5746250Y-12348750D01*
X7096250Y-12908750D02*
X5796250Y-12908750D01*
X24607500Y-8528750D02*
G75*
G03*
X24657500Y-8578750I50000J0D01*
G01*
X8817500Y-7228750D02*
G75*
G03*
X8767500Y-7178750I-50000J0D01*
G01*
X15585000Y-12908750D02*
G75*
G03*
X15535000Y-12958750I0J-50000D01*
G01*
X16407500Y-8578750D02*
G75*
G03*
X16457500Y-8528750I0J50000D01*
G01*
X32247500Y-6363750D02*
G75*
G03*
X32297500Y-6413750I50000J0D01*
G01*
X20705000Y-12908750D02*
X19405000Y-12908750D01*
X12160000Y-16168750D02*
X12160000Y-14868750D01*
X13197500Y-8578750D02*
X14497500Y-8578750D01*
X23225000Y-14308750D02*
X24525000Y-14308750D01*
X8422500Y-10488750D02*
X9722500Y-10488750D01*
X8895050Y-12908750D02*
X8295050Y-12908750D01*
X35507500Y-10998750D02*
X34207500Y-10998750D01*
X16967500Y-7228750D02*
X16967500Y-8528750D01*
X9772500Y-10438750D02*
X9772500Y-9138750D01*
X23092500Y-10488750D02*
G75*
G03*
X23142500Y-10438750I0J50000D01*
G01*
X34207500Y-7178750D02*
G75*
G03*
X34157500Y-7228750I0J-50000D01*
G01*
X33408750Y-9849950D02*
X33408750Y-9249950D01*
X29621250Y-12958750D02*
X29621250Y-14258750D01*
X19800000Y-12348750D02*
X19800000Y-11048750D01*
X24525000Y-12908750D02*
X23225000Y-12908750D01*
X5907450Y-14408750D02*
X6507450Y-14408750D01*
X35557500Y-6363750D02*
X35557500Y-5063750D01*
X18927500Y-7178750D02*
G75*
G03*
X18877500Y-7228750I0J-50000D01*
G01*
X21660000Y-10998750D02*
X20360000Y-10998750D01*
X7417500Y-8528750D02*
G75*
G03*
X7467500Y-8578750I50000J0D01*
G01*
X29350000Y-12348750D02*
X29350000Y-11048750D01*
X22665000Y-14258750D02*
X22665000Y-12958750D01*
X10810000Y-12398750D02*
X12110000Y-12398750D01*
X28822500Y-10488750D02*
G75*
G03*
X28872500Y-10438750I0J50000D01*
G01*
X34207500Y-5013750D02*
G75*
G03*
X34157500Y-5063750I0J-50000D01*
G01*
X15930000Y-10998750D02*
X14630000Y-10998750D01*
X17445000Y-14258750D02*
G75*
G03*
X17495000Y-14308750I50000J0D01*
G01*
X16107550Y-16168750D02*
X16107550Y-14768750D01*
X14497500Y-7178750D02*
X13197500Y-7178750D01*
X12160000Y-12348750D02*
X12160000Y-11048750D01*
X21792500Y-10488750D02*
X23092500Y-10488750D01*
X10282500Y-10438750D02*
G75*
G03*
X10332500Y-10488750I50000J0D01*
G01*
X15457550Y-14718750D02*
G75*
G03*
X15407550Y-14768750I0J-50000D01*
G01*
X30909950Y-12448750D02*
X30909950Y-12398750D01*
X28583750Y-14818750D02*
X27045000Y-14818750D01*
X20232450Y-16218750D02*
X20832450Y-16218750D01*
X20227500Y-8578750D02*
G75*
G03*
X20277500Y-8528750I0J50000D01*
G01*
X35557500Y-11048750D02*
G75*
G03*
X35507500Y-10998750I-50000J0D01*
G01*
X21315000Y-12908750D02*
G75*
G03*
X21265000Y-12958750I0J-50000D01*
G01*
X18877500Y-8528750D02*
G75*
G03*
X18927500Y-8578750I50000J0D01*
G01*
X26246250Y-14868750D02*
G75*
G03*
X26196250Y-14818750I-50000J0D01*
G01*
X18450000Y-10998750D02*
G75*
G03*
X18400000Y-11048750I0J-50000D01*
G01*
X9377500Y-8578750D02*
X10677500Y-8578750D01*
X24846250Y-14868750D02*
X24846250Y-16168750D01*
X25562500Y-9138750D02*
X25562500Y-10438750D01*
X9327500Y-8528750D02*
G75*
G03*
X9377500Y-8578750I50000J0D01*
G01*
X21265000Y-12958750D02*
X21265000Y-14258750D01*
X28633750Y-16168750D02*
X28633750Y-14868750D01*
X13019950Y-16168750D02*
G75*
G03*
X13069950Y-16218750I50000J0D01*
G01*
X34157500Y-14868750D02*
X34157500Y-16168750D01*
X23092500Y-9088750D02*
X21792500Y-9088750D01*
X25642500Y-14768750D02*
G75*
G03*
X25592500Y-14718750I-50000J0D01*
G01*
X15585000Y-14308750D02*
X16885000Y-14308750D01*
X15980000Y-12348750D02*
X15980000Y-11048750D01*
X27850000Y-5041250D02*
G75*
G03*
X27750000Y-5141250I0J-100000D01*
G01*
X33597500Y-14308750D02*
G75*
G03*
X33647500Y-14258750I0J50000D01*
G01*
X13625000Y-14258750D02*
G75*
G03*
X13675000Y-14308750I50000J0D01*
G01*
X16107550Y-14768750D02*
G75*
G03*
X16057550Y-14718750I-50000J0D01*
G01*
X35507500Y-14818750D02*
X34207500Y-14818750D01*
X11205000Y-14258750D02*
X11205000Y-12958750D01*
X29432500Y-10488750D02*
X30732500Y-10488750D01*
X24942500Y-14818250D02*
X24942500Y-14768750D01*
X22697500Y-8528750D02*
G75*
G03*
X22747500Y-8578750I50000J0D01*
G01*
X33297550Y-11587550D02*
X33297550Y-11443750D01*
X29300000Y-10998750D02*
X28000000Y-10998750D01*
X17840000Y-12398750D02*
G75*
G03*
X17890000Y-12348750I0J50000D01*
G01*
X11287500Y-7178750D02*
G75*
G03*
X11237500Y-7228750I0J-50000D01*
G01*
X10250000Y-12348750D02*
X10250000Y-11048750D01*
X23652500Y-10438750D02*
G75*
G03*
X23702500Y-10488750I50000J0D01*
G01*
X12110000Y-10998750D02*
X10810000Y-10998750D01*
X31750000Y-5116250D02*
G75*
G03*
X31675000Y-5041250I-75000J0D01*
G01*
X33597500Y-8578750D02*
G75*
G03*
X33647500Y-8528750I0J50000D01*
G01*
X17495000Y-12908750D02*
G75*
G03*
X17445000Y-12958750I0J-50000D01*
G01*
X17362500Y-9088750D02*
X16062500Y-9088750D01*
X20227500Y-7178750D02*
X18927500Y-7178750D01*
X22570050Y-16168750D02*
G75*
G03*
X22620050Y-16218750I50000J0D01*
G01*
X14162500Y-14718750D02*
X13069950Y-14718750D01*
X29910000Y-12398750D02*
X30209950Y-12398750D01*
X33647500Y-14868750D02*
G75*
G03*
X33597500Y-14818750I-50000J0D01*
G01*
X7335000Y-14818750D02*
X5796250Y-14818750D01*
X29382500Y-10438750D02*
G75*
G03*
X29432500Y-10488750I50000J0D01*
G01*
X22426250Y-14868750D02*
G75*
G03*
X22376250Y-14818750I-50000J0D01*
G01*
X10727500Y-8528750D02*
X10727500Y-7228750D01*
X26246250Y-14868750D02*
G75*
G03*
X26196250Y-14818750I-50000J0D01*
G01*
X26962500Y-10438750D02*
X26962500Y-9138750D01*
X34207500Y-10488750D02*
X35507500Y-10488750D01*
X21026250Y-14868750D02*
X21026250Y-16168750D01*
X28872500Y-9138750D02*
G75*
G03*
X28822500Y-9088750I-50000J0D01*
G01*
X8945000Y-14309250D02*
X9245000Y-14308750D01*
X9295000Y-12958750D02*
G75*
G03*
X9245000Y-12908750I-50000J0D01*
G01*
X10810000Y-10998750D02*
G75*
G03*
X10760000Y-11048750I0J-50000D01*
G01*
X28345000Y-14308750D02*
G75*
G03*
X28395000Y-14258750I0J50000D01*
G01*
X31737500Y-14868750D02*
G75*
G03*
X31687500Y-14818750I-50000J0D01*
G01*
D11*
X5013750Y-6923750D02*
X26501250Y-6923750D01*
D10*
X22620050Y-16218750D02*
X23683750Y-16218750D01*
X31750000Y-6541250D02*
X31750000Y-5116250D01*
X27750000Y-6516250D02*
G75*
G03*
X27850000Y-6616250I100000J0D01*
G01*
X31148700Y-8628750D02*
X31148700Y-8578750D01*
X30782500Y-9138750D02*
G75*
G03*
X30732500Y-9088750I-50000J0D01*
G01*
X19355000Y-14258750D02*
G75*
G03*
X19405000Y-14308750I50000J0D01*
G01*
X24130000Y-12348750D02*
G75*
G03*
X24180000Y-12398750I50000J0D01*
G01*
D12*
D13*
X4903750Y-7291250D02*
X5123750Y-7511250D01*
X5123750Y-7291250D02*
X4903750Y-7511250D01*
X4903750Y-7291250D02*
X5123750Y-7511250D01*
X5123750Y-7291250D02*
X4903750Y-7511250D01*
X4903750Y-11827500D02*
X5123750Y-12047500D01*
X5123750Y-11827500D02*
X4903750Y-12047500D01*
X4903750Y-16602500D02*
X5123750Y-16822500D01*
X5123750Y-16602500D02*
X4903750Y-16822500D01*
X4903750Y-16602500D02*
X5123750Y-16822500D01*
X5123750Y-16602500D02*
X4903750Y-16822500D01*
X12782500Y-16602500D02*
X13002500Y-16822500D01*
X13002500Y-16602500D02*
X12782500Y-16822500D01*
X20422500Y-16602500D02*
X20642500Y-16822500D01*
X20642500Y-16602500D02*
X20422500Y-16822500D01*
X28062500Y-16602500D02*
X28282500Y-16822500D01*
X28282500Y-16602500D02*
X28062500Y-16822500D01*
X35941250Y-7291250D02*
X36161250Y-7511250D01*
X36161250Y-7291250D02*
X35941250Y-7511250D01*
X35941250Y-11827500D02*
X36161250Y-12047500D01*
X36161250Y-11827500D02*
X35941250Y-12047500D01*
X35941250Y-16602500D02*
X36161250Y-16822500D01*
X36161250Y-16602500D02*
X35941250Y-16822500D01*
D12*
X4786369Y-17507976D02*
X4786369Y-17307976D01*
X4833988Y-17307976D01*
X4862560Y-17317500D01*
X4881607Y-17336548D01*
X4891131Y-17355595D01*
X4900655Y-17393690D01*
X4900655Y-17422262D01*
X4891131Y-17460357D01*
X4881607Y-17479405D01*
X4862560Y-17498452D01*
X4833988Y-17507976D01*
X4786369Y-17507976D01*
X4986369Y-17507976D02*
X4986369Y-17374643D01*
X4986369Y-17412738D02*
X4995893Y-17393690D01*
X5005417Y-17384167D01*
X5024464Y-17374643D01*
X5043512Y-17374643D01*
X5110179Y-17507976D02*
X5110179Y-17374643D01*
X5110179Y-17307976D02*
X5100655Y-17317500D01*
X5110179Y-17327024D01*
X5119702Y-17317500D01*
X5110179Y-17307976D01*
X5110179Y-17327024D01*
X5233988Y-17507976D02*
X5214940Y-17498452D01*
X5205417Y-17479405D01*
X5205417Y-17307976D01*
X5338750Y-17507976D02*
X5319702Y-17498452D01*
X5310179Y-17479405D01*
X5310179Y-17307976D01*
X5567321Y-17507976D02*
X5567321Y-17307976D01*
X5633988Y-17450833D01*
X5700655Y-17307976D01*
X5700655Y-17507976D01*
X5881607Y-17507976D02*
X5881607Y-17403214D01*
X5872083Y-17384167D01*
X5853036Y-17374643D01*
X5814940Y-17374643D01*
X5795893Y-17384167D01*
X5881607Y-17498452D02*
X5862559Y-17507976D01*
X5814940Y-17507976D01*
X5795893Y-17498452D01*
X5786369Y-17479405D01*
X5786369Y-17460357D01*
X5795893Y-17441310D01*
X5814940Y-17431786D01*
X5862559Y-17431786D01*
X5881607Y-17422262D01*
X5976845Y-17374643D02*
X5976845Y-17574643D01*
X5976845Y-17384167D02*
X5995893Y-17374643D01*
X6033988Y-17374643D01*
X6053036Y-17384167D01*
X6062559Y-17393690D01*
X6072083Y-17412738D01*
X6072083Y-17469881D01*
X6062559Y-17488929D01*
X6053036Y-17498452D01*
X6033988Y-17507976D01*
X5995893Y-17507976D01*
X5976845Y-17498452D01*
X6157798Y-17488929D02*
X6167321Y-17498452D01*
X6157798Y-17507976D01*
X6148274Y-17498452D01*
X6157798Y-17488929D01*
X6157798Y-17507976D01*
X6157798Y-17384167D02*
X6167321Y-17393690D01*
X6157798Y-17403214D01*
X6148274Y-17393690D01*
X6157798Y-17384167D01*
X6157798Y-17403214D01*
X4328750Y-17737500D02*
X4528750Y-17937500D01*
X4528750Y-17737500D02*
X4328750Y-17937500D01*
X4776845Y-17747024D02*
X4786369Y-17737500D01*
X4805417Y-17727976D01*
X4853036Y-17727976D01*
X4872083Y-17737500D01*
X4881607Y-17747024D01*
X4891131Y-17766071D01*
X4891131Y-17785119D01*
X4881607Y-17813690D01*
X4767321Y-17927976D01*
X4891131Y-17927976D01*
X4976845Y-17908929D02*
X4986369Y-17918452D01*
X4976845Y-17927976D01*
X4967321Y-17918452D01*
X4976845Y-17908929D01*
X4976845Y-17927976D01*
X5062560Y-17747024D02*
X5072083Y-17737500D01*
X5091131Y-17727976D01*
X5138750Y-17727976D01*
X5157798Y-17737500D01*
X5167321Y-17747024D01*
X5176845Y-17766071D01*
X5176845Y-17785119D01*
X5167321Y-17813690D01*
X5053036Y-17927976D01*
X5176845Y-17927976D01*
X5300655Y-17727976D02*
X5319702Y-17727976D01*
X5338750Y-17737500D01*
X5348274Y-17747024D01*
X5357798Y-17766071D01*
X5367321Y-17804167D01*
X5367321Y-17851786D01*
X5357798Y-17889881D01*
X5348274Y-17908929D01*
X5338750Y-17918452D01*
X5319702Y-17927976D01*
X5300655Y-17927976D01*
X5281607Y-17918452D01*
X5272083Y-17908929D01*
X5262560Y-17889881D01*
X5253036Y-17851786D01*
X5253036Y-17804167D01*
X5262560Y-17766071D01*
X5272083Y-17747024D01*
X5281607Y-17737500D01*
X5300655Y-17727976D01*
X5491131Y-17727976D02*
X5510179Y-17727976D01*
X5529226Y-17737500D01*
X5538750Y-17747024D01*
X5548274Y-17766071D01*
X5557798Y-17804167D01*
X5557798Y-17851786D01*
X5548274Y-17889881D01*
X5538750Y-17908929D01*
X5529226Y-17918452D01*
X5510179Y-17927976D01*
X5491131Y-17927976D01*
X5472083Y-17918452D01*
X5462560Y-17908929D01*
X5453036Y-17889881D01*
X5443512Y-17851786D01*
X5443512Y-17804167D01*
X5453036Y-17766071D01*
X5462560Y-17747024D01*
X5472083Y-17737500D01*
X5491131Y-17727976D01*
X5643512Y-17927976D02*
X5643512Y-17794643D01*
X5643512Y-17813690D02*
X5653036Y-17804167D01*
X5672083Y-17794643D01*
X5700655Y-17794643D01*
X5719702Y-17804167D01*
X5729226Y-17823214D01*
X5729226Y-17927976D01*
X5729226Y-17823214D02*
X5738750Y-17804167D01*
X5757798Y-17794643D01*
X5786369Y-17794643D01*
X5805417Y-17804167D01*
X5814940Y-17823214D01*
X5814940Y-17927976D01*
X5910178Y-17927976D02*
X5910178Y-17794643D01*
X5910178Y-17813690D02*
X5919702Y-17804167D01*
X5938750Y-17794643D01*
X5967321Y-17794643D01*
X5986369Y-17804167D01*
X5995893Y-17823214D01*
X5995893Y-17927976D01*
X5995893Y-17823214D02*
X6005417Y-17804167D01*
X6024464Y-17794643D01*
X6053036Y-17794643D01*
X6072083Y-17804167D01*
X6081607Y-17823214D01*
X6081607Y-17927976D01*
X6472083Y-17718452D02*
X6300655Y-17975595D01*
X6729226Y-17727976D02*
X6748274Y-17727976D01*
X6767321Y-17737500D01*
X6776845Y-17747024D01*
X6786369Y-17766071D01*
X6795893Y-17804167D01*
X6795893Y-17851786D01*
X6786369Y-17889881D01*
X6776845Y-17908929D01*
X6767321Y-17918452D01*
X6748274Y-17927976D01*
X6729226Y-17927976D01*
X6710178Y-17918452D01*
X6700655Y-17908929D01*
X6691131Y-17889881D01*
X6681607Y-17851786D01*
X6681607Y-17804167D01*
X6691131Y-17766071D01*
X6700655Y-17747024D01*
X6710178Y-17737500D01*
X6729226Y-17727976D01*
X6881607Y-17908929D02*
X6891131Y-17918452D01*
X6881607Y-17927976D01*
X6872083Y-17918452D01*
X6881607Y-17908929D01*
X6881607Y-17927976D01*
X7014940Y-17727976D02*
X7033988Y-17727976D01*
X7053036Y-17737500D01*
X7062559Y-17747024D01*
X7072083Y-17766071D01*
X7081607Y-17804167D01*
X7081607Y-17851786D01*
X7072083Y-17889881D01*
X7062559Y-17908929D01*
X7053036Y-17918452D01*
X7033988Y-17927976D01*
X7014940Y-17927976D01*
X6995893Y-17918452D01*
X6986369Y-17908929D01*
X6976845Y-17889881D01*
X6967321Y-17851786D01*
X6967321Y-17804167D01*
X6976845Y-17766071D01*
X6986369Y-17747024D01*
X6995893Y-17737500D01*
X7014940Y-17727976D01*
X7195893Y-17813690D02*
X7176845Y-17804167D01*
X7167321Y-17794643D01*
X7157798Y-17775595D01*
X7157798Y-17766071D01*
X7167321Y-17747024D01*
X7176845Y-17737500D01*
X7195893Y-17727976D01*
X7233988Y-17727976D01*
X7253036Y-17737500D01*
X7262559Y-17747024D01*
X7272083Y-17766071D01*
X7272083Y-17775595D01*
X7262559Y-17794643D01*
X7253036Y-17804167D01*
X7233988Y-17813690D01*
X7195893Y-17813690D01*
X7176845Y-17823214D01*
X7167321Y-17832738D01*
X7157798Y-17851786D01*
X7157798Y-17889881D01*
X7167321Y-17908929D01*
X7176845Y-17918452D01*
X7195893Y-17927976D01*
X7233988Y-17927976D01*
X7253036Y-17918452D01*
X7262559Y-17908929D01*
X7272083Y-17889881D01*
X7272083Y-17851786D01*
X7262559Y-17832738D01*
X7253036Y-17823214D01*
X7233988Y-17813690D01*
X7443512Y-17727976D02*
X7405417Y-17727976D01*
X7386369Y-17737500D01*
X7376845Y-17747024D01*
X7357798Y-17775595D01*
X7348274Y-17813690D01*
X7348274Y-17889881D01*
X7357798Y-17908929D01*
X7367321Y-17918452D01*
X7386369Y-17927976D01*
X7424464Y-17927976D01*
X7443512Y-17918452D01*
X7453036Y-17908929D01*
X7462559Y-17889881D01*
X7462559Y-17842262D01*
X7453036Y-17823214D01*
X7443512Y-17813690D01*
X7424464Y-17804167D01*
X7386369Y-17804167D01*
X7367321Y-17813690D01*
X7357798Y-17823214D01*
X7348274Y-17842262D01*
X7633988Y-17727976D02*
X7595893Y-17727976D01*
X7576845Y-17737500D01*
X7567321Y-17747024D01*
X7548274Y-17775595D01*
X7538750Y-17813690D01*
X7538750Y-17889881D01*
X7548274Y-17908929D01*
X7557798Y-17918452D01*
X7576845Y-17927976D01*
X7614940Y-17927976D01*
X7633988Y-17918452D01*
X7643512Y-17908929D01*
X7653036Y-17889881D01*
X7653036Y-17842262D01*
X7643512Y-17823214D01*
X7633988Y-17813690D01*
X7614940Y-17804167D01*
X7576845Y-17804167D01*
X7557798Y-17813690D01*
X7548274Y-17823214D01*
X7538750Y-17842262D01*
X7729226Y-17727976D02*
X7729226Y-17766071D01*
X7805417Y-17727976D02*
X7805417Y-17766071D01*
X8100655Y-18004167D02*
X8091131Y-17994643D01*
X8072083Y-17966071D01*
X8062559Y-17947024D01*
X8053036Y-17918452D01*
X8043512Y-17870833D01*
X8043512Y-17832738D01*
X8053036Y-17785119D01*
X8062559Y-17756548D01*
X8072083Y-17737500D01*
X8091131Y-17708929D01*
X8100655Y-17699405D01*
X8281607Y-17927976D02*
X8167321Y-17927976D01*
X8224464Y-17927976D02*
X8224464Y-17727976D01*
X8205417Y-17756548D01*
X8186369Y-17775595D01*
X8167321Y-17785119D01*
X8472083Y-17927976D02*
X8357798Y-17927976D01*
X8414940Y-17927976D02*
X8414940Y-17727976D01*
X8395893Y-17756548D01*
X8376845Y-17775595D01*
X8357798Y-17785119D01*
X8710179Y-17927976D02*
X8710179Y-17727976D01*
X8795893Y-17927976D02*
X8795893Y-17823214D01*
X8786369Y-17804167D01*
X8767321Y-17794643D01*
X8738750Y-17794643D01*
X8719702Y-17804167D01*
X8710179Y-17813690D01*
X8919702Y-17927976D02*
X8900655Y-17918452D01*
X8891131Y-17908929D01*
X8881607Y-17889881D01*
X8881607Y-17832738D01*
X8891131Y-17813690D01*
X8900655Y-17804167D01*
X8919702Y-17794643D01*
X8948274Y-17794643D01*
X8967321Y-17804167D01*
X8976845Y-17813690D01*
X8986369Y-17832738D01*
X8986369Y-17889881D01*
X8976845Y-17908929D01*
X8967321Y-17918452D01*
X8948274Y-17927976D01*
X8919702Y-17927976D01*
X9100655Y-17927976D02*
X9081607Y-17918452D01*
X9072083Y-17899405D01*
X9072083Y-17727976D01*
X9253036Y-17918452D02*
X9233988Y-17927976D01*
X9195893Y-17927976D01*
X9176845Y-17918452D01*
X9167321Y-17899405D01*
X9167321Y-17823214D01*
X9176845Y-17804167D01*
X9195893Y-17794643D01*
X9233988Y-17794643D01*
X9253036Y-17804167D01*
X9262560Y-17823214D01*
X9262560Y-17842262D01*
X9167321Y-17861310D01*
X9338750Y-17918452D02*
X9357798Y-17927976D01*
X9395893Y-17927976D01*
X9414940Y-17918452D01*
X9424464Y-17899405D01*
X9424464Y-17889881D01*
X9414940Y-17870833D01*
X9395893Y-17861310D01*
X9367321Y-17861310D01*
X9348274Y-17851786D01*
X9338750Y-17832738D01*
X9338750Y-17823214D01*
X9348274Y-17804167D01*
X9367321Y-17794643D01*
X9395893Y-17794643D01*
X9414940Y-17804167D01*
X9491131Y-18004167D02*
X9500655Y-17994643D01*
X9519702Y-17966071D01*
X9529226Y-17947024D01*
X9538750Y-17918452D01*
X9548274Y-17870833D01*
X9548274Y-17832738D01*
X9538750Y-17785119D01*
X9529226Y-17756548D01*
X9519702Y-17737500D01*
X9500655Y-17708929D01*
X9491131Y-17699405D01*
X9853036Y-18004167D02*
X9843512Y-17994643D01*
X9824464Y-17966071D01*
X9814940Y-17947024D01*
X9805417Y-17918452D01*
X9795893Y-17870833D01*
X9795893Y-17832738D01*
X9805417Y-17785119D01*
X9814940Y-17756548D01*
X9824464Y-17737500D01*
X9843512Y-17708929D01*
X9853036Y-17699405D01*
X9929226Y-17794643D02*
X9929226Y-17927976D01*
X9929226Y-17813690D02*
X9938750Y-17804167D01*
X9957798Y-17794643D01*
X9986369Y-17794643D01*
X10005417Y-17804167D01*
X10014940Y-17823214D01*
X10014940Y-17927976D01*
X10138750Y-17927976D02*
X10119702Y-17918452D01*
X10110179Y-17908929D01*
X10100655Y-17889881D01*
X10100655Y-17832738D01*
X10110179Y-17813690D01*
X10119702Y-17804167D01*
X10138750Y-17794643D01*
X10167321Y-17794643D01*
X10186369Y-17804167D01*
X10195893Y-17813690D01*
X10205417Y-17832738D01*
X10205417Y-17889881D01*
X10195893Y-17908929D01*
X10186369Y-17918452D01*
X10167321Y-17927976D01*
X10138750Y-17927976D01*
X10262560Y-17794643D02*
X10338750Y-17794643D01*
X10291131Y-17727976D02*
X10291131Y-17899405D01*
X10300655Y-17918452D01*
X10319702Y-17927976D01*
X10338750Y-17927976D01*
X10557798Y-17794643D02*
X10557798Y-17994643D01*
X10557798Y-17804167D02*
X10576845Y-17794643D01*
X10614940Y-17794643D01*
X10633988Y-17804167D01*
X10643512Y-17813690D01*
X10653036Y-17832738D01*
X10653036Y-17889881D01*
X10643512Y-17908929D01*
X10633988Y-17918452D01*
X10614940Y-17927976D01*
X10576845Y-17927976D01*
X10557798Y-17918452D01*
X10767321Y-17927976D02*
X10748274Y-17918452D01*
X10738750Y-17899405D01*
X10738750Y-17727976D01*
X10929226Y-17927976D02*
X10929226Y-17823214D01*
X10919702Y-17804167D01*
X10900655Y-17794643D01*
X10862560Y-17794643D01*
X10843512Y-17804167D01*
X10929226Y-17918452D02*
X10910179Y-17927976D01*
X10862560Y-17927976D01*
X10843512Y-17918452D01*
X10833988Y-17899405D01*
X10833988Y-17880357D01*
X10843512Y-17861310D01*
X10862560Y-17851786D01*
X10910179Y-17851786D01*
X10929226Y-17842262D01*
X10995893Y-17794643D02*
X11072083Y-17794643D01*
X11024464Y-17727976D02*
X11024464Y-17899405D01*
X11033988Y-17918452D01*
X11053036Y-17927976D01*
X11072083Y-17927976D01*
X11214940Y-17918452D02*
X11195893Y-17927976D01*
X11157798Y-17927976D01*
X11138750Y-17918452D01*
X11129226Y-17899405D01*
X11129226Y-17823214D01*
X11138750Y-17804167D01*
X11157798Y-17794643D01*
X11195893Y-17794643D01*
X11214940Y-17804167D01*
X11224464Y-17823214D01*
X11224464Y-17842262D01*
X11129226Y-17861310D01*
X11395893Y-17927976D02*
X11395893Y-17727976D01*
X11395893Y-17918452D02*
X11376845Y-17927976D01*
X11338750Y-17927976D01*
X11319702Y-17918452D01*
X11310178Y-17908929D01*
X11300655Y-17889881D01*
X11300655Y-17832738D01*
X11310178Y-17813690D01*
X11319702Y-17804167D01*
X11338750Y-17794643D01*
X11376845Y-17794643D01*
X11395893Y-17804167D01*
X11472083Y-18004167D02*
X11481607Y-17994643D01*
X11500655Y-17966071D01*
X11510178Y-17947024D01*
X11519702Y-17918452D01*
X11529226Y-17870833D01*
X11529226Y-17832738D01*
X11519702Y-17785119D01*
X11510178Y-17756548D01*
X11500655Y-17737500D01*
X11481607Y-17708929D01*
X11472083Y-17699405D01*
M02*
