G04 #@! TF.GenerationSoftware,KiCad,Pcbnew,(6.0.0-0)*
G04 #@! TF.CreationDate,2022-10-17T22:45:47+02:00*
G04 #@! TF.ProjectId,lagom_plate,6c61676f-6d5f-4706-9c61-74652e6b6963,rev?*
G04 #@! TF.SameCoordinates,Original*
G04 #@! TF.FileFunction,Profile,NP*
%FSLAX46Y46*%
G04 Gerber Fmt 4.6, Leading zero omitted, Abs format (unit mm)*
G04 Created by KiCad (PCBNEW (6.0.0-0)) date 2022-10-17 22:45:47*
%MOMM*%
%LPD*%
G01*
G04 APERTURE LIST*
G04 #@! TA.AperFunction,Profile*
%ADD10C,0.050000*%
G04 #@! TD*
G04 #@! TA.AperFunction,Profile*
%ADD11C,0.150000*%
G04 #@! TD*
G04 APERTURE END LIST*
D10*
X136750000Y-129087500D02*
G75*
G03*
X136250000Y-129587500I1J-500001D01*
G01*
X210762500Y-148187500D02*
G75*
G03*
X210262500Y-148687500I1J-500001D01*
G01*
D11*
X360512500Y-42975000D02*
X274562500Y-42975000D01*
D10*
X293825000Y-91387500D02*
X293825000Y-104387500D01*
X303375000Y-72287500D02*
X303375000Y-85287500D01*
X65570000Y-143092500D02*
X82450000Y-143092500D01*
X341575000Y-50637500D02*
X341575000Y-63637500D01*
X279500000Y-123487500D02*
G75*
G03*
X280000000Y-123987500I500001J1D01*
G01*
X183675000Y-72287500D02*
G75*
G03*
X183175000Y-71787500I-500001J-1D01*
G01*
X309099500Y-123987500D02*
X324037500Y-123987500D01*
X145475000Y-85287500D02*
X145475000Y-72287500D01*
X335975000Y-64137500D02*
G75*
G03*
X336475000Y-63637500I-1J500001D01*
G01*
X130650000Y-129087500D02*
X117650000Y-129087500D01*
X150250000Y-129587500D02*
G75*
G03*
X149750000Y-129087500I-500001J-1D01*
G01*
X322975000Y-162187500D02*
X335975000Y-162187500D01*
X245750000Y-142587500D02*
X245750000Y-129587500D01*
X322975000Y-64137500D02*
X335975000Y-64137500D01*
X279175000Y-85287500D02*
X279175000Y-72287500D01*
X335975000Y-129087500D02*
X322975000Y-129087500D01*
X169675000Y-85287500D02*
G75*
G03*
X170175000Y-85787500I500001J1D01*
G01*
X111550000Y-129087500D02*
X98550000Y-129087500D01*
X254800000Y-109987500D02*
X241800000Y-109987500D01*
X248962500Y-148187500D02*
G75*
G03*
X248462500Y-148687500I1J-500001D01*
G01*
X341575000Y-142587500D02*
G75*
G03*
X342075000Y-143087500I500001J1D01*
G01*
X97225000Y-162187500D02*
G75*
G03*
X97725000Y-161687500I-1J500001D01*
G01*
X102000000Y-123987500D02*
G75*
G03*
X102500000Y-123487500I-1J500001D01*
G01*
X154575500Y-162187500D02*
X160575500Y-162187500D01*
X121100000Y-123987500D02*
G75*
G03*
X121600000Y-123487500I-1J500001D01*
G01*
X82450500Y-143587500D02*
G75*
G03*
X82950500Y-144087500I500001J1D01*
G01*
X333587500Y-115875500D02*
X332975500Y-115875500D01*
X341575000Y-161687500D02*
G75*
G03*
X342075000Y-162187500I500001J1D01*
G01*
X250850000Y-129587500D02*
X250850000Y-142587500D01*
X92450000Y-129087500D02*
X79450000Y-129087500D01*
X184500000Y-123987500D02*
X197500000Y-123987500D01*
X146300000Y-109987500D02*
G75*
G03*
X145800000Y-110487500I1J-500001D01*
G01*
X131150000Y-142587500D02*
X131150000Y-129587500D01*
X310987000Y-86787500D02*
G75*
G03*
X311487000Y-86287500I-1J500001D01*
G01*
X57962500Y-143087500D02*
X58574500Y-143092500D01*
X334087500Y-100937500D02*
G75*
G03*
X333587500Y-100437500I-500001J-1D01*
G01*
X318200000Y-90887500D02*
G75*
G03*
X317700000Y-91387500I1J-500001D01*
G01*
X81837500Y-148187500D02*
G75*
G03*
X81337500Y-148687500I1J-500001D01*
G01*
X261962500Y-148187500D02*
X256425000Y-148187500D01*
X150575000Y-72287500D02*
X150575000Y-85287500D01*
X74675000Y-71787500D02*
G75*
G03*
X74175000Y-72287500I1J-500001D01*
G01*
X131475000Y-72287500D02*
X131475000Y-85287500D01*
X326425000Y-71787500D02*
X313425000Y-71787500D01*
X279500000Y-110487500D02*
X279500000Y-123487500D01*
D11*
X360512500Y-171900000D02*
G75*
G03*
X365287500Y-167125000I0J4775000D01*
G01*
D10*
X102000000Y-109987500D02*
X89000000Y-109987500D01*
X355075000Y-64137500D02*
G75*
G03*
X355575000Y-63637500I-1J500001D01*
G01*
X307325000Y-104887500D02*
G75*
G03*
X307825000Y-104387500I-1J500001D01*
G01*
X335975000Y-148187500D02*
X322975000Y-148187500D01*
X121100000Y-148187500D02*
X105712500Y-148187500D01*
X270450000Y-143087500D02*
X283450000Y-143087500D01*
X342075000Y-162187500D02*
X355075000Y-162187500D01*
X333587500Y-122875500D02*
G75*
G03*
X334087500Y-122375500I-1J500001D01*
G01*
X235700000Y-123987500D02*
G75*
G03*
X236200000Y-123487500I-1J500001D01*
G01*
X227475000Y-71787500D02*
G75*
G03*
X226975000Y-72287500I1J-500001D01*
G01*
X250025000Y-104887500D02*
G75*
G03*
X250525000Y-104387500I-1J500001D01*
G01*
X355575000Y-104387500D02*
X355575000Y-91387500D01*
X203100000Y-110487500D02*
X203100000Y-123487500D01*
X57462500Y-148687500D02*
X57462500Y-161687500D01*
X112875000Y-85787500D02*
X125875000Y-85787500D01*
X342075000Y-64137500D02*
X355075000Y-64137500D01*
X198325000Y-104387500D02*
G75*
G03*
X198825000Y-104887500I500001J1D01*
G01*
X125875000Y-71787500D02*
X112875000Y-71787500D01*
X355575000Y-85287500D02*
X355575000Y-72287500D01*
X145800000Y-123487500D02*
G75*
G03*
X146300000Y-123987500I500001J1D01*
G01*
X155350000Y-142587500D02*
G75*
G03*
X155850000Y-143087500I500001J1D01*
G01*
X202775000Y-72287500D02*
G75*
G03*
X202275000Y-71787500I-500001J-1D01*
G01*
X298275000Y-85287500D02*
X298275000Y-72287500D01*
X121600000Y-148687500D02*
G75*
G03*
X121100000Y-148187500I-500001J-1D01*
G01*
X178900000Y-123487500D02*
X178900000Y-110487500D01*
X122425000Y-90887500D02*
G75*
G03*
X121925000Y-91387500I1J-500001D01*
G01*
X55075000Y-72287500D02*
X55075000Y-85287500D01*
X226650000Y-129587500D02*
G75*
G03*
X226150000Y-129087500I-500001J-1D01*
G01*
X255925000Y-147187500D02*
X249925000Y-147187500D01*
X80512500Y-129087500D02*
X67512500Y-129087500D01*
X355075000Y-50137500D02*
X342075000Y-50137500D01*
X355075000Y-71787500D02*
X342075000Y-71787500D01*
X217100000Y-123487500D02*
X217100000Y-110487500D01*
X126700000Y-110487500D02*
X126700000Y-123487500D01*
X183175000Y-85787500D02*
G75*
G03*
X183675000Y-85287500I-1J500001D01*
G01*
X179225000Y-91387500D02*
X179225000Y-104387500D01*
X260900000Y-123987500D02*
X273900000Y-123987500D01*
X236200000Y-123487500D02*
X236200000Y-110487500D01*
X336475000Y-72287500D02*
G75*
G03*
X335975000Y-71787500I-500001J-1D01*
G01*
X275225000Y-104887500D02*
X288225000Y-104887500D01*
X58574500Y-143092500D02*
X58574500Y-143587500D01*
X255300000Y-123487500D02*
X255300000Y-110487500D01*
X307825000Y-104387500D02*
X307825000Y-91387500D01*
X274725000Y-104387500D02*
G75*
G03*
X275225000Y-104887500I500001J1D01*
G01*
X159300000Y-123987500D02*
G75*
G03*
X159800000Y-123487500I-1J500001D01*
G01*
X264350000Y-129087500D02*
X251350000Y-129087500D01*
X284775000Y-71787500D02*
G75*
G03*
X284275000Y-72287500I1J-500001D01*
G01*
X76237500Y-123487500D02*
X76237500Y-110487500D01*
X189275000Y-85787500D02*
X202275000Y-85787500D01*
X270450000Y-148187500D02*
G75*
G03*
X269950000Y-148687500I1J-500001D01*
G01*
X202324500Y-147187500D02*
G75*
G03*
X201824500Y-147687500I1J-500001D01*
G01*
X309712500Y-143087500D02*
G75*
G03*
X310212500Y-142587500I-1J500001D01*
G01*
X105212500Y-148687500D02*
X105212500Y-161687500D01*
X160625000Y-104887500D02*
X173625000Y-104887500D01*
X303875000Y-71787500D02*
G75*
G03*
X303375000Y-72287500I1J-500001D01*
G01*
X304487000Y-86287500D02*
G75*
G03*
X304987000Y-86787500I500001J1D01*
G01*
X255300000Y-110487500D02*
G75*
G03*
X254800000Y-109987500I-500001J-1D01*
G01*
X320087500Y-109987500D02*
X299100000Y-109987500D01*
X269950000Y-148687500D02*
X269950000Y-161687500D01*
X193225000Y-91387500D02*
G75*
G03*
X192725000Y-90887500I-500001J-1D01*
G01*
X187950000Y-129087500D02*
X174950000Y-129087500D01*
X221375000Y-71787500D02*
X208375000Y-71787500D01*
X55575000Y-71787500D02*
G75*
G03*
X55075000Y-72287500I1J-500001D01*
G01*
X355575000Y-142587500D02*
X355575000Y-129587500D01*
X262462500Y-161687500D02*
X262462500Y-148687500D01*
X269950000Y-129587500D02*
X269950000Y-142587500D01*
X112050000Y-129587500D02*
G75*
G03*
X111550000Y-129087500I-500001J-1D01*
G01*
X226150000Y-143087500D02*
G75*
G03*
X226650000Y-142587500I-1J500001D01*
G01*
X69075000Y-85287500D02*
X69075000Y-72287500D01*
D11*
X45362500Y-167125000D02*
X45362500Y-74012500D01*
D10*
X231425000Y-91387500D02*
G75*
G03*
X230925000Y-90887500I-500001J-1D01*
G01*
D11*
X365287500Y-167125000D02*
X365287500Y-47750000D01*
D10*
X355575000Y-123487500D02*
X355575000Y-110487500D01*
X221875000Y-72287500D02*
G75*
G03*
X221375000Y-71787500I-500001J-1D01*
G01*
X57962500Y-109987500D02*
G75*
G03*
X57462500Y-110487500I1J-500001D01*
G01*
X265175000Y-72287500D02*
X265175000Y-85287500D01*
X322475000Y-50637500D02*
X322475000Y-63637500D01*
X280000000Y-109987500D02*
G75*
G03*
X279500000Y-110487500I1J-500001D01*
G01*
X194050000Y-143087500D02*
X207050000Y-143087500D01*
X217925000Y-90887500D02*
G75*
G03*
X217425000Y-91387500I1J-500001D01*
G01*
X57962500Y-129087500D02*
G75*
G03*
X57462500Y-129587500I1J-500001D01*
G01*
X341575000Y-91387500D02*
X341575000Y-104387500D01*
X198825000Y-90887500D02*
G75*
G03*
X198325000Y-91387500I1J-500001D01*
G01*
X241300000Y-110487500D02*
X241300000Y-123487500D01*
X127200000Y-109987500D02*
G75*
G03*
X126700000Y-110487500I1J-500001D01*
G01*
X302099500Y-124487500D02*
G75*
G03*
X302599500Y-124987500I500001J1D01*
G01*
X342075000Y-143087500D02*
X355075000Y-143087500D01*
X105212500Y-161687500D02*
G75*
G03*
X105712500Y-162187500I500001J1D01*
G01*
X57462500Y-142587500D02*
G75*
G03*
X57962500Y-143087500I500001J1D01*
G01*
X105712500Y-162187500D02*
X121100000Y-162187500D01*
X82450000Y-143092500D02*
X82450000Y-143587500D01*
X193550000Y-129587500D02*
X193550000Y-142587500D01*
X87675000Y-71787500D02*
X74675000Y-71787500D01*
X172062500Y-161687500D02*
G75*
G03*
X172562500Y-162187500I500001J1D01*
G01*
X302099500Y-123987500D02*
X302099500Y-124487500D01*
X140700000Y-123487500D02*
X140700000Y-110487500D01*
X248962500Y-162187500D02*
X261962500Y-162187500D01*
X322975000Y-129087500D02*
G75*
G03*
X322475000Y-129587500I1J-500001D01*
G01*
X184000000Y-123487500D02*
G75*
G03*
X184500000Y-123987500I500001J1D01*
G01*
X107600000Y-110487500D02*
X107600000Y-123487500D01*
X201824500Y-147687500D02*
X201824500Y-148182500D01*
X324037500Y-123987500D02*
G75*
G03*
X324537500Y-123487500I-1J500001D01*
G01*
X303875000Y-162187500D02*
X316875000Y-162187500D01*
X105212500Y-161687500D02*
G75*
G03*
X105712500Y-162187500I500001J1D01*
G01*
X284275000Y-72287500D02*
X284275000Y-85287500D01*
X140200000Y-123987500D02*
G75*
G03*
X140700000Y-123487500I-1J500001D01*
G01*
X256125000Y-104887500D02*
X269125000Y-104887500D01*
X183675000Y-85287500D02*
X183675000Y-72287500D01*
X121100000Y-162187500D02*
G75*
G03*
X121600000Y-161687500I-1J500001D01*
G01*
X332975500Y-124487500D02*
X332975500Y-122875500D01*
X57462500Y-129587500D02*
X57462500Y-142587500D01*
X331700000Y-98999500D02*
X333587500Y-98999500D01*
X285837500Y-162187500D02*
G75*
G03*
X286337500Y-161687500I-1J500001D01*
G01*
X84225000Y-90887500D02*
G75*
G03*
X83725000Y-91387500I1J-500001D01*
G01*
X57462500Y-161687500D02*
G75*
G03*
X57962500Y-162187500I500001J1D01*
G01*
X141025000Y-104387500D02*
G75*
G03*
X141525000Y-104887500I500001J1D01*
G01*
X168850000Y-129087500D02*
X155850000Y-129087500D01*
X121925000Y-91387500D02*
X121925000Y-104387500D01*
X131475000Y-85287500D02*
G75*
G03*
X131975000Y-85787500I500001J1D01*
G01*
X308599500Y-124987500D02*
G75*
G03*
X309099500Y-124487500I-1J500001D01*
G01*
X160625000Y-90887500D02*
G75*
G03*
X160125000Y-91387500I1J-500001D01*
G01*
X236837500Y-162187500D02*
G75*
G03*
X237337500Y-161687500I-1J500001D01*
G01*
X60350000Y-104887500D02*
X73350000Y-104887500D01*
X286337500Y-161687500D02*
X286337500Y-148687500D01*
X169350000Y-129587500D02*
G75*
G03*
X168850000Y-129087500I-500001J-1D01*
G01*
X208324500Y-147187500D02*
X202324500Y-147187500D01*
X342075000Y-129087500D02*
G75*
G03*
X341575000Y-129587500I1J-500001D01*
G01*
X260900000Y-109987500D02*
G75*
G03*
X260400000Y-110487500I1J-500001D01*
G01*
X179725000Y-104887500D02*
X192725000Y-104887500D01*
X135925000Y-104387500D02*
X135925000Y-91387500D01*
X57462500Y-148687500D02*
X57462500Y-161687500D01*
X260075000Y-72287500D02*
G75*
G03*
X259575000Y-71787500I-500001J-1D01*
G01*
X245250000Y-143087500D02*
G75*
G03*
X245750000Y-142587500I-1J500001D01*
G01*
X135425000Y-104887500D02*
G75*
G03*
X135925000Y-104387500I-1J500001D01*
G01*
X355575000Y-129587500D02*
G75*
G03*
X355075000Y-129087500I-500001J-1D01*
G01*
X303375000Y-161687500D02*
G75*
G03*
X303875000Y-162187500I500001J1D01*
G01*
X87675000Y-85787500D02*
G75*
G03*
X88175000Y-85287500I-1J500001D01*
G01*
X145800000Y-110487500D02*
X145800000Y-123487500D01*
X284775000Y-85787500D02*
X297775000Y-85787500D01*
D11*
X50137500Y-69237500D02*
G75*
G03*
X45362500Y-74012500I0J-4775000D01*
G01*
D10*
X355075000Y-123987500D02*
G75*
G03*
X355575000Y-123487500I-1J500001D01*
G01*
X254800000Y-123987500D02*
G75*
G03*
X255300000Y-123487500I-1J500001D01*
G01*
X203600000Y-123987500D02*
X216600000Y-123987500D01*
X335363000Y-85787500D02*
X335975000Y-85787500D01*
X155025000Y-91387500D02*
G75*
G03*
X154525000Y-90887500I-500001J-1D01*
G01*
X73850000Y-161687500D02*
X73850000Y-148687500D01*
X154525000Y-104887500D02*
G75*
G03*
X155025000Y-104387500I-1J500001D01*
G01*
X197500000Y-109987500D02*
X184500000Y-109987500D01*
X116325000Y-90887500D02*
X103325000Y-90887500D01*
X65074500Y-144087500D02*
G75*
G03*
X65574500Y-143587500I-1J500001D01*
G01*
X117150000Y-142587500D02*
G75*
G03*
X117650000Y-143087500I500001J1D01*
G01*
X107275000Y-72287500D02*
G75*
G03*
X106775000Y-71787500I-500001J-1D01*
G01*
X260400000Y-110487500D02*
X260400000Y-123487500D01*
X270450000Y-162187500D02*
X285837500Y-162187500D01*
X211825000Y-90887500D02*
X198825000Y-90887500D01*
X198000000Y-110487500D02*
G75*
G03*
X197500000Y-109987500I-500001J-1D01*
G01*
X131150000Y-129587500D02*
G75*
G03*
X130650000Y-129087500I-500001J-1D01*
G01*
X164575000Y-72287500D02*
G75*
G03*
X164075000Y-71787500I-500001J-1D01*
G01*
X73850000Y-104387500D02*
X73850000Y-91387500D01*
X212325000Y-104387500D02*
X212325000Y-91387500D01*
X232250000Y-129087500D02*
G75*
G03*
X231750000Y-129587500I1J-500001D01*
G01*
X207550000Y-129587500D02*
G75*
G03*
X207050000Y-129087500I-500001J-1D01*
G01*
X106775000Y-85787500D02*
G75*
G03*
X107275000Y-85287500I-1J500001D01*
G01*
X103325000Y-90887500D02*
G75*
G03*
X102825000Y-91387500I1J-500001D01*
G01*
X336475000Y-161687500D02*
X336475000Y-148687500D01*
X97725000Y-91387500D02*
G75*
G03*
X97225000Y-90887500I-500001J-1D01*
G01*
X105712500Y-148187500D02*
G75*
G03*
X105212500Y-148687500I1J-500001D01*
G01*
X316875000Y-162187500D02*
G75*
G03*
X317375000Y-161687500I-1J500001D01*
G01*
X98550000Y-129087500D02*
G75*
G03*
X98050000Y-129587500I1J-500001D01*
G01*
X334087500Y-113937500D02*
X334087500Y-100937500D01*
X248462500Y-161687500D02*
G75*
G03*
X248962500Y-162187500I500001J1D01*
G01*
X237025000Y-104887500D02*
X250025000Y-104887500D01*
X131975000Y-71787500D02*
G75*
G03*
X131475000Y-72287500I1J-500001D01*
G01*
X73350000Y-104887500D02*
G75*
G03*
X73850000Y-104387500I-1J500001D01*
G01*
X332475500Y-124987500D02*
G75*
G03*
X332975500Y-124487500I-1J500001D01*
G01*
X179725000Y-90887500D02*
G75*
G03*
X179225000Y-91387500I1J-500001D01*
G01*
X273900000Y-123987500D02*
G75*
G03*
X274400000Y-123487500I-1J500001D01*
G01*
X81837500Y-162187500D02*
X97225000Y-162187500D01*
X256125000Y-90887500D02*
G75*
G03*
X255625000Y-91387500I1J-500001D01*
G01*
X269125000Y-90887500D02*
X256125000Y-90887500D01*
X250525000Y-104387500D02*
X250525000Y-91387500D01*
X149750000Y-143087500D02*
G75*
G03*
X150250000Y-142587500I-1J500001D01*
G01*
X355575000Y-72287500D02*
G75*
G03*
X355075000Y-71787500I-500001J-1D01*
G01*
X322975000Y-143087500D02*
X335975000Y-143087500D01*
X355075000Y-129087500D02*
X342075000Y-129087500D01*
X286337500Y-148687500D02*
G75*
G03*
X285837500Y-148187500I-500001J-1D01*
G01*
X298600000Y-110487500D02*
X298600000Y-123487500D01*
X342075000Y-90887500D02*
G75*
G03*
X341575000Y-91387500I1J-500001D01*
G01*
X277500000Y-51412500D02*
X277500000Y-65162500D01*
X222200000Y-123487500D02*
G75*
G03*
X222700000Y-123987500I500001J1D01*
G01*
X178900000Y-110487500D02*
G75*
G03*
X178400000Y-109987500I-500001J-1D01*
G01*
X105212500Y-148687500D02*
X105212500Y-161687500D01*
X188775000Y-72287500D02*
X188775000Y-85287500D01*
X251350000Y-129087500D02*
G75*
G03*
X250850000Y-129587500I1J-500001D01*
G01*
D11*
X365287500Y-47750000D02*
G75*
G03*
X360512500Y-42975000I-4775000J0D01*
G01*
D10*
X188450000Y-142587500D02*
X188450000Y-129587500D01*
X65574500Y-143587500D02*
X65570000Y-143092500D01*
X336475000Y-142587500D02*
X336475000Y-129587500D01*
X293500000Y-110487500D02*
G75*
G03*
X293000000Y-109987500I-500001J-1D01*
G01*
X208824500Y-161687500D02*
X208824500Y-147687500D01*
X144975000Y-85787500D02*
G75*
G03*
X145475000Y-85287500I-1J500001D01*
G01*
X194050000Y-129087500D02*
G75*
G03*
X193550000Y-129587500I1J-500001D01*
G01*
X207550000Y-142587500D02*
X207550000Y-129587500D01*
X260400000Y-123487500D02*
G75*
G03*
X260900000Y-123987500I500001J1D01*
G01*
X259575000Y-71787500D02*
X246575000Y-71787500D01*
X111550000Y-143087500D02*
G75*
G03*
X112050000Y-142587500I-1J500001D01*
G01*
X217425000Y-104387500D02*
G75*
G03*
X217925000Y-104887500I500001J1D01*
G01*
X222700000Y-109987500D02*
G75*
G03*
X222200000Y-110487500I1J-500001D01*
G01*
X275225000Y-90887500D02*
G75*
G03*
X274725000Y-91387500I1J-500001D01*
G01*
X98550000Y-143087500D02*
X111550000Y-143087500D01*
X160575500Y-147187500D02*
X154575500Y-147187500D01*
X248462500Y-161687500D02*
G75*
G03*
X248962500Y-162187500I500001J1D01*
G01*
X333587500Y-100437500D02*
X331700000Y-100437500D01*
X160575500Y-162187500D02*
G75*
G03*
X161075500Y-161687500I-1J500001D01*
G01*
X168850000Y-143087500D02*
G75*
G03*
X169350000Y-142587500I-1J500001D01*
G01*
X227475000Y-85787500D02*
X240475000Y-85787500D01*
X264850000Y-142587500D02*
X264850000Y-129587500D01*
X150250000Y-142587500D02*
X150250000Y-129587500D01*
X81337500Y-161687500D02*
G75*
G03*
X81837500Y-162187500I500001J1D01*
G01*
X342075000Y-123987500D02*
X355075000Y-123987500D01*
X57962500Y-162187500D02*
X73350000Y-162187500D01*
X221875000Y-85287500D02*
X221875000Y-72287500D01*
X155350000Y-129587500D02*
X155350000Y-142587500D01*
X149750000Y-129087500D02*
X136750000Y-129087500D01*
X236525000Y-91387500D02*
X236525000Y-104387500D01*
X316750000Y-50412500D02*
X278500000Y-50412500D01*
X355075000Y-162187500D02*
G75*
G03*
X355575000Y-161687500I-1J500001D01*
G01*
D11*
X274562500Y-42975000D02*
G75*
G03*
X269787500Y-47750000I0J-4775000D01*
G01*
D10*
X222200000Y-110487500D02*
X222200000Y-123487500D01*
X81337500Y-148687500D02*
X81337500Y-161687500D01*
X250850000Y-142587500D02*
G75*
G03*
X251350000Y-143087500I500001J1D01*
G01*
X126700000Y-123487500D02*
G75*
G03*
X127200000Y-123987500I500001J1D01*
G01*
X342075000Y-109987500D02*
G75*
G03*
X341575000Y-110487500I1J-500001D01*
G01*
X184000000Y-110487500D02*
X184000000Y-123487500D01*
X269125000Y-104887500D02*
G75*
G03*
X269625000Y-104387500I-1J500001D01*
G01*
X264350000Y-143087500D02*
G75*
G03*
X264850000Y-142587500I-1J500001D01*
G01*
X334863000Y-86787500D02*
G75*
G03*
X335363000Y-86287500I-1J500001D01*
G01*
X141025000Y-91387500D02*
X141025000Y-104387500D01*
X336475000Y-50637500D02*
G75*
G03*
X335975000Y-50137500I-500001J-1D01*
G01*
X304987000Y-86787500D02*
X310987000Y-86787500D01*
X341575000Y-63637500D02*
G75*
G03*
X342075000Y-64137500I500001J1D01*
G01*
X145475000Y-72287500D02*
G75*
G03*
X144975000Y-71787500I-500001J-1D01*
G01*
X317375000Y-161687500D02*
X317375000Y-148687500D01*
X135925000Y-91387500D02*
G75*
G03*
X135425000Y-90887500I-500001J-1D01*
G01*
X154525000Y-90887500D02*
X141525000Y-90887500D01*
X341575000Y-72287500D02*
X341575000Y-85287500D01*
X325975500Y-122875500D02*
X324537500Y-122875500D01*
X127200000Y-123987500D02*
X140200000Y-123987500D01*
X142125000Y-147687500D02*
G75*
G03*
X141625000Y-147187500I-500001J-1D01*
G01*
X112375000Y-85287500D02*
G75*
G03*
X112875000Y-85787500I500001J1D01*
G01*
X106775000Y-71787500D02*
X93775000Y-71787500D01*
X278675000Y-71787500D02*
X265675000Y-71787500D01*
X248962500Y-148187500D02*
G75*
G03*
X248462500Y-148687500I1J-500001D01*
G01*
X303875000Y-148187500D02*
G75*
G03*
X303375000Y-148687500I1J-500001D01*
G01*
X246075000Y-72287500D02*
X246075000Y-85287500D01*
X160125000Y-91387500D02*
X160125000Y-104387500D01*
X336475000Y-63637500D02*
X336475000Y-50637500D01*
X174950000Y-143087500D02*
X187950000Y-143087500D01*
X164900000Y-123487500D02*
G75*
G03*
X165400000Y-123987500I500001J1D01*
G01*
X81337500Y-148687500D02*
X81337500Y-161687500D01*
X309712500Y-129087500D02*
X296712500Y-129087500D01*
X117150000Y-129587500D02*
X117150000Y-142587500D01*
X74675000Y-85787500D02*
X87675000Y-85787500D01*
X174125000Y-104387500D02*
X174125000Y-91387500D01*
X55075000Y-85287500D02*
G75*
G03*
X55575000Y-85787500I500001J1D01*
G01*
X172062500Y-148687500D02*
X172062500Y-161687500D01*
X212325000Y-91387500D02*
G75*
G03*
X211825000Y-90887500I-500001J-1D01*
G01*
X73350000Y-162187500D02*
G75*
G03*
X73850000Y-161687500I-1J500001D01*
G01*
X255625000Y-104387500D02*
G75*
G03*
X256125000Y-104887500I500001J1D01*
G01*
X298600000Y-123487500D02*
G75*
G03*
X299100000Y-123987500I500001J1D01*
G01*
X355075000Y-90887500D02*
X342075000Y-90887500D01*
X136750000Y-143087500D02*
X149750000Y-143087500D01*
X246575000Y-85787500D02*
X259575000Y-85787500D01*
X142125000Y-148182500D02*
X142125000Y-147687500D01*
X207875000Y-85287500D02*
G75*
G03*
X208375000Y-85787500I500001J1D01*
G01*
X317700000Y-91387500D02*
X317700000Y-104387500D01*
X152637500Y-148687500D02*
G75*
G03*
X152137500Y-148187500I-500001J-1D01*
G01*
X198825000Y-104887500D02*
X211825000Y-104887500D01*
X245750000Y-129587500D02*
G75*
G03*
X245250000Y-129087500I-500001J-1D01*
G01*
X262462500Y-161687500D02*
X262462500Y-148687500D01*
X173625000Y-104887500D02*
G75*
G03*
X174125000Y-104387500I-1J500001D01*
G01*
X151075000Y-85787500D02*
X164075000Y-85787500D01*
X192725000Y-104887500D02*
G75*
G03*
X193225000Y-104387500I-1J500001D01*
G01*
X328363000Y-86287500D02*
G75*
G03*
X328863000Y-86787500I500001J1D01*
G01*
X141525000Y-104887500D02*
X154525000Y-104887500D01*
X130699500Y-147187500D02*
G75*
G03*
X130199500Y-147687500I1J-500001D01*
G01*
D11*
X265012500Y-69237500D02*
G75*
G03*
X269787500Y-64462500I0J4775000D01*
G01*
D10*
X68575000Y-85787500D02*
G75*
G03*
X69075000Y-85287500I-1J500001D01*
G01*
X260075000Y-85287500D02*
X260075000Y-72287500D01*
X341575000Y-104387500D02*
G75*
G03*
X342075000Y-104887500I500001J1D01*
G01*
X322475000Y-142587500D02*
G75*
G03*
X322975000Y-143087500I500001J1D01*
G01*
D11*
X269787500Y-64462500D02*
X269787500Y-47750000D01*
D10*
X355575000Y-161687500D02*
X355575000Y-148687500D01*
X81837500Y-148187500D02*
G75*
G03*
X81337500Y-148687500I1J-500001D01*
G01*
X89000000Y-109987500D02*
G75*
G03*
X88500000Y-110487500I1J-500001D01*
G01*
X74175000Y-72287500D02*
X74175000Y-85287500D01*
X152137500Y-162187500D02*
G75*
G03*
X152637500Y-161687500I-1J500001D01*
G01*
X76237500Y-110487500D02*
G75*
G03*
X75737500Y-109987500I-500001J-1D01*
G01*
X210262500Y-161687500D02*
G75*
G03*
X210762500Y-162187500I500001J1D01*
G01*
X322475000Y-148687500D02*
X322475000Y-161687500D01*
X250525000Y-91387500D02*
G75*
G03*
X250025000Y-90887500I-500001J-1D01*
G01*
X231750000Y-129587500D02*
X231750000Y-142587500D01*
X207050000Y-143087500D02*
G75*
G03*
X207550000Y-142587500I-1J500001D01*
G01*
X334863000Y-71787500D02*
X328863000Y-71787500D01*
X355575000Y-50637500D02*
G75*
G03*
X355075000Y-50137500I-500001J-1D01*
G01*
X75737500Y-109987500D02*
X57962500Y-109987500D01*
X302599500Y-124987500D02*
X308599500Y-124987500D01*
X210762500Y-162187500D02*
X223762500Y-162187500D01*
X259575000Y-85787500D02*
G75*
G03*
X260075000Y-85287500I-1J500001D01*
G01*
X355575000Y-148687500D02*
G75*
G03*
X355075000Y-148187500I-500001J-1D01*
G01*
X122425000Y-104887500D02*
X135425000Y-104887500D01*
X274400000Y-110487500D02*
G75*
G03*
X273900000Y-109987500I-500001J-1D01*
G01*
X335975000Y-71787500D02*
X322975000Y-71787500D01*
X332975500Y-114437500D02*
X333587500Y-114437500D01*
X265675000Y-85787500D02*
X278675000Y-85787500D01*
X296712500Y-129087500D02*
G75*
G03*
X296212500Y-129587500I1J-500001D01*
G01*
X310212500Y-142587500D02*
X310212500Y-129587500D01*
X328363000Y-85787500D02*
X328363000Y-86287500D01*
X178400000Y-109987500D02*
X165400000Y-109987500D01*
X88950500Y-144087500D02*
G75*
G03*
X89450500Y-143587500I-1J500001D01*
G01*
X296712500Y-143087500D02*
X309712500Y-143087500D01*
X97225000Y-104887500D02*
G75*
G03*
X97725000Y-104387500I-1J500001D01*
G01*
X83725000Y-104387500D02*
G75*
G03*
X84225000Y-104887500I500001J1D01*
G01*
X280000000Y-123987500D02*
X293000000Y-123987500D01*
X170175000Y-71787500D02*
G75*
G03*
X169675000Y-72287500I1J-500001D01*
G01*
X303375000Y-85287500D02*
G75*
G03*
X303875000Y-85787500I500001J1D01*
G01*
X193225000Y-104387500D02*
X193225000Y-91387500D01*
X160125000Y-104387500D02*
G75*
G03*
X160625000Y-104887500I500001J1D01*
G01*
X318200000Y-104887500D02*
X320087500Y-104887500D01*
X130650000Y-143087500D02*
G75*
G03*
X131150000Y-142587500I-1J500001D01*
G01*
X208375000Y-71787500D02*
G75*
G03*
X207875000Y-72287500I1J-500001D01*
G01*
X297775000Y-71787500D02*
X284775000Y-71787500D01*
X240975000Y-85287500D02*
X240975000Y-72287500D01*
X355575000Y-91387500D02*
G75*
G03*
X355075000Y-90887500I-500001J-1D01*
G01*
X192725000Y-90887500D02*
X179725000Y-90887500D01*
X328863000Y-86787500D02*
X334863000Y-86787500D01*
X164575000Y-85287500D02*
X164575000Y-72287500D01*
X316875000Y-71787500D02*
X303875000Y-71787500D01*
X297775000Y-85787500D02*
G75*
G03*
X298275000Y-85287500I-1J500001D01*
G01*
X241800000Y-123987500D02*
X254800000Y-123987500D01*
X165400000Y-109987500D02*
G75*
G03*
X164900000Y-110487500I1J-500001D01*
G01*
X203100000Y-123487500D02*
G75*
G03*
X203600000Y-123987500I500001J1D01*
G01*
X226150000Y-129087500D02*
X213150000Y-129087500D01*
X274400000Y-123487500D02*
X274400000Y-110487500D01*
X139137500Y-162187500D02*
X152137500Y-162187500D01*
X89450500Y-143587500D02*
X89450000Y-143092500D01*
X198325000Y-91387500D02*
X198325000Y-104387500D01*
X250025000Y-90887500D02*
X237025000Y-90887500D01*
X335975000Y-50137500D02*
X322975000Y-50137500D01*
X121600000Y-110487500D02*
G75*
G03*
X121100000Y-109987500I-500001J-1D01*
G01*
X217100000Y-110487500D02*
G75*
G03*
X216600000Y-109987500I-500001J-1D01*
G01*
X97725000Y-148687500D02*
G75*
G03*
X97225000Y-148187500I-500001J-1D01*
G01*
X208324500Y-162187500D02*
G75*
G03*
X208824500Y-161687500I-1J500001D01*
G01*
X117650000Y-129087500D02*
G75*
G03*
X117150000Y-129587500I1J-500001D01*
G01*
X341575000Y-123487500D02*
G75*
G03*
X342075000Y-123987500I500001J1D01*
G01*
X335975000Y-162187500D02*
G75*
G03*
X336475000Y-161687500I-1J500001D01*
G01*
X325975500Y-122875500D02*
X325975500Y-124487500D01*
X249425000Y-148187500D02*
X248962500Y-148187500D01*
X97725000Y-161687500D02*
X97725000Y-148687500D01*
X179225000Y-104387500D02*
G75*
G03*
X179725000Y-104887500I500001J1D01*
G01*
X248462500Y-148687500D02*
X248462500Y-161687500D01*
X322475000Y-161687500D02*
G75*
G03*
X322975000Y-162187500I500001J1D01*
G01*
X331700000Y-91999500D02*
X331700000Y-91387500D01*
X236200000Y-110487500D02*
G75*
G03*
X235700000Y-109987500I-500001J-1D01*
G01*
X154075500Y-147687500D02*
X154075500Y-161687500D01*
X322975000Y-50137500D02*
G75*
G03*
X322475000Y-50637500I1J-500001D01*
G01*
X341575000Y-129587500D02*
X341575000Y-142587500D01*
X269625000Y-91387500D02*
G75*
G03*
X269125000Y-90887500I-500001J-1D01*
G01*
X331700000Y-91387500D02*
G75*
G03*
X331200000Y-90887500I-500001J-1D01*
G01*
X213150000Y-143087500D02*
X226150000Y-143087500D01*
X223762500Y-162187500D02*
G75*
G03*
X224262500Y-161687500I-1J500001D01*
G01*
X55575000Y-85787500D02*
X68575000Y-85787500D01*
X308599500Y-109987500D02*
X302599500Y-109987500D01*
X334087500Y-122375500D02*
X334087500Y-116375500D01*
X270450000Y-129087500D02*
G75*
G03*
X269950000Y-129587500I1J-500001D01*
G01*
X121925000Y-104387500D02*
G75*
G03*
X122425000Y-104887500I500001J1D01*
G01*
X208375000Y-85787500D02*
X221375000Y-85787500D01*
X288225000Y-90887500D02*
X275225000Y-90887500D01*
X303875000Y-85787500D02*
X304487000Y-85787500D01*
X103325000Y-104887500D02*
X116325000Y-104887500D01*
X231425000Y-104387500D02*
X231425000Y-91387500D01*
X355075000Y-104887500D02*
G75*
G03*
X355575000Y-104387500I-1J500001D01*
G01*
X261962500Y-162187500D02*
G75*
G03*
X262462500Y-161687500I-1J500001D01*
G01*
X332975500Y-122875500D02*
X333587500Y-122875500D01*
X320087500Y-104887500D02*
X320087500Y-109987500D01*
X278675000Y-85787500D02*
G75*
G03*
X279175000Y-85287500I-1J500001D01*
G01*
X102825000Y-91387500D02*
X102825000Y-104387500D01*
X189275000Y-162187500D02*
X202275000Y-162187500D01*
X225700500Y-147687500D02*
X225700500Y-161687500D01*
X224262500Y-161687500D02*
X224262500Y-148687500D01*
X310212500Y-129587500D02*
G75*
G03*
X309712500Y-129087500I-500001J-1D01*
G01*
X226200500Y-147187500D02*
G75*
G03*
X225700500Y-147687500I1J-500001D01*
G01*
X336475000Y-85287500D02*
X336475000Y-72287500D01*
X172562500Y-148187500D02*
G75*
G03*
X172062500Y-148687500I1J-500001D01*
G01*
X256425000Y-148187500D02*
X256425000Y-147687500D01*
X283950000Y-129587500D02*
G75*
G03*
X283450000Y-129087500I-500001J-1D01*
G01*
X126375000Y-72287500D02*
G75*
G03*
X125875000Y-71787500I-500001J-1D01*
G01*
X208824500Y-147687500D02*
G75*
G03*
X208324500Y-147187500I-500001J-1D01*
G01*
X187950000Y-143087500D02*
G75*
G03*
X188450000Y-142587500I-1J500001D01*
G01*
X226975000Y-72287500D02*
X226975000Y-85287500D01*
X98050000Y-142587500D02*
G75*
G03*
X98550000Y-143087500I500001J1D01*
G01*
X221375000Y-85787500D02*
G75*
G03*
X221875000Y-85287500I-1J500001D01*
G01*
X152137500Y-148187500D02*
X142125000Y-148182500D01*
X81337500Y-161687500D02*
G75*
G03*
X81837500Y-162187500I500001J1D01*
G01*
X88500000Y-110487500D02*
X88500000Y-123487500D01*
X336475000Y-129587500D02*
G75*
G03*
X335975000Y-129087500I-500001J-1D01*
G01*
X334087500Y-92499500D02*
G75*
G03*
X333587500Y-91999500I-500001J-1D01*
G01*
X311487000Y-85787500D02*
X328363000Y-85787500D01*
X135425000Y-90887500D02*
X122425000Y-90887500D01*
X57962500Y-148187500D02*
G75*
G03*
X57462500Y-148687500I1J-500001D01*
G01*
X303375000Y-148687500D02*
X303375000Y-161687500D01*
X283450000Y-129087500D02*
X270450000Y-129087500D01*
X326475500Y-124987500D02*
X332475500Y-124987500D01*
X172562500Y-162187500D02*
X189275000Y-162187500D01*
X188450000Y-129587500D02*
G75*
G03*
X187950000Y-129087500I-500001J-1D01*
G01*
X222700000Y-123987500D02*
X235700000Y-123987500D01*
X279175000Y-72287500D02*
G75*
G03*
X278675000Y-71787500I-500001J-1D01*
G01*
X164900000Y-110487500D02*
X164900000Y-123487500D01*
X355075000Y-143087500D02*
G75*
G03*
X355575000Y-142587500I-1J500001D01*
G01*
X269950000Y-161687500D02*
G75*
G03*
X270450000Y-162187500I500001J1D01*
G01*
X130199500Y-147687500D02*
X130199500Y-161687500D01*
X152637500Y-161687500D02*
X152637500Y-148687500D01*
X265175000Y-85287500D02*
G75*
G03*
X265675000Y-85787500I500001J1D01*
G01*
X251350000Y-143087500D02*
X264350000Y-143087500D01*
X237025000Y-90887500D02*
G75*
G03*
X236525000Y-91387500I1J-500001D01*
G01*
X231750000Y-142587500D02*
G75*
G03*
X232250000Y-143087500I500001J1D01*
G01*
X59850000Y-104387500D02*
G75*
G03*
X60350000Y-104887500I500001J1D01*
G01*
X92450000Y-143087500D02*
G75*
G03*
X92950000Y-142587500I-1J500001D01*
G01*
X285837500Y-162187500D02*
G75*
G03*
X286337500Y-161687500I-1J500001D01*
G01*
X57462500Y-123487500D02*
G75*
G03*
X57962500Y-123987500I500001J1D01*
G01*
X240475000Y-71787500D02*
X227475000Y-71787500D01*
X116825000Y-91387500D02*
G75*
G03*
X116325000Y-90887500I-500001J-1D01*
G01*
X264850000Y-129587500D02*
G75*
G03*
X264350000Y-129087500I-500001J-1D01*
G01*
X261962500Y-162187500D02*
G75*
G03*
X262462500Y-161687500I-1J500001D01*
G01*
X324537500Y-123487500D02*
X324537500Y-122875500D01*
X334087500Y-116375500D02*
G75*
G03*
X333587500Y-115875500I-500001J-1D01*
G01*
D11*
X360512500Y-171900000D02*
X50137500Y-171900000D01*
D10*
X92950000Y-142587500D02*
X92950000Y-129587500D01*
X335363000Y-86287500D02*
X335363000Y-85787500D01*
X174450000Y-129587500D02*
X174450000Y-142587500D01*
X341575000Y-110487500D02*
X341575000Y-123487500D01*
X333587500Y-98999500D02*
G75*
G03*
X334087500Y-98499500I-1J500001D01*
G01*
X57962500Y-148187500D02*
G75*
G03*
X57462500Y-148687500I1J-500001D01*
G01*
X283950000Y-142587500D02*
X283950000Y-129587500D01*
X57962500Y-123987500D02*
X75737500Y-123987500D01*
X223762500Y-148187500D02*
X210762500Y-148187500D01*
X125875000Y-85787500D02*
G75*
G03*
X126375000Y-85287500I-1J500001D01*
G01*
X235700000Y-109987500D02*
X222700000Y-109987500D01*
D11*
X45362500Y-167125000D02*
G75*
G03*
X50137500Y-171900000I4775000J0D01*
G01*
D10*
X164075000Y-71787500D02*
X151075000Y-71787500D01*
X82950500Y-144087500D02*
X88950500Y-144087500D01*
X212650000Y-142587500D02*
G75*
G03*
X213150000Y-143087500I500001J1D01*
G01*
X207875000Y-72287500D02*
X207875000Y-85287500D01*
X75737500Y-123987500D02*
G75*
G03*
X76237500Y-123487500I-1J500001D01*
G01*
X299100000Y-109987500D02*
G75*
G03*
X298600000Y-110487500I1J-500001D01*
G01*
X273900000Y-109987500D02*
X260900000Y-109987500D01*
X174125000Y-91387500D02*
G75*
G03*
X173625000Y-90887500I-500001J-1D01*
G01*
X237337500Y-161687500D02*
X237337500Y-147687500D01*
X93775000Y-71787500D02*
G75*
G03*
X93275000Y-72287500I1J-500001D01*
G01*
X116325000Y-104887500D02*
G75*
G03*
X116825000Y-104387500I-1J500001D01*
G01*
X342075000Y-148187500D02*
G75*
G03*
X341575000Y-148687500I1J-500001D01*
G01*
X333587500Y-114437500D02*
G75*
G03*
X334087500Y-113937500I-1J500001D01*
G01*
X59850000Y-91387500D02*
X59850000Y-104387500D01*
X316750000Y-66162500D02*
G75*
G03*
X317500000Y-65412500I0J750000D01*
G01*
X307325000Y-90887500D02*
X294325000Y-90887500D01*
X237337500Y-147687500D02*
G75*
G03*
X236837500Y-147187500I-500001J-1D01*
G01*
X331700000Y-98999500D02*
X331700000Y-100437500D01*
X201824500Y-148182500D02*
X172562500Y-148187500D01*
X112375000Y-72287500D02*
X112375000Y-85287500D01*
X211825000Y-104887500D02*
G75*
G03*
X212325000Y-104387500I-1J500001D01*
G01*
X68575000Y-71787500D02*
X55575000Y-71787500D01*
X216600000Y-123987500D02*
G75*
G03*
X217100000Y-123487500I-1J500001D01*
G01*
X304487000Y-85787500D02*
X304487000Y-86287500D01*
X169350000Y-142587500D02*
X169350000Y-129587500D01*
X57462500Y-161687500D02*
G75*
G03*
X57962500Y-162187500I500001J1D01*
G01*
X355075000Y-85787500D02*
G75*
G03*
X355575000Y-85287500I-1J500001D01*
G01*
X165400000Y-123987500D02*
X178400000Y-123987500D01*
X130699500Y-162187500D02*
X141625000Y-162187500D01*
X183175000Y-71787500D02*
X170175000Y-71787500D01*
X197500000Y-123987500D02*
G75*
G03*
X198000000Y-123487500I-1J500001D01*
G01*
X69075000Y-72287500D02*
G75*
G03*
X68575000Y-71787500I-500001J-1D01*
G01*
X117650000Y-143087500D02*
X130650000Y-143087500D01*
X58574500Y-143587500D02*
G75*
G03*
X59074500Y-144087500I500001J1D01*
G01*
X341575000Y-85287500D02*
G75*
G03*
X342075000Y-85787500I500001J1D01*
G01*
X89000000Y-123987500D02*
X102000000Y-123987500D01*
X93275000Y-72287500D02*
X93275000Y-85287500D01*
X88500000Y-123487500D02*
G75*
G03*
X89000000Y-123987500I500001J1D01*
G01*
X83725000Y-91387500D02*
X83725000Y-104387500D01*
X317700000Y-104387500D02*
G75*
G03*
X318200000Y-104887500I500001J1D01*
G01*
X102500000Y-110487500D02*
G75*
G03*
X102000000Y-109987500I-500001J-1D01*
G01*
X73350000Y-90887500D02*
X60350000Y-90887500D01*
X241800000Y-109987500D02*
G75*
G03*
X241300000Y-110487500I1J-500001D01*
G01*
X342075000Y-85787500D02*
X355075000Y-85787500D01*
X286337500Y-148687500D02*
G75*
G03*
X285837500Y-148187500I-500001J-1D01*
G01*
X97225000Y-148187500D02*
X81837500Y-148187500D01*
X116825000Y-104387500D02*
X116825000Y-91387500D01*
X155025000Y-104387500D02*
X155025000Y-91387500D01*
X325975500Y-124487500D02*
G75*
G03*
X326475500Y-124987500I500001J1D01*
G01*
X246575000Y-71787500D02*
G75*
G03*
X246075000Y-72287500I1J-500001D01*
G01*
X333587500Y-91999500D02*
X331700000Y-91999500D01*
X140700000Y-110487500D02*
G75*
G03*
X140200000Y-109987500I-500001J-1D01*
G01*
X278500000Y-66162500D02*
X316750000Y-66162500D01*
X288725000Y-104387500D02*
X288725000Y-91387500D01*
X107600000Y-123487500D02*
G75*
G03*
X108100000Y-123987500I500001J1D01*
G01*
X249925000Y-147187500D02*
G75*
G03*
X249425000Y-147687500I1J-500001D01*
G01*
X159800000Y-110487500D02*
G75*
G03*
X159300000Y-109987500I-500001J-1D01*
G01*
X60350000Y-90887500D02*
G75*
G03*
X59850000Y-91387500I1J-500001D01*
G01*
X88175000Y-85287500D02*
X88175000Y-72287500D01*
X265675000Y-71787500D02*
G75*
G03*
X265175000Y-72287500I1J-500001D01*
G01*
X298275000Y-72287500D02*
G75*
G03*
X297775000Y-71787500I-500001J-1D01*
G01*
X154075500Y-161687500D02*
G75*
G03*
X154575500Y-162187500I500001J1D01*
G01*
X97225000Y-90887500D02*
X84225000Y-90887500D01*
X284275000Y-85287500D02*
G75*
G03*
X284775000Y-85787500I500001J1D01*
G01*
X136250000Y-129587500D02*
X136250000Y-142587500D01*
X73850000Y-148687500D02*
G75*
G03*
X73350000Y-148187500I-500001J-1D01*
G01*
X296212500Y-142587500D02*
G75*
G03*
X296712500Y-143087500I500001J1D01*
G01*
X140200000Y-109987500D02*
X127200000Y-109987500D01*
X170175000Y-85787500D02*
X183175000Y-85787500D01*
X240975000Y-72287500D02*
G75*
G03*
X240475000Y-71787500I-500001J-1D01*
G01*
X150575000Y-85287500D02*
G75*
G03*
X151075000Y-85787500I500001J1D01*
G01*
X126375000Y-85287500D02*
X126375000Y-72287500D01*
X331200000Y-90887500D02*
X318200000Y-90887500D01*
X146300000Y-123987500D02*
X159300000Y-123987500D01*
X269950000Y-142587500D02*
G75*
G03*
X270450000Y-143087500I500001J1D01*
G01*
X293000000Y-123987500D02*
G75*
G03*
X293500000Y-123487500I-1J500001D01*
G01*
X98050000Y-129587500D02*
X98050000Y-142587500D01*
X141525000Y-90887500D02*
G75*
G03*
X141025000Y-91387500I1J-500001D01*
G01*
X274725000Y-91387500D02*
X274725000Y-104387500D01*
X240475000Y-85787500D02*
G75*
G03*
X240975000Y-85287500I-1J500001D01*
G01*
X203600000Y-109987500D02*
G75*
G03*
X203100000Y-110487500I1J-500001D01*
G01*
X217425000Y-91387500D02*
X217425000Y-104387500D01*
X73850000Y-91387500D02*
G75*
G03*
X73350000Y-90887500I-500001J-1D01*
G01*
X105712500Y-148187500D02*
G75*
G03*
X105212500Y-148687500I1J-500001D01*
G01*
X151075000Y-71787500D02*
G75*
G03*
X150575000Y-72287500I1J-500001D01*
G01*
X294325000Y-90887500D02*
G75*
G03*
X293825000Y-91387500I1J-500001D01*
G01*
X202775000Y-85287500D02*
X202775000Y-72287500D01*
X322475000Y-129587500D02*
X322475000Y-142587500D01*
X236837500Y-147187500D02*
X226200500Y-147187500D01*
X316875000Y-148187500D02*
X303875000Y-148187500D01*
X322975000Y-148187500D02*
G75*
G03*
X322475000Y-148687500I1J-500001D01*
G01*
X57462500Y-110487500D02*
X57462500Y-123487500D01*
X70962500Y-129087500D02*
X57962500Y-129087500D01*
X246075000Y-85287500D02*
G75*
G03*
X246575000Y-85787500I500001J1D01*
G01*
X88175000Y-72287500D02*
G75*
G03*
X87675000Y-71787500I-500001J-1D01*
G01*
X155850000Y-129087500D02*
G75*
G03*
X155350000Y-129587500I1J-500001D01*
G01*
X164075000Y-85787500D02*
G75*
G03*
X164575000Y-85287500I-1J500001D01*
G01*
X322475000Y-63637500D02*
G75*
G03*
X322975000Y-64137500I500001J1D01*
G01*
X207050000Y-129087500D02*
X194050000Y-129087500D01*
X121600000Y-161687500D02*
X121600000Y-148687500D01*
X131975000Y-85787500D02*
X144975000Y-85787500D01*
X232250000Y-143087500D02*
X245250000Y-143087500D01*
X84225000Y-104887500D02*
X97225000Y-104887500D01*
X88950500Y-129087500D02*
X82950500Y-129087500D01*
X355075000Y-109987500D02*
X342075000Y-109987500D01*
X169675000Y-72287500D02*
X169675000Y-85287500D01*
X97725000Y-104387500D02*
X97725000Y-91387500D01*
X230925000Y-104887500D02*
G75*
G03*
X231425000Y-104387500I-1J500001D01*
G01*
X342075000Y-71787500D02*
G75*
G03*
X341575000Y-72287500I1J-500001D01*
G01*
X334087500Y-98499500D02*
X334087500Y-92499500D01*
X296212500Y-129587500D02*
X296212500Y-142587500D01*
X198000000Y-123487500D02*
X198000000Y-110487500D01*
X245250000Y-129087500D02*
X232250000Y-129087500D01*
X59074500Y-144087500D02*
X65074500Y-144087500D01*
X355575000Y-63637500D02*
X355575000Y-50637500D01*
X189275000Y-71787500D02*
G75*
G03*
X188775000Y-72287500I1J-500001D01*
G01*
X216600000Y-109987500D02*
X203600000Y-109987500D01*
X74175000Y-85287500D02*
G75*
G03*
X74675000Y-85787500I500001J1D01*
G01*
X293500000Y-123487500D02*
X293500000Y-110487500D01*
X226650000Y-142587500D02*
X226650000Y-129587500D01*
X108100000Y-123987500D02*
X121100000Y-123987500D01*
X288225000Y-104887500D02*
G75*
G03*
X288725000Y-104387500I-1J500001D01*
G01*
X342075000Y-50137500D02*
G75*
G03*
X341575000Y-50637500I1J-500001D01*
G01*
X159300000Y-109987500D02*
X146300000Y-109987500D01*
X174450000Y-142587500D02*
G75*
G03*
X174950000Y-143087500I500001J1D01*
G01*
X161075500Y-161687500D02*
X161075500Y-147687500D01*
X144975000Y-71787500D02*
X131975000Y-71787500D01*
X121600000Y-123487500D02*
X121600000Y-110487500D01*
X217925000Y-104887500D02*
X230925000Y-104887500D01*
X102825000Y-104387500D02*
G75*
G03*
X103325000Y-104887500I500001J1D01*
G01*
X154575500Y-147187500D02*
G75*
G03*
X154075500Y-147687500I1J-500001D01*
G01*
X309099500Y-124487500D02*
X309099500Y-123987500D01*
X285837500Y-148187500D02*
X270450000Y-148187500D01*
X202324500Y-162187500D02*
X208324500Y-162187500D01*
X202275000Y-85787500D02*
G75*
G03*
X202775000Y-85287500I-1J500001D01*
G01*
X355575000Y-110487500D02*
G75*
G03*
X355075000Y-109987500I-500001J-1D01*
G01*
X213150000Y-129087500D02*
G75*
G03*
X212650000Y-129587500I1J-500001D01*
G01*
X188775000Y-85287500D02*
G75*
G03*
X189275000Y-85787500I500001J1D01*
G01*
X262462500Y-148687500D02*
G75*
G03*
X261962500Y-148187500I-500001J-1D01*
G01*
X184500000Y-109987500D02*
G75*
G03*
X184000000Y-110487500I1J-500001D01*
G01*
X93775000Y-85787500D02*
X106775000Y-85787500D01*
X248462500Y-148687500D02*
X248462500Y-161687500D01*
X255625000Y-91387500D02*
X255625000Y-104387500D01*
X93275000Y-85287500D02*
G75*
G03*
X93775000Y-85787500I500001J1D01*
G01*
X212650000Y-129587500D02*
X212650000Y-142587500D01*
X286337500Y-161687500D02*
X286337500Y-148687500D01*
X130199500Y-161687500D02*
G75*
G03*
X130699500Y-162187500I500001J1D01*
G01*
X341575000Y-148687500D02*
X341575000Y-161687500D01*
X230925000Y-90887500D02*
X217925000Y-90887500D01*
X256425000Y-147687500D02*
G75*
G03*
X255925000Y-147187500I-500001J-1D01*
G01*
X155850000Y-143087500D02*
X168850000Y-143087500D01*
X159800000Y-123487500D02*
X159800000Y-110487500D01*
X278500000Y-50412500D02*
G75*
G03*
X277500000Y-51412500I3J-1000003D01*
G01*
X335975000Y-143087500D02*
G75*
G03*
X336475000Y-142587500I-1J500001D01*
G01*
X136250000Y-142587500D02*
G75*
G03*
X136750000Y-143087500I500001J1D01*
G01*
X161075500Y-147687500D02*
G75*
G03*
X160575500Y-147187500I-500001J-1D01*
G01*
X355075000Y-148187500D02*
X342075000Y-148187500D01*
X112050000Y-142587500D02*
X112050000Y-129587500D01*
X294325000Y-104887500D02*
X307325000Y-104887500D01*
X249425000Y-148182500D02*
X249425000Y-147687500D01*
X226975000Y-85287500D02*
G75*
G03*
X227475000Y-85787500I500001J1D01*
G01*
X332975500Y-115875500D02*
X332975500Y-114437500D01*
X293000000Y-109987500D02*
X280000000Y-109987500D01*
X178400000Y-123987500D02*
G75*
G03*
X178900000Y-123487500I-1J500001D01*
G01*
X112875000Y-71787500D02*
G75*
G03*
X112375000Y-72287500I1J-500001D01*
G01*
X102500000Y-123487500D02*
X102500000Y-110487500D01*
X236525000Y-104387500D02*
G75*
G03*
X237025000Y-104887500I500001J1D01*
G01*
X121100000Y-109987500D02*
X108100000Y-109987500D01*
X317500000Y-51162500D02*
G75*
G03*
X316750000Y-50412500I-750000J0D01*
G01*
X335975000Y-85787500D02*
G75*
G03*
X336475000Y-85287500I-1J500001D01*
G01*
X174950000Y-129087500D02*
G75*
G03*
X174450000Y-129587500I1J-500001D01*
G01*
X173625000Y-90887500D02*
X160625000Y-90887500D01*
X202275000Y-71787500D02*
X189275000Y-71787500D01*
X225700500Y-161687500D02*
G75*
G03*
X226200500Y-162187500I500001J1D01*
G01*
X141625000Y-147187500D02*
X130699500Y-147187500D01*
X299100000Y-123987500D02*
X302099500Y-123987500D01*
X336475000Y-148687500D02*
G75*
G03*
X335975000Y-148187500I-500001J-1D01*
G01*
X73350000Y-148187500D02*
X57962500Y-148187500D01*
X293825000Y-104387500D02*
G75*
G03*
X294325000Y-104887500I500001J1D01*
G01*
X224262500Y-148687500D02*
G75*
G03*
X223762500Y-148187500I-500001J-1D01*
G01*
X107275000Y-85287500D02*
X107275000Y-72287500D01*
X262462500Y-148687500D02*
G75*
G03*
X261962500Y-148187500I-500001J-1D01*
G01*
X269625000Y-104387500D02*
X269625000Y-91387500D01*
X342075000Y-104887500D02*
X355075000Y-104887500D01*
X210262500Y-148687500D02*
X210262500Y-161687500D01*
X288725000Y-91387500D02*
G75*
G03*
X288225000Y-90887500I-500001J-1D01*
G01*
X89450000Y-143092500D02*
X92450000Y-143087500D01*
X92950000Y-129587500D02*
G75*
G03*
X92450000Y-129087500I-500001J-1D01*
G01*
X108100000Y-109987500D02*
G75*
G03*
X107600000Y-110487500I1J-500001D01*
G01*
X283450000Y-143087500D02*
G75*
G03*
X283950000Y-142587500I-1J500001D01*
G01*
X317375000Y-148687500D02*
G75*
G03*
X316875000Y-148187500I-500001J-1D01*
G01*
D11*
X50137500Y-69237500D02*
X265012500Y-69237500D01*
D10*
X226200500Y-162187500D02*
X236837500Y-162187500D01*
X317500000Y-65412500D02*
X317500000Y-51162500D01*
X277500000Y-65162500D02*
G75*
G03*
X278500000Y-66162500I1000003J3D01*
G01*
X311487000Y-86287500D02*
X311487000Y-85787500D01*
X307825000Y-91387500D02*
G75*
G03*
X307325000Y-90887500I-500001J-1D01*
G01*
X193550000Y-142587500D02*
G75*
G03*
X194050000Y-143087500I500001J1D01*
G01*
X241300000Y-123487500D02*
G75*
G03*
X241800000Y-123987500I500001J1D01*
G01*
M02*
