G04 #@! TF.GenerationSoftware,KiCad,Pcbnew,(6.0.0-0)*
G04 #@! TF.CreationDate,2022-10-18T11:22:14+02:00*
G04 #@! TF.ProjectId,lagom,6c61676f-6d2e-46b6-9963-61645f706362,rev?*
G04 #@! TF.SameCoordinates,Original*
G04 #@! TF.FileFunction,Soldermask,Bot*
G04 #@! TF.FilePolarity,Negative*
%FSLAX46Y46*%
G04 Gerber Fmt 4.6, Leading zero omitted, Abs format (unit mm)*
G04 Created by KiCad (PCBNEW (6.0.0-0)) date 2022-10-18 11:22:14*
%MOMM*%
%LPD*%
G01*
G04 APERTURE LIST*
%ADD10C,4.000000*%
%ADD11C,1.700000*%
%ADD12C,2.200000*%
%ADD13C,1.600000*%
%ADD14C,3.050000*%
%ADD15R,1.500000X1.500000*%
%ADD16O,1.500000X1.500000*%
%ADD17R,1.600000X1.600000*%
%ADD18O,1.600000X1.600000*%
%ADD19R,1.700000X1.700000*%
%ADD20O,1.700000X1.700000*%
%ADD21O,2.000000X3.200000*%
%ADD22R,2.000000X2.000000*%
%ADD23C,2.000000*%
%ADD24R,1.752600X1.752600*%
%ADD25C,1.752600*%
G04 APERTURE END LIST*
D10*
X272175000Y-71625000D03*
D11*
X277255000Y-71625000D03*
X267095000Y-71625000D03*
D12*
X274715000Y-66545000D03*
X268365000Y-69085000D03*
D10*
X329475000Y-148025000D03*
D11*
X334555000Y-148025000D03*
X324395000Y-148025000D03*
D12*
X332015000Y-142945000D03*
X325665000Y-145485000D03*
D13*
X90725000Y-40587500D03*
X90725000Y-45587500D03*
D11*
X152952500Y-90725000D03*
X142792500Y-90725000D03*
D10*
X147872500Y-90725000D03*
D12*
X150412500Y-85645000D03*
X144062500Y-88185000D03*
D10*
X319925000Y-71625000D03*
X331825000Y-79865000D03*
D11*
X325005000Y-71625000D03*
D14*
X308025000Y-64625000D03*
D11*
X314845000Y-71625000D03*
D10*
X308025000Y-79865000D03*
D14*
X331825000Y-64625000D03*
D12*
X322465000Y-66545000D03*
X316115000Y-69085000D03*
D10*
X191000000Y-109825000D03*
D11*
X196080000Y-109825000D03*
X185920000Y-109825000D03*
D12*
X193540000Y-104745000D03*
X187190000Y-107285000D03*
D11*
X114905000Y-90725000D03*
X104745000Y-90725000D03*
D10*
X109825000Y-90725000D03*
D12*
X112365000Y-85645000D03*
X106015000Y-88185000D03*
D10*
X303212500Y-128925000D03*
D11*
X308292500Y-128925000D03*
X298132500Y-128925000D03*
D12*
X305752500Y-123845000D03*
X299402500Y-126385000D03*
D15*
X260237500Y-57757500D03*
D16*
X260237500Y-50137500D03*
D11*
X305295000Y-71625000D03*
D10*
X310375000Y-71625000D03*
D11*
X315455000Y-71625000D03*
D12*
X312915000Y-66545000D03*
X306565000Y-69085000D03*
D17*
X93762500Y-46775000D03*
D18*
X96302500Y-46775000D03*
X98842500Y-46775000D03*
X101382500Y-46775000D03*
X103922500Y-46775000D03*
X106462500Y-46775000D03*
X109002500Y-46775000D03*
X111542500Y-46775000D03*
X111542500Y-39155000D03*
X109002500Y-39155000D03*
X106462500Y-39155000D03*
X103922500Y-39155000D03*
X101382500Y-39155000D03*
X98842500Y-39155000D03*
X96302500Y-39155000D03*
X93762500Y-39155000D03*
D11*
X353655000Y-109825000D03*
X343495000Y-109825000D03*
D10*
X348575000Y-109825000D03*
D12*
X351115000Y-104745000D03*
X344765000Y-107285000D03*
D19*
X315175000Y-47445000D03*
D20*
X315175000Y-49985000D03*
X315175000Y-52525000D03*
X315175000Y-55065000D03*
D15*
X288887500Y-55370000D03*
D16*
X288887500Y-47750000D03*
D15*
X219650000Y-55370000D03*
D16*
X219650000Y-47750000D03*
D15*
X212487500Y-55370000D03*
D16*
X212487500Y-47750000D03*
D12*
X112212500Y-81175000D03*
X248300000Y-54912500D03*
D11*
X110130000Y-128925000D03*
X99970000Y-128925000D03*
D10*
X105050000Y-128925000D03*
D12*
X107590000Y-123845000D03*
X101240000Y-126385000D03*
D15*
X157575000Y-52982500D03*
D16*
X157575000Y-45362500D03*
D15*
X210100000Y-52982500D03*
D16*
X210100000Y-45362500D03*
D11*
X291580000Y-109825000D03*
D10*
X286500000Y-109825000D03*
D11*
X281420000Y-109825000D03*
D12*
X289040000Y-104745000D03*
X282690000Y-107285000D03*
D17*
X93762500Y-58487500D03*
D18*
X96302500Y-58487500D03*
X98842500Y-58487500D03*
X101382500Y-58487500D03*
X103922500Y-58487500D03*
X106462500Y-58487500D03*
X109002500Y-58487500D03*
X111542500Y-58487500D03*
X111542500Y-50867500D03*
X109002500Y-50867500D03*
X106462500Y-50867500D03*
X103922500Y-50867500D03*
X101382500Y-50867500D03*
X98842500Y-50867500D03*
X96302500Y-50867500D03*
X93762500Y-50867500D03*
D12*
X298437500Y-81175000D03*
D15*
X243525000Y-52982500D03*
D16*
X243525000Y-45362500D03*
D15*
X286500000Y-57757500D03*
D16*
X286500000Y-50137500D03*
D11*
X167430000Y-128925000D03*
D10*
X162350000Y-128925000D03*
D11*
X157270000Y-128925000D03*
D12*
X164890000Y-123845000D03*
X158540000Y-126385000D03*
D11*
X162045000Y-90725000D03*
X172205000Y-90725000D03*
D10*
X167125000Y-90725000D03*
D12*
X169665000Y-85645000D03*
X163315000Y-88185000D03*
D11*
X56995000Y-71625000D03*
X67155000Y-71625000D03*
D10*
X62075000Y-71625000D03*
D12*
X64615000Y-66545000D03*
X58265000Y-69085000D03*
D10*
X119375000Y-71625000D03*
D11*
X124455000Y-71625000D03*
X114295000Y-71625000D03*
D12*
X121915000Y-66545000D03*
X115565000Y-69085000D03*
D11*
X59382500Y-128925000D03*
X69542500Y-128925000D03*
D10*
X64462500Y-128925000D03*
D12*
X67002500Y-123845000D03*
X60652500Y-126385000D03*
D15*
X253075000Y-50595000D03*
D16*
X253075000Y-42975000D03*
D12*
X205325000Y-81175000D03*
D11*
X271870000Y-148025000D03*
D10*
X276950000Y-148025000D03*
D11*
X282030000Y-148025000D03*
D12*
X279490000Y-142945000D03*
X273140000Y-145485000D03*
D15*
X248300000Y-48207500D03*
D16*
X248300000Y-40587500D03*
D15*
X167125000Y-52982500D03*
D16*
X167125000Y-45362500D03*
D11*
X305905000Y-90725000D03*
X295745000Y-90725000D03*
D10*
X300825000Y-90725000D03*
D12*
X303365000Y-85645000D03*
X297015000Y-88185000D03*
D11*
X138780000Y-109825000D03*
X128620000Y-109825000D03*
D10*
X133700000Y-109825000D03*
D12*
X136240000Y-104745000D03*
X129890000Y-107285000D03*
D15*
X124150000Y-55370000D03*
D16*
X124150000Y-47750000D03*
D10*
X114600000Y-148025000D03*
D11*
X119680000Y-148025000D03*
X109520000Y-148025000D03*
D12*
X117140000Y-142945000D03*
X110790000Y-145485000D03*
D15*
X121762500Y-52982500D03*
D16*
X121762500Y-45362500D03*
D10*
X152800000Y-109825000D03*
D11*
X157880000Y-109825000D03*
X147720000Y-109825000D03*
D12*
X155340000Y-104745000D03*
X148990000Y-107285000D03*
D14*
X157537500Y-155000000D03*
D11*
X140557500Y-148000000D03*
D14*
X133737500Y-155000000D03*
D10*
X157537500Y-139760000D03*
X133737500Y-139760000D03*
X145637500Y-148000000D03*
D11*
X150717500Y-148000000D03*
D12*
X148177500Y-142920000D03*
X141827500Y-145460000D03*
D10*
X157575000Y-71625000D03*
D11*
X152495000Y-71625000D03*
X162655000Y-71625000D03*
D12*
X160115000Y-66545000D03*
X153765000Y-69085000D03*
D15*
X152800000Y-57757500D03*
D16*
X152800000Y-50137500D03*
D11*
X107138750Y-148025000D03*
D10*
X112218750Y-148025000D03*
D11*
X117298750Y-148025000D03*
D12*
X114758750Y-142945000D03*
X108408750Y-145485000D03*
X95500000Y-138480000D03*
D10*
X233975000Y-71625000D03*
D11*
X239055000Y-71625000D03*
X228895000Y-71625000D03*
D12*
X236515000Y-66545000D03*
X230165000Y-69085000D03*
D15*
X164737500Y-50595000D03*
D16*
X164737500Y-42975000D03*
D11*
X91030000Y-128925000D03*
X80870000Y-128925000D03*
D10*
X85950000Y-128925000D03*
D12*
X88490000Y-123845000D03*
X82140000Y-126385000D03*
D11*
X76095000Y-71625000D03*
D10*
X81175000Y-71625000D03*
D11*
X86255000Y-71625000D03*
D12*
X83715000Y-66545000D03*
X77365000Y-69085000D03*
D15*
X179062500Y-52982500D03*
D16*
X179062500Y-45362500D03*
D12*
X127750000Y-42020000D03*
D15*
X193387500Y-57757500D03*
D16*
X193387500Y-50137500D03*
D11*
X191305000Y-90725000D03*
X181145000Y-90725000D03*
D10*
X186225000Y-90725000D03*
D12*
X188765000Y-85645000D03*
X182415000Y-88185000D03*
D15*
X140862500Y-48207500D03*
D16*
X140862500Y-40587500D03*
D15*
X195775000Y-57757500D03*
D16*
X195775000Y-50137500D03*
D11*
X171595000Y-71625000D03*
X181755000Y-71625000D03*
D10*
X176675000Y-71625000D03*
D12*
X179215000Y-66545000D03*
X172865000Y-69085000D03*
D15*
X272175000Y-48207500D03*
D16*
X272175000Y-40587500D03*
D15*
X276950000Y-50595000D03*
D16*
X276950000Y-42975000D03*
D15*
X176675000Y-55370000D03*
D16*
X176675000Y-47750000D03*
D10*
X348575000Y-128925000D03*
D11*
X343495000Y-128925000D03*
X353655000Y-128925000D03*
D12*
X351115000Y-123845000D03*
X344765000Y-126385000D03*
D11*
X176980000Y-109825000D03*
X166820000Y-109825000D03*
D10*
X171900000Y-109825000D03*
D12*
X174440000Y-104745000D03*
X168090000Y-107285000D03*
D15*
X241137500Y-55370000D03*
D16*
X241137500Y-47750000D03*
D15*
X138475000Y-48207500D03*
D16*
X138475000Y-40587500D03*
D11*
X178757500Y-148000000D03*
D10*
X183837500Y-148000000D03*
D14*
X233837500Y-155000000D03*
X133837500Y-155000000D03*
D10*
X133837500Y-139760000D03*
D11*
X188917500Y-148000000D03*
D10*
X233837500Y-139760000D03*
D12*
X186377500Y-142920000D03*
X180027500Y-145460000D03*
D11*
X262930000Y-128925000D03*
D10*
X257850000Y-128925000D03*
D11*
X252770000Y-128925000D03*
D12*
X260390000Y-123845000D03*
X254040000Y-126385000D03*
D11*
X286195000Y-71625000D03*
D10*
X291275000Y-71625000D03*
D11*
X296355000Y-71625000D03*
D12*
X293815000Y-66545000D03*
X287465000Y-69085000D03*
X243525000Y-147462000D03*
D15*
X231587500Y-52982500D03*
D16*
X231587500Y-45362500D03*
D10*
X329475000Y-50137500D03*
D11*
X324395000Y-50137500D03*
X334555000Y-50137500D03*
D12*
X332015000Y-45057500D03*
X325665000Y-47597500D03*
D11*
X186530000Y-128925000D03*
X176370000Y-128925000D03*
D10*
X181450000Y-128925000D03*
D12*
X183990000Y-123845000D03*
X177640000Y-126385000D03*
D15*
X145637500Y-52982500D03*
D16*
X145637500Y-45362500D03*
D15*
X265012500Y-55370000D03*
D16*
X265012500Y-47750000D03*
D15*
X214875000Y-57757500D03*
D16*
X214875000Y-50137500D03*
D10*
X348575000Y-50137500D03*
D11*
X343495000Y-50137500D03*
X353655000Y-50137500D03*
D12*
X351115000Y-45057500D03*
X344765000Y-47597500D03*
D15*
X148025000Y-55370000D03*
D16*
X148025000Y-47750000D03*
D15*
X198162500Y-55370000D03*
D16*
X198162500Y-47750000D03*
D11*
X324395000Y-128925000D03*
D10*
X329475000Y-128925000D03*
D11*
X334555000Y-128925000D03*
D12*
X332015000Y-123845000D03*
X325665000Y-126385000D03*
D11*
X315455000Y-148025000D03*
X305295000Y-148025000D03*
D10*
X310375000Y-148025000D03*
D12*
X312915000Y-142945000D03*
X306565000Y-145485000D03*
D10*
X255462500Y-148025000D03*
D11*
X260542500Y-148025000D03*
X250382500Y-148025000D03*
D12*
X258002500Y-142945000D03*
X251652500Y-145485000D03*
D15*
X269787500Y-50595000D03*
D16*
X269787500Y-42975000D03*
D11*
X133395000Y-71625000D03*
X143555000Y-71625000D03*
D10*
X138475000Y-71625000D03*
D12*
X141015000Y-66545000D03*
X134665000Y-69085000D03*
D10*
X248300000Y-109825000D03*
D11*
X253380000Y-109825000D03*
X243220000Y-109825000D03*
D12*
X250840000Y-104745000D03*
X244490000Y-107285000D03*
D15*
X200550000Y-52982500D03*
D16*
X200550000Y-45362500D03*
D15*
X255462500Y-52982500D03*
D16*
X255462500Y-45362500D03*
D15*
X191000000Y-55370000D03*
D16*
X191000000Y-47750000D03*
D11*
X93417500Y-148025000D03*
D10*
X88337500Y-148025000D03*
D11*
X83257500Y-148025000D03*
D12*
X90877500Y-142945000D03*
X84527500Y-145485000D03*
D15*
X186225000Y-50595000D03*
D16*
X186225000Y-42975000D03*
D11*
X243830000Y-128925000D03*
D10*
X238750000Y-128925000D03*
D11*
X233670000Y-128925000D03*
D12*
X241290000Y-123845000D03*
X234940000Y-126385000D03*
D15*
X162350000Y-48207500D03*
D16*
X162350000Y-40587500D03*
D15*
X279337500Y-52982500D03*
D16*
X279337500Y-45362500D03*
D10*
X305600000Y-109825000D03*
D11*
X300520000Y-109825000D03*
X310680000Y-109825000D03*
D12*
X308140000Y-104745000D03*
X301790000Y-107285000D03*
D11*
X324395000Y-71625000D03*
D10*
X329475000Y-71625000D03*
D11*
X334555000Y-71625000D03*
D12*
X332015000Y-66545000D03*
X325665000Y-69085000D03*
D10*
X348575000Y-71625000D03*
D11*
X353655000Y-71625000D03*
X343495000Y-71625000D03*
D12*
X351115000Y-66545000D03*
X344765000Y-69085000D03*
D15*
X171900000Y-57757500D03*
D16*
X171900000Y-50137500D03*
D15*
X217262500Y-57757500D03*
D16*
X217262500Y-50137500D03*
D10*
X143250000Y-128925000D03*
D11*
X138170000Y-128925000D03*
X148330000Y-128925000D03*
D12*
X145790000Y-123845000D03*
X139440000Y-126385000D03*
X319925000Y-138475000D03*
X167125000Y-148025000D03*
D11*
X329780000Y-90725000D03*
D10*
X324700000Y-90725000D03*
D11*
X319620000Y-90725000D03*
D12*
X327240000Y-85645000D03*
X320890000Y-88185000D03*
D10*
X318847500Y-112175000D03*
D11*
X327087500Y-105355000D03*
D14*
X334087500Y-112175000D03*
X334087500Y-88375000D03*
D11*
X327087500Y-95195000D03*
D10*
X327087500Y-100275000D03*
X318847500Y-88375000D03*
D12*
X332167500Y-102815000D03*
X329627500Y-96465000D03*
D15*
X133700000Y-52982500D03*
D16*
X133700000Y-45362500D03*
D15*
X224425000Y-50595000D03*
D16*
X224425000Y-42975000D03*
D10*
X317537500Y-109825000D03*
D14*
X305637500Y-102825000D03*
D10*
X329437500Y-118065000D03*
D14*
X329437500Y-102825000D03*
D11*
X322617500Y-109825000D03*
D10*
X305637500Y-118065000D03*
D11*
X312457500Y-109825000D03*
D12*
X320077500Y-104745000D03*
X313727500Y-107285000D03*
D11*
X247995000Y-71625000D03*
D10*
X253075000Y-71625000D03*
D11*
X258155000Y-71625000D03*
D12*
X255615000Y-66545000D03*
X249265000Y-69085000D03*
D10*
X100275000Y-71625000D03*
D11*
X105355000Y-71625000D03*
X95195000Y-71625000D03*
D12*
X102815000Y-66545000D03*
X96465000Y-69085000D03*
D15*
X233975000Y-55370000D03*
D16*
X233975000Y-47750000D03*
D11*
X100580000Y-109825000D03*
X90420000Y-109825000D03*
D10*
X95500000Y-109825000D03*
D12*
X98040000Y-104745000D03*
X91690000Y-107285000D03*
D15*
X262625000Y-57757500D03*
D16*
X262625000Y-50137500D03*
D10*
X219650000Y-128925000D03*
D11*
X224730000Y-128925000D03*
X214570000Y-128925000D03*
D12*
X222190000Y-123845000D03*
X215840000Y-126385000D03*
X261460000Y-42020000D03*
D11*
X190695000Y-71625000D03*
X200855000Y-71625000D03*
D10*
X195775000Y-71625000D03*
D12*
X198315000Y-66545000D03*
X191965000Y-69085000D03*
D15*
X250687500Y-48207500D03*
D16*
X250687500Y-40587500D03*
D21*
X323875000Y-50137500D03*
X335075000Y-50137500D03*
D22*
X331975000Y-42637500D03*
D23*
X326975000Y-42637500D03*
X329475000Y-42637500D03*
X326975000Y-57137500D03*
X331975000Y-57137500D03*
D21*
X342975000Y-50137500D03*
X354175000Y-50137500D03*
D22*
X351075000Y-42637500D03*
D23*
X346075000Y-42637500D03*
X348575000Y-42637500D03*
X346075000Y-57137500D03*
X351075000Y-57137500D03*
D15*
X202937500Y-50595000D03*
D16*
X202937500Y-42975000D03*
D15*
X116987500Y-48207500D03*
D16*
X116987500Y-40587500D03*
D10*
X124150000Y-128925000D03*
D11*
X119070000Y-128925000D03*
X129230000Y-128925000D03*
D12*
X126690000Y-123845000D03*
X120340000Y-126385000D03*
D11*
X219955000Y-71625000D03*
D10*
X214875000Y-71625000D03*
D11*
X209795000Y-71625000D03*
D12*
X217415000Y-66545000D03*
X211065000Y-69085000D03*
D15*
X205325000Y-48207500D03*
D16*
X205325000Y-40587500D03*
D15*
X143250000Y-50595000D03*
D16*
X143250000Y-42975000D03*
D11*
X286805000Y-90725000D03*
X276645000Y-90725000D03*
D10*
X281725000Y-90725000D03*
D12*
X284265000Y-85645000D03*
X277915000Y-88185000D03*
D11*
X257545000Y-90725000D03*
X267705000Y-90725000D03*
D10*
X262625000Y-90725000D03*
D12*
X265165000Y-85645000D03*
X258815000Y-88185000D03*
D11*
X59382500Y-109825000D03*
X69542500Y-109825000D03*
D10*
X64462500Y-109825000D03*
D12*
X67002500Y-104745000D03*
X60652500Y-107285000D03*
D15*
X131312500Y-55370000D03*
D16*
X131312500Y-47750000D03*
D11*
X190695000Y-148000000D03*
D14*
X138775000Y-155000000D03*
D10*
X195775000Y-148000000D03*
D11*
X200855000Y-148000000D03*
D14*
X252775000Y-155000000D03*
D10*
X138775000Y-139760000D03*
X252775000Y-139760000D03*
D12*
X198315000Y-142920000D03*
X191965000Y-145460000D03*
D10*
X210100000Y-109825000D03*
D11*
X215180000Y-109825000D03*
X205020000Y-109825000D03*
D12*
X212640000Y-104745000D03*
X206290000Y-107285000D03*
D10*
X229200000Y-109825000D03*
D11*
X224120000Y-109825000D03*
X234280000Y-109825000D03*
D12*
X231740000Y-104745000D03*
X225390000Y-107285000D03*
D11*
X200245000Y-90725000D03*
X210405000Y-90725000D03*
D10*
X205325000Y-90725000D03*
D12*
X207865000Y-85645000D03*
X201515000Y-88185000D03*
D10*
X348575000Y-90725000D03*
D11*
X343495000Y-90725000D03*
X353655000Y-90725000D03*
D12*
X351115000Y-85645000D03*
X344765000Y-88185000D03*
D11*
X274257500Y-148025000D03*
D10*
X279337500Y-148025000D03*
D11*
X284417500Y-148025000D03*
D12*
X281877500Y-142945000D03*
X275527500Y-145485000D03*
D10*
X66850000Y-148025000D03*
D11*
X71930000Y-148025000D03*
X61770000Y-148025000D03*
D12*
X69390000Y-142945000D03*
X63040000Y-145485000D03*
D10*
X85912500Y-137165000D03*
X74012500Y-128925000D03*
D14*
X85912500Y-121925000D03*
X62112500Y-121925000D03*
D10*
X62112500Y-137165000D03*
D11*
X68932500Y-128925000D03*
X79092500Y-128925000D03*
D12*
X76552500Y-123845000D03*
X70202500Y-126385000D03*
D15*
X159962500Y-50595000D03*
D16*
X159962500Y-42975000D03*
D11*
X271870000Y-128925000D03*
D10*
X276950000Y-128925000D03*
D11*
X282030000Y-128925000D03*
D12*
X279490000Y-123845000D03*
X273140000Y-126385000D03*
D10*
X224425000Y-90725000D03*
D11*
X229505000Y-90725000D03*
X219345000Y-90725000D03*
D12*
X226965000Y-85645000D03*
X220615000Y-88185000D03*
D15*
X281725000Y-55370000D03*
D16*
X281725000Y-47750000D03*
D15*
X126537500Y-57757500D03*
D16*
X126537500Y-50137500D03*
D11*
X123845000Y-90725000D03*
X134005000Y-90725000D03*
D10*
X128925000Y-90725000D03*
D12*
X131465000Y-85645000D03*
X125115000Y-88185000D03*
D15*
X229200000Y-50595000D03*
D16*
X229200000Y-42975000D03*
D15*
X284112500Y-57757500D03*
D16*
X284112500Y-50137500D03*
D15*
X183837500Y-48207500D03*
D16*
X183837500Y-40587500D03*
D15*
X169512500Y-55370000D03*
D16*
X169512500Y-47750000D03*
D15*
X291275000Y-52982500D03*
D16*
X291275000Y-45362500D03*
D11*
X353655000Y-148025000D03*
D10*
X348575000Y-148025000D03*
D11*
X343495000Y-148025000D03*
D12*
X351115000Y-142945000D03*
X344765000Y-145485000D03*
D11*
X262320000Y-109825000D03*
X272480000Y-109825000D03*
D10*
X267400000Y-109825000D03*
D12*
X269940000Y-104745000D03*
X263590000Y-107285000D03*
D15*
X222037500Y-52982500D03*
D16*
X222037500Y-45362500D03*
D12*
X139680000Y-54960000D03*
D15*
X267400000Y-52982500D03*
D16*
X267400000Y-45362500D03*
D10*
X90725000Y-148025000D03*
D11*
X95805000Y-148025000D03*
X85645000Y-148025000D03*
D12*
X93265000Y-142945000D03*
X86915000Y-145485000D03*
D15*
X128925000Y-57757500D03*
D16*
X128925000Y-50137500D03*
D13*
X90725000Y-52300000D03*
X90725000Y-57300000D03*
D11*
X248605000Y-90725000D03*
D10*
X243525000Y-90725000D03*
D11*
X238445000Y-90725000D03*
D12*
X246065000Y-85645000D03*
X239715000Y-88185000D03*
D11*
X173982500Y-148025000D03*
D10*
X179062500Y-148025000D03*
D11*
X184142500Y-148025000D03*
D12*
X181602500Y-142945000D03*
X175252500Y-145485000D03*
D10*
X200550000Y-128925000D03*
D11*
X195470000Y-128925000D03*
X205630000Y-128925000D03*
D12*
X203090000Y-123845000D03*
X196740000Y-126385000D03*
D15*
X226812500Y-48207500D03*
D16*
X226812500Y-40587500D03*
D15*
X257850000Y-55370000D03*
D16*
X257850000Y-47750000D03*
D11*
X61770000Y-90725000D03*
X71930000Y-90725000D03*
D10*
X66850000Y-90725000D03*
D12*
X69390000Y-85645000D03*
X63040000Y-88185000D03*
D11*
X59382500Y-148025000D03*
D10*
X64462500Y-148025000D03*
D11*
X69542500Y-148025000D03*
D12*
X67002500Y-142945000D03*
X60652500Y-145485000D03*
D15*
X136087500Y-50595000D03*
D16*
X136087500Y-42975000D03*
D15*
X274562500Y-48207500D03*
D16*
X274562500Y-40587500D03*
D15*
X181450000Y-50595000D03*
D16*
X181450000Y-42975000D03*
D15*
X155187500Y-55370000D03*
D16*
X155187500Y-47750000D03*
D15*
X236362500Y-57757500D03*
D16*
X236362500Y-50137500D03*
D15*
X207712500Y-50595000D03*
D16*
X207712500Y-42975000D03*
D15*
X238750000Y-57757500D03*
D16*
X238750000Y-50137500D03*
D11*
X74317500Y-109825000D03*
X64157500Y-109825000D03*
D10*
X69237500Y-109825000D03*
D12*
X71777500Y-104745000D03*
X65427500Y-107285000D03*
D15*
X150412500Y-57757500D03*
D16*
X150412500Y-50137500D03*
D15*
X188612500Y-52982500D03*
D16*
X188612500Y-45362500D03*
D15*
X174287500Y-57757500D03*
D16*
X174287500Y-50137500D03*
D14*
X229162500Y-154970000D03*
X205362500Y-154970000D03*
D11*
X222342500Y-147970000D03*
D10*
X217262500Y-147970000D03*
X229162500Y-139730000D03*
D11*
X212182500Y-147970000D03*
D10*
X205362500Y-139730000D03*
D12*
X219802500Y-142890000D03*
X213452500Y-145430000D03*
D10*
X90725000Y-90725000D03*
D11*
X85645000Y-90725000D03*
X95805000Y-90725000D03*
D12*
X93265000Y-85645000D03*
X86915000Y-88185000D03*
D15*
X119375000Y-50595000D03*
D16*
X119375000Y-42975000D03*
D11*
X119680000Y-109825000D03*
D10*
X114600000Y-109825000D03*
D11*
X109520000Y-109825000D03*
D12*
X117140000Y-104745000D03*
X110790000Y-107285000D03*
D15*
X245912500Y-50595000D03*
D16*
X245912500Y-42975000D03*
D24*
X57655000Y-42288900D03*
D25*
X60195000Y-42746100D03*
X62735000Y-42288900D03*
X65275000Y-42746100D03*
X67815000Y-42288900D03*
X70355000Y-42746100D03*
X72895000Y-42288900D03*
X75435000Y-42746100D03*
X77975000Y-42288900D03*
X80515000Y-42746100D03*
X83055000Y-42288900D03*
X85595000Y-42746100D03*
X85595000Y-57528900D03*
X83055000Y-57986100D03*
X80515000Y-57528900D03*
X77975000Y-57986100D03*
X75435000Y-57528900D03*
X72895000Y-57986100D03*
X70355000Y-57528900D03*
X67815000Y-57986100D03*
X65275000Y-57528900D03*
X62735000Y-57986100D03*
X60195000Y-57528900D03*
X57655000Y-57986100D03*
D19*
X81175000Y-107285000D03*
D20*
X81175000Y-109825000D03*
X81175000Y-112365000D03*
M02*
