M48
; DRILL file {KiCad (6.0.0-0)} date 2022 October 17, Monday 22:42:52
; FORMAT={-:-/ absolute / metric / decimal}
; #@! TF.CreationDate,2022-10-17T22:42:52+02:00
; #@! TF.GenerationSoftware,Kicad,Pcbnew,(6.0.0-0)
; #@! TF.FileFunction,NonPlated,1,2,NPTH
FMAT,2
METRIC
; #@! TA.AperFunction,NonPlated,NPTH,ComponentDrill
T1C1.500
; #@! TA.AperFunction,NonPlated,NPTH,ComponentDrill
T2C1.700
; #@! TA.AperFunction,NonPlated,NPTH,ComponentDrill
T3C2.200
; #@! TA.AperFunction,NonPlated,NPTH,ComponentDrill
T4C3.050
; #@! TA.AperFunction,NonPlated,NPTH,ComponentDrill
T5C4.000
%
G90
G05
T2
X56.995Y-71.625
X59.383Y-109.825
X59.383Y-128.925
X59.383Y-148.025
X61.77Y-148.025
X64.157Y-109.825
X67.155Y-71.625
X68.932Y-128.925
X69.542Y-109.825
X69.542Y-128.925
X69.542Y-148.025
X71.93Y-148.025
X74.317Y-109.825
X76.095Y-71.625
X79.093Y-128.925
X80.87Y-128.925
X83.257Y-148.025
X85.645Y-90.725
X85.645Y-148.025
X86.255Y-71.625
X90.42Y-109.825
X91.03Y-128.925
X93.417Y-148.025
X95.195Y-71.625
X95.805Y-90.725
X95.805Y-148.025
X99.97Y-128.925
X100.58Y-109.825
X104.745Y-90.725
X105.355Y-71.625
X107.139Y-148.025
X109.52Y-109.825
X109.52Y-148.025
X110.13Y-128.925
X114.295Y-71.625
X114.905Y-90.725
X117.299Y-148.025
X119.07Y-128.925
X119.68Y-109.825
X119.68Y-148.025
X123.845Y-90.725
X124.455Y-71.625
X128.62Y-109.825
X129.23Y-128.925
X133.395Y-71.625
X134.005Y-90.725
X138.17Y-128.925
X138.78Y-109.825
X140.558Y-148.0
X142.792Y-90.725
X143.555Y-71.625
X147.72Y-109.825
X148.33Y-128.925
X150.718Y-148.0
X152.495Y-71.625
X152.952Y-90.725
X157.27Y-128.925
X157.88Y-109.825
X162.045Y-90.725
X162.655Y-71.625
X166.82Y-109.825
X167.43Y-128.925
X171.595Y-71.625
X172.205Y-90.725
X173.982Y-148.025
X176.37Y-128.925
X176.98Y-109.825
X178.757Y-148.0
X181.145Y-90.725
X181.755Y-71.625
X184.142Y-148.025
X185.92Y-109.825
X186.53Y-128.925
X188.917Y-148.0
X190.695Y-71.625
X190.695Y-148.0
X191.305Y-90.725
X195.47Y-128.925
X196.08Y-109.825
X200.245Y-90.725
X200.855Y-71.625
X200.855Y-148.0
X205.02Y-109.825
X205.63Y-128.925
X209.795Y-71.625
X210.405Y-90.725
X212.183Y-147.97
X214.57Y-128.925
X215.18Y-109.825
X219.345Y-90.725
X219.955Y-71.625
X222.343Y-147.97
X224.12Y-109.825
X224.73Y-128.925
X228.895Y-71.625
X229.505Y-90.725
X233.67Y-128.925
X234.28Y-109.825
X238.445Y-90.725
X239.055Y-71.625
X243.22Y-109.825
X243.83Y-128.925
X247.995Y-71.625
X248.605Y-90.725
X250.382Y-148.025
X252.77Y-128.925
X253.38Y-109.825
X257.545Y-90.725
X258.155Y-71.625
X260.542Y-148.025
X262.32Y-109.825
X262.93Y-128.925
X267.095Y-71.625
X267.705Y-90.725
X271.87Y-128.925
X271.87Y-148.025
X272.48Y-109.825
X274.257Y-148.025
X276.645Y-90.725
X277.255Y-71.625
X281.42Y-109.825
X282.03Y-128.925
X282.03Y-148.025
X284.417Y-148.025
X286.195Y-71.625
X286.805Y-90.725
X291.58Y-109.825
X295.745Y-90.725
X296.355Y-71.625
X298.132Y-128.925
X300.52Y-109.825
X305.295Y-71.625
X305.295Y-148.025
X305.905Y-90.725
X308.292Y-128.925
X310.68Y-109.825
X312.457Y-109.825
X314.845Y-71.625
X315.455Y-71.625
X315.455Y-148.025
X319.62Y-90.725
X322.618Y-109.825
X324.395Y-50.137
X324.395Y-71.625
X324.395Y-128.925
X324.395Y-148.025
X325.005Y-71.625
X327.087Y-95.195
X327.087Y-105.355
X329.78Y-90.725
X334.555Y-50.137
X334.555Y-71.625
X334.555Y-128.925
X334.555Y-148.025
X343.495Y-50.137
X343.495Y-71.625
X343.495Y-90.725
X343.495Y-109.825
X343.495Y-128.925
X343.495Y-148.025
X353.655Y-50.137
X353.655Y-71.625
X353.655Y-90.725
X353.655Y-109.825
X353.655Y-128.925
X353.655Y-148.025
T3
X95.5Y-138.48
X112.212Y-81.175
X127.75Y-42.02
X139.68Y-54.96
X167.125Y-148.025
X205.325Y-81.175
X243.525Y-147.462
X248.3Y-54.912
X261.46Y-42.02
X298.438Y-81.175
X319.925Y-138.475
T4
X62.112Y-121.925
X85.912Y-121.925
X133.737Y-155.0
X133.838Y-155.0
X138.775Y-155.0
X157.537Y-155.0
X205.362Y-154.97
X229.162Y-154.97
X233.837Y-155.0
X252.775Y-155.0
X305.637Y-102.825
X308.025Y-64.625
X329.438Y-102.825
X331.825Y-64.625
X334.087Y-88.375
X334.087Y-112.175
T5
X62.075Y-71.625
X62.112Y-137.165
X64.462Y-109.825
X64.462Y-128.925
X64.462Y-148.025
X66.85Y-90.725
X66.85Y-148.025
X69.237Y-109.825
X74.013Y-128.925
X81.175Y-71.625
X85.912Y-137.165
X85.95Y-128.925
X88.337Y-148.025
X90.725Y-90.725
X90.725Y-148.025
X95.5Y-109.825
X100.275Y-71.625
X105.05Y-128.925
X109.825Y-90.725
X112.219Y-148.025
X114.6Y-109.825
X114.6Y-148.025
X119.375Y-71.625
X124.15Y-128.925
X128.925Y-90.725
X133.7Y-109.825
X133.737Y-139.76
X133.838Y-139.76
X138.475Y-71.625
X138.775Y-139.76
X143.25Y-128.925
X145.637Y-148.0
X147.873Y-90.725
X152.8Y-109.825
X157.537Y-139.76
X157.575Y-71.625
X162.35Y-128.925
X167.125Y-90.725
X171.9Y-109.825
X176.675Y-71.625
X179.062Y-148.025
X181.45Y-128.925
X183.838Y-148.0
X186.225Y-90.725
X191.0Y-109.825
X195.775Y-71.625
X195.775Y-148.0
X200.55Y-128.925
X205.325Y-90.725
X205.362Y-139.73
X210.1Y-109.825
X214.875Y-71.625
X217.262Y-147.97
X219.65Y-128.925
X224.425Y-90.725
X229.162Y-139.73
X229.2Y-109.825
X233.837Y-139.76
X233.975Y-71.625
X238.75Y-128.925
X243.525Y-90.725
X248.3Y-109.825
X252.775Y-139.76
X253.075Y-71.625
X255.462Y-148.025
X257.85Y-128.925
X262.625Y-90.725
X267.4Y-109.825
X272.175Y-71.625
X276.95Y-128.925
X276.95Y-148.025
X279.337Y-148.025
X281.725Y-90.725
X286.5Y-109.825
X291.275Y-71.625
X300.825Y-90.725
X303.212Y-128.925
X305.6Y-109.825
X305.637Y-118.065
X308.025Y-79.865
X310.375Y-71.625
X310.375Y-148.025
X317.537Y-109.825
X318.847Y-88.375
X318.847Y-112.175
X319.925Y-71.625
X324.7Y-90.725
X327.087Y-100.275
X329.438Y-118.065
X329.475Y-50.137
X329.475Y-71.625
X329.475Y-128.925
X329.475Y-148.025
X331.825Y-79.865
X348.575Y-50.137
X348.575Y-71.625
X348.575Y-90.725
X348.575Y-109.825
X348.575Y-128.925
X348.575Y-148.025
T1
X323.875Y-49.487G85X323.875Y-50.787
G05
X335.075Y-49.487G85X335.075Y-50.787
G05
X342.975Y-49.487G85X342.975Y-50.787
G05
X354.175Y-49.487G85X354.175Y-50.787
G05
T0
M30
