M48
; DRILL file {KiCad (6.0.0-0)} date 2022 October 18, Tuesday 11:22:19
; FORMAT={-:-/ absolute / metric / decimal}
; #@! TF.CreationDate,2022-10-18T11:22:19+02:00
; #@! TF.GenerationSoftware,Kicad,Pcbnew,(6.0.0-0)
; #@! TF.FileFunction,Plated,1,2,PTH
FMAT,2
METRIC
; #@! TA.AperFunction,Plated,PTH,ViaDrill
T1C0.400
; #@! TA.AperFunction,Plated,PTH,ComponentDrill
T2C0.750
; #@! TA.AperFunction,Plated,PTH,ComponentDrill
T3C0.800
; #@! TA.AperFunction,Plated,PTH,ComponentDrill
T4C1.000
; #@! TA.AperFunction,Plated,PTH,ComponentDrill
T5C1.092
; #@! TA.AperFunction,Plated,PTH,ComponentDrill
T6C1.500
%
G90
G05
T1
X81.49Y-49.67
X109.4Y-55.6
X109.997Y-64.291
X114.6Y-52.525
X114.6Y-54.912
X119.2Y-65.0
X316.0Y-58.4
T2
X116.987Y-40.587
X116.987Y-48.207
X119.375Y-42.975
X119.375Y-50.595
X121.762Y-45.362
X121.762Y-52.982
X124.15Y-47.75
X124.15Y-55.37
X126.537Y-50.137
X126.537Y-57.758
X128.925Y-50.137
X128.925Y-57.758
X131.312Y-47.75
X131.312Y-55.37
X133.7Y-45.362
X133.7Y-52.982
X136.088Y-42.975
X136.088Y-50.595
X138.475Y-40.587
X138.475Y-48.207
X140.862Y-40.587
X140.862Y-48.207
X143.25Y-42.975
X143.25Y-50.595
X145.637Y-45.362
X145.637Y-52.982
X148.025Y-47.75
X148.025Y-55.37
X150.412Y-50.137
X150.412Y-57.758
X152.8Y-50.137
X152.8Y-57.758
X155.188Y-47.75
X155.188Y-55.37
X157.575Y-45.362
X157.575Y-52.982
X159.963Y-42.975
X159.963Y-50.595
X162.35Y-40.587
X162.35Y-48.207
X164.737Y-42.975
X164.737Y-50.595
X167.125Y-45.362
X167.125Y-52.982
X169.512Y-47.75
X169.512Y-55.37
X171.9Y-50.137
X171.9Y-57.758
X174.287Y-50.137
X174.287Y-57.758
X176.675Y-47.75
X176.675Y-55.37
X179.062Y-45.362
X179.062Y-52.982
X181.45Y-42.975
X181.45Y-50.595
X183.838Y-40.587
X183.838Y-48.207
X186.225Y-42.975
X186.225Y-50.595
X188.612Y-45.362
X188.612Y-52.982
X191.0Y-47.75
X191.0Y-55.37
X193.387Y-50.137
X193.387Y-57.758
X195.775Y-50.137
X195.775Y-57.758
X198.162Y-47.75
X198.162Y-55.37
X200.55Y-45.362
X200.55Y-52.982
X202.938Y-42.975
X202.938Y-50.595
X205.325Y-40.587
X205.325Y-48.207
X207.712Y-42.975
X207.712Y-50.595
X210.1Y-45.362
X210.1Y-52.982
X212.487Y-47.75
X212.487Y-55.37
X214.875Y-50.137
X214.875Y-57.758
X217.262Y-50.137
X217.262Y-57.758
X219.65Y-47.75
X219.65Y-55.37
X222.037Y-45.362
X222.037Y-52.982
X224.425Y-42.975
X224.425Y-50.595
X226.812Y-40.587
X226.812Y-48.207
X229.2Y-42.975
X229.2Y-50.595
X231.587Y-45.362
X231.587Y-52.982
X233.975Y-47.75
X233.975Y-55.37
X236.362Y-50.137
X236.362Y-57.758
X238.75Y-50.137
X238.75Y-57.758
X241.137Y-47.75
X241.137Y-55.37
X243.525Y-45.362
X243.525Y-52.982
X245.912Y-42.975
X245.912Y-50.595
X248.3Y-40.587
X248.3Y-48.207
X250.688Y-40.587
X250.688Y-48.207
X253.075Y-42.975
X253.075Y-50.595
X255.462Y-45.362
X255.462Y-52.982
X257.85Y-47.75
X257.85Y-55.37
X260.238Y-50.137
X260.238Y-57.758
X262.625Y-50.137
X262.625Y-57.758
X265.012Y-47.75
X265.012Y-55.37
X267.4Y-45.362
X267.4Y-52.982
X269.787Y-42.975
X269.787Y-50.595
X272.175Y-40.587
X272.175Y-48.207
X274.562Y-40.587
X274.562Y-48.207
X276.95Y-42.975
X276.95Y-50.595
X279.337Y-45.362
X279.337Y-52.982
X281.725Y-47.75
X281.725Y-55.37
X284.113Y-50.137
X284.113Y-57.758
X286.5Y-50.137
X286.5Y-57.758
X288.887Y-47.75
X288.887Y-55.37
X291.275Y-45.362
X291.275Y-52.982
T3
X90.725Y-40.587
X90.725Y-45.587
X90.725Y-52.3
X90.725Y-57.3
X93.763Y-39.155
X93.763Y-46.775
X93.763Y-50.867
X93.763Y-58.487
X96.302Y-39.155
X96.302Y-46.775
X96.302Y-50.867
X96.302Y-58.487
X98.843Y-39.155
X98.843Y-46.775
X98.843Y-50.867
X98.843Y-58.487
X101.382Y-39.155
X101.382Y-46.775
X101.382Y-50.867
X101.382Y-58.487
X103.922Y-39.155
X103.922Y-46.775
X103.922Y-50.867
X103.922Y-58.487
X106.462Y-39.155
X106.462Y-46.775
X106.462Y-50.867
X106.462Y-58.487
X109.002Y-39.155
X109.002Y-46.775
X109.002Y-50.867
X109.002Y-58.487
X111.542Y-39.155
X111.542Y-46.775
X111.542Y-50.867
X111.542Y-58.487
T4
X81.175Y-107.285
X81.175Y-109.825
X81.175Y-112.365
X315.175Y-47.445
X315.175Y-49.985
X315.175Y-52.525
X315.175Y-55.065
X326.975Y-42.637
X326.975Y-57.137
X329.475Y-42.637
X331.975Y-42.637
X331.975Y-57.137
X346.075Y-42.637
X346.075Y-57.137
X348.575Y-42.637
X351.075Y-42.637
X351.075Y-57.137
T5
X57.655Y-42.289
X57.655Y-57.986
X60.195Y-42.746
X60.195Y-57.529
X62.735Y-42.289
X62.735Y-57.986
X65.275Y-42.746
X65.275Y-57.529
X67.815Y-42.289
X67.815Y-57.986
X70.355Y-42.746
X70.355Y-57.529
X72.895Y-42.289
X72.895Y-57.986
X75.435Y-42.746
X75.435Y-57.529
X77.975Y-42.289
X77.975Y-57.986
X80.515Y-42.746
X80.515Y-57.529
X83.055Y-42.289
X83.055Y-57.986
X85.595Y-42.746
X85.595Y-57.529
T6
X58.265Y-69.085
X60.652Y-107.285
X60.652Y-126.385
X60.652Y-145.485
X63.04Y-88.185
X63.04Y-145.485
X64.615Y-66.545
X65.427Y-107.285
X67.002Y-104.745
X67.002Y-123.845
X67.002Y-142.945
X69.39Y-85.645
X69.39Y-142.945
X70.203Y-126.385
X71.778Y-104.745
X76.552Y-123.845
X77.365Y-69.085
X82.14Y-126.385
X83.715Y-66.545
X84.527Y-145.485
X86.915Y-88.185
X86.915Y-145.485
X88.49Y-123.845
X90.877Y-142.945
X91.69Y-107.285
X93.265Y-85.645
X93.265Y-142.945
X96.465Y-69.085
X98.04Y-104.745
X101.24Y-126.385
X102.815Y-66.545
X106.015Y-88.185
X107.59Y-123.845
X108.409Y-145.485
X110.79Y-107.285
X110.79Y-145.485
X112.365Y-85.645
X114.759Y-142.945
X115.565Y-69.085
X117.14Y-104.745
X117.14Y-142.945
X120.34Y-126.385
X121.915Y-66.545
X125.115Y-88.185
X126.69Y-123.845
X129.89Y-107.285
X131.465Y-85.645
X134.665Y-69.085
X136.24Y-104.745
X139.44Y-126.385
X141.015Y-66.545
X141.827Y-145.46
X144.062Y-88.185
X145.79Y-123.845
X148.177Y-142.92
X148.99Y-107.285
X150.412Y-85.645
X153.765Y-69.085
X155.34Y-104.745
X158.54Y-126.385
X160.115Y-66.545
X163.315Y-88.185
X164.89Y-123.845
X168.09Y-107.285
X169.665Y-85.645
X172.865Y-69.085
X174.44Y-104.745
X175.252Y-145.485
X177.64Y-126.385
X179.215Y-66.545
X180.028Y-145.46
X181.602Y-142.945
X182.415Y-88.185
X183.99Y-123.845
X186.377Y-142.92
X187.19Y-107.285
X188.765Y-85.645
X191.965Y-69.085
X191.965Y-145.46
X193.54Y-104.745
X196.74Y-126.385
X198.315Y-66.545
X198.315Y-142.92
X201.515Y-88.185
X203.09Y-123.845
X206.29Y-107.285
X207.865Y-85.645
X211.065Y-69.085
X212.64Y-104.745
X213.452Y-145.43
X215.84Y-126.385
X217.415Y-66.545
X219.802Y-142.89
X220.615Y-88.185
X222.19Y-123.845
X225.39Y-107.285
X226.965Y-85.645
X230.165Y-69.085
X231.74Y-104.745
X234.94Y-126.385
X236.515Y-66.545
X239.715Y-88.185
X241.29Y-123.845
X244.49Y-107.285
X246.065Y-85.645
X249.265Y-69.085
X250.84Y-104.745
X251.652Y-145.485
X254.04Y-126.385
X255.615Y-66.545
X258.002Y-142.945
X258.815Y-88.185
X260.39Y-123.845
X263.59Y-107.285
X265.165Y-85.645
X268.365Y-69.085
X269.94Y-104.745
X273.14Y-126.385
X273.14Y-145.485
X274.715Y-66.545
X275.527Y-145.485
X277.915Y-88.185
X279.49Y-123.845
X279.49Y-142.945
X281.877Y-142.945
X282.69Y-107.285
X284.265Y-85.645
X287.465Y-69.085
X289.04Y-104.745
X293.815Y-66.545
X297.015Y-88.185
X299.402Y-126.385
X301.79Y-107.285
X303.365Y-85.645
X305.752Y-123.845
X306.565Y-69.085
X306.565Y-145.485
X308.14Y-104.745
X312.915Y-66.545
X312.915Y-142.945
X313.727Y-107.285
X316.115Y-69.085
X320.077Y-104.745
X320.89Y-88.185
X322.465Y-66.545
X325.665Y-47.597
X325.665Y-69.085
X325.665Y-126.385
X325.665Y-145.485
X327.24Y-85.645
X329.627Y-96.465
X332.015Y-45.057
X332.015Y-66.545
X332.015Y-123.845
X332.015Y-142.945
X332.167Y-102.815
X344.765Y-47.597
X344.765Y-69.085
X344.765Y-88.185
X344.765Y-107.285
X344.765Y-126.385
X344.765Y-145.485
X351.115Y-45.057
X351.115Y-66.545
X351.115Y-85.645
X351.115Y-104.745
X351.115Y-123.845
X351.115Y-142.945
T0
M30
