%FSLAX45Y45*%
G04 Gerber Fmt 4.5, Leading zero omitted, Abs format (unit mm)*
G04 Created by KiCad (PCBNEW (6.0.0-0)) date 2022-11-14 08:42:16*
%MOMM*%
%LPD*%
G01*
G04 APERTURE LIST*
%TA.AperFunction,Profile*%
%ADD10C,0.100000*%
%TD*%
%ADD11C,0.200000*%
%ADD12C,0.150000*%
%ADD13C,0.170000*%
%ADD14C,0.220000*%
%ADD15C,0.305000*%
%ADD16C,0.400000*%
G04 APERTURE END LIST*
D10*
X5730000Y-3581250D02*
G75*
G03*
X5252500Y-4058750I0J-477500D01*
G01*
X5252500Y-15757500D02*
X35812500Y-15757500D01*
X5252500Y-4058750D02*
X5252500Y-15757500D01*
X35335000Y-3581250D02*
X5730000Y-3581250D01*
X35812500Y-15757500D02*
X35812500Y-4058750D01*
X35812500Y-4058750D02*
G75*
G03*
X35335000Y-3581250I-477500J0D01*
G01*
D11*
D12*
X32312500Y-4938750D02*
X32462500Y-5088750D01*
X32462500Y-4938750D02*
X32312500Y-5088750D01*
D11*
X32322500Y-4948750D02*
X32322500Y-5078750D01*
X32452500Y-4948750D02*
X32452500Y-5078750D01*
X32322500Y-5078750D02*
G75*
G03*
X32452500Y-5078750I65000J0D01*
G01*
X32452500Y-4948750D02*
G75*
G03*
X32322500Y-4948750I-65000J0D01*
G01*
D12*
X33432500Y-4938750D02*
X33582500Y-5088750D01*
X33582500Y-4938750D02*
X33432500Y-5088750D01*
D11*
X33442500Y-4948750D02*
X33442500Y-5078750D01*
X33572500Y-4948750D02*
X33572500Y-5078750D01*
X33442500Y-5078750D02*
G75*
G03*
X33572500Y-5078750I65000J0D01*
G01*
X33572500Y-4948750D02*
G75*
G03*
X33442500Y-4948750I-65000J0D01*
G01*
D12*
X34222500Y-4938750D02*
X34372500Y-5088750D01*
X34372500Y-4938750D02*
X34222500Y-5088750D01*
D11*
X34232500Y-4948750D02*
X34232500Y-5078750D01*
X34362500Y-4948750D02*
X34362500Y-5078750D01*
X34232500Y-5078750D02*
G75*
G03*
X34362500Y-5078750I65000J0D01*
G01*
X34362500Y-4948750D02*
G75*
G03*
X34232500Y-4948750I-65000J0D01*
G01*
D12*
X35342500Y-4938750D02*
X35492500Y-5088750D01*
X35492500Y-4938750D02*
X35342500Y-5088750D01*
D11*
X35352500Y-4948750D02*
X35352500Y-5078750D01*
X35482500Y-4948750D02*
X35482500Y-5078750D01*
X35352500Y-5078750D02*
G75*
G03*
X35482500Y-5078750I65000J0D01*
G01*
X35482500Y-4948750D02*
G75*
G03*
X35352500Y-4948750I-65000J0D01*
G01*
D13*
X5784500Y-7162500D02*
G75*
G03*
X5784500Y-7162500I-85000J0D01*
G01*
X6023250Y-10982500D02*
G75*
G03*
X6023250Y-10982500I-85000J0D01*
G01*
X6023250Y-12892500D02*
G75*
G03*
X6023250Y-12892500I-85000J0D01*
G01*
X6023250Y-14802500D02*
G75*
G03*
X6023250Y-14802500I-85000J0D01*
G01*
X6262000Y-9072500D02*
G75*
G03*
X6262000Y-9072500I-85000J0D01*
G01*
X6262000Y-14802500D02*
G75*
G03*
X6262000Y-14802500I-85000J0D01*
G01*
X6500750Y-10982500D02*
G75*
G03*
X6500750Y-10982500I-85000J0D01*
G01*
X6800500Y-7162500D02*
G75*
G03*
X6800500Y-7162500I-85000J0D01*
G01*
X6978250Y-12892500D02*
G75*
G03*
X6978250Y-12892500I-85000J0D01*
G01*
X7039250Y-10982500D02*
G75*
G03*
X7039250Y-10982500I-85000J0D01*
G01*
X7039250Y-12892500D02*
G75*
G03*
X7039250Y-12892500I-85000J0D01*
G01*
X7039250Y-14802500D02*
G75*
G03*
X7039250Y-14802500I-85000J0D01*
G01*
X7278000Y-9072500D02*
G75*
G03*
X7278000Y-9072500I-85000J0D01*
G01*
X7278000Y-14802500D02*
G75*
G03*
X7278000Y-14802500I-85000J0D01*
G01*
X7516750Y-10982500D02*
G75*
G03*
X7516750Y-10982500I-85000J0D01*
G01*
X7694500Y-7162500D02*
G75*
G03*
X7694500Y-7162500I-85000J0D01*
G01*
X7994250Y-12892500D02*
G75*
G03*
X7994250Y-12892500I-85000J0D01*
G01*
X8172000Y-12892500D02*
G75*
G03*
X8172000Y-12892500I-85000J0D01*
G01*
X8410750Y-14802500D02*
G75*
G03*
X8410750Y-14802500I-85000J0D01*
G01*
X8649500Y-9072500D02*
G75*
G03*
X8649500Y-9072500I-85000J0D01*
G01*
X8649500Y-14802500D02*
G75*
G03*
X8649500Y-14802500I-85000J0D01*
G01*
X8710500Y-7162500D02*
G75*
G03*
X8710500Y-7162500I-85000J0D01*
G01*
X9127000Y-10982500D02*
G75*
G03*
X9127000Y-10982500I-85000J0D01*
G01*
X9188000Y-12892500D02*
G75*
G03*
X9188000Y-12892500I-85000J0D01*
G01*
X9426750Y-14802500D02*
G75*
G03*
X9426750Y-14802500I-85000J0D01*
G01*
X9604500Y-7162500D02*
G75*
G03*
X9604500Y-7162500I-85000J0D01*
G01*
X9665500Y-9072500D02*
G75*
G03*
X9665500Y-9072500I-85000J0D01*
G01*
X9665500Y-14802500D02*
G75*
G03*
X9665500Y-14802500I-85000J0D01*
G01*
X10082000Y-12892500D02*
G75*
G03*
X10082000Y-12892500I-85000J0D01*
G01*
X10143000Y-10982500D02*
G75*
G03*
X10143000Y-10982500I-85000J0D01*
G01*
X10559500Y-9072500D02*
G75*
G03*
X10559500Y-9072500I-85000J0D01*
G01*
X10620500Y-7162500D02*
G75*
G03*
X10620500Y-7162500I-85000J0D01*
G01*
X10798875Y-14802500D02*
G75*
G03*
X10798875Y-14802500I-85000J0D01*
G01*
X11037000Y-10982500D02*
G75*
G03*
X11037000Y-10982500I-85000J0D01*
G01*
X11037000Y-14802500D02*
G75*
G03*
X11037000Y-14802500I-85000J0D01*
G01*
X11098000Y-12892500D02*
G75*
G03*
X11098000Y-12892500I-85000J0D01*
G01*
X11514500Y-7162500D02*
G75*
G03*
X11514500Y-7162500I-85000J0D01*
G01*
X11575500Y-9072500D02*
G75*
G03*
X11575500Y-9072500I-85000J0D01*
G01*
X11814875Y-14802500D02*
G75*
G03*
X11814875Y-14802500I-85000J0D01*
G01*
X11992000Y-12892500D02*
G75*
G03*
X11992000Y-12892500I-85000J0D01*
G01*
X12053000Y-10982500D02*
G75*
G03*
X12053000Y-10982500I-85000J0D01*
G01*
X12053000Y-14802500D02*
G75*
G03*
X12053000Y-14802500I-85000J0D01*
G01*
X12469500Y-9072500D02*
G75*
G03*
X12469500Y-9072500I-85000J0D01*
G01*
X12530500Y-7162500D02*
G75*
G03*
X12530500Y-7162500I-85000J0D01*
G01*
X12947000Y-10982500D02*
G75*
G03*
X12947000Y-10982500I-85000J0D01*
G01*
X13008000Y-12892500D02*
G75*
G03*
X13008000Y-12892500I-85000J0D01*
G01*
X13424500Y-7162500D02*
G75*
G03*
X13424500Y-7162500I-85000J0D01*
G01*
X13485500Y-9072500D02*
G75*
G03*
X13485500Y-9072500I-85000J0D01*
G01*
X13902000Y-12892500D02*
G75*
G03*
X13902000Y-12892500I-85000J0D01*
G01*
X13963000Y-10982500D02*
G75*
G03*
X13963000Y-10982500I-85000J0D01*
G01*
X14140750Y-14800000D02*
G75*
G03*
X14140750Y-14800000I-85000J0D01*
G01*
X14364250Y-9072500D02*
G75*
G03*
X14364250Y-9072500I-85000J0D01*
G01*
X14440500Y-7162500D02*
G75*
G03*
X14440500Y-7162500I-85000J0D01*
G01*
X14857000Y-10982500D02*
G75*
G03*
X14857000Y-10982500I-85000J0D01*
G01*
X14918000Y-12892500D02*
G75*
G03*
X14918000Y-12892500I-85000J0D01*
G01*
X15156750Y-14800000D02*
G75*
G03*
X15156750Y-14800000I-85000J0D01*
G01*
X15334500Y-7162500D02*
G75*
G03*
X15334500Y-7162500I-85000J0D01*
G01*
X15380250Y-9072500D02*
G75*
G03*
X15380250Y-9072500I-85000J0D01*
G01*
X15812000Y-12892500D02*
G75*
G03*
X15812000Y-12892500I-85000J0D01*
G01*
X15873000Y-10982500D02*
G75*
G03*
X15873000Y-10982500I-85000J0D01*
G01*
X16289500Y-9072500D02*
G75*
G03*
X16289500Y-9072500I-85000J0D01*
G01*
X16350500Y-7162500D02*
G75*
G03*
X16350500Y-7162500I-85000J0D01*
G01*
X16767000Y-10982500D02*
G75*
G03*
X16767000Y-10982500I-85000J0D01*
G01*
X16828000Y-12892500D02*
G75*
G03*
X16828000Y-12892500I-85000J0D01*
G01*
X17244500Y-7162500D02*
G75*
G03*
X17244500Y-7162500I-85000J0D01*
G01*
X17305500Y-9072500D02*
G75*
G03*
X17305500Y-9072500I-85000J0D01*
G01*
X17483250Y-14802500D02*
G75*
G03*
X17483250Y-14802500I-85000J0D01*
G01*
X17722000Y-12892500D02*
G75*
G03*
X17722000Y-12892500I-85000J0D01*
G01*
X17783000Y-10982500D02*
G75*
G03*
X17783000Y-10982500I-85000J0D01*
G01*
X17960750Y-14800000D02*
G75*
G03*
X17960750Y-14800000I-85000J0D01*
G01*
X18199500Y-9072500D02*
G75*
G03*
X18199500Y-9072500I-85000J0D01*
G01*
X18260500Y-7162500D02*
G75*
G03*
X18260500Y-7162500I-85000J0D01*
G01*
X18499250Y-14802500D02*
G75*
G03*
X18499250Y-14802500I-85000J0D01*
G01*
X18677000Y-10982500D02*
G75*
G03*
X18677000Y-10982500I-85000J0D01*
G01*
X18738000Y-12892500D02*
G75*
G03*
X18738000Y-12892500I-85000J0D01*
G01*
X18976750Y-14800000D02*
G75*
G03*
X18976750Y-14800000I-85000J0D01*
G01*
X19154500Y-7162500D02*
G75*
G03*
X19154500Y-7162500I-85000J0D01*
G01*
X19154500Y-14800000D02*
G75*
G03*
X19154500Y-14800000I-85000J0D01*
G01*
X19215500Y-9072500D02*
G75*
G03*
X19215500Y-9072500I-85000J0D01*
G01*
X19632000Y-12892500D02*
G75*
G03*
X19632000Y-12892500I-85000J0D01*
G01*
X19693000Y-10982500D02*
G75*
G03*
X19693000Y-10982500I-85000J0D01*
G01*
X20109500Y-9072500D02*
G75*
G03*
X20109500Y-9072500I-85000J0D01*
G01*
X20170500Y-7162500D02*
G75*
G03*
X20170500Y-7162500I-85000J0D01*
G01*
X20170500Y-14800000D02*
G75*
G03*
X20170500Y-14800000I-85000J0D01*
G01*
X20587000Y-10982500D02*
G75*
G03*
X20587000Y-10982500I-85000J0D01*
G01*
X20648000Y-12892500D02*
G75*
G03*
X20648000Y-12892500I-85000J0D01*
G01*
X21064500Y-7162500D02*
G75*
G03*
X21064500Y-7162500I-85000J0D01*
G01*
X21125500Y-9072500D02*
G75*
G03*
X21125500Y-9072500I-85000J0D01*
G01*
X21303250Y-14797000D02*
G75*
G03*
X21303250Y-14797000I-85000J0D01*
G01*
X21542000Y-12892500D02*
G75*
G03*
X21542000Y-12892500I-85000J0D01*
G01*
X21603000Y-10982500D02*
G75*
G03*
X21603000Y-10982500I-85000J0D01*
G01*
X22019500Y-9072500D02*
G75*
G03*
X22019500Y-9072500I-85000J0D01*
G01*
X22080500Y-7162500D02*
G75*
G03*
X22080500Y-7162500I-85000J0D01*
G01*
X22319250Y-14797000D02*
G75*
G03*
X22319250Y-14797000I-85000J0D01*
G01*
X22497000Y-10982500D02*
G75*
G03*
X22497000Y-10982500I-85000J0D01*
G01*
X22558000Y-12892500D02*
G75*
G03*
X22558000Y-12892500I-85000J0D01*
G01*
X22974500Y-7162500D02*
G75*
G03*
X22974500Y-7162500I-85000J0D01*
G01*
X23035500Y-9072500D02*
G75*
G03*
X23035500Y-9072500I-85000J0D01*
G01*
X23452000Y-12892500D02*
G75*
G03*
X23452000Y-12892500I-85000J0D01*
G01*
X23513000Y-10982500D02*
G75*
G03*
X23513000Y-10982500I-85000J0D01*
G01*
X23929500Y-9072500D02*
G75*
G03*
X23929500Y-9072500I-85000J0D01*
G01*
X23990500Y-7162500D02*
G75*
G03*
X23990500Y-7162500I-85000J0D01*
G01*
X24407000Y-10982500D02*
G75*
G03*
X24407000Y-10982500I-85000J0D01*
G01*
X24468000Y-12892500D02*
G75*
G03*
X24468000Y-12892500I-85000J0D01*
G01*
X24884500Y-7162500D02*
G75*
G03*
X24884500Y-7162500I-85000J0D01*
G01*
X24945500Y-9072500D02*
G75*
G03*
X24945500Y-9072500I-85000J0D01*
G01*
X25123250Y-14802500D02*
G75*
G03*
X25123250Y-14802500I-85000J0D01*
G01*
X25362000Y-12892500D02*
G75*
G03*
X25362000Y-12892500I-85000J0D01*
G01*
X25423000Y-10982500D02*
G75*
G03*
X25423000Y-10982500I-85000J0D01*
G01*
X25839500Y-9072500D02*
G75*
G03*
X25839500Y-9072500I-85000J0D01*
G01*
X25900500Y-7162500D02*
G75*
G03*
X25900500Y-7162500I-85000J0D01*
G01*
X26139250Y-14802500D02*
G75*
G03*
X26139250Y-14802500I-85000J0D01*
G01*
X26317000Y-10982500D02*
G75*
G03*
X26317000Y-10982500I-85000J0D01*
G01*
X26378000Y-12892500D02*
G75*
G03*
X26378000Y-12892500I-85000J0D01*
G01*
X26794500Y-7162500D02*
G75*
G03*
X26794500Y-7162500I-85000J0D01*
G01*
X26855500Y-9072500D02*
G75*
G03*
X26855500Y-9072500I-85000J0D01*
G01*
X27272000Y-12892500D02*
G75*
G03*
X27272000Y-12892500I-85000J0D01*
G01*
X27272000Y-14802500D02*
G75*
G03*
X27272000Y-14802500I-85000J0D01*
G01*
X27333000Y-10982500D02*
G75*
G03*
X27333000Y-10982500I-85000J0D01*
G01*
X27510750Y-14802500D02*
G75*
G03*
X27510750Y-14802500I-85000J0D01*
G01*
X27749500Y-9072500D02*
G75*
G03*
X27749500Y-9072500I-85000J0D01*
G01*
X27810500Y-7162500D02*
G75*
G03*
X27810500Y-7162500I-85000J0D01*
G01*
X28227000Y-10982500D02*
G75*
G03*
X28227000Y-10982500I-85000J0D01*
G01*
X28288000Y-12892500D02*
G75*
G03*
X28288000Y-12892500I-85000J0D01*
G01*
X28288000Y-14802500D02*
G75*
G03*
X28288000Y-14802500I-85000J0D01*
G01*
X28526750Y-14802500D02*
G75*
G03*
X28526750Y-14802500I-85000J0D01*
G01*
X28704500Y-7162500D02*
G75*
G03*
X28704500Y-7162500I-85000J0D01*
G01*
X28765500Y-9072500D02*
G75*
G03*
X28765500Y-9072500I-85000J0D01*
G01*
X29243000Y-10982500D02*
G75*
G03*
X29243000Y-10982500I-85000J0D01*
G01*
X29659500Y-9072500D02*
G75*
G03*
X29659500Y-9072500I-85000J0D01*
G01*
X29720500Y-7162500D02*
G75*
G03*
X29720500Y-7162500I-85000J0D01*
G01*
X29898250Y-12892500D02*
G75*
G03*
X29898250Y-12892500I-85000J0D01*
G01*
X30137000Y-10982500D02*
G75*
G03*
X30137000Y-10982500I-85000J0D01*
G01*
X30614500Y-7162500D02*
G75*
G03*
X30614500Y-7162500I-85000J0D01*
G01*
X30614500Y-14802500D02*
G75*
G03*
X30614500Y-14802500I-85000J0D01*
G01*
X30675500Y-9072500D02*
G75*
G03*
X30675500Y-9072500I-85000J0D01*
G01*
X30914250Y-12892500D02*
G75*
G03*
X30914250Y-12892500I-85000J0D01*
G01*
X31153000Y-10982500D02*
G75*
G03*
X31153000Y-10982500I-85000J0D01*
G01*
X31330750Y-10982500D02*
G75*
G03*
X31330750Y-10982500I-85000J0D01*
G01*
X31569500Y-7162500D02*
G75*
G03*
X31569500Y-7162500I-85000J0D01*
G01*
X31630500Y-7162500D02*
G75*
G03*
X31630500Y-7162500I-85000J0D01*
G01*
X31630500Y-14802500D02*
G75*
G03*
X31630500Y-14802500I-85000J0D01*
G01*
X32047000Y-9072500D02*
G75*
G03*
X32047000Y-9072500I-85000J0D01*
G01*
X32346750Y-10982500D02*
G75*
G03*
X32346750Y-10982500I-85000J0D01*
G01*
X32524500Y-5013750D02*
G75*
G03*
X32524500Y-5013750I-85000J0D01*
G01*
X32524500Y-7162500D02*
G75*
G03*
X32524500Y-7162500I-85000J0D01*
G01*
X32524500Y-12892500D02*
G75*
G03*
X32524500Y-12892500I-85000J0D01*
G01*
X32524500Y-14802500D02*
G75*
G03*
X32524500Y-14802500I-85000J0D01*
G01*
X32585500Y-7162500D02*
G75*
G03*
X32585500Y-7162500I-85000J0D01*
G01*
X32793750Y-9519500D02*
G75*
G03*
X32793750Y-9519500I-85000J0D01*
G01*
X32793750Y-10535500D02*
G75*
G03*
X32793750Y-10535500I-85000J0D01*
G01*
X33063000Y-9072500D02*
G75*
G03*
X33063000Y-9072500I-85000J0D01*
G01*
X33540500Y-5013750D02*
G75*
G03*
X33540500Y-5013750I-85000J0D01*
G01*
X33540500Y-7162500D02*
G75*
G03*
X33540500Y-7162500I-85000J0D01*
G01*
X33540500Y-12892500D02*
G75*
G03*
X33540500Y-12892500I-85000J0D01*
G01*
X33540500Y-14802500D02*
G75*
G03*
X33540500Y-14802500I-85000J0D01*
G01*
X34434500Y-5013750D02*
G75*
G03*
X34434500Y-5013750I-85000J0D01*
G01*
X34434500Y-7162500D02*
G75*
G03*
X34434500Y-7162500I-85000J0D01*
G01*
X34434500Y-9072500D02*
G75*
G03*
X34434500Y-9072500I-85000J0D01*
G01*
X34434500Y-10982500D02*
G75*
G03*
X34434500Y-10982500I-85000J0D01*
G01*
X34434500Y-12892500D02*
G75*
G03*
X34434500Y-12892500I-85000J0D01*
G01*
X34434500Y-14802500D02*
G75*
G03*
X34434500Y-14802500I-85000J0D01*
G01*
X35450500Y-5013750D02*
G75*
G03*
X35450500Y-5013750I-85000J0D01*
G01*
X35450500Y-7162500D02*
G75*
G03*
X35450500Y-7162500I-85000J0D01*
G01*
X35450500Y-9072500D02*
G75*
G03*
X35450500Y-9072500I-85000J0D01*
G01*
X35450500Y-10982500D02*
G75*
G03*
X35450500Y-10982500I-85000J0D01*
G01*
X35450500Y-12892500D02*
G75*
G03*
X35450500Y-12892500I-85000J0D01*
G01*
X35450500Y-14802500D02*
G75*
G03*
X35450500Y-14802500I-85000J0D01*
G01*
D14*
X9550000Y-13738000D02*
X9550000Y-13958000D01*
X9440000Y-13848000D02*
X9660000Y-13848000D01*
X11221250Y-8007500D02*
X11221250Y-8227500D01*
X11111250Y-8117500D02*
X11331250Y-8117500D01*
X12775000Y-4092000D02*
X12775000Y-4312000D01*
X12665000Y-4202000D02*
X12885000Y-4202000D01*
X13968000Y-5386000D02*
X13968000Y-5606000D01*
X13858000Y-5496000D02*
X14078000Y-5496000D01*
X16712500Y-14692500D02*
X16712500Y-14912500D01*
X16602500Y-14802500D02*
X16822500Y-14802500D01*
X20532500Y-8007500D02*
X20532500Y-8227500D01*
X20422500Y-8117500D02*
X20642500Y-8117500D01*
X24352500Y-14636200D02*
X24352500Y-14856200D01*
X24242500Y-14746200D02*
X24462500Y-14746200D01*
X24830000Y-5381250D02*
X24830000Y-5601250D01*
X24720000Y-5491250D02*
X24940000Y-5491250D01*
X26146000Y-4092000D02*
X26146000Y-4312000D01*
X26036000Y-4202000D02*
X26256000Y-4202000D01*
X29843750Y-8007500D02*
X29843750Y-8227500D01*
X29733750Y-8117500D02*
X29953750Y-8117500D01*
X31992500Y-13737500D02*
X31992500Y-13957500D01*
X31882500Y-13847500D02*
X32102500Y-13847500D01*
D15*
X6319085Y-12300335D02*
X6319085Y-12084665D01*
X6103415Y-12084665D01*
X6103415Y-12300335D01*
X6319085Y-12300335D01*
X8699085Y-12300335D02*
X8699085Y-12084665D01*
X8483415Y-12084665D01*
X8483415Y-12300335D01*
X8699085Y-12300335D01*
X13481585Y-15607835D02*
X13481585Y-15392165D01*
X13265915Y-15392165D01*
X13265915Y-15607835D01*
X13481585Y-15607835D01*
X13491585Y-15607835D02*
X13491585Y-15392165D01*
X13275915Y-15392165D01*
X13275915Y-15607835D01*
X13491585Y-15607835D01*
X13985335Y-15607835D02*
X13985335Y-15392165D01*
X13769665Y-15392165D01*
X13769665Y-15607835D01*
X13985335Y-15607835D01*
X15861585Y-15607835D02*
X15861585Y-15392165D01*
X15645915Y-15392165D01*
X15645915Y-15607835D01*
X15861585Y-15607835D01*
X20644085Y-15604835D02*
X20644085Y-15389165D01*
X20428415Y-15389165D01*
X20428415Y-15604835D01*
X20644085Y-15604835D01*
X23024085Y-15604835D02*
X23024085Y-15389165D01*
X22808415Y-15389165D01*
X22808415Y-15604835D01*
X23024085Y-15604835D01*
X23491585Y-15607835D02*
X23491585Y-15392165D01*
X23275915Y-15392165D01*
X23275915Y-15607835D01*
X23491585Y-15607835D01*
X25385335Y-15607835D02*
X25385335Y-15392165D01*
X25169665Y-15392165D01*
X25169665Y-15607835D01*
X25385335Y-15607835D01*
X30671585Y-10390335D02*
X30671585Y-10174665D01*
X30455915Y-10174665D01*
X30455915Y-10390335D01*
X30671585Y-10390335D01*
X30910335Y-6570335D02*
X30910335Y-6354665D01*
X30694665Y-6354665D01*
X30694665Y-6570335D01*
X30910335Y-6570335D01*
X33051585Y-10390335D02*
X33051585Y-10174665D01*
X32835915Y-10174665D01*
X32835915Y-10390335D01*
X33051585Y-10390335D01*
X33290335Y-6570335D02*
X33290335Y-6354665D01*
X33074665Y-6354665D01*
X33074665Y-6570335D01*
X33290335Y-6570335D01*
X33516585Y-8945335D02*
X33516585Y-8729665D01*
X33300915Y-8729665D01*
X33300915Y-8945335D01*
X33516585Y-8945335D01*
X33516585Y-11325335D02*
X33516585Y-11109665D01*
X33300915Y-11109665D01*
X33300915Y-11325335D01*
X33516585Y-11325335D01*
D16*
X6207500Y-7362500D02*
X6407500Y-7162500D01*
X6207500Y-6962500D01*
X6007500Y-7162500D01*
X6207500Y-7362500D01*
X6211250Y-13916500D02*
X6411250Y-13716500D01*
X6211250Y-13516500D01*
X6011250Y-13716500D01*
X6211250Y-13916500D01*
X6446250Y-11182500D02*
X6646250Y-10982500D01*
X6446250Y-10782500D01*
X6246250Y-10982500D01*
X6446250Y-11182500D01*
X6446250Y-13092500D02*
X6646250Y-12892500D01*
X6446250Y-12692500D01*
X6246250Y-12892500D01*
X6446250Y-13092500D01*
X6446250Y-15002500D02*
X6646250Y-14802500D01*
X6446250Y-14602500D01*
X6246250Y-14802500D01*
X6446250Y-15002500D01*
X6685000Y-9272500D02*
X6885000Y-9072500D01*
X6685000Y-8872500D01*
X6485000Y-9072500D01*
X6685000Y-9272500D01*
X6685000Y-15002500D02*
X6885000Y-14802500D01*
X6685000Y-14602500D01*
X6485000Y-14802500D01*
X6685000Y-15002500D01*
X6923750Y-11182500D02*
X7123750Y-10982500D01*
X6923750Y-10782500D01*
X6723750Y-10982500D01*
X6923750Y-11182500D01*
X7401250Y-13092500D02*
X7601250Y-12892500D01*
X7401250Y-12692500D01*
X7201250Y-12892500D01*
X7401250Y-13092500D01*
X8117500Y-7362500D02*
X8317500Y-7162500D01*
X8117500Y-6962500D01*
X7917500Y-7162500D01*
X8117500Y-7362500D01*
X8591250Y-13916500D02*
X8791250Y-13716500D01*
X8591250Y-13516500D01*
X8391250Y-13716500D01*
X8591250Y-13916500D01*
X8595000Y-13092500D02*
X8795000Y-12892500D01*
X8595000Y-12692500D01*
X8395000Y-12892500D01*
X8595000Y-13092500D01*
X8833750Y-15002500D02*
X9033750Y-14802500D01*
X8833750Y-14602500D01*
X8633750Y-14802500D01*
X8833750Y-15002500D01*
X9072500Y-9272500D02*
X9272500Y-9072500D01*
X9072500Y-8872500D01*
X8872500Y-9072500D01*
X9072500Y-9272500D01*
X9072500Y-15002500D02*
X9272500Y-14802500D01*
X9072500Y-14602500D01*
X8872500Y-14802500D01*
X9072500Y-15002500D01*
X9550000Y-11182500D02*
X9750000Y-10982500D01*
X9550000Y-10782500D01*
X9350000Y-10982500D01*
X9550000Y-11182500D01*
X10027500Y-7362500D02*
X10227500Y-7162500D01*
X10027500Y-6962500D01*
X9827500Y-7162500D01*
X10027500Y-7362500D01*
X10505000Y-13092500D02*
X10705000Y-12892500D01*
X10505000Y-12692500D01*
X10305000Y-12892500D01*
X10505000Y-13092500D01*
X10982500Y-9272500D02*
X11182500Y-9072500D01*
X10982500Y-8872500D01*
X10782500Y-9072500D01*
X10982500Y-9272500D01*
X11221875Y-15002500D02*
X11421875Y-14802500D01*
X11221875Y-14602500D01*
X11021875Y-14802500D01*
X11221875Y-15002500D01*
X11460000Y-11182500D02*
X11660000Y-10982500D01*
X11460000Y-10782500D01*
X11260000Y-10982500D01*
X11460000Y-11182500D01*
X11460000Y-15002500D02*
X11660000Y-14802500D01*
X11460000Y-14602500D01*
X11260000Y-14802500D01*
X11460000Y-15002500D01*
X11937500Y-7362500D02*
X12137500Y-7162500D01*
X11937500Y-6962500D01*
X11737500Y-7162500D01*
X11937500Y-7362500D01*
X12415000Y-13092500D02*
X12615000Y-12892500D01*
X12415000Y-12692500D01*
X12215000Y-12892500D01*
X12415000Y-13092500D01*
X12892500Y-9272500D02*
X13092500Y-9072500D01*
X12892500Y-8872500D01*
X12692500Y-9072500D01*
X12892500Y-9272500D01*
X13370000Y-11182500D02*
X13570000Y-10982500D01*
X13370000Y-10782500D01*
X13170000Y-10982500D01*
X13370000Y-11182500D01*
X13373750Y-14176000D02*
X13573750Y-13976000D01*
X13373750Y-13776000D01*
X13173750Y-13976000D01*
X13373750Y-14176000D01*
X13383750Y-14176000D02*
X13583750Y-13976000D01*
X13383750Y-13776000D01*
X13183750Y-13976000D01*
X13383750Y-14176000D01*
X13847500Y-7362500D02*
X14047500Y-7162500D01*
X13847500Y-6962500D01*
X13647500Y-7162500D01*
X13847500Y-7362500D01*
X13877500Y-14176000D02*
X14077500Y-13976000D01*
X13877500Y-13776000D01*
X13677500Y-13976000D01*
X13877500Y-14176000D01*
X14325000Y-13092500D02*
X14525000Y-12892500D01*
X14325000Y-12692500D01*
X14125000Y-12892500D01*
X14325000Y-13092500D01*
X14563750Y-15000000D02*
X14763750Y-14800000D01*
X14563750Y-14600000D01*
X14363750Y-14800000D01*
X14563750Y-15000000D01*
X14787250Y-9272500D02*
X14987250Y-9072500D01*
X14787250Y-8872500D01*
X14587250Y-9072500D01*
X14787250Y-9272500D01*
X15280000Y-11182500D02*
X15480000Y-10982500D01*
X15280000Y-10782500D01*
X15080000Y-10982500D01*
X15280000Y-11182500D01*
X15753750Y-14176000D02*
X15953750Y-13976000D01*
X15753750Y-13776000D01*
X15553750Y-13976000D01*
X15753750Y-14176000D01*
X15757500Y-7362500D02*
X15957500Y-7162500D01*
X15757500Y-6962500D01*
X15557500Y-7162500D01*
X15757500Y-7362500D01*
X16235000Y-13092500D02*
X16435000Y-12892500D01*
X16235000Y-12692500D01*
X16035000Y-12892500D01*
X16235000Y-13092500D01*
X16712500Y-9272500D02*
X16912500Y-9072500D01*
X16712500Y-8872500D01*
X16512500Y-9072500D01*
X16712500Y-9272500D01*
X17190000Y-11182500D02*
X17390000Y-10982500D01*
X17190000Y-10782500D01*
X16990000Y-10982500D01*
X17190000Y-11182500D01*
X17667500Y-7362500D02*
X17867500Y-7162500D01*
X17667500Y-6962500D01*
X17467500Y-7162500D01*
X17667500Y-7362500D01*
X17906250Y-15002500D02*
X18106250Y-14802500D01*
X17906250Y-14602500D01*
X17706250Y-14802500D01*
X17906250Y-15002500D01*
X18145000Y-13092500D02*
X18345000Y-12892500D01*
X18145000Y-12692500D01*
X17945000Y-12892500D01*
X18145000Y-13092500D01*
X18383750Y-15000000D02*
X18583750Y-14800000D01*
X18383750Y-14600000D01*
X18183750Y-14800000D01*
X18383750Y-15000000D01*
X18622500Y-9272500D02*
X18822500Y-9072500D01*
X18622500Y-8872500D01*
X18422500Y-9072500D01*
X18622500Y-9272500D01*
X19100000Y-11182500D02*
X19300000Y-10982500D01*
X19100000Y-10782500D01*
X18900000Y-10982500D01*
X19100000Y-11182500D01*
X19577500Y-7362500D02*
X19777500Y-7162500D01*
X19577500Y-6962500D01*
X19377500Y-7162500D01*
X19577500Y-7362500D01*
X19577500Y-15000000D02*
X19777500Y-14800000D01*
X19577500Y-14600000D01*
X19377500Y-14800000D01*
X19577500Y-15000000D01*
X20055000Y-13092500D02*
X20255000Y-12892500D01*
X20055000Y-12692500D01*
X19855000Y-12892500D01*
X20055000Y-13092500D01*
X20532500Y-9272500D02*
X20732500Y-9072500D01*
X20532500Y-8872500D01*
X20332500Y-9072500D01*
X20532500Y-9272500D01*
X20536250Y-14173000D02*
X20736250Y-13973000D01*
X20536250Y-13773000D01*
X20336250Y-13973000D01*
X20536250Y-14173000D01*
X21010000Y-11182500D02*
X21210000Y-10982500D01*
X21010000Y-10782500D01*
X20810000Y-10982500D01*
X21010000Y-11182500D01*
X21487500Y-7362500D02*
X21687500Y-7162500D01*
X21487500Y-6962500D01*
X21287500Y-7162500D01*
X21487500Y-7362500D01*
X21726250Y-14997000D02*
X21926250Y-14797000D01*
X21726250Y-14597000D01*
X21526250Y-14797000D01*
X21726250Y-14997000D01*
X21965000Y-13092500D02*
X22165000Y-12892500D01*
X21965000Y-12692500D01*
X21765000Y-12892500D01*
X21965000Y-13092500D01*
X22442500Y-9272500D02*
X22642500Y-9072500D01*
X22442500Y-8872500D01*
X22242500Y-9072500D01*
X22442500Y-9272500D01*
X22916250Y-14173000D02*
X23116250Y-13973000D01*
X22916250Y-13773000D01*
X22716250Y-13973000D01*
X22916250Y-14173000D01*
X22920000Y-11182500D02*
X23120000Y-10982500D01*
X22920000Y-10782500D01*
X22720000Y-10982500D01*
X22920000Y-11182500D01*
X23383750Y-14176000D02*
X23583750Y-13976000D01*
X23383750Y-13776000D01*
X23183750Y-13976000D01*
X23383750Y-14176000D01*
X23397500Y-7362500D02*
X23597500Y-7162500D01*
X23397500Y-6962500D01*
X23197500Y-7162500D01*
X23397500Y-7362500D01*
X23875000Y-13092500D02*
X24075000Y-12892500D01*
X23875000Y-12692500D01*
X23675000Y-12892500D01*
X23875000Y-13092500D01*
X24352500Y-9272500D02*
X24552500Y-9072500D01*
X24352500Y-8872500D01*
X24152500Y-9072500D01*
X24352500Y-9272500D01*
X24830000Y-11182500D02*
X25030000Y-10982500D01*
X24830000Y-10782500D01*
X24630000Y-10982500D01*
X24830000Y-11182500D01*
X25277500Y-14176000D02*
X25477500Y-13976000D01*
X25277500Y-13776000D01*
X25077500Y-13976000D01*
X25277500Y-14176000D01*
X25307500Y-7362500D02*
X25507500Y-7162500D01*
X25307500Y-6962500D01*
X25107500Y-7162500D01*
X25307500Y-7362500D01*
X25546250Y-15002500D02*
X25746250Y-14802500D01*
X25546250Y-14602500D01*
X25346250Y-14802500D01*
X25546250Y-15002500D01*
X25785000Y-13092500D02*
X25985000Y-12892500D01*
X25785000Y-12692500D01*
X25585000Y-12892500D01*
X25785000Y-13092500D01*
X26262500Y-9272500D02*
X26462500Y-9072500D01*
X26262500Y-8872500D01*
X26062500Y-9072500D01*
X26262500Y-9272500D01*
X26740000Y-11182500D02*
X26940000Y-10982500D01*
X26740000Y-10782500D01*
X26540000Y-10982500D01*
X26740000Y-11182500D01*
X27217500Y-7362500D02*
X27417500Y-7162500D01*
X27217500Y-6962500D01*
X27017500Y-7162500D01*
X27217500Y-7362500D01*
X27695000Y-13092500D02*
X27895000Y-12892500D01*
X27695000Y-12692500D01*
X27495000Y-12892500D01*
X27695000Y-13092500D01*
X27695000Y-15002500D02*
X27895000Y-14802500D01*
X27695000Y-14602500D01*
X27495000Y-14802500D01*
X27695000Y-15002500D01*
X27933750Y-15002500D02*
X28133750Y-14802500D01*
X27933750Y-14602500D01*
X27733750Y-14802500D01*
X27933750Y-15002500D01*
X28172500Y-9272500D02*
X28372500Y-9072500D01*
X28172500Y-8872500D01*
X27972500Y-9072500D01*
X28172500Y-9272500D01*
X28650000Y-11182500D02*
X28850000Y-10982500D01*
X28650000Y-10782500D01*
X28450000Y-10982500D01*
X28650000Y-11182500D01*
X29127500Y-7362500D02*
X29327500Y-7162500D01*
X29127500Y-6962500D01*
X28927500Y-7162500D01*
X29127500Y-7362500D01*
X30082500Y-9272500D02*
X30282500Y-9072500D01*
X30082500Y-8872500D01*
X29882500Y-9072500D01*
X30082500Y-9272500D01*
X30321250Y-13092500D02*
X30521250Y-12892500D01*
X30321250Y-12692500D01*
X30121250Y-12892500D01*
X30321250Y-13092500D01*
X30560000Y-11182500D02*
X30760000Y-10982500D01*
X30560000Y-10782500D01*
X30360000Y-10982500D01*
X30560000Y-11182500D01*
X30563750Y-12006500D02*
X30763750Y-11806500D01*
X30563750Y-11606500D01*
X30363750Y-11806500D01*
X30563750Y-12006500D01*
X30802500Y-8186500D02*
X31002500Y-7986500D01*
X30802500Y-7786500D01*
X30602500Y-7986500D01*
X30802500Y-8186500D01*
X31037500Y-7362500D02*
X31237500Y-7162500D01*
X31037500Y-6962500D01*
X30837500Y-7162500D01*
X31037500Y-7362500D01*
X31037500Y-15002500D02*
X31237500Y-14802500D01*
X31037500Y-14602500D01*
X30837500Y-14802500D01*
X31037500Y-15002500D01*
X31753750Y-11182500D02*
X31953750Y-10982500D01*
X31753750Y-10782500D01*
X31553750Y-10982500D01*
X31753750Y-11182500D01*
X31884750Y-9037500D02*
X32084750Y-8837500D01*
X31884750Y-8637500D01*
X31684750Y-8837500D01*
X31884750Y-9037500D01*
X31884750Y-11417500D02*
X32084750Y-11217500D01*
X31884750Y-11017500D01*
X31684750Y-11217500D01*
X31884750Y-11417500D01*
X31992500Y-7362500D02*
X32192500Y-7162500D01*
X31992500Y-6962500D01*
X31792500Y-7162500D01*
X31992500Y-7362500D01*
X32470000Y-9272500D02*
X32670000Y-9072500D01*
X32470000Y-8872500D01*
X32270000Y-9072500D01*
X32470000Y-9272500D01*
X32708750Y-10227500D02*
X32908750Y-10027500D01*
X32708750Y-9827500D01*
X32508750Y-10027500D01*
X32708750Y-10227500D01*
X32943750Y-12006500D02*
X33143750Y-11806500D01*
X32943750Y-11606500D01*
X32743750Y-11806500D01*
X32943750Y-12006500D01*
X32947500Y-5213750D02*
X33147500Y-5013750D01*
X32947500Y-4813750D01*
X32747500Y-5013750D01*
X32947500Y-5213750D01*
X32947500Y-7362500D02*
X33147500Y-7162500D01*
X32947500Y-6962500D01*
X32747500Y-7162500D01*
X32947500Y-7362500D01*
X32947500Y-13092500D02*
X33147500Y-12892500D01*
X32947500Y-12692500D01*
X32747500Y-12892500D01*
X32947500Y-13092500D01*
X32947500Y-15002500D02*
X33147500Y-14802500D01*
X32947500Y-14602500D01*
X32747500Y-14802500D01*
X32947500Y-15002500D01*
X33182500Y-8186500D02*
X33382500Y-7986500D01*
X33182500Y-7786500D01*
X32982500Y-7986500D01*
X33182500Y-8186500D01*
X34857500Y-5213750D02*
X35057500Y-5013750D01*
X34857500Y-4813750D01*
X34657500Y-5013750D01*
X34857500Y-5213750D01*
X34857500Y-7362500D02*
X35057500Y-7162500D01*
X34857500Y-6962500D01*
X34657500Y-7162500D01*
X34857500Y-7362500D01*
X34857500Y-9272500D02*
X35057500Y-9072500D01*
X34857500Y-8872500D01*
X34657500Y-9072500D01*
X34857500Y-9272500D01*
X34857500Y-11182500D02*
X35057500Y-10982500D01*
X34857500Y-10782500D01*
X34657500Y-10982500D01*
X34857500Y-11182500D01*
X34857500Y-13092500D02*
X35057500Y-12892500D01*
X34857500Y-12692500D01*
X34657500Y-12892500D01*
X34857500Y-13092500D01*
X34857500Y-15002500D02*
X35057500Y-14802500D01*
X34857500Y-14602500D01*
X34657500Y-14802500D01*
X34857500Y-15002500D01*
D11*
X5505119Y-16072976D02*
X5505119Y-15872976D01*
X5552738Y-15872976D01*
X5581310Y-15882500D01*
X5600357Y-15901548D01*
X5609881Y-15920595D01*
X5619405Y-15958690D01*
X5619405Y-15987262D01*
X5609881Y-16025357D01*
X5600357Y-16044405D01*
X5581310Y-16063452D01*
X5552738Y-16072976D01*
X5505119Y-16072976D01*
X5705119Y-16072976D02*
X5705119Y-15939643D01*
X5705119Y-15977738D02*
X5714643Y-15958690D01*
X5724167Y-15949167D01*
X5743214Y-15939643D01*
X5762262Y-15939643D01*
X5828928Y-16072976D02*
X5828928Y-15939643D01*
X5828928Y-15872976D02*
X5819405Y-15882500D01*
X5828928Y-15892024D01*
X5838452Y-15882500D01*
X5828928Y-15872976D01*
X5828928Y-15892024D01*
X5952738Y-16072976D02*
X5933690Y-16063452D01*
X5924167Y-16044405D01*
X5924167Y-15872976D01*
X6057500Y-16072976D02*
X6038452Y-16063452D01*
X6028928Y-16044405D01*
X6028928Y-15872976D01*
X6286071Y-16072976D02*
X6286071Y-15872976D01*
X6352738Y-16015833D01*
X6419405Y-15872976D01*
X6419405Y-16072976D01*
X6600357Y-16072976D02*
X6600357Y-15968214D01*
X6590833Y-15949167D01*
X6571786Y-15939643D01*
X6533690Y-15939643D01*
X6514643Y-15949167D01*
X6600357Y-16063452D02*
X6581309Y-16072976D01*
X6533690Y-16072976D01*
X6514643Y-16063452D01*
X6505119Y-16044405D01*
X6505119Y-16025357D01*
X6514643Y-16006309D01*
X6533690Y-15996786D01*
X6581309Y-15996786D01*
X6600357Y-15987262D01*
X6695595Y-15939643D02*
X6695595Y-16139643D01*
X6695595Y-15949167D02*
X6714643Y-15939643D01*
X6752738Y-15939643D01*
X6771786Y-15949167D01*
X6781309Y-15958690D01*
X6790833Y-15977738D01*
X6790833Y-16034881D01*
X6781309Y-16053928D01*
X6771786Y-16063452D01*
X6752738Y-16072976D01*
X6714643Y-16072976D01*
X6695595Y-16063452D01*
X6876548Y-16053928D02*
X6886071Y-16063452D01*
X6876548Y-16072976D01*
X6867024Y-16063452D01*
X6876548Y-16053928D01*
X6876548Y-16072976D01*
X6876548Y-15949167D02*
X6886071Y-15958690D01*
X6876548Y-15968214D01*
X6867024Y-15958690D01*
X6876548Y-15949167D01*
X6876548Y-15968214D01*
D12*
X5097500Y-16327500D02*
X5247500Y-16477500D01*
X5247500Y-16327500D02*
X5097500Y-16477500D01*
D11*
X5609881Y-16492976D02*
X5495595Y-16492976D01*
X5552738Y-16492976D02*
X5552738Y-16292976D01*
X5533690Y-16321548D01*
X5514643Y-16340595D01*
X5495595Y-16350119D01*
X5695595Y-16473928D02*
X5705119Y-16483452D01*
X5695595Y-16492976D01*
X5686071Y-16483452D01*
X5695595Y-16473928D01*
X5695595Y-16492976D01*
X5886071Y-16292976D02*
X5790833Y-16292976D01*
X5781309Y-16388214D01*
X5790833Y-16378690D01*
X5809881Y-16369167D01*
X5857500Y-16369167D01*
X5876548Y-16378690D01*
X5886071Y-16388214D01*
X5895595Y-16407262D01*
X5895595Y-16454881D01*
X5886071Y-16473928D01*
X5876548Y-16483452D01*
X5857500Y-16492976D01*
X5809881Y-16492976D01*
X5790833Y-16483452D01*
X5781309Y-16473928D01*
X6019405Y-16292976D02*
X6038452Y-16292976D01*
X6057500Y-16302500D01*
X6067024Y-16312024D01*
X6076548Y-16331071D01*
X6086071Y-16369167D01*
X6086071Y-16416786D01*
X6076548Y-16454881D01*
X6067024Y-16473928D01*
X6057500Y-16483452D01*
X6038452Y-16492976D01*
X6019405Y-16492976D01*
X6000357Y-16483452D01*
X5990833Y-16473928D01*
X5981309Y-16454881D01*
X5971786Y-16416786D01*
X5971786Y-16369167D01*
X5981309Y-16331071D01*
X5990833Y-16312024D01*
X6000357Y-16302500D01*
X6019405Y-16292976D01*
X6209881Y-16292976D02*
X6228928Y-16292976D01*
X6247976Y-16302500D01*
X6257500Y-16312024D01*
X6267024Y-16331071D01*
X6276548Y-16369167D01*
X6276548Y-16416786D01*
X6267024Y-16454881D01*
X6257500Y-16473928D01*
X6247976Y-16483452D01*
X6228928Y-16492976D01*
X6209881Y-16492976D01*
X6190833Y-16483452D01*
X6181309Y-16473928D01*
X6171786Y-16454881D01*
X6162262Y-16416786D01*
X6162262Y-16369167D01*
X6171786Y-16331071D01*
X6181309Y-16312024D01*
X6190833Y-16302500D01*
X6209881Y-16292976D01*
X6362262Y-16492976D02*
X6362262Y-16359643D01*
X6362262Y-16378690D02*
X6371786Y-16369167D01*
X6390833Y-16359643D01*
X6419405Y-16359643D01*
X6438452Y-16369167D01*
X6447976Y-16388214D01*
X6447976Y-16492976D01*
X6447976Y-16388214D02*
X6457500Y-16369167D01*
X6476548Y-16359643D01*
X6505119Y-16359643D01*
X6524167Y-16369167D01*
X6533690Y-16388214D01*
X6533690Y-16492976D01*
X6628928Y-16492976D02*
X6628928Y-16359643D01*
X6628928Y-16378690D02*
X6638452Y-16369167D01*
X6657500Y-16359643D01*
X6686071Y-16359643D01*
X6705119Y-16369167D01*
X6714643Y-16388214D01*
X6714643Y-16492976D01*
X6714643Y-16388214D02*
X6724167Y-16369167D01*
X6743214Y-16359643D01*
X6771786Y-16359643D01*
X6790833Y-16369167D01*
X6800357Y-16388214D01*
X6800357Y-16492976D01*
X7190833Y-16283452D02*
X7019405Y-16540595D01*
X7447976Y-16292976D02*
X7467024Y-16292976D01*
X7486071Y-16302500D01*
X7495595Y-16312024D01*
X7505119Y-16331071D01*
X7514643Y-16369167D01*
X7514643Y-16416786D01*
X7505119Y-16454881D01*
X7495595Y-16473928D01*
X7486071Y-16483452D01*
X7467024Y-16492976D01*
X7447976Y-16492976D01*
X7428928Y-16483452D01*
X7419405Y-16473928D01*
X7409881Y-16454881D01*
X7400357Y-16416786D01*
X7400357Y-16369167D01*
X7409881Y-16331071D01*
X7419405Y-16312024D01*
X7428928Y-16302500D01*
X7447976Y-16292976D01*
X7600357Y-16473928D02*
X7609881Y-16483452D01*
X7600357Y-16492976D01*
X7590833Y-16483452D01*
X7600357Y-16473928D01*
X7600357Y-16492976D01*
X7733690Y-16292976D02*
X7752738Y-16292976D01*
X7771786Y-16302500D01*
X7781309Y-16312024D01*
X7790833Y-16331071D01*
X7800357Y-16369167D01*
X7800357Y-16416786D01*
X7790833Y-16454881D01*
X7781309Y-16473928D01*
X7771786Y-16483452D01*
X7752738Y-16492976D01*
X7733690Y-16492976D01*
X7714643Y-16483452D01*
X7705119Y-16473928D01*
X7695595Y-16454881D01*
X7686071Y-16416786D01*
X7686071Y-16369167D01*
X7695595Y-16331071D01*
X7705119Y-16312024D01*
X7714643Y-16302500D01*
X7733690Y-16292976D01*
X7981309Y-16292976D02*
X7886071Y-16292976D01*
X7876548Y-16388214D01*
X7886071Y-16378690D01*
X7905119Y-16369167D01*
X7952738Y-16369167D01*
X7971786Y-16378690D01*
X7981309Y-16388214D01*
X7990833Y-16407262D01*
X7990833Y-16454881D01*
X7981309Y-16473928D01*
X7971786Y-16483452D01*
X7952738Y-16492976D01*
X7905119Y-16492976D01*
X7886071Y-16483452D01*
X7876548Y-16473928D01*
X8086071Y-16492976D02*
X8124167Y-16492976D01*
X8143214Y-16483452D01*
X8152738Y-16473928D01*
X8171786Y-16445357D01*
X8181309Y-16407262D01*
X8181309Y-16331071D01*
X8171786Y-16312024D01*
X8162262Y-16302500D01*
X8143214Y-16292976D01*
X8105119Y-16292976D01*
X8086071Y-16302500D01*
X8076548Y-16312024D01*
X8067024Y-16331071D01*
X8067024Y-16378690D01*
X8076548Y-16397738D01*
X8086071Y-16407262D01*
X8105119Y-16416786D01*
X8143214Y-16416786D01*
X8162262Y-16407262D01*
X8171786Y-16397738D01*
X8181309Y-16378690D01*
X8371786Y-16492976D02*
X8257500Y-16492976D01*
X8314643Y-16492976D02*
X8314643Y-16292976D01*
X8295595Y-16321548D01*
X8276548Y-16340595D01*
X8257500Y-16350119D01*
X8447976Y-16292976D02*
X8447976Y-16331071D01*
X8524167Y-16292976D02*
X8524167Y-16331071D01*
X8819405Y-16569167D02*
X8809881Y-16559643D01*
X8790833Y-16531071D01*
X8781310Y-16512024D01*
X8771786Y-16483452D01*
X8762262Y-16435833D01*
X8762262Y-16397738D01*
X8771786Y-16350119D01*
X8781310Y-16321548D01*
X8790833Y-16302500D01*
X8809881Y-16273928D01*
X8819405Y-16264405D01*
X8933690Y-16292976D02*
X8952738Y-16292976D01*
X8971786Y-16302500D01*
X8981310Y-16312024D01*
X8990833Y-16331071D01*
X9000357Y-16369167D01*
X9000357Y-16416786D01*
X8990833Y-16454881D01*
X8981310Y-16473928D01*
X8971786Y-16483452D01*
X8952738Y-16492976D01*
X8933690Y-16492976D01*
X8914643Y-16483452D01*
X8905119Y-16473928D01*
X8895595Y-16454881D01*
X8886071Y-16416786D01*
X8886071Y-16369167D01*
X8895595Y-16331071D01*
X8905119Y-16312024D01*
X8914643Y-16302500D01*
X8933690Y-16292976D01*
X9238452Y-16492976D02*
X9238452Y-16292976D01*
X9324167Y-16492976D02*
X9324167Y-16388214D01*
X9314643Y-16369167D01*
X9295595Y-16359643D01*
X9267024Y-16359643D01*
X9247976Y-16369167D01*
X9238452Y-16378690D01*
X9447976Y-16492976D02*
X9428929Y-16483452D01*
X9419405Y-16473928D01*
X9409881Y-16454881D01*
X9409881Y-16397738D01*
X9419405Y-16378690D01*
X9428929Y-16369167D01*
X9447976Y-16359643D01*
X9476548Y-16359643D01*
X9495595Y-16369167D01*
X9505119Y-16378690D01*
X9514643Y-16397738D01*
X9514643Y-16454881D01*
X9505119Y-16473928D01*
X9495595Y-16483452D01*
X9476548Y-16492976D01*
X9447976Y-16492976D01*
X9628929Y-16492976D02*
X9609881Y-16483452D01*
X9600357Y-16464405D01*
X9600357Y-16292976D01*
X9781310Y-16483452D02*
X9762262Y-16492976D01*
X9724167Y-16492976D01*
X9705119Y-16483452D01*
X9695595Y-16464405D01*
X9695595Y-16388214D01*
X9705119Y-16369167D01*
X9724167Y-16359643D01*
X9762262Y-16359643D01*
X9781310Y-16369167D01*
X9790833Y-16388214D01*
X9790833Y-16407262D01*
X9695595Y-16426309D01*
X9867024Y-16483452D02*
X9886071Y-16492976D01*
X9924167Y-16492976D01*
X9943214Y-16483452D01*
X9952738Y-16464405D01*
X9952738Y-16454881D01*
X9943214Y-16435833D01*
X9924167Y-16426309D01*
X9895595Y-16426309D01*
X9876548Y-16416786D01*
X9867024Y-16397738D01*
X9867024Y-16388214D01*
X9876548Y-16369167D01*
X9895595Y-16359643D01*
X9924167Y-16359643D01*
X9943214Y-16369167D01*
X10190833Y-16416786D02*
X10343214Y-16416786D01*
X10267024Y-16492976D02*
X10267024Y-16340595D01*
X10676548Y-16359643D02*
X10676548Y-16492976D01*
X10628929Y-16283452D02*
X10581310Y-16426309D01*
X10705119Y-16426309D01*
X10924167Y-16483452D02*
X10943214Y-16492976D01*
X10981310Y-16492976D01*
X11000357Y-16483452D01*
X11009881Y-16464405D01*
X11009881Y-16454881D01*
X11000357Y-16435833D01*
X10981310Y-16426309D01*
X10952738Y-16426309D01*
X10933690Y-16416786D01*
X10924167Y-16397738D01*
X10924167Y-16388214D01*
X10933690Y-16369167D01*
X10952738Y-16359643D01*
X10981310Y-16359643D01*
X11000357Y-16369167D01*
X11124167Y-16492976D02*
X11105119Y-16483452D01*
X11095595Y-16464405D01*
X11095595Y-16292976D01*
X11228928Y-16492976D02*
X11209881Y-16483452D01*
X11200357Y-16473928D01*
X11190833Y-16454881D01*
X11190833Y-16397738D01*
X11200357Y-16378690D01*
X11209881Y-16369167D01*
X11228928Y-16359643D01*
X11257500Y-16359643D01*
X11276548Y-16369167D01*
X11286071Y-16378690D01*
X11295595Y-16397738D01*
X11295595Y-16454881D01*
X11286071Y-16473928D01*
X11276548Y-16483452D01*
X11257500Y-16492976D01*
X11228928Y-16492976D01*
X11352738Y-16359643D02*
X11428928Y-16359643D01*
X11381309Y-16292976D02*
X11381309Y-16464405D01*
X11390833Y-16483452D01*
X11409881Y-16492976D01*
X11428928Y-16492976D01*
X11486071Y-16483452D02*
X11505119Y-16492976D01*
X11543214Y-16492976D01*
X11562262Y-16483452D01*
X11571786Y-16464405D01*
X11571786Y-16454881D01*
X11562262Y-16435833D01*
X11543214Y-16426309D01*
X11514643Y-16426309D01*
X11495595Y-16416786D01*
X11486071Y-16397738D01*
X11486071Y-16388214D01*
X11495595Y-16369167D01*
X11514643Y-16359643D01*
X11543214Y-16359643D01*
X11562262Y-16369167D01*
X11638452Y-16569167D02*
X11647976Y-16559643D01*
X11667024Y-16531071D01*
X11676548Y-16512024D01*
X11686071Y-16483452D01*
X11695595Y-16435833D01*
X11695595Y-16397738D01*
X11686071Y-16350119D01*
X11676548Y-16321548D01*
X11667024Y-16302500D01*
X11647976Y-16273928D01*
X11638452Y-16264405D01*
X12000357Y-16569167D02*
X11990833Y-16559643D01*
X11971786Y-16531071D01*
X11962262Y-16512024D01*
X11952738Y-16483452D01*
X11943214Y-16435833D01*
X11943214Y-16397738D01*
X11952738Y-16350119D01*
X11962262Y-16321548D01*
X11971786Y-16302500D01*
X11990833Y-16273928D01*
X12000357Y-16264405D01*
X12076548Y-16359643D02*
X12076548Y-16492976D01*
X12076548Y-16378690D02*
X12086071Y-16369167D01*
X12105119Y-16359643D01*
X12133690Y-16359643D01*
X12152738Y-16369167D01*
X12162262Y-16388214D01*
X12162262Y-16492976D01*
X12286071Y-16492976D02*
X12267024Y-16483452D01*
X12257500Y-16473928D01*
X12247976Y-16454881D01*
X12247976Y-16397738D01*
X12257500Y-16378690D01*
X12267024Y-16369167D01*
X12286071Y-16359643D01*
X12314643Y-16359643D01*
X12333690Y-16369167D01*
X12343214Y-16378690D01*
X12352738Y-16397738D01*
X12352738Y-16454881D01*
X12343214Y-16473928D01*
X12333690Y-16483452D01*
X12314643Y-16492976D01*
X12286071Y-16492976D01*
X12409881Y-16359643D02*
X12486071Y-16359643D01*
X12438452Y-16292976D02*
X12438452Y-16464405D01*
X12447976Y-16483452D01*
X12467024Y-16492976D01*
X12486071Y-16492976D01*
X12705119Y-16359643D02*
X12705119Y-16559643D01*
X12705119Y-16369167D02*
X12724167Y-16359643D01*
X12762262Y-16359643D01*
X12781309Y-16369167D01*
X12790833Y-16378690D01*
X12800357Y-16397738D01*
X12800357Y-16454881D01*
X12790833Y-16473928D01*
X12781309Y-16483452D01*
X12762262Y-16492976D01*
X12724167Y-16492976D01*
X12705119Y-16483452D01*
X12914643Y-16492976D02*
X12895595Y-16483452D01*
X12886071Y-16464405D01*
X12886071Y-16292976D01*
X13076548Y-16492976D02*
X13076548Y-16388214D01*
X13067024Y-16369167D01*
X13047976Y-16359643D01*
X13009881Y-16359643D01*
X12990833Y-16369167D01*
X13076548Y-16483452D02*
X13057500Y-16492976D01*
X13009881Y-16492976D01*
X12990833Y-16483452D01*
X12981309Y-16464405D01*
X12981309Y-16445357D01*
X12990833Y-16426309D01*
X13009881Y-16416786D01*
X13057500Y-16416786D01*
X13076548Y-16407262D01*
X13143214Y-16359643D02*
X13219405Y-16359643D01*
X13171786Y-16292976D02*
X13171786Y-16464405D01*
X13181309Y-16483452D01*
X13200357Y-16492976D01*
X13219405Y-16492976D01*
X13362262Y-16483452D02*
X13343214Y-16492976D01*
X13305119Y-16492976D01*
X13286071Y-16483452D01*
X13276548Y-16464405D01*
X13276548Y-16388214D01*
X13286071Y-16369167D01*
X13305119Y-16359643D01*
X13343214Y-16359643D01*
X13362262Y-16369167D01*
X13371786Y-16388214D01*
X13371786Y-16407262D01*
X13276548Y-16426309D01*
X13543214Y-16492976D02*
X13543214Y-16292976D01*
X13543214Y-16483452D02*
X13524167Y-16492976D01*
X13486071Y-16492976D01*
X13467024Y-16483452D01*
X13457500Y-16473928D01*
X13447976Y-16454881D01*
X13447976Y-16397738D01*
X13457500Y-16378690D01*
X13467024Y-16369167D01*
X13486071Y-16359643D01*
X13524167Y-16359643D01*
X13543214Y-16369167D01*
X13619405Y-16569167D02*
X13628928Y-16559643D01*
X13647976Y-16531071D01*
X13657500Y-16512024D01*
X13667024Y-16483452D01*
X13676548Y-16435833D01*
X13676548Y-16397738D01*
X13667024Y-16350119D01*
X13657500Y-16321548D01*
X13647976Y-16302500D01*
X13628928Y-16273928D01*
X13619405Y-16264405D01*
D13*
X5247500Y-16672500D02*
G75*
G03*
X5247500Y-16672500I-85000J0D01*
G01*
D11*
X5609881Y-16762976D02*
X5495595Y-16762976D01*
X5552738Y-16762976D02*
X5552738Y-16562976D01*
X5533690Y-16591548D01*
X5514643Y-16610595D01*
X5495595Y-16620119D01*
X5695595Y-16743928D02*
X5705119Y-16753452D01*
X5695595Y-16762976D01*
X5686071Y-16753452D01*
X5695595Y-16743928D01*
X5695595Y-16762976D01*
X5771786Y-16562976D02*
X5905119Y-16562976D01*
X5819405Y-16762976D01*
X6019405Y-16562976D02*
X6038452Y-16562976D01*
X6057500Y-16572500D01*
X6067024Y-16582024D01*
X6076548Y-16601071D01*
X6086071Y-16639167D01*
X6086071Y-16686786D01*
X6076548Y-16724881D01*
X6067024Y-16743928D01*
X6057500Y-16753452D01*
X6038452Y-16762976D01*
X6019405Y-16762976D01*
X6000357Y-16753452D01*
X5990833Y-16743928D01*
X5981309Y-16724881D01*
X5971786Y-16686786D01*
X5971786Y-16639167D01*
X5981309Y-16601071D01*
X5990833Y-16582024D01*
X6000357Y-16572500D01*
X6019405Y-16562976D01*
X6209881Y-16562976D02*
X6228928Y-16562976D01*
X6247976Y-16572500D01*
X6257500Y-16582024D01*
X6267024Y-16601071D01*
X6276548Y-16639167D01*
X6276548Y-16686786D01*
X6267024Y-16724881D01*
X6257500Y-16743928D01*
X6247976Y-16753452D01*
X6228928Y-16762976D01*
X6209881Y-16762976D01*
X6190833Y-16753452D01*
X6181309Y-16743928D01*
X6171786Y-16724881D01*
X6162262Y-16686786D01*
X6162262Y-16639167D01*
X6171786Y-16601071D01*
X6181309Y-16582024D01*
X6190833Y-16572500D01*
X6209881Y-16562976D01*
X6362262Y-16762976D02*
X6362262Y-16629643D01*
X6362262Y-16648690D02*
X6371786Y-16639167D01*
X6390833Y-16629643D01*
X6419405Y-16629643D01*
X6438452Y-16639167D01*
X6447976Y-16658214D01*
X6447976Y-16762976D01*
X6447976Y-16658214D02*
X6457500Y-16639167D01*
X6476548Y-16629643D01*
X6505119Y-16629643D01*
X6524167Y-16639167D01*
X6533690Y-16658214D01*
X6533690Y-16762976D01*
X6628928Y-16762976D02*
X6628928Y-16629643D01*
X6628928Y-16648690D02*
X6638452Y-16639167D01*
X6657500Y-16629643D01*
X6686071Y-16629643D01*
X6705119Y-16639167D01*
X6714643Y-16658214D01*
X6714643Y-16762976D01*
X6714643Y-16658214D02*
X6724167Y-16639167D01*
X6743214Y-16629643D01*
X6771786Y-16629643D01*
X6790833Y-16639167D01*
X6800357Y-16658214D01*
X6800357Y-16762976D01*
X7190833Y-16553452D02*
X7019405Y-16810595D01*
X7447976Y-16562976D02*
X7467024Y-16562976D01*
X7486071Y-16572500D01*
X7495595Y-16582024D01*
X7505119Y-16601071D01*
X7514643Y-16639167D01*
X7514643Y-16686786D01*
X7505119Y-16724881D01*
X7495595Y-16743928D01*
X7486071Y-16753452D01*
X7467024Y-16762976D01*
X7447976Y-16762976D01*
X7428928Y-16753452D01*
X7419405Y-16743928D01*
X7409881Y-16724881D01*
X7400357Y-16686786D01*
X7400357Y-16639167D01*
X7409881Y-16601071D01*
X7419405Y-16582024D01*
X7428928Y-16572500D01*
X7447976Y-16562976D01*
X7600357Y-16743928D02*
X7609881Y-16753452D01*
X7600357Y-16762976D01*
X7590833Y-16753452D01*
X7600357Y-16743928D01*
X7600357Y-16762976D01*
X7733690Y-16562976D02*
X7752738Y-16562976D01*
X7771786Y-16572500D01*
X7781309Y-16582024D01*
X7790833Y-16601071D01*
X7800357Y-16639167D01*
X7800357Y-16686786D01*
X7790833Y-16724881D01*
X7781309Y-16743928D01*
X7771786Y-16753452D01*
X7752738Y-16762976D01*
X7733690Y-16762976D01*
X7714643Y-16753452D01*
X7705119Y-16743928D01*
X7695595Y-16724881D01*
X7686071Y-16686786D01*
X7686071Y-16639167D01*
X7695595Y-16601071D01*
X7705119Y-16582024D01*
X7714643Y-16572500D01*
X7733690Y-16562976D01*
X7971786Y-16562976D02*
X7933690Y-16562976D01*
X7914643Y-16572500D01*
X7905119Y-16582024D01*
X7886071Y-16610595D01*
X7876548Y-16648690D01*
X7876548Y-16724881D01*
X7886071Y-16743928D01*
X7895595Y-16753452D01*
X7914643Y-16762976D01*
X7952738Y-16762976D01*
X7971786Y-16753452D01*
X7981309Y-16743928D01*
X7990833Y-16724881D01*
X7990833Y-16677262D01*
X7981309Y-16658214D01*
X7971786Y-16648690D01*
X7952738Y-16639167D01*
X7914643Y-16639167D01*
X7895595Y-16648690D01*
X7886071Y-16658214D01*
X7876548Y-16677262D01*
X8162262Y-16562976D02*
X8124167Y-16562976D01*
X8105119Y-16572500D01*
X8095595Y-16582024D01*
X8076548Y-16610595D01*
X8067024Y-16648690D01*
X8067024Y-16724881D01*
X8076548Y-16743928D01*
X8086071Y-16753452D01*
X8105119Y-16762976D01*
X8143214Y-16762976D01*
X8162262Y-16753452D01*
X8171786Y-16743928D01*
X8181309Y-16724881D01*
X8181309Y-16677262D01*
X8171786Y-16658214D01*
X8162262Y-16648690D01*
X8143214Y-16639167D01*
X8105119Y-16639167D01*
X8086071Y-16648690D01*
X8076548Y-16658214D01*
X8067024Y-16677262D01*
X8276548Y-16762976D02*
X8314643Y-16762976D01*
X8333690Y-16753452D01*
X8343214Y-16743928D01*
X8362262Y-16715357D01*
X8371786Y-16677262D01*
X8371786Y-16601071D01*
X8362262Y-16582024D01*
X8352738Y-16572500D01*
X8333690Y-16562976D01*
X8295595Y-16562976D01*
X8276548Y-16572500D01*
X8267024Y-16582024D01*
X8257500Y-16601071D01*
X8257500Y-16648690D01*
X8267024Y-16667738D01*
X8276548Y-16677262D01*
X8295595Y-16686786D01*
X8333690Y-16686786D01*
X8352738Y-16677262D01*
X8362262Y-16667738D01*
X8371786Y-16648690D01*
X8447976Y-16562976D02*
X8447976Y-16601071D01*
X8524167Y-16562976D02*
X8524167Y-16601071D01*
X8819405Y-16839167D02*
X8809881Y-16829643D01*
X8790833Y-16801071D01*
X8781310Y-16782024D01*
X8771786Y-16753452D01*
X8762262Y-16705833D01*
X8762262Y-16667738D01*
X8771786Y-16620119D01*
X8781310Y-16591548D01*
X8790833Y-16572500D01*
X8809881Y-16543928D01*
X8819405Y-16534405D01*
X9000357Y-16762976D02*
X8886071Y-16762976D01*
X8943214Y-16762976D02*
X8943214Y-16562976D01*
X8924167Y-16591548D01*
X8905119Y-16610595D01*
X8886071Y-16620119D01*
X9171786Y-16562976D02*
X9133690Y-16562976D01*
X9114643Y-16572500D01*
X9105119Y-16582024D01*
X9086071Y-16610595D01*
X9076548Y-16648690D01*
X9076548Y-16724881D01*
X9086071Y-16743928D01*
X9095595Y-16753452D01*
X9114643Y-16762976D01*
X9152738Y-16762976D01*
X9171786Y-16753452D01*
X9181310Y-16743928D01*
X9190833Y-16724881D01*
X9190833Y-16677262D01*
X9181310Y-16658214D01*
X9171786Y-16648690D01*
X9152738Y-16639167D01*
X9114643Y-16639167D01*
X9095595Y-16648690D01*
X9086071Y-16658214D01*
X9076548Y-16677262D01*
X9305119Y-16648690D02*
X9286071Y-16639167D01*
X9276548Y-16629643D01*
X9267024Y-16610595D01*
X9267024Y-16601071D01*
X9276548Y-16582024D01*
X9286071Y-16572500D01*
X9305119Y-16562976D01*
X9343214Y-16562976D01*
X9362262Y-16572500D01*
X9371786Y-16582024D01*
X9381310Y-16601071D01*
X9381310Y-16610595D01*
X9371786Y-16629643D01*
X9362262Y-16639167D01*
X9343214Y-16648690D01*
X9305119Y-16648690D01*
X9286071Y-16658214D01*
X9276548Y-16667738D01*
X9267024Y-16686786D01*
X9267024Y-16724881D01*
X9276548Y-16743928D01*
X9286071Y-16753452D01*
X9305119Y-16762976D01*
X9343214Y-16762976D01*
X9362262Y-16753452D01*
X9371786Y-16743928D01*
X9381310Y-16724881D01*
X9381310Y-16686786D01*
X9371786Y-16667738D01*
X9362262Y-16658214D01*
X9343214Y-16648690D01*
X9619405Y-16762976D02*
X9619405Y-16562976D01*
X9705119Y-16762976D02*
X9705119Y-16658214D01*
X9695595Y-16639167D01*
X9676548Y-16629643D01*
X9647976Y-16629643D01*
X9628929Y-16639167D01*
X9619405Y-16648690D01*
X9828929Y-16762976D02*
X9809881Y-16753452D01*
X9800357Y-16743928D01*
X9790833Y-16724881D01*
X9790833Y-16667738D01*
X9800357Y-16648690D01*
X9809881Y-16639167D01*
X9828929Y-16629643D01*
X9857500Y-16629643D01*
X9876548Y-16639167D01*
X9886071Y-16648690D01*
X9895595Y-16667738D01*
X9895595Y-16724881D01*
X9886071Y-16743928D01*
X9876548Y-16753452D01*
X9857500Y-16762976D01*
X9828929Y-16762976D01*
X10009881Y-16762976D02*
X9990833Y-16753452D01*
X9981310Y-16734405D01*
X9981310Y-16562976D01*
X10162262Y-16753452D02*
X10143214Y-16762976D01*
X10105119Y-16762976D01*
X10086071Y-16753452D01*
X10076548Y-16734405D01*
X10076548Y-16658214D01*
X10086071Y-16639167D01*
X10105119Y-16629643D01*
X10143214Y-16629643D01*
X10162262Y-16639167D01*
X10171786Y-16658214D01*
X10171786Y-16677262D01*
X10076548Y-16696309D01*
X10247976Y-16753452D02*
X10267024Y-16762976D01*
X10305119Y-16762976D01*
X10324167Y-16753452D01*
X10333690Y-16734405D01*
X10333690Y-16724881D01*
X10324167Y-16705833D01*
X10305119Y-16696309D01*
X10276548Y-16696309D01*
X10257500Y-16686786D01*
X10247976Y-16667738D01*
X10247976Y-16658214D01*
X10257500Y-16639167D01*
X10276548Y-16629643D01*
X10305119Y-16629643D01*
X10324167Y-16639167D01*
X10400357Y-16839167D02*
X10409881Y-16829643D01*
X10428929Y-16801071D01*
X10438452Y-16782024D01*
X10447976Y-16753452D01*
X10457500Y-16705833D01*
X10457500Y-16667738D01*
X10447976Y-16620119D01*
X10438452Y-16591548D01*
X10428929Y-16572500D01*
X10409881Y-16543928D01*
X10400357Y-16534405D01*
X10762262Y-16839167D02*
X10752738Y-16829643D01*
X10733690Y-16801071D01*
X10724167Y-16782024D01*
X10714643Y-16753452D01*
X10705119Y-16705833D01*
X10705119Y-16667738D01*
X10714643Y-16620119D01*
X10724167Y-16591548D01*
X10733690Y-16572500D01*
X10752738Y-16543928D01*
X10762262Y-16534405D01*
X10838452Y-16629643D02*
X10838452Y-16762976D01*
X10838452Y-16648690D02*
X10847976Y-16639167D01*
X10867024Y-16629643D01*
X10895595Y-16629643D01*
X10914643Y-16639167D01*
X10924167Y-16658214D01*
X10924167Y-16762976D01*
X11047976Y-16762976D02*
X11028929Y-16753452D01*
X11019405Y-16743928D01*
X11009881Y-16724881D01*
X11009881Y-16667738D01*
X11019405Y-16648690D01*
X11028929Y-16639167D01*
X11047976Y-16629643D01*
X11076548Y-16629643D01*
X11095595Y-16639167D01*
X11105119Y-16648690D01*
X11114643Y-16667738D01*
X11114643Y-16724881D01*
X11105119Y-16743928D01*
X11095595Y-16753452D01*
X11076548Y-16762976D01*
X11047976Y-16762976D01*
X11171786Y-16629643D02*
X11247976Y-16629643D01*
X11200357Y-16562976D02*
X11200357Y-16734405D01*
X11209881Y-16753452D01*
X11228928Y-16762976D01*
X11247976Y-16762976D01*
X11467024Y-16629643D02*
X11467024Y-16829643D01*
X11467024Y-16639167D02*
X11486071Y-16629643D01*
X11524167Y-16629643D01*
X11543214Y-16639167D01*
X11552738Y-16648690D01*
X11562262Y-16667738D01*
X11562262Y-16724881D01*
X11552738Y-16743928D01*
X11543214Y-16753452D01*
X11524167Y-16762976D01*
X11486071Y-16762976D01*
X11467024Y-16753452D01*
X11676548Y-16762976D02*
X11657500Y-16753452D01*
X11647976Y-16734405D01*
X11647976Y-16562976D01*
X11838452Y-16762976D02*
X11838452Y-16658214D01*
X11828928Y-16639167D01*
X11809881Y-16629643D01*
X11771786Y-16629643D01*
X11752738Y-16639167D01*
X11838452Y-16753452D02*
X11819405Y-16762976D01*
X11771786Y-16762976D01*
X11752738Y-16753452D01*
X11743214Y-16734405D01*
X11743214Y-16715357D01*
X11752738Y-16696309D01*
X11771786Y-16686786D01*
X11819405Y-16686786D01*
X11838452Y-16677262D01*
X11905119Y-16629643D02*
X11981309Y-16629643D01*
X11933690Y-16562976D02*
X11933690Y-16734405D01*
X11943214Y-16753452D01*
X11962262Y-16762976D01*
X11981309Y-16762976D01*
X12124167Y-16753452D02*
X12105119Y-16762976D01*
X12067024Y-16762976D01*
X12047976Y-16753452D01*
X12038452Y-16734405D01*
X12038452Y-16658214D01*
X12047976Y-16639167D01*
X12067024Y-16629643D01*
X12105119Y-16629643D01*
X12124167Y-16639167D01*
X12133690Y-16658214D01*
X12133690Y-16677262D01*
X12038452Y-16696309D01*
X12305119Y-16762976D02*
X12305119Y-16562976D01*
X12305119Y-16753452D02*
X12286071Y-16762976D01*
X12247976Y-16762976D01*
X12228928Y-16753452D01*
X12219405Y-16743928D01*
X12209881Y-16724881D01*
X12209881Y-16667738D01*
X12219405Y-16648690D01*
X12228928Y-16639167D01*
X12247976Y-16629643D01*
X12286071Y-16629643D01*
X12305119Y-16639167D01*
X12381309Y-16839167D02*
X12390833Y-16829643D01*
X12409881Y-16801071D01*
X12419405Y-16782024D01*
X12428928Y-16753452D01*
X12438452Y-16705833D01*
X12438452Y-16667738D01*
X12428928Y-16620119D01*
X12419405Y-16591548D01*
X12409881Y-16572500D01*
X12390833Y-16543928D01*
X12381309Y-16534405D01*
X5147500Y-16862500D02*
X5147500Y-17062500D01*
X5047500Y-16962500D02*
X5247500Y-16962500D01*
X5495595Y-16872024D02*
X5505119Y-16862500D01*
X5524167Y-16852976D01*
X5571786Y-16852976D01*
X5590833Y-16862500D01*
X5600357Y-16872024D01*
X5609881Y-16891071D01*
X5609881Y-16910119D01*
X5600357Y-16938690D01*
X5486071Y-17052976D01*
X5609881Y-17052976D01*
X5695595Y-17033929D02*
X5705119Y-17043452D01*
X5695595Y-17052976D01*
X5686071Y-17043452D01*
X5695595Y-17033929D01*
X5695595Y-17052976D01*
X5781309Y-16872024D02*
X5790833Y-16862500D01*
X5809881Y-16852976D01*
X5857500Y-16852976D01*
X5876548Y-16862500D01*
X5886071Y-16872024D01*
X5895595Y-16891071D01*
X5895595Y-16910119D01*
X5886071Y-16938690D01*
X5771786Y-17052976D01*
X5895595Y-17052976D01*
X6019405Y-16852976D02*
X6038452Y-16852976D01*
X6057500Y-16862500D01*
X6067024Y-16872024D01*
X6076548Y-16891071D01*
X6086071Y-16929167D01*
X6086071Y-16976786D01*
X6076548Y-17014881D01*
X6067024Y-17033929D01*
X6057500Y-17043452D01*
X6038452Y-17052976D01*
X6019405Y-17052976D01*
X6000357Y-17043452D01*
X5990833Y-17033929D01*
X5981309Y-17014881D01*
X5971786Y-16976786D01*
X5971786Y-16929167D01*
X5981309Y-16891071D01*
X5990833Y-16872024D01*
X6000357Y-16862500D01*
X6019405Y-16852976D01*
X6209881Y-16852976D02*
X6228928Y-16852976D01*
X6247976Y-16862500D01*
X6257500Y-16872024D01*
X6267024Y-16891071D01*
X6276548Y-16929167D01*
X6276548Y-16976786D01*
X6267024Y-17014881D01*
X6257500Y-17033929D01*
X6247976Y-17043452D01*
X6228928Y-17052976D01*
X6209881Y-17052976D01*
X6190833Y-17043452D01*
X6181309Y-17033929D01*
X6171786Y-17014881D01*
X6162262Y-16976786D01*
X6162262Y-16929167D01*
X6171786Y-16891071D01*
X6181309Y-16872024D01*
X6190833Y-16862500D01*
X6209881Y-16852976D01*
X6362262Y-17052976D02*
X6362262Y-16919643D01*
X6362262Y-16938690D02*
X6371786Y-16929167D01*
X6390833Y-16919643D01*
X6419405Y-16919643D01*
X6438452Y-16929167D01*
X6447976Y-16948214D01*
X6447976Y-17052976D01*
X6447976Y-16948214D02*
X6457500Y-16929167D01*
X6476548Y-16919643D01*
X6505119Y-16919643D01*
X6524167Y-16929167D01*
X6533690Y-16948214D01*
X6533690Y-17052976D01*
X6628928Y-17052976D02*
X6628928Y-16919643D01*
X6628928Y-16938690D02*
X6638452Y-16929167D01*
X6657500Y-16919643D01*
X6686071Y-16919643D01*
X6705119Y-16929167D01*
X6714643Y-16948214D01*
X6714643Y-17052976D01*
X6714643Y-16948214D02*
X6724167Y-16929167D01*
X6743214Y-16919643D01*
X6771786Y-16919643D01*
X6790833Y-16929167D01*
X6800357Y-16948214D01*
X6800357Y-17052976D01*
X7190833Y-16843452D02*
X7019405Y-17100595D01*
X7447976Y-16852976D02*
X7467024Y-16852976D01*
X7486071Y-16862500D01*
X7495595Y-16872024D01*
X7505119Y-16891071D01*
X7514643Y-16929167D01*
X7514643Y-16976786D01*
X7505119Y-17014881D01*
X7495595Y-17033929D01*
X7486071Y-17043452D01*
X7467024Y-17052976D01*
X7447976Y-17052976D01*
X7428928Y-17043452D01*
X7419405Y-17033929D01*
X7409881Y-17014881D01*
X7400357Y-16976786D01*
X7400357Y-16929167D01*
X7409881Y-16891071D01*
X7419405Y-16872024D01*
X7428928Y-16862500D01*
X7447976Y-16852976D01*
X7600357Y-17033929D02*
X7609881Y-17043452D01*
X7600357Y-17052976D01*
X7590833Y-17043452D01*
X7600357Y-17033929D01*
X7600357Y-17052976D01*
X7733690Y-16852976D02*
X7752738Y-16852976D01*
X7771786Y-16862500D01*
X7781309Y-16872024D01*
X7790833Y-16891071D01*
X7800357Y-16929167D01*
X7800357Y-16976786D01*
X7790833Y-17014881D01*
X7781309Y-17033929D01*
X7771786Y-17043452D01*
X7752738Y-17052976D01*
X7733690Y-17052976D01*
X7714643Y-17043452D01*
X7705119Y-17033929D01*
X7695595Y-17014881D01*
X7686071Y-16976786D01*
X7686071Y-16929167D01*
X7695595Y-16891071D01*
X7705119Y-16872024D01*
X7714643Y-16862500D01*
X7733690Y-16852976D01*
X7914643Y-16938690D02*
X7895595Y-16929167D01*
X7886071Y-16919643D01*
X7876548Y-16900595D01*
X7876548Y-16891071D01*
X7886071Y-16872024D01*
X7895595Y-16862500D01*
X7914643Y-16852976D01*
X7952738Y-16852976D01*
X7971786Y-16862500D01*
X7981309Y-16872024D01*
X7990833Y-16891071D01*
X7990833Y-16900595D01*
X7981309Y-16919643D01*
X7971786Y-16929167D01*
X7952738Y-16938690D01*
X7914643Y-16938690D01*
X7895595Y-16948214D01*
X7886071Y-16957738D01*
X7876548Y-16976786D01*
X7876548Y-17014881D01*
X7886071Y-17033929D01*
X7895595Y-17043452D01*
X7914643Y-17052976D01*
X7952738Y-17052976D01*
X7971786Y-17043452D01*
X7981309Y-17033929D01*
X7990833Y-17014881D01*
X7990833Y-16976786D01*
X7981309Y-16957738D01*
X7971786Y-16948214D01*
X7952738Y-16938690D01*
X8162262Y-16852976D02*
X8124167Y-16852976D01*
X8105119Y-16862500D01*
X8095595Y-16872024D01*
X8076548Y-16900595D01*
X8067024Y-16938690D01*
X8067024Y-17014881D01*
X8076548Y-17033929D01*
X8086071Y-17043452D01*
X8105119Y-17052976D01*
X8143214Y-17052976D01*
X8162262Y-17043452D01*
X8171786Y-17033929D01*
X8181309Y-17014881D01*
X8181309Y-16967262D01*
X8171786Y-16948214D01*
X8162262Y-16938690D01*
X8143214Y-16929167D01*
X8105119Y-16929167D01*
X8086071Y-16938690D01*
X8076548Y-16948214D01*
X8067024Y-16967262D01*
X8352738Y-16852976D02*
X8314643Y-16852976D01*
X8295595Y-16862500D01*
X8286071Y-16872024D01*
X8267024Y-16900595D01*
X8257500Y-16938690D01*
X8257500Y-17014881D01*
X8267024Y-17033929D01*
X8276548Y-17043452D01*
X8295595Y-17052976D01*
X8333690Y-17052976D01*
X8352738Y-17043452D01*
X8362262Y-17033929D01*
X8371786Y-17014881D01*
X8371786Y-16967262D01*
X8362262Y-16948214D01*
X8352738Y-16938690D01*
X8333690Y-16929167D01*
X8295595Y-16929167D01*
X8276548Y-16938690D01*
X8267024Y-16948214D01*
X8257500Y-16967262D01*
X8447976Y-16852976D02*
X8447976Y-16891071D01*
X8524167Y-16852976D02*
X8524167Y-16891071D01*
X8819405Y-17129167D02*
X8809881Y-17119643D01*
X8790833Y-17091071D01*
X8781310Y-17072024D01*
X8771786Y-17043452D01*
X8762262Y-16995833D01*
X8762262Y-16957738D01*
X8771786Y-16910119D01*
X8781310Y-16881548D01*
X8790833Y-16862500D01*
X8809881Y-16833929D01*
X8819405Y-16824405D01*
X9000357Y-17052976D02*
X8886071Y-17052976D01*
X8943214Y-17052976D02*
X8943214Y-16852976D01*
X8924167Y-16881548D01*
X8905119Y-16900595D01*
X8886071Y-16910119D01*
X9190833Y-17052976D02*
X9076548Y-17052976D01*
X9133690Y-17052976D02*
X9133690Y-16852976D01*
X9114643Y-16881548D01*
X9095595Y-16900595D01*
X9076548Y-16910119D01*
X9428929Y-17052976D02*
X9428929Y-16852976D01*
X9514643Y-17052976D02*
X9514643Y-16948214D01*
X9505119Y-16929167D01*
X9486071Y-16919643D01*
X9457500Y-16919643D01*
X9438452Y-16929167D01*
X9428929Y-16938690D01*
X9638452Y-17052976D02*
X9619405Y-17043452D01*
X9609881Y-17033929D01*
X9600357Y-17014881D01*
X9600357Y-16957738D01*
X9609881Y-16938690D01*
X9619405Y-16929167D01*
X9638452Y-16919643D01*
X9667024Y-16919643D01*
X9686071Y-16929167D01*
X9695595Y-16938690D01*
X9705119Y-16957738D01*
X9705119Y-17014881D01*
X9695595Y-17033929D01*
X9686071Y-17043452D01*
X9667024Y-17052976D01*
X9638452Y-17052976D01*
X9819405Y-17052976D02*
X9800357Y-17043452D01*
X9790833Y-17024405D01*
X9790833Y-16852976D01*
X9971786Y-17043452D02*
X9952738Y-17052976D01*
X9914643Y-17052976D01*
X9895595Y-17043452D01*
X9886071Y-17024405D01*
X9886071Y-16948214D01*
X9895595Y-16929167D01*
X9914643Y-16919643D01*
X9952738Y-16919643D01*
X9971786Y-16929167D01*
X9981310Y-16948214D01*
X9981310Y-16967262D01*
X9886071Y-16986310D01*
X10057500Y-17043452D02*
X10076548Y-17052976D01*
X10114643Y-17052976D01*
X10133690Y-17043452D01*
X10143214Y-17024405D01*
X10143214Y-17014881D01*
X10133690Y-16995833D01*
X10114643Y-16986310D01*
X10086071Y-16986310D01*
X10067024Y-16976786D01*
X10057500Y-16957738D01*
X10057500Y-16948214D01*
X10067024Y-16929167D01*
X10086071Y-16919643D01*
X10114643Y-16919643D01*
X10133690Y-16929167D01*
X10209881Y-17129167D02*
X10219405Y-17119643D01*
X10238452Y-17091071D01*
X10247976Y-17072024D01*
X10257500Y-17043452D01*
X10267024Y-16995833D01*
X10267024Y-16957738D01*
X10257500Y-16910119D01*
X10247976Y-16881548D01*
X10238452Y-16862500D01*
X10219405Y-16833929D01*
X10209881Y-16824405D01*
X10571786Y-17129167D02*
X10562262Y-17119643D01*
X10543214Y-17091071D01*
X10533690Y-17072024D01*
X10524167Y-17043452D01*
X10514643Y-16995833D01*
X10514643Y-16957738D01*
X10524167Y-16910119D01*
X10533690Y-16881548D01*
X10543214Y-16862500D01*
X10562262Y-16833929D01*
X10571786Y-16824405D01*
X10647976Y-16919643D02*
X10647976Y-17052976D01*
X10647976Y-16938690D02*
X10657500Y-16929167D01*
X10676548Y-16919643D01*
X10705119Y-16919643D01*
X10724167Y-16929167D01*
X10733690Y-16948214D01*
X10733690Y-17052976D01*
X10857500Y-17052976D02*
X10838452Y-17043452D01*
X10828929Y-17033929D01*
X10819405Y-17014881D01*
X10819405Y-16957738D01*
X10828929Y-16938690D01*
X10838452Y-16929167D01*
X10857500Y-16919643D01*
X10886071Y-16919643D01*
X10905119Y-16929167D01*
X10914643Y-16938690D01*
X10924167Y-16957738D01*
X10924167Y-17014881D01*
X10914643Y-17033929D01*
X10905119Y-17043452D01*
X10886071Y-17052976D01*
X10857500Y-17052976D01*
X10981310Y-16919643D02*
X11057500Y-16919643D01*
X11009881Y-16852976D02*
X11009881Y-17024405D01*
X11019405Y-17043452D01*
X11038452Y-17052976D01*
X11057500Y-17052976D01*
X11276548Y-16919643D02*
X11276548Y-17119643D01*
X11276548Y-16929167D02*
X11295595Y-16919643D01*
X11333690Y-16919643D01*
X11352738Y-16929167D01*
X11362262Y-16938690D01*
X11371786Y-16957738D01*
X11371786Y-17014881D01*
X11362262Y-17033929D01*
X11352738Y-17043452D01*
X11333690Y-17052976D01*
X11295595Y-17052976D01*
X11276548Y-17043452D01*
X11486071Y-17052976D02*
X11467024Y-17043452D01*
X11457500Y-17024405D01*
X11457500Y-16852976D01*
X11647976Y-17052976D02*
X11647976Y-16948214D01*
X11638452Y-16929167D01*
X11619405Y-16919643D01*
X11581309Y-16919643D01*
X11562262Y-16929167D01*
X11647976Y-17043452D02*
X11628928Y-17052976D01*
X11581309Y-17052976D01*
X11562262Y-17043452D01*
X11552738Y-17024405D01*
X11552738Y-17005357D01*
X11562262Y-16986310D01*
X11581309Y-16976786D01*
X11628928Y-16976786D01*
X11647976Y-16967262D01*
X11714643Y-16919643D02*
X11790833Y-16919643D01*
X11743214Y-16852976D02*
X11743214Y-17024405D01*
X11752738Y-17043452D01*
X11771786Y-17052976D01*
X11790833Y-17052976D01*
X11933690Y-17043452D02*
X11914643Y-17052976D01*
X11876548Y-17052976D01*
X11857500Y-17043452D01*
X11847976Y-17024405D01*
X11847976Y-16948214D01*
X11857500Y-16929167D01*
X11876548Y-16919643D01*
X11914643Y-16919643D01*
X11933690Y-16929167D01*
X11943214Y-16948214D01*
X11943214Y-16967262D01*
X11847976Y-16986310D01*
X12114643Y-17052976D02*
X12114643Y-16852976D01*
X12114643Y-17043452D02*
X12095595Y-17052976D01*
X12057500Y-17052976D01*
X12038452Y-17043452D01*
X12028928Y-17033929D01*
X12019405Y-17014881D01*
X12019405Y-16957738D01*
X12028928Y-16938690D01*
X12038452Y-16929167D01*
X12057500Y-16919643D01*
X12095595Y-16919643D01*
X12114643Y-16929167D01*
X12190833Y-17129167D02*
X12200357Y-17119643D01*
X12219405Y-17091071D01*
X12228928Y-17072024D01*
X12238452Y-17043452D01*
X12247976Y-16995833D01*
X12247976Y-16957738D01*
X12238452Y-16910119D01*
X12228928Y-16881548D01*
X12219405Y-16862500D01*
X12200357Y-16833929D01*
X12190833Y-16824405D01*
X5218211Y-17353211D02*
X5218211Y-17211789D01*
X5076789Y-17211789D01*
X5076789Y-17353211D01*
X5218211Y-17353211D01*
X5486071Y-17172976D02*
X5609881Y-17172976D01*
X5543214Y-17249167D01*
X5571786Y-17249167D01*
X5590833Y-17258690D01*
X5600357Y-17268214D01*
X5609881Y-17287262D01*
X5609881Y-17334881D01*
X5600357Y-17353929D01*
X5590833Y-17363452D01*
X5571786Y-17372976D01*
X5514643Y-17372976D01*
X5495595Y-17363452D01*
X5486071Y-17353929D01*
X5695595Y-17353929D02*
X5705119Y-17363452D01*
X5695595Y-17372976D01*
X5686071Y-17363452D01*
X5695595Y-17353929D01*
X5695595Y-17372976D01*
X5828928Y-17172976D02*
X5847976Y-17172976D01*
X5867024Y-17182500D01*
X5876548Y-17192024D01*
X5886071Y-17211071D01*
X5895595Y-17249167D01*
X5895595Y-17296786D01*
X5886071Y-17334881D01*
X5876548Y-17353929D01*
X5867024Y-17363452D01*
X5847976Y-17372976D01*
X5828928Y-17372976D01*
X5809881Y-17363452D01*
X5800357Y-17353929D01*
X5790833Y-17334881D01*
X5781309Y-17296786D01*
X5781309Y-17249167D01*
X5790833Y-17211071D01*
X5800357Y-17192024D01*
X5809881Y-17182500D01*
X5828928Y-17172976D01*
X6076548Y-17172976D02*
X5981309Y-17172976D01*
X5971786Y-17268214D01*
X5981309Y-17258690D01*
X6000357Y-17249167D01*
X6047976Y-17249167D01*
X6067024Y-17258690D01*
X6076548Y-17268214D01*
X6086071Y-17287262D01*
X6086071Y-17334881D01*
X6076548Y-17353929D01*
X6067024Y-17363452D01*
X6047976Y-17372976D01*
X6000357Y-17372976D01*
X5981309Y-17363452D01*
X5971786Y-17353929D01*
X6209881Y-17172976D02*
X6228928Y-17172976D01*
X6247976Y-17182500D01*
X6257500Y-17192024D01*
X6267024Y-17211071D01*
X6276548Y-17249167D01*
X6276548Y-17296786D01*
X6267024Y-17334881D01*
X6257500Y-17353929D01*
X6247976Y-17363452D01*
X6228928Y-17372976D01*
X6209881Y-17372976D01*
X6190833Y-17363452D01*
X6181309Y-17353929D01*
X6171786Y-17334881D01*
X6162262Y-17296786D01*
X6162262Y-17249167D01*
X6171786Y-17211071D01*
X6181309Y-17192024D01*
X6190833Y-17182500D01*
X6209881Y-17172976D01*
X6362262Y-17372976D02*
X6362262Y-17239643D01*
X6362262Y-17258690D02*
X6371786Y-17249167D01*
X6390833Y-17239643D01*
X6419405Y-17239643D01*
X6438452Y-17249167D01*
X6447976Y-17268214D01*
X6447976Y-17372976D01*
X6447976Y-17268214D02*
X6457500Y-17249167D01*
X6476548Y-17239643D01*
X6505119Y-17239643D01*
X6524167Y-17249167D01*
X6533690Y-17268214D01*
X6533690Y-17372976D01*
X6628928Y-17372976D02*
X6628928Y-17239643D01*
X6628928Y-17258690D02*
X6638452Y-17249167D01*
X6657500Y-17239643D01*
X6686071Y-17239643D01*
X6705119Y-17249167D01*
X6714643Y-17268214D01*
X6714643Y-17372976D01*
X6714643Y-17268214D02*
X6724167Y-17249167D01*
X6743214Y-17239643D01*
X6771786Y-17239643D01*
X6790833Y-17249167D01*
X6800357Y-17268214D01*
X6800357Y-17372976D01*
X7190833Y-17163452D02*
X7019405Y-17420595D01*
X7447976Y-17172976D02*
X7467024Y-17172976D01*
X7486071Y-17182500D01*
X7495595Y-17192024D01*
X7505119Y-17211071D01*
X7514643Y-17249167D01*
X7514643Y-17296786D01*
X7505119Y-17334881D01*
X7495595Y-17353929D01*
X7486071Y-17363452D01*
X7467024Y-17372976D01*
X7447976Y-17372976D01*
X7428928Y-17363452D01*
X7419405Y-17353929D01*
X7409881Y-17334881D01*
X7400357Y-17296786D01*
X7400357Y-17249167D01*
X7409881Y-17211071D01*
X7419405Y-17192024D01*
X7428928Y-17182500D01*
X7447976Y-17172976D01*
X7600357Y-17353929D02*
X7609881Y-17363452D01*
X7600357Y-17372976D01*
X7590833Y-17363452D01*
X7600357Y-17353929D01*
X7600357Y-17372976D01*
X7800357Y-17372976D02*
X7686071Y-17372976D01*
X7743214Y-17372976D02*
X7743214Y-17172976D01*
X7724167Y-17201548D01*
X7705119Y-17220595D01*
X7686071Y-17230119D01*
X7876548Y-17192024D02*
X7886071Y-17182500D01*
X7905119Y-17172976D01*
X7952738Y-17172976D01*
X7971786Y-17182500D01*
X7981309Y-17192024D01*
X7990833Y-17211071D01*
X7990833Y-17230119D01*
X7981309Y-17258690D01*
X7867024Y-17372976D01*
X7990833Y-17372976D01*
X8114643Y-17172976D02*
X8133690Y-17172976D01*
X8152738Y-17182500D01*
X8162262Y-17192024D01*
X8171786Y-17211071D01*
X8181309Y-17249167D01*
X8181309Y-17296786D01*
X8171786Y-17334881D01*
X8162262Y-17353929D01*
X8152738Y-17363452D01*
X8133690Y-17372976D01*
X8114643Y-17372976D01*
X8095595Y-17363452D01*
X8086071Y-17353929D01*
X8076548Y-17334881D01*
X8067024Y-17296786D01*
X8067024Y-17249167D01*
X8076548Y-17211071D01*
X8086071Y-17192024D01*
X8095595Y-17182500D01*
X8114643Y-17172976D01*
X8371786Y-17372976D02*
X8257500Y-17372976D01*
X8314643Y-17372976D02*
X8314643Y-17172976D01*
X8295595Y-17201548D01*
X8276548Y-17220595D01*
X8257500Y-17230119D01*
X8447976Y-17172976D02*
X8447976Y-17211071D01*
X8524167Y-17172976D02*
X8524167Y-17211071D01*
X8819405Y-17449167D02*
X8809881Y-17439643D01*
X8790833Y-17411071D01*
X8781310Y-17392024D01*
X8771786Y-17363452D01*
X8762262Y-17315833D01*
X8762262Y-17277738D01*
X8771786Y-17230119D01*
X8781310Y-17201548D01*
X8790833Y-17182500D01*
X8809881Y-17153929D01*
X8819405Y-17144405D01*
X9000357Y-17372976D02*
X8886071Y-17372976D01*
X8943214Y-17372976D02*
X8943214Y-17172976D01*
X8924167Y-17201548D01*
X8905119Y-17220595D01*
X8886071Y-17230119D01*
X9171786Y-17172976D02*
X9133690Y-17172976D01*
X9114643Y-17182500D01*
X9105119Y-17192024D01*
X9086071Y-17220595D01*
X9076548Y-17258690D01*
X9076548Y-17334881D01*
X9086071Y-17353929D01*
X9095595Y-17363452D01*
X9114643Y-17372976D01*
X9152738Y-17372976D01*
X9171786Y-17363452D01*
X9181310Y-17353929D01*
X9190833Y-17334881D01*
X9190833Y-17287262D01*
X9181310Y-17268214D01*
X9171786Y-17258690D01*
X9152738Y-17249167D01*
X9114643Y-17249167D01*
X9095595Y-17258690D01*
X9086071Y-17268214D01*
X9076548Y-17287262D01*
X9428929Y-17372976D02*
X9428929Y-17172976D01*
X9514643Y-17372976D02*
X9514643Y-17268214D01*
X9505119Y-17249167D01*
X9486071Y-17239643D01*
X9457500Y-17239643D01*
X9438452Y-17249167D01*
X9428929Y-17258690D01*
X9638452Y-17372976D02*
X9619405Y-17363452D01*
X9609881Y-17353929D01*
X9600357Y-17334881D01*
X9600357Y-17277738D01*
X9609881Y-17258690D01*
X9619405Y-17249167D01*
X9638452Y-17239643D01*
X9667024Y-17239643D01*
X9686071Y-17249167D01*
X9695595Y-17258690D01*
X9705119Y-17277738D01*
X9705119Y-17334881D01*
X9695595Y-17353929D01*
X9686071Y-17363452D01*
X9667024Y-17372976D01*
X9638452Y-17372976D01*
X9819405Y-17372976D02*
X9800357Y-17363452D01*
X9790833Y-17344405D01*
X9790833Y-17172976D01*
X9971786Y-17363452D02*
X9952738Y-17372976D01*
X9914643Y-17372976D01*
X9895595Y-17363452D01*
X9886071Y-17344405D01*
X9886071Y-17268214D01*
X9895595Y-17249167D01*
X9914643Y-17239643D01*
X9952738Y-17239643D01*
X9971786Y-17249167D01*
X9981310Y-17268214D01*
X9981310Y-17287262D01*
X9886071Y-17306310D01*
X10057500Y-17363452D02*
X10076548Y-17372976D01*
X10114643Y-17372976D01*
X10133690Y-17363452D01*
X10143214Y-17344405D01*
X10143214Y-17334881D01*
X10133690Y-17315833D01*
X10114643Y-17306310D01*
X10086071Y-17306310D01*
X10067024Y-17296786D01*
X10057500Y-17277738D01*
X10057500Y-17268214D01*
X10067024Y-17249167D01*
X10086071Y-17239643D01*
X10114643Y-17239643D01*
X10133690Y-17249167D01*
X10209881Y-17449167D02*
X10219405Y-17439643D01*
X10238452Y-17411071D01*
X10247976Y-17392024D01*
X10257500Y-17363452D01*
X10267024Y-17315833D01*
X10267024Y-17277738D01*
X10257500Y-17230119D01*
X10247976Y-17201548D01*
X10238452Y-17182500D01*
X10219405Y-17153929D01*
X10209881Y-17144405D01*
X10571786Y-17449167D02*
X10562262Y-17439643D01*
X10543214Y-17411071D01*
X10533690Y-17392024D01*
X10524167Y-17363452D01*
X10514643Y-17315833D01*
X10514643Y-17277738D01*
X10524167Y-17230119D01*
X10533690Y-17201548D01*
X10543214Y-17182500D01*
X10562262Y-17153929D01*
X10571786Y-17144405D01*
X10647976Y-17239643D02*
X10647976Y-17372976D01*
X10647976Y-17258690D02*
X10657500Y-17249167D01*
X10676548Y-17239643D01*
X10705119Y-17239643D01*
X10724167Y-17249167D01*
X10733690Y-17268214D01*
X10733690Y-17372976D01*
X10857500Y-17372976D02*
X10838452Y-17363452D01*
X10828929Y-17353929D01*
X10819405Y-17334881D01*
X10819405Y-17277738D01*
X10828929Y-17258690D01*
X10838452Y-17249167D01*
X10857500Y-17239643D01*
X10886071Y-17239643D01*
X10905119Y-17249167D01*
X10914643Y-17258690D01*
X10924167Y-17277738D01*
X10924167Y-17334881D01*
X10914643Y-17353929D01*
X10905119Y-17363452D01*
X10886071Y-17372976D01*
X10857500Y-17372976D01*
X10981310Y-17239643D02*
X11057500Y-17239643D01*
X11009881Y-17172976D02*
X11009881Y-17344405D01*
X11019405Y-17363452D01*
X11038452Y-17372976D01*
X11057500Y-17372976D01*
X11276548Y-17239643D02*
X11276548Y-17439643D01*
X11276548Y-17249167D02*
X11295595Y-17239643D01*
X11333690Y-17239643D01*
X11352738Y-17249167D01*
X11362262Y-17258690D01*
X11371786Y-17277738D01*
X11371786Y-17334881D01*
X11362262Y-17353929D01*
X11352738Y-17363452D01*
X11333690Y-17372976D01*
X11295595Y-17372976D01*
X11276548Y-17363452D01*
X11486071Y-17372976D02*
X11467024Y-17363452D01*
X11457500Y-17344405D01*
X11457500Y-17172976D01*
X11647976Y-17372976D02*
X11647976Y-17268214D01*
X11638452Y-17249167D01*
X11619405Y-17239643D01*
X11581309Y-17239643D01*
X11562262Y-17249167D01*
X11647976Y-17363452D02*
X11628928Y-17372976D01*
X11581309Y-17372976D01*
X11562262Y-17363452D01*
X11552738Y-17344405D01*
X11552738Y-17325357D01*
X11562262Y-17306310D01*
X11581309Y-17296786D01*
X11628928Y-17296786D01*
X11647976Y-17287262D01*
X11714643Y-17239643D02*
X11790833Y-17239643D01*
X11743214Y-17172976D02*
X11743214Y-17344405D01*
X11752738Y-17363452D01*
X11771786Y-17372976D01*
X11790833Y-17372976D01*
X11933690Y-17363452D02*
X11914643Y-17372976D01*
X11876548Y-17372976D01*
X11857500Y-17363452D01*
X11847976Y-17344405D01*
X11847976Y-17268214D01*
X11857500Y-17249167D01*
X11876548Y-17239643D01*
X11914643Y-17239643D01*
X11933690Y-17249167D01*
X11943214Y-17268214D01*
X11943214Y-17287262D01*
X11847976Y-17306310D01*
X12114643Y-17372976D02*
X12114643Y-17172976D01*
X12114643Y-17363452D02*
X12095595Y-17372976D01*
X12057500Y-17372976D01*
X12038452Y-17363452D01*
X12028928Y-17353929D01*
X12019405Y-17334881D01*
X12019405Y-17277738D01*
X12028928Y-17258690D01*
X12038452Y-17249167D01*
X12057500Y-17239643D01*
X12095595Y-17239643D01*
X12114643Y-17249167D01*
X12190833Y-17449167D02*
X12200357Y-17439643D01*
X12219405Y-17411071D01*
X12228928Y-17392024D01*
X12238452Y-17363452D01*
X12247976Y-17315833D01*
X12247976Y-17277738D01*
X12238452Y-17230119D01*
X12228928Y-17201548D01*
X12219405Y-17182500D01*
X12200357Y-17153929D01*
X12190833Y-17144405D01*
X5147500Y-17702500D02*
X5247500Y-17602500D01*
X5147500Y-17502500D01*
X5047500Y-17602500D01*
X5147500Y-17702500D01*
X5590833Y-17559643D02*
X5590833Y-17692976D01*
X5543214Y-17483452D02*
X5495595Y-17626310D01*
X5619405Y-17626310D01*
X5695595Y-17673929D02*
X5705119Y-17683452D01*
X5695595Y-17692976D01*
X5686071Y-17683452D01*
X5695595Y-17673929D01*
X5695595Y-17692976D01*
X5828928Y-17492976D02*
X5847976Y-17492976D01*
X5867024Y-17502500D01*
X5876548Y-17512024D01*
X5886071Y-17531071D01*
X5895595Y-17569167D01*
X5895595Y-17616786D01*
X5886071Y-17654881D01*
X5876548Y-17673929D01*
X5867024Y-17683452D01*
X5847976Y-17692976D01*
X5828928Y-17692976D01*
X5809881Y-17683452D01*
X5800357Y-17673929D01*
X5790833Y-17654881D01*
X5781309Y-17616786D01*
X5781309Y-17569167D01*
X5790833Y-17531071D01*
X5800357Y-17512024D01*
X5809881Y-17502500D01*
X5828928Y-17492976D01*
X6019405Y-17492976D02*
X6038452Y-17492976D01*
X6057500Y-17502500D01*
X6067024Y-17512024D01*
X6076548Y-17531071D01*
X6086071Y-17569167D01*
X6086071Y-17616786D01*
X6076548Y-17654881D01*
X6067024Y-17673929D01*
X6057500Y-17683452D01*
X6038452Y-17692976D01*
X6019405Y-17692976D01*
X6000357Y-17683452D01*
X5990833Y-17673929D01*
X5981309Y-17654881D01*
X5971786Y-17616786D01*
X5971786Y-17569167D01*
X5981309Y-17531071D01*
X5990833Y-17512024D01*
X6000357Y-17502500D01*
X6019405Y-17492976D01*
X6209881Y-17492976D02*
X6228928Y-17492976D01*
X6247976Y-17502500D01*
X6257500Y-17512024D01*
X6267024Y-17531071D01*
X6276548Y-17569167D01*
X6276548Y-17616786D01*
X6267024Y-17654881D01*
X6257500Y-17673929D01*
X6247976Y-17683452D01*
X6228928Y-17692976D01*
X6209881Y-17692976D01*
X6190833Y-17683452D01*
X6181309Y-17673929D01*
X6171786Y-17654881D01*
X6162262Y-17616786D01*
X6162262Y-17569167D01*
X6171786Y-17531071D01*
X6181309Y-17512024D01*
X6190833Y-17502500D01*
X6209881Y-17492976D01*
X6362262Y-17692976D02*
X6362262Y-17559643D01*
X6362262Y-17578690D02*
X6371786Y-17569167D01*
X6390833Y-17559643D01*
X6419405Y-17559643D01*
X6438452Y-17569167D01*
X6447976Y-17588214D01*
X6447976Y-17692976D01*
X6447976Y-17588214D02*
X6457500Y-17569167D01*
X6476548Y-17559643D01*
X6505119Y-17559643D01*
X6524167Y-17569167D01*
X6533690Y-17588214D01*
X6533690Y-17692976D01*
X6628928Y-17692976D02*
X6628928Y-17559643D01*
X6628928Y-17578690D02*
X6638452Y-17569167D01*
X6657500Y-17559643D01*
X6686071Y-17559643D01*
X6705119Y-17569167D01*
X6714643Y-17588214D01*
X6714643Y-17692976D01*
X6714643Y-17588214D02*
X6724167Y-17569167D01*
X6743214Y-17559643D01*
X6771786Y-17559643D01*
X6790833Y-17569167D01*
X6800357Y-17588214D01*
X6800357Y-17692976D01*
X7190833Y-17483452D02*
X7019405Y-17740595D01*
X7447976Y-17492976D02*
X7467024Y-17492976D01*
X7486071Y-17502500D01*
X7495595Y-17512024D01*
X7505119Y-17531071D01*
X7514643Y-17569167D01*
X7514643Y-17616786D01*
X7505119Y-17654881D01*
X7495595Y-17673929D01*
X7486071Y-17683452D01*
X7467024Y-17692976D01*
X7447976Y-17692976D01*
X7428928Y-17683452D01*
X7419405Y-17673929D01*
X7409881Y-17654881D01*
X7400357Y-17616786D01*
X7400357Y-17569167D01*
X7409881Y-17531071D01*
X7419405Y-17512024D01*
X7428928Y-17502500D01*
X7447976Y-17492976D01*
X7600357Y-17673929D02*
X7609881Y-17683452D01*
X7600357Y-17692976D01*
X7590833Y-17683452D01*
X7600357Y-17673929D01*
X7600357Y-17692976D01*
X7800357Y-17692976D02*
X7686071Y-17692976D01*
X7743214Y-17692976D02*
X7743214Y-17492976D01*
X7724167Y-17521548D01*
X7705119Y-17540595D01*
X7686071Y-17550119D01*
X7981309Y-17492976D02*
X7886071Y-17492976D01*
X7876548Y-17588214D01*
X7886071Y-17578690D01*
X7905119Y-17569167D01*
X7952738Y-17569167D01*
X7971786Y-17578690D01*
X7981309Y-17588214D01*
X7990833Y-17607262D01*
X7990833Y-17654881D01*
X7981309Y-17673929D01*
X7971786Y-17683452D01*
X7952738Y-17692976D01*
X7905119Y-17692976D01*
X7886071Y-17683452D01*
X7876548Y-17673929D01*
X8057500Y-17492976D02*
X8190833Y-17492976D01*
X8105119Y-17692976D01*
X8362262Y-17492976D02*
X8267024Y-17492976D01*
X8257500Y-17588214D01*
X8267024Y-17578690D01*
X8286071Y-17569167D01*
X8333690Y-17569167D01*
X8352738Y-17578690D01*
X8362262Y-17588214D01*
X8371786Y-17607262D01*
X8371786Y-17654881D01*
X8362262Y-17673929D01*
X8352738Y-17683452D01*
X8333690Y-17692976D01*
X8286071Y-17692976D01*
X8267024Y-17683452D01*
X8257500Y-17673929D01*
X8447976Y-17492976D02*
X8447976Y-17531071D01*
X8524167Y-17492976D02*
X8524167Y-17531071D01*
X8819405Y-17769167D02*
X8809881Y-17759643D01*
X8790833Y-17731071D01*
X8781310Y-17712024D01*
X8771786Y-17683452D01*
X8762262Y-17635833D01*
X8762262Y-17597738D01*
X8771786Y-17550119D01*
X8781310Y-17521548D01*
X8790833Y-17502500D01*
X8809881Y-17473929D01*
X8819405Y-17464405D01*
X9000357Y-17692976D02*
X8886071Y-17692976D01*
X8943214Y-17692976D02*
X8943214Y-17492976D01*
X8924167Y-17521548D01*
X8905119Y-17540595D01*
X8886071Y-17550119D01*
X9124167Y-17492976D02*
X9143214Y-17492976D01*
X9162262Y-17502500D01*
X9171786Y-17512024D01*
X9181310Y-17531071D01*
X9190833Y-17569167D01*
X9190833Y-17616786D01*
X9181310Y-17654881D01*
X9171786Y-17673929D01*
X9162262Y-17683452D01*
X9143214Y-17692976D01*
X9124167Y-17692976D01*
X9105119Y-17683452D01*
X9095595Y-17673929D01*
X9086071Y-17654881D01*
X9076548Y-17616786D01*
X9076548Y-17569167D01*
X9086071Y-17531071D01*
X9095595Y-17512024D01*
X9105119Y-17502500D01*
X9124167Y-17492976D01*
X9314643Y-17492976D02*
X9333690Y-17492976D01*
X9352738Y-17502500D01*
X9362262Y-17512024D01*
X9371786Y-17531071D01*
X9381310Y-17569167D01*
X9381310Y-17616786D01*
X9371786Y-17654881D01*
X9362262Y-17673929D01*
X9352738Y-17683452D01*
X9333690Y-17692976D01*
X9314643Y-17692976D01*
X9295595Y-17683452D01*
X9286071Y-17673929D01*
X9276548Y-17654881D01*
X9267024Y-17616786D01*
X9267024Y-17569167D01*
X9276548Y-17531071D01*
X9286071Y-17512024D01*
X9295595Y-17502500D01*
X9314643Y-17492976D01*
X9619405Y-17692976D02*
X9619405Y-17492976D01*
X9705119Y-17692976D02*
X9705119Y-17588214D01*
X9695595Y-17569167D01*
X9676548Y-17559643D01*
X9647976Y-17559643D01*
X9628929Y-17569167D01*
X9619405Y-17578690D01*
X9828929Y-17692976D02*
X9809881Y-17683452D01*
X9800357Y-17673929D01*
X9790833Y-17654881D01*
X9790833Y-17597738D01*
X9800357Y-17578690D01*
X9809881Y-17569167D01*
X9828929Y-17559643D01*
X9857500Y-17559643D01*
X9876548Y-17569167D01*
X9886071Y-17578690D01*
X9895595Y-17597738D01*
X9895595Y-17654881D01*
X9886071Y-17673929D01*
X9876548Y-17683452D01*
X9857500Y-17692976D01*
X9828929Y-17692976D01*
X10009881Y-17692976D02*
X9990833Y-17683452D01*
X9981310Y-17664405D01*
X9981310Y-17492976D01*
X10162262Y-17683452D02*
X10143214Y-17692976D01*
X10105119Y-17692976D01*
X10086071Y-17683452D01*
X10076548Y-17664405D01*
X10076548Y-17588214D01*
X10086071Y-17569167D01*
X10105119Y-17559643D01*
X10143214Y-17559643D01*
X10162262Y-17569167D01*
X10171786Y-17588214D01*
X10171786Y-17607262D01*
X10076548Y-17626310D01*
X10247976Y-17683452D02*
X10267024Y-17692976D01*
X10305119Y-17692976D01*
X10324167Y-17683452D01*
X10333690Y-17664405D01*
X10333690Y-17654881D01*
X10324167Y-17635833D01*
X10305119Y-17626310D01*
X10276548Y-17626310D01*
X10257500Y-17616786D01*
X10247976Y-17597738D01*
X10247976Y-17588214D01*
X10257500Y-17569167D01*
X10276548Y-17559643D01*
X10305119Y-17559643D01*
X10324167Y-17569167D01*
X10400357Y-17769167D02*
X10409881Y-17759643D01*
X10428929Y-17731071D01*
X10438452Y-17712024D01*
X10447976Y-17683452D01*
X10457500Y-17635833D01*
X10457500Y-17597738D01*
X10447976Y-17550119D01*
X10438452Y-17521548D01*
X10428929Y-17502500D01*
X10409881Y-17473929D01*
X10400357Y-17464405D01*
X10762262Y-17769167D02*
X10752738Y-17759643D01*
X10733690Y-17731071D01*
X10724167Y-17712024D01*
X10714643Y-17683452D01*
X10705119Y-17635833D01*
X10705119Y-17597738D01*
X10714643Y-17550119D01*
X10724167Y-17521548D01*
X10733690Y-17502500D01*
X10752738Y-17473929D01*
X10762262Y-17464405D01*
X10838452Y-17559643D02*
X10838452Y-17692976D01*
X10838452Y-17578690D02*
X10847976Y-17569167D01*
X10867024Y-17559643D01*
X10895595Y-17559643D01*
X10914643Y-17569167D01*
X10924167Y-17588214D01*
X10924167Y-17692976D01*
X11047976Y-17692976D02*
X11028929Y-17683452D01*
X11019405Y-17673929D01*
X11009881Y-17654881D01*
X11009881Y-17597738D01*
X11019405Y-17578690D01*
X11028929Y-17569167D01*
X11047976Y-17559643D01*
X11076548Y-17559643D01*
X11095595Y-17569167D01*
X11105119Y-17578690D01*
X11114643Y-17597738D01*
X11114643Y-17654881D01*
X11105119Y-17673929D01*
X11095595Y-17683452D01*
X11076548Y-17692976D01*
X11047976Y-17692976D01*
X11171786Y-17559643D02*
X11247976Y-17559643D01*
X11200357Y-17492976D02*
X11200357Y-17664405D01*
X11209881Y-17683452D01*
X11228928Y-17692976D01*
X11247976Y-17692976D01*
X11467024Y-17559643D02*
X11467024Y-17759643D01*
X11467024Y-17569167D02*
X11486071Y-17559643D01*
X11524167Y-17559643D01*
X11543214Y-17569167D01*
X11552738Y-17578690D01*
X11562262Y-17597738D01*
X11562262Y-17654881D01*
X11552738Y-17673929D01*
X11543214Y-17683452D01*
X11524167Y-17692976D01*
X11486071Y-17692976D01*
X11467024Y-17683452D01*
X11676548Y-17692976D02*
X11657500Y-17683452D01*
X11647976Y-17664405D01*
X11647976Y-17492976D01*
X11838452Y-17692976D02*
X11838452Y-17588214D01*
X11828928Y-17569167D01*
X11809881Y-17559643D01*
X11771786Y-17559643D01*
X11752738Y-17569167D01*
X11838452Y-17683452D02*
X11819405Y-17692976D01*
X11771786Y-17692976D01*
X11752738Y-17683452D01*
X11743214Y-17664405D01*
X11743214Y-17645357D01*
X11752738Y-17626310D01*
X11771786Y-17616786D01*
X11819405Y-17616786D01*
X11838452Y-17607262D01*
X11905119Y-17559643D02*
X11981309Y-17559643D01*
X11933690Y-17492976D02*
X11933690Y-17664405D01*
X11943214Y-17683452D01*
X11962262Y-17692976D01*
X11981309Y-17692976D01*
X12124167Y-17683452D02*
X12105119Y-17692976D01*
X12067024Y-17692976D01*
X12047976Y-17683452D01*
X12038452Y-17664405D01*
X12038452Y-17588214D01*
X12047976Y-17569167D01*
X12067024Y-17559643D01*
X12105119Y-17559643D01*
X12124167Y-17569167D01*
X12133690Y-17588214D01*
X12133690Y-17607262D01*
X12038452Y-17626310D01*
X12305119Y-17692976D02*
X12305119Y-17492976D01*
X12305119Y-17683452D02*
X12286071Y-17692976D01*
X12247976Y-17692976D01*
X12228928Y-17683452D01*
X12219405Y-17673929D01*
X12209881Y-17654881D01*
X12209881Y-17597738D01*
X12219405Y-17578690D01*
X12228928Y-17569167D01*
X12247976Y-17559643D01*
X12286071Y-17559643D01*
X12305119Y-17569167D01*
X12381309Y-17769167D02*
X12390833Y-17759643D01*
X12409881Y-17731071D01*
X12419405Y-17712024D01*
X12428928Y-17683452D01*
X12438452Y-17635833D01*
X12438452Y-17597738D01*
X12428928Y-17550119D01*
X12419405Y-17521548D01*
X12409881Y-17502500D01*
X12390833Y-17473929D01*
X12381309Y-17464405D01*
M02*
