  0
SECTION
  2
HEADER
  9
$ANGBASE
  50
0.0
  9
$ANGDIR
  70
1
  9
$MEASUREMENT
  70
1
  0
ENDSEC
  0
SECTION
  2
TABLES
  0
TABLE
  2
LTYPE
  70
4
  0
LTYPE
  5
40F
  2
CONTINUOUS
  70
0
  3
Solid line
  72
65
  73
0
  40
0.0
  0
LTYPE
  5
410
  2
DASHDOT
 70
0
  3
Dash Dot ____ _ ____ _
 72
65
 73
4
 40
2.0
 49
1.25
 49
-0.25
 49
0.25
 49
-0.25
  0
LTYPE
  5
411
  2
DASHED
 70
0
  3
Dashed __ __ __ __ __
 72
65
 73
2
 40
0.75
 49
0.5
 49
-0.25
  0
LTYPE
  5
43B
  2
DOTTED
 70
0
  3
Dotted .  .  .  .
 72
65
 73
2
 40
0.2
 49
0.0
 49
-0.2
  0
ENDTAB
  0
TABLE
  2
STYLE
  70
4
  0
STYLE
  2
KICAD
  70
0
  40
0
  41
1
  42
1
  50
0
  71
0
  3
isocp.shx
  0
STYLE
  2
KICADB
  70
0
  40
0
  41
1
  42
1
  50
0
  71
0
  3
isocp.shx
  0
STYLE
  2
KICADI
  70
0
  40
0
  41
1
  42
1
  50
15
  71
0
  3
isocp.shx
  0
STYLE
  2
KICADBI
  70
0
  40
0
  41
1
  42
1
  50
15
  71
0
  3
isocp.shx
  0
ENDTAB
  0
TABLE
  2
LAYER
  70
1
  0
LAYER
  2
BLACK
  70
0
  62
7
  6
CONTINUOUS
  0
ENDTAB
  0
ENDSEC
  0
SECTION
  2
ENTITIES
0
LINE
8
BLACK
6
CONTINUOUS
10
28.6243
20
-88.408
11
28.5972
21
-88.3852
0
LINE
8
BLACK
6
CONTINUOUS
10
28.5972
20
-88.3852
11
28.2295
21
-88.3691
0
LINE
8
BLACK
6
CONTINUOUS
10
28.2295
20
-88.3691
11
27.8121
21
-88.3142
0
LINE
8
BLACK
6
CONTINUOUS
10
27.8121
20
-88.3142
11
27.4012
21
-88.2231
0
LINE
8
BLACK
6
CONTINUOUS
10
27.4012
20
-88.2231
11
26.9998
21
-88.0965
0
LINE
8
BLACK
6
CONTINUOUS
10
26.9998
20
-88.0965
11
26.6109
21
-87.9354
0
LINE
8
BLACK
6
CONTINUOUS
10
26.6109
20
-87.9354
11
26.2375
21
-87.7411
0
LINE
8
BLACK
6
CONTINUOUS
10
26.2375
20
-87.7411
11
25.8825
21
-87.5149
0
LINE
8
BLACK
6
CONTINUOUS
10
25.8825
20
-87.5149
11
25.5485
21
-87.2587
0
LINE
8
BLACK
6
CONTINUOUS
10
25.5485
20
-87.2587
11
25.2382
21
-86.9743
0
LINE
8
BLACK
6
CONTINUOUS
10
25.2382
20
-86.9743
11
24.9538
21
-86.6639
0
LINE
8
BLACK
6
CONTINUOUS
10
24.9538
20
-86.6639
11
24.6976
21
-86.33
0
LINE
8
BLACK
6
CONTINUOUS
10
24.6976
20
-86.33
11
24.4714
21
-85.975
0
LINE
8
BLACK
6
CONTINUOUS
10
24.4714
20
-85.975
11
24.2771
21
-85.6016
0
LINE
8
BLACK
6
CONTINUOUS
10
24.2771
20
-85.6016
11
24.116
21
-85.2127
0
LINE
8
BLACK
6
CONTINUOUS
10
24.116
20
-85.2127
11
23.9894
21
-84.8113
0
LINE
8
BLACK
6
CONTINUOUS
10
23.9894
20
-84.8113
11
23.8983
21
-84.4004
0
LINE
8
BLACK
6
CONTINUOUS
10
23.8983
20
-84.4004
11
23.8434
21
-83.983
0
LINE
8
BLACK
6
CONTINUOUS
10
23.8434
20
-83.983
11
23.8274
21
-83.6164
0
LINE
8
BLACK
6
CONTINUOUS
10
23.8274
20
-83.6164
11
23.8175
21
-83.6107
0
LINE
8
BLACK
6
CONTINUOUS
10
23.8175
20
-83.6107
11
23.8
21
-83.5625
0
LINE
8
BLACK
6
CONTINUOUS
10
23.8
20
-83.5625
11
23.8
21
-66.85
0
LINE
8
BLACK
6
CONTINUOUS
10
23.8
20
-66.85
11
23.8045
21
-66.8243
0
LINE
8
BLACK
6
CONTINUOUS
10
23.8045
20
-66.8243
11
23.8273
21
-66.7972
0
LINE
8
BLACK
6
CONTINUOUS
10
23.8273
20
-66.7972
11
23.8434
21
-66.4295
0
LINE
8
BLACK
6
CONTINUOUS
10
23.8434
20
-66.4295
11
23.8983
21
-66.0121
0
LINE
8
BLACK
6
CONTINUOUS
10
23.8983
20
-66.0121
11
23.9894
21
-65.6012
0
LINE
8
BLACK
6
CONTINUOUS
10
23.9894
20
-65.6012
11
24.116
21
-65.1998
0
LINE
8
BLACK
6
CONTINUOUS
10
24.116
20
-65.1998
11
24.2771
21
-64.8109
0
LINE
8
BLACK
6
CONTINUOUS
10
24.2771
20
-64.8109
11
24.4714
21
-64.4375
0
LINE
8
BLACK
6
CONTINUOUS
10
24.4714
20
-64.4375
11
24.6976
21
-64.0825
0
LINE
8
BLACK
6
CONTINUOUS
10
24.6976
20
-64.0825
11
24.9538
21
-63.7485
0
LINE
8
BLACK
6
CONTINUOUS
10
24.9538
20
-63.7485
11
25.2382
21
-63.4382
0
LINE
8
BLACK
6
CONTINUOUS
10
25.2382
20
-63.4382
11
25.5485
21
-63.1538
0
LINE
8
BLACK
6
CONTINUOUS
10
25.5485
20
-63.1538
11
25.8825
21
-62.8976
0
LINE
8
BLACK
6
CONTINUOUS
10
25.8825
20
-62.8976
11
26.2375
21
-62.6714
0
LINE
8
BLACK
6
CONTINUOUS
10
26.2375
20
-62.6714
11
26.6109
21
-62.4771
0
LINE
8
BLACK
6
CONTINUOUS
10
26.6109
20
-62.4771
11
26.9998
21
-62.316
0
LINE
8
BLACK
6
CONTINUOUS
10
26.9998
20
-62.316
11
27.4012
21
-62.1894
0
LINE
8
BLACK
6
CONTINUOUS
10
27.4012
20
-62.1894
11
27.8121
21
-62.0983
0
LINE
8
BLACK
6
CONTINUOUS
10
27.8121
20
-62.0983
11
28.2295
21
-62.0434
0
LINE
8
BLACK
6
CONTINUOUS
10
28.2295
20
-62.0434
11
28.5961
21
-62.0274
0
LINE
8
BLACK
6
CONTINUOUS
10
28.5961
20
-62.0274
11
28.6018
21
-62.0175
0
LINE
8
BLACK
6
CONTINUOUS
10
28.6018
20
-62.0175
11
28.65
21
-62
0
LINE
8
BLACK
6
CONTINUOUS
10
28.65
20
-62
11
243.525
21
-62
0
LINE
8
BLACK
6
CONTINUOUS
10
243.525
20
-62
11
243.948
21
-62.0185
0
LINE
8
BLACK
6
CONTINUOUS
10
243.948
20
-62.0185
11
244.367
21
-62.0737
0
LINE
8
BLACK
6
CONTINUOUS
10
244.367
20
-62.0737
11
244.78
21
-62.1653
0
LINE
8
BLACK
6
CONTINUOUS
10
244.78
20
-62.1653
11
245.184
21
-62.2925
0
LINE
8
BLACK
6
CONTINUOUS
10
245.184
20
-62.2925
11
245.575
21
-62.4544
0
LINE
8
BLACK
6
CONTINUOUS
10
245.575
20
-62.4544
11
245.95
21
-62.6498
0
LINE
8
BLACK
6
CONTINUOUS
10
245.95
20
-62.6498
11
246.307
21
-62.8771
0
LINE
8
BLACK
6
CONTINUOUS
10
246.307
20
-62.8771
11
246.643
21
-63.1347
0
LINE
8
BLACK
6
CONTINUOUS
10
246.643
20
-63.1347
11
246.954
21
-63.4205
0
LINE
8
BLACK
6
CONTINUOUS
10
246.954
20
-63.4205
11
247.24
21
-63.7325
0
LINE
8
BLACK
6
CONTINUOUS
10
247.24
20
-63.7325
11
247.498
21
-64.0682
0
LINE
8
BLACK
6
CONTINUOUS
10
247.498
20
-64.0682
11
247.725
21
-64.425
0
LINE
8
BLACK
6
CONTINUOUS
10
247.725
20
-64.425
11
247.921
21
-64.8003
0
LINE
8
BLACK
6
CONTINUOUS
10
247.921
20
-64.8003
11
248.083
21
-65.1912
0
LINE
8
BLACK
6
CONTINUOUS
10
248.083
20
-65.1912
11
248.21
21
-65.5947
0
LINE
8
BLACK
6
CONTINUOUS
10
248.21
20
-65.5947
11
248.301
21
-66.0078
0
LINE
8
BLACK
6
CONTINUOUS
10
248.301
20
-66.0078
11
248.357
21
-66.4273
0
LINE
8
BLACK
6
CONTINUOUS
10
248.357
20
-66.4273
11
248.375
21
-66.85
0
LINE
8
BLACK
6
CONTINUOUS
10
248.375
20
-66.85
11
248.375
21
-83.5625
0
LINE
8
BLACK
6
CONTINUOUS
10
248.375
20
-83.5625
11
248.357
21
-83.9852
0
LINE
8
BLACK
6
CONTINUOUS
10
248.357
20
-83.9852
11
248.301
21
-84.4047
0
LINE
8
BLACK
6
CONTINUOUS
10
248.301
20
-84.4047
11
248.21
21
-84.8178
0
LINE
8
BLACK
6
CONTINUOUS
10
248.21
20
-84.8178
11
248.083
21
-85.2213
0
LINE
8
BLACK
6
CONTINUOUS
10
248.083
20
-85.2213
11
247.921
21
-85.6122
0
LINE
8
BLACK
6
CONTINUOUS
10
247.921
20
-85.6122
11
247.725
21
-85.9875
0
LINE
8
BLACK
6
CONTINUOUS
10
247.725
20
-85.9875
11
247.498
21
-86.3443
0
LINE
8
BLACK
6
CONTINUOUS
10
247.498
20
-86.3443
11
247.24
21
-86.68
0
LINE
8
BLACK
6
CONTINUOUS
10
247.24
20
-86.68
11
246.954
21
-86.992
0
LINE
8
BLACK
6
CONTINUOUS
10
246.954
20
-86.992
11
246.643
21
-87.2778
0
LINE
8
BLACK
6
CONTINUOUS
10
246.643
20
-87.2778
11
246.307
21
-87.5354
0
LINE
8
BLACK
6
CONTINUOUS
10
246.307
20
-87.5354
11
245.95
21
-87.7627
0
LINE
8
BLACK
6
CONTINUOUS
10
245.95
20
-87.7627
11
245.575
21
-87.9581
0
LINE
8
BLACK
6
CONTINUOUS
10
245.575
20
-87.9581
11
245.184
21
-88.12
0
LINE
8
BLACK
6
CONTINUOUS
10
245.184
20
-88.12
11
244.78
21
-88.2472
0
LINE
8
BLACK
6
CONTINUOUS
10
244.78
20
-88.2472
11
244.367
21
-88.3388
0
LINE
8
BLACK
6
CONTINUOUS
10
244.367
20
-88.3388
11
243.948
21
-88.394
0
LINE
8
BLACK
6
CONTINUOUS
10
243.948
20
-88.394
11
243.525
21
-88.4125
0
LINE
8
BLACK
6
CONTINUOUS
10
243.525
20
-88.4125
11
28.65
21
-88.4125
0
LINE
8
BLACK
6
CONTINUOUS
10
28.65
20
-88.4125
11
28.6243
21
-88.408
0
LINE
8
BLACK
6
CONTINUOUS
10
28.6243
20
-62.1455
11
28.5973
21
-62.1228
0
LINE
8
BLACK
6
CONTINUOUS
10
28.5973
20
-62.1228
11
28.2378
21
-62.1385
0
LINE
8
BLACK
6
CONTINUOUS
10
28.2378
20
-62.1385
11
27.8287
21
-62.1924
0
LINE
8
BLACK
6
CONTINUOUS
10
27.8287
20
-62.1924
11
27.4259
21
-62.2817
0
LINE
8
BLACK
6
CONTINUOUS
10
27.4259
20
-62.2817
11
27.0324
21
-62.4057
0
LINE
8
BLACK
6
CONTINUOUS
10
27.0324
20
-62.4057
11
26.6512
21
-62.5636
0
LINE
8
BLACK
6
CONTINUOUS
10
26.6512
20
-62.5636
11
26.2852
21
-62.7541
0
LINE
8
BLACK
6
CONTINUOUS
10
26.2852
20
-62.7541
11
25.9373
21
-62.9758
0
LINE
8
BLACK
6
CONTINUOUS
10
25.9373
20
-62.9758
11
25.6099
21
-63.227
0
LINE
8
BLACK
6
CONTINUOUS
10
25.6099
20
-63.227
11
25.3057
21
-63.5057
0
LINE
8
BLACK
6
CONTINUOUS
10
25.3057
20
-63.5057
11
25.027
21
-63.8099
0
LINE
8
BLACK
6
CONTINUOUS
10
25.027
20
-63.8099
11
24.7758
21
-64.1373
0
LINE
8
BLACK
6
CONTINUOUS
10
24.7758
20
-64.1373
11
24.5541
21
-64.4852
0
LINE
8
BLACK
6
CONTINUOUS
10
24.5541
20
-64.4852
11
24.3636
21
-64.8512
0
LINE
8
BLACK
6
CONTINUOUS
10
24.3636
20
-64.8512
11
24.2057
21
-65.2324
0
LINE
8
BLACK
6
CONTINUOUS
10
24.2057
20
-65.2324
11
24.0817
21
-65.6259
0
LINE
8
BLACK
6
CONTINUOUS
10
24.0817
20
-65.6259
11
23.9924
21
-66.0287
0
LINE
8
BLACK
6
CONTINUOUS
10
23.9924
20
-66.0287
11
23.9385
21
-66.4378
0
LINE
8
BLACK
6
CONTINUOUS
10
23.9385
20
-66.4378
11
23.9228
21
-66.7962
0
LINE
8
BLACK
6
CONTINUOUS
10
23.9228
20
-66.7962
11
23.9325
21
-66.8018
0
LINE
8
BLACK
6
CONTINUOUS
10
23.9325
20
-66.8018
11
23.95
21
-66.85
0
LINE
8
BLACK
6
CONTINUOUS
10
23.95
20
-66.85
11
23.95
21
-83.5625
0
LINE
8
BLACK
6
CONTINUOUS
10
23.95
20
-83.5625
11
23.9455
21
-83.5882
0
LINE
8
BLACK
6
CONTINUOUS
10
23.9455
20
-83.5882
11
23.9228
21
-83.6152
0
LINE
8
BLACK
6
CONTINUOUS
10
23.9228
20
-83.6152
11
23.9385
21
-83.9747
0
LINE
8
BLACK
6
CONTINUOUS
10
23.9385
20
-83.9747
11
23.9924
21
-84.3838
0
LINE
8
BLACK
6
CONTINUOUS
10
23.9924
20
-84.3838
11
24.0817
21
-84.7866
0
LINE
8
BLACK
6
CONTINUOUS
10
24.0817
20
-84.7866
11
24.2057
21
-85.1801
0
LINE
8
BLACK
6
CONTINUOUS
10
24.2057
20
-85.1801
11
24.3636
21
-85.5613
0
LINE
8
BLACK
6
CONTINUOUS
10
24.3636
20
-85.5613
11
24.5541
21
-85.9273
0
LINE
8
BLACK
6
CONTINUOUS
10
24.5541
20
-85.9273
11
24.7758
21
-86.2752
0
LINE
8
BLACK
6
CONTINUOUS
10
24.7758
20
-86.2752
11
25.027
21
-86.6026
0
LINE
8
BLACK
6
CONTINUOUS
10
25.027
20
-86.6026
11
25.3057
21
-86.9068
0
LINE
8
BLACK
6
CONTINUOUS
10
25.3057
20
-86.9068
11
25.6099
21
-87.1855
0
LINE
8
BLACK
6
CONTINUOUS
10
25.6099
20
-87.1855
11
25.9373
21
-87.4367
0
LINE
8
BLACK
6
CONTINUOUS
10
25.9373
20
-87.4367
11
26.2852
21
-87.6584
0
LINE
8
BLACK
6
CONTINUOUS
10
26.2852
20
-87.6584
11
26.6512
21
-87.8489
0
LINE
8
BLACK
6
CONTINUOUS
10
26.6512
20
-87.8489
11
27.0324
21
-88.0068
0
LINE
8
BLACK
6
CONTINUOUS
10
27.0324
20
-88.0068
11
27.4259
21
-88.1308
0
LINE
8
BLACK
6
CONTINUOUS
10
27.4259
20
-88.1308
11
27.8287
21
-88.2201
0
LINE
8
BLACK
6
CONTINUOUS
10
27.8287
20
-88.2201
11
28.2378
21
-88.274
0
LINE
8
BLACK
6
CONTINUOUS
10
28.2378
20
-88.274
11
28.5962
21
-88.2897
0
LINE
8
BLACK
6
CONTINUOUS
10
28.5962
20
-88.2897
11
28.6018
21
-88.28
0
LINE
8
BLACK
6
CONTINUOUS
10
28.6018
20
-88.28
11
28.65
21
-88.2625
0
LINE
8
BLACK
6
CONTINUOUS
10
28.65
20
-88.2625
11
243.525
21
-88.2625
0
LINE
8
BLACK
6
CONTINUOUS
10
243.525
20
-88.2625
11
243.545
21
-88.2661
0
LINE
8
BLACK
6
CONTINUOUS
10
243.545
20
-88.2661
11
243.935
21
-88.2491
0
LINE
8
BLACK
6
CONTINUOUS
10
243.935
20
-88.2491
11
244.342
21
-88.1955
0
LINE
8
BLACK
6
CONTINUOUS
10
244.342
20
-88.1955
11
244.743
21
-88.1067
0
LINE
8
BLACK
6
CONTINUOUS
10
244.743
20
-88.1067
11
245.134
21
-87.9833
0
LINE
8
BLACK
6
CONTINUOUS
10
245.134
20
-87.9833
11
245.513
21
-87.8262
0
LINE
8
BLACK
6
CONTINUOUS
10
245.513
20
-87.8262
11
245.877
21
-87.6367
0
LINE
8
BLACK
6
CONTINUOUS
10
245.877
20
-87.6367
11
246.223
21
-87.4162
0
LINE
8
BLACK
6
CONTINUOUS
10
246.223
20
-87.4162
11
246.549
21
-87.1663
0
LINE
8
BLACK
6
CONTINUOUS
10
246.549
20
-87.1663
11
246.852
21
-86.8891
0
LINE
8
BLACK
6
CONTINUOUS
10
246.852
20
-86.8891
11
247.129
21
-86.5865
0
LINE
8
BLACK
6
CONTINUOUS
10
247.129
20
-86.5865
11
247.379
21
-86.2609
0
LINE
8
BLACK
6
CONTINUOUS
10
247.379
20
-86.2609
11
247.599
21
-85.9147
0
LINE
8
BLACK
6
CONTINUOUS
10
247.599
20
-85.9147
11
247.789
21
-85.5507
0
LINE
8
BLACK
6
CONTINUOUS
10
247.789
20
-85.5507
11
247.946
21
-85.1715
0
LINE
8
BLACK
6
CONTINUOUS
10
247.946
20
-85.1715
11
248.069
21
-84.7801
0
LINE
8
BLACK
6
CONTINUOUS
10
248.069
20
-84.7801
11
248.158
21
-84.3794
0
LINE
8
BLACK
6
CONTINUOUS
10
248.158
20
-84.3794
11
248.212
21
-83.9725
0
LINE
8
BLACK
6
CONTINUOUS
10
248.212
20
-83.9725
11
248.229
21
-83.5746
0
LINE
8
BLACK
6
CONTINUOUS
10
248.229
20
-83.5746
11
248.225
21
-83.5625
0
LINE
8
BLACK
6
CONTINUOUS
10
248.225
20
-83.5625
11
248.225
21
-66.85
0
LINE
8
BLACK
6
CONTINUOUS
10
248.225
20
-66.85
11
248.229
21
-66.8296
0
LINE
8
BLACK
6
CONTINUOUS
10
248.229
20
-66.8296
11
248.212
21
-66.44
0
LINE
8
BLACK
6
CONTINUOUS
10
248.212
20
-66.44
11
248.158
21
-66.0331
0
LINE
8
BLACK
6
CONTINUOUS
10
248.158
20
-66.0331
11
248.069
21
-65.6324
0
LINE
8
BLACK
6
CONTINUOUS
10
248.069
20
-65.6324
11
247.946
21
-65.241
0
LINE
8
BLACK
6
CONTINUOUS
10
247.946
20
-65.241
11
247.789
21
-64.8618
0
LINE
8
BLACK
6
CONTINUOUS
10
247.789
20
-64.8618
11
247.599
21
-64.4978
0
LINE
8
BLACK
6
CONTINUOUS
10
247.599
20
-64.4978
11
247.379
21
-64.1516
0
LINE
8
BLACK
6
CONTINUOUS
10
247.379
20
-64.1516
11
247.129
21
-63.826
0
LINE
8
BLACK
6
CONTINUOUS
10
247.129
20
-63.826
11
246.852
21
-63.5234
0
LINE
8
BLACK
6
CONTINUOUS
10
246.852
20
-63.5234
11
246.549
21
-63.2462
0
LINE
8
BLACK
6
CONTINUOUS
10
246.549
20
-63.2462
11
246.223
21
-62.9963
0
LINE
8
BLACK
6
CONTINUOUS
10
246.223
20
-62.9963
11
245.877
21
-62.7758
0
LINE
8
BLACK
6
CONTINUOUS
10
245.877
20
-62.7758
11
245.513
21
-62.5863
0
LINE
8
BLACK
6
CONTINUOUS
10
245.513
20
-62.5863
11
245.134
21
-62.4292
0
LINE
8
BLACK
6
CONTINUOUS
10
245.134
20
-62.4292
11
244.743
21
-62.3058
0
LINE
8
BLACK
6
CONTINUOUS
10
244.743
20
-62.3058
11
244.342
21
-62.217
0
LINE
8
BLACK
6
CONTINUOUS
10
244.342
20
-62.217
11
243.935
21
-62.1634
0
LINE
8
BLACK
6
CONTINUOUS
10
243.935
20
-62.1634
11
243.537
21
-62.1461
0
LINE
8
BLACK
6
CONTINUOUS
10
243.537
20
-62.1461
11
243.525
21
-62.15
0
LINE
8
BLACK
6
CONTINUOUS
10
243.525
20
-62.15
11
28.65
21
-62.15
0
LINE
8
BLACK
6
CONTINUOUS
10
28.65
20
-62.15
11
28.6243
21
-62.1455
0
LINE
8
BLACK
6
CONTINUOUS
10
116.017
20
-80.6377
11
116.111
21
-80.359
0
LINE
8
BLACK
6
CONTINUOUS
10
116.111
20
-80.359
11
116.241
21
-80.095
0
LINE
8
BLACK
6
CONTINUOUS
10
116.241
20
-80.095
11
116.405
21
-79.8503
0
LINE
8
BLACK
6
CONTINUOUS
10
116.405
20
-79.8503
11
116.599
21
-79.629
0
LINE
8
BLACK
6
CONTINUOUS
10
116.599
20
-79.629
11
116.82
21
-79.435
0
LINE
8
BLACK
6
CONTINUOUS
10
116.82
20
-79.435
11
117.065
21
-79.2714
0
LINE
8
BLACK
6
CONTINUOUS
10
117.065
20
-79.2714
11
117.329
21
-79.1413
0
LINE
8
BLACK
6
CONTINUOUS
10
117.329
20
-79.1413
11
117.608
21
-79.0467
0
LINE
8
BLACK
6
CONTINUOUS
10
117.608
20
-79.0467
11
117.896
21
-78.9892
0
LINE
8
BLACK
6
CONTINUOUS
10
117.896
20
-78.9892
11
118.19
21
-78.97
0
LINE
8
BLACK
6
CONTINUOUS
10
118.19
20
-78.97
11
118.484
21
-78.9892
0
LINE
8
BLACK
6
CONTINUOUS
10
118.484
20
-78.9892
11
118.772
21
-79.0467
0
LINE
8
BLACK
6
CONTINUOUS
10
118.772
20
-79.0467
11
119.051
21
-79.1413
0
LINE
8
BLACK
6
CONTINUOUS
10
119.051
20
-79.1413
11
119.315
21
-79.2714
0
LINE
8
BLACK
6
CONTINUOUS
10
119.315
20
-79.2714
11
119.56
21
-79.435
0
LINE
8
BLACK
6
CONTINUOUS
10
119.56
20
-79.435
11
119.781
21
-79.629
0
LINE
8
BLACK
6
CONTINUOUS
10
119.781
20
-79.629
11
119.975
21
-79.8503
0
LINE
8
BLACK
6
CONTINUOUS
10
119.975
20
-79.8503
11
120.139
21
-80.095
0
LINE
8
BLACK
6
CONTINUOUS
10
120.139
20
-80.095
11
120.269
21
-80.359
0
LINE
8
BLACK
6
CONTINUOUS
10
120.269
20
-80.359
11
120.363
21
-80.6377
0
LINE
8
BLACK
6
CONTINUOUS
10
120.363
20
-80.6377
11
120.421
21
-80.9263
0
LINE
8
BLACK
6
CONTINUOUS
10
120.421
20
-80.9263
11
120.44
21
-81.22
0
LINE
8
BLACK
6
CONTINUOUS
10
120.44
20
-81.22
11
120.421
21
-81.5137
0
LINE
8
BLACK
6
CONTINUOUS
10
120.421
20
-81.5137
11
120.363
21
-81.8023
0
LINE
8
BLACK
6
CONTINUOUS
10
120.363
20
-81.8023
11
120.269
21
-82.081
0
LINE
8
BLACK
6
CONTINUOUS
10
120.269
20
-82.081
11
120.139
21
-82.345
0
LINE
8
BLACK
6
CONTINUOUS
10
120.139
20
-82.345
11
119.975
21
-82.5897
0
LINE
8
BLACK
6
CONTINUOUS
10
119.975
20
-82.5897
11
119.781
21
-82.811
0
LINE
8
BLACK
6
CONTINUOUS
10
119.781
20
-82.811
11
119.56
21
-83.005
0
LINE
8
BLACK
6
CONTINUOUS
10
119.56
20
-83.005
11
119.315
21
-83.1686
0
LINE
8
BLACK
6
CONTINUOUS
10
119.315
20
-83.1686
11
119.051
21
-83.2987
0
LINE
8
BLACK
6
CONTINUOUS
10
119.051
20
-83.2987
11
118.772
21
-83.3933
0
LINE
8
BLACK
6
CONTINUOUS
10
118.772
20
-83.3933
11
118.484
21
-83.4508
0
LINE
8
BLACK
6
CONTINUOUS
10
118.484
20
-83.4508
11
118.19
21
-83.47
0
LINE
8
BLACK
6
CONTINUOUS
10
118.19
20
-83.47
11
117.896
21
-83.4508
0
LINE
8
BLACK
6
CONTINUOUS
10
117.896
20
-83.4508
11
117.608
21
-83.3933
0
LINE
8
BLACK
6
CONTINUOUS
10
117.608
20
-83.3933
11
117.329
21
-83.2987
0
LINE
8
BLACK
6
CONTINUOUS
10
117.329
20
-83.2987
11
117.065
21
-83.1686
0
LINE
8
BLACK
6
CONTINUOUS
10
117.065
20
-83.1686
11
116.82
21
-83.005
0
LINE
8
BLACK
6
CONTINUOUS
10
116.82
20
-83.005
11
116.599
21
-82.811
0
LINE
8
BLACK
6
CONTINUOUS
10
116.599
20
-82.811
11
116.405
21
-82.5897
0
LINE
8
BLACK
6
CONTINUOUS
10
116.405
20
-82.5897
11
116.241
21
-82.345
0
LINE
8
BLACK
6
CONTINUOUS
10
116.241
20
-82.345
11
116.111
21
-82.081
0
LINE
8
BLACK
6
CONTINUOUS
10
116.111
20
-82.081
11
116.017
21
-81.8023
0
LINE
8
BLACK
6
CONTINUOUS
10
116.017
20
-81.8023
11
115.959
21
-81.5137
0
LINE
8
BLACK
6
CONTINUOUS
10
115.959
20
-81.5137
11
115.94
21
-81.22
0
LINE
8
BLACK
6
CONTINUOUS
10
115.94
20
-81.22
11
115.941
21
-81.1974
0
LINE
8
BLACK
6
CONTINUOUS
10
115.941
20
-81.1974
11
115.959
21
-80.9263
0
LINE
8
BLACK
6
CONTINUOUS
10
115.959
20
-80.9263
11
116.017
21
-80.6377
0
LINE
8
BLACK
6
CONTINUOUS
10
116.108
20
-81.7778
11
116.203
21
-82.0551
0
LINE
8
BLACK
6
CONTINUOUS
10
116.203
20
-82.0551
11
116.335
21
-82.317
0
LINE
8
BLACK
6
CONTINUOUS
10
116.335
20
-82.317
11
116.501
21
-82.5586
0
LINE
8
BLACK
6
CONTINUOUS
10
116.501
20
-82.5586
11
116.698
21
-82.7754
0
LINE
8
BLACK
6
CONTINUOUS
10
116.698
20
-82.7754
11
116.923
21
-82.9635
0
LINE
8
BLACK
6
CONTINUOUS
10
116.923
20
-82.9635
11
117.172
21
-83.1192
0
LINE
8
BLACK
6
CONTINUOUS
10
117.172
20
-83.1192
11
117.439
21
-83.2399
0
LINE
8
BLACK
6
CONTINUOUS
10
117.439
20
-83.2399
11
117.72
21
-83.3231
0
LINE
8
BLACK
6
CONTINUOUS
10
117.72
20
-83.3231
11
118.01
21
-83.3675
0
LINE
8
BLACK
6
CONTINUOUS
10
118.01
20
-83.3675
11
118.303
21
-83.3721
0
LINE
8
BLACK
6
CONTINUOUS
10
118.303
20
-83.3721
11
118.594
21
-83.3369
0
LINE
8
BLACK
6
CONTINUOUS
10
118.594
20
-83.3369
11
118.877
21
-83.2625
0
LINE
8
BLACK
6
CONTINUOUS
10
118.877
20
-83.2625
11
119.148
21
-83.1503
0
LINE
8
BLACK
6
CONTINUOUS
10
119.148
20
-83.1503
11
119.401
21
-83.0024
0
LINE
8
BLACK
6
CONTINUOUS
10
119.401
20
-83.0024
11
119.632
21
-82.8215
0
LINE
8
BLACK
6
CONTINUOUS
10
119.632
20
-82.8215
11
119.836
21
-82.611
0
LINE
8
BLACK
6
CONTINUOUS
10
119.836
20
-82.611
11
120.01
21
-82.3747
0
LINE
8
BLACK
6
CONTINUOUS
10
120.01
20
-82.3747
11
120.149
21
-82.1171
0
LINE
8
BLACK
6
CONTINUOUS
10
120.149
20
-82.1171
11
120.253
21
-81.8429
0
LINE
8
BLACK
6
CONTINUOUS
10
120.253
20
-81.8429
11
120.318
21
-81.5571
0
LINE
8
BLACK
6
CONTINUOUS
10
120.318
20
-81.5571
11
120.345
21
-81.2651
0
LINE
8
BLACK
6
CONTINUOUS
10
120.345
20
-81.2651
11
120.345
21
-81.22
0
LINE
8
BLACK
6
CONTINUOUS
10
120.345
20
-81.22
11
120.325
21
-80.9275
0
LINE
8
BLACK
6
CONTINUOUS
10
120.325
20
-80.9275
11
120.266
21
-80.6405
0
LINE
8
BLACK
6
CONTINUOUS
10
120.266
20
-80.6405
11
120.168
21
-80.3641
0
LINE
8
BLACK
6
CONTINUOUS
10
120.168
20
-80.3641
11
120.033
21
-80.1036
0
LINE
8
BLACK
6
CONTINUOUS
10
120.033
20
-80.1036
11
119.865
21
-79.8638
0
LINE
8
BLACK
6
CONTINUOUS
10
119.865
20
-79.8638
11
119.665
21
-79.6491
0
LINE
8
BLACK
6
CONTINUOUS
10
119.665
20
-79.6491
11
119.438
21
-79.4634
0
LINE
8
BLACK
6
CONTINUOUS
10
119.438
20
-79.4634
11
119.188
21
-79.3102
0
LINE
8
BLACK
6
CONTINUOUS
10
119.188
20
-79.3102
11
118.92
21
-79.1924
0
LINE
8
BLACK
6
CONTINUOUS
10
118.92
20
-79.1924
11
118.638
21
-79.1121
0
LINE
8
BLACK
6
CONTINUOUS
10
118.638
20
-79.1121
11
118.348
21
-79.0708
0
LINE
8
BLACK
6
CONTINUOUS
10
118.348
20
-79.0708
11
118.055
21
-79.0692
0
LINE
8
BLACK
6
CONTINUOUS
10
118.055
20
-79.0692
11
117.764
21
-79.1075
0
LINE
8
BLACK
6
CONTINUOUS
10
117.764
20
-79.1075
11
117.481
21
-79.1848
0
LINE
8
BLACK
6
CONTINUOUS
10
117.481
20
-79.1848
11
117.212
21
-79.2999
0
LINE
8
BLACK
6
CONTINUOUS
10
117.212
20
-79.2999
11
116.96
21
-79.4504
0
LINE
8
BLACK
6
CONTINUOUS
10
116.96
20
-79.4504
11
116.731
21
-79.6337
0
LINE
8
BLACK
6
CONTINUOUS
10
116.731
20
-79.6337
11
116.53
21
-79.8463
0
LINE
8
BLACK
6
CONTINUOUS
10
116.53
20
-79.8463
11
116.358
21
-80.0844
0
LINE
8
BLACK
6
CONTINUOUS
10
116.358
20
-80.0844
11
116.221
21
-80.3435
0
LINE
8
BLACK
6
CONTINUOUS
10
116.221
20
-80.3435
11
116.121
21
-80.6188
0
LINE
8
BLACK
6
CONTINUOUS
10
116.121
20
-80.6188
11
116.058
21
-80.9052
0
LINE
8
BLACK
6
CONTINUOUS
10
116.058
20
-80.9052
11
116.035
21
-81.1974
0
LINE
8
BLACK
6
CONTINUOUS
10
116.035
20
-81.1974
11
116.052
21
-81.4901
0
LINE
8
BLACK
6
CONTINUOUS
10
116.052
20
-81.4901
11
116.108
21
-81.7778
0
LINE
8
BLACK
6
CONTINUOUS
10
224.637
20
-80.5977
11
224.731
21
-80.319
0
LINE
8
BLACK
6
CONTINUOUS
10
224.731
20
-80.319
11
224.861
21
-80.055
0
LINE
8
BLACK
6
CONTINUOUS
10
224.861
20
-80.055
11
225.025
21
-79.8103
0
LINE
8
BLACK
6
CONTINUOUS
10
225.025
20
-79.8103
11
225.219
21
-79.589
0
LINE
8
BLACK
6
CONTINUOUS
10
225.219
20
-79.589
11
225.44
21
-79.395
0
LINE
8
BLACK
6
CONTINUOUS
10
225.44
20
-79.395
11
225.685
21
-79.2314
0
LINE
8
BLACK
6
CONTINUOUS
10
225.685
20
-79.2314
11
225.949
21
-79.1013
0
LINE
8
BLACK
6
CONTINUOUS
10
225.949
20
-79.1013
11
226.228
21
-79.0067
0
LINE
8
BLACK
6
CONTINUOUS
10
226.228
20
-79.0067
11
226.516
21
-78.9492
0
LINE
8
BLACK
6
CONTINUOUS
10
226.516
20
-78.9492
11
226.81
21
-78.93
0
LINE
8
BLACK
6
CONTINUOUS
10
226.81
20
-78.93
11
227.104
21
-78.9492
0
LINE
8
BLACK
6
CONTINUOUS
10
227.104
20
-78.9492
11
227.392
21
-79.0067
0
LINE
8
BLACK
6
CONTINUOUS
10
227.392
20
-79.0067
11
227.671
21
-79.1013
0
LINE
8
BLACK
6
CONTINUOUS
10
227.671
20
-79.1013
11
227.935
21
-79.2314
0
LINE
8
BLACK
6
CONTINUOUS
10
227.935
20
-79.2314
11
228.18
21
-79.395
0
LINE
8
BLACK
6
CONTINUOUS
10
228.18
20
-79.395
11
228.401
21
-79.589
0
LINE
8
BLACK
6
CONTINUOUS
10
228.401
20
-79.589
11
228.595
21
-79.8103
0
LINE
8
BLACK
6
CONTINUOUS
10
228.595
20
-79.8103
11
228.759
21
-80.055
0
LINE
8
BLACK
6
CONTINUOUS
10
228.759
20
-80.055
11
228.889
21
-80.319
0
LINE
8
BLACK
6
CONTINUOUS
10
228.889
20
-80.319
11
228.983
21
-80.5977
0
LINE
8
BLACK
6
CONTINUOUS
10
228.983
20
-80.5977
11
229.041
21
-80.8863
0
LINE
8
BLACK
6
CONTINUOUS
10
229.041
20
-80.8863
11
229.06
21
-81.18
0
LINE
8
BLACK
6
CONTINUOUS
10
229.06
20
-81.18
11
229.041
21
-81.4737
0
LINE
8
BLACK
6
CONTINUOUS
10
229.041
20
-81.4737
11
228.983
21
-81.7623
0
LINE
8
BLACK
6
CONTINUOUS
10
228.983
20
-81.7623
11
228.889
21
-82.041
0
LINE
8
BLACK
6
CONTINUOUS
10
228.889
20
-82.041
11
228.759
21
-82.305
0
LINE
8
BLACK
6
CONTINUOUS
10
228.759
20
-82.305
11
228.595
21
-82.5497
0
LINE
8
BLACK
6
CONTINUOUS
10
228.595
20
-82.5497
11
228.401
21
-82.771
0
LINE
8
BLACK
6
CONTINUOUS
10
228.401
20
-82.771
11
228.18
21
-82.965
0
LINE
8
BLACK
6
CONTINUOUS
10
228.18
20
-82.965
11
227.935
21
-83.1286
0
LINE
8
BLACK
6
CONTINUOUS
10
227.935
20
-83.1286
11
227.671
21
-83.2587
0
LINE
8
BLACK
6
CONTINUOUS
10
227.671
20
-83.2587
11
227.392
21
-83.3533
0
LINE
8
BLACK
6
CONTINUOUS
10
227.392
20
-83.3533
11
227.104
21
-83.4108
0
LINE
8
BLACK
6
CONTINUOUS
10
227.104
20
-83.4108
11
226.81
21
-83.43
0
LINE
8
BLACK
6
CONTINUOUS
10
226.81
20
-83.43
11
226.516
21
-83.4108
0
LINE
8
BLACK
6
CONTINUOUS
10
226.516
20
-83.4108
11
226.228
21
-83.3533
0
LINE
8
BLACK
6
CONTINUOUS
10
226.228
20
-83.3533
11
225.949
21
-83.2587
0
LINE
8
BLACK
6
CONTINUOUS
10
225.949
20
-83.2587
11
225.685
21
-83.1286
0
LINE
8
BLACK
6
CONTINUOUS
10
225.685
20
-83.1286
11
225.44
21
-82.965
0
LINE
8
BLACK
6
CONTINUOUS
10
225.44
20
-82.965
11
225.219
21
-82.771
0
LINE
8
BLACK
6
CONTINUOUS
10
225.219
20
-82.771
11
225.025
21
-82.5497
0
LINE
8
BLACK
6
CONTINUOUS
10
225.025
20
-82.5497
11
224.861
21
-82.305
0
LINE
8
BLACK
6
CONTINUOUS
10
224.861
20
-82.305
11
224.731
21
-82.041
0
LINE
8
BLACK
6
CONTINUOUS
10
224.731
20
-82.041
11
224.637
21
-81.7623
0
LINE
8
BLACK
6
CONTINUOUS
10
224.637
20
-81.7623
11
224.579
21
-81.4737
0
LINE
8
BLACK
6
CONTINUOUS
10
224.579
20
-81.4737
11
224.56
21
-81.18
0
LINE
8
BLACK
6
CONTINUOUS
10
224.56
20
-81.18
11
224.561
21
-81.1574
0
LINE
8
BLACK
6
CONTINUOUS
10
224.561
20
-81.1574
11
224.579
21
-80.8863
0
LINE
8
BLACK
6
CONTINUOUS
10
224.579
20
-80.8863
11
224.637
21
-80.5977
0
LINE
8
BLACK
6
CONTINUOUS
10
224.728
20
-81.7378
11
224.823
21
-82.0151
0
LINE
8
BLACK
6
CONTINUOUS
10
224.823
20
-82.0151
11
224.955
21
-82.277
0
LINE
8
BLACK
6
CONTINUOUS
10
224.955
20
-82.277
11
225.121
21
-82.5186
0
LINE
8
BLACK
6
CONTINUOUS
10
225.121
20
-82.5186
11
225.318
21
-82.7354
0
LINE
8
BLACK
6
CONTINUOUS
10
225.318
20
-82.7354
11
225.543
21
-82.9235
0
LINE
8
BLACK
6
CONTINUOUS
10
225.543
20
-82.9235
11
225.792
21
-83.0792
0
LINE
8
BLACK
6
CONTINUOUS
10
225.792
20
-83.0792
11
226.059
21
-83.1999
0
LINE
8
BLACK
6
CONTINUOUS
10
226.059
20
-83.1999
11
226.34
21
-83.2831
0
LINE
8
BLACK
6
CONTINUOUS
10
226.34
20
-83.2831
11
226.63
21
-83.3275
0
LINE
8
BLACK
6
CONTINUOUS
10
226.63
20
-83.3275
11
226.923
21
-83.3321
0
LINE
8
BLACK
6
CONTINUOUS
10
226.923
20
-83.3321
11
227.214
21
-83.2969
0
LINE
8
BLACK
6
CONTINUOUS
10
227.214
20
-83.2969
11
227.497
21
-83.2225
0
LINE
8
BLACK
6
CONTINUOUS
10
227.497
20
-83.2225
11
227.768
21
-83.1103
0
LINE
8
BLACK
6
CONTINUOUS
10
227.768
20
-83.1103
11
228.021
21
-82.9624
0
LINE
8
BLACK
6
CONTINUOUS
10
228.021
20
-82.9624
11
228.252
21
-82.7815
0
LINE
8
BLACK
6
CONTINUOUS
10
228.252
20
-82.7815
11
228.456
21
-82.571
0
LINE
8
BLACK
6
CONTINUOUS
10
228.456
20
-82.571
11
228.63
21
-82.3347
0
LINE
8
BLACK
6
CONTINUOUS
10
228.63
20
-82.3347
11
228.769
21
-82.0771
0
LINE
8
BLACK
6
CONTINUOUS
10
228.769
20
-82.0771
11
228.873
21
-81.8029
0
LINE
8
BLACK
6
CONTINUOUS
10
228.873
20
-81.8029
11
228.938
21
-81.5171
0
LINE
8
BLACK
6
CONTINUOUS
10
228.938
20
-81.5171
11
228.965
21
-81.2251
0
LINE
8
BLACK
6
CONTINUOUS
10
228.965
20
-81.2251
11
228.965
21
-81.18
0
LINE
8
BLACK
6
CONTINUOUS
10
228.965
20
-81.18
11
228.945
21
-80.8875
0
LINE
8
BLACK
6
CONTINUOUS
10
228.945
20
-80.8875
11
228.886
21
-80.6005
0
LINE
8
BLACK
6
CONTINUOUS
10
228.886
20
-80.6005
11
228.788
21
-80.3241
0
LINE
8
BLACK
6
CONTINUOUS
10
228.788
20
-80.3241
11
228.653
21
-80.0636
0
LINE
8
BLACK
6
CONTINUOUS
10
228.653
20
-80.0636
11
228.485
21
-79.8238
0
LINE
8
BLACK
6
CONTINUOUS
10
228.485
20
-79.8238
11
228.285
21
-79.6091
0
LINE
8
BLACK
6
CONTINUOUS
10
228.285
20
-79.6091
11
228.058
21
-79.4234
0
LINE
8
BLACK
6
CONTINUOUS
10
228.058
20
-79.4234
11
227.808
21
-79.2702
0
LINE
8
BLACK
6
CONTINUOUS
10
227.808
20
-79.2702
11
227.54
21
-79.1524
0
LINE
8
BLACK
6
CONTINUOUS
10
227.54
20
-79.1524
11
227.258
21
-79.0721
0
LINE
8
BLACK
6
CONTINUOUS
10
227.258
20
-79.0721
11
226.968
21
-79.0308
0
LINE
8
BLACK
6
CONTINUOUS
10
226.968
20
-79.0308
11
226.675
21
-79.0292
0
LINE
8
BLACK
6
CONTINUOUS
10
226.675
20
-79.0292
11
226.384
21
-79.0675
0
LINE
8
BLACK
6
CONTINUOUS
10
226.384
20
-79.0675
11
226.101
21
-79.1448
0
LINE
8
BLACK
6
CONTINUOUS
10
226.101
20
-79.1448
11
225.832
21
-79.2599
0
LINE
8
BLACK
6
CONTINUOUS
10
225.832
20
-79.2599
11
225.58
21
-79.4104
0
LINE
8
BLACK
6
CONTINUOUS
10
225.58
20
-79.4104
11
225.351
21
-79.5937
0
LINE
8
BLACK
6
CONTINUOUS
10
225.351
20
-79.5937
11
225.15
21
-79.8063
0
LINE
8
BLACK
6
CONTINUOUS
10
225.15
20
-79.8063
11
224.978
21
-80.0444
0
LINE
8
BLACK
6
CONTINUOUS
10
224.978
20
-80.0444
11
224.841
21
-80.3035
0
LINE
8
BLACK
6
CONTINUOUS
10
224.841
20
-80.3035
11
224.741
21
-80.5788
0
LINE
8
BLACK
6
CONTINUOUS
10
224.741
20
-80.5788
11
224.678
21
-80.8652
0
LINE
8
BLACK
6
CONTINUOUS
10
224.678
20
-80.8652
11
224.655
21
-81.1574
0
LINE
8
BLACK
6
CONTINUOUS
10
224.655
20
-81.1574
11
224.672
21
-81.4501
0
LINE
8
BLACK
6
CONTINUOUS
10
224.672
20
-81.4501
11
224.728
21
-81.7378
0
LINE
8
BLACK
6
CONTINUOUS
10
104.087
20
-67.6977
11
104.181
21
-67.419
0
LINE
8
BLACK
6
CONTINUOUS
10
104.181
20
-67.419
11
104.311
21
-67.155
0
LINE
8
BLACK
6
CONTINUOUS
10
104.311
20
-67.155
11
104.475
21
-66.9103
0
LINE
8
BLACK
6
CONTINUOUS
10
104.475
20
-66.9103
11
104.669
21
-66.689
0
LINE
8
BLACK
6
CONTINUOUS
10
104.669
20
-66.689
11
104.89
21
-66.495
0
LINE
8
BLACK
6
CONTINUOUS
10
104.89
20
-66.495
11
105.135
21
-66.3314
0
LINE
8
BLACK
6
CONTINUOUS
10
105.135
20
-66.3314
11
105.399
21
-66.2013
0
LINE
8
BLACK
6
CONTINUOUS
10
105.399
20
-66.2013
11
105.678
21
-66.1067
0
LINE
8
BLACK
6
CONTINUOUS
10
105.678
20
-66.1067
11
105.966
21
-66.0492
0
LINE
8
BLACK
6
CONTINUOUS
10
105.966
20
-66.0492
11
106.26
21
-66.03
0
LINE
8
BLACK
6
CONTINUOUS
10
106.26
20
-66.03
11
106.554
21
-66.0492
0
LINE
8
BLACK
6
CONTINUOUS
10
106.554
20
-66.0492
11
106.842
21
-66.1067
0
LINE
8
BLACK
6
CONTINUOUS
10
106.842
20
-66.1067
11
107.121
21
-66.2013
0
LINE
8
BLACK
6
CONTINUOUS
10
107.121
20
-66.2013
11
107.385
21
-66.3314
0
LINE
8
BLACK
6
CONTINUOUS
10
107.385
20
-66.3314
11
107.63
21
-66.495
0
LINE
8
BLACK
6
CONTINUOUS
10
107.63
20
-66.495
11
107.851
21
-66.689
0
LINE
8
BLACK
6
CONTINUOUS
10
107.851
20
-66.689
11
108.045
21
-66.9103
0
LINE
8
BLACK
6
CONTINUOUS
10
108.045
20
-66.9103
11
108.209
21
-67.155
0
LINE
8
BLACK
6
CONTINUOUS
10
108.209
20
-67.155
11
108.339
21
-67.419
0
LINE
8
BLACK
6
CONTINUOUS
10
108.339
20
-67.419
11
108.433
21
-67.6977
0
LINE
8
BLACK
6
CONTINUOUS
10
108.433
20
-67.6977
11
108.491
21
-67.9863
0
LINE
8
BLACK
6
CONTINUOUS
10
108.491
20
-67.9863
11
108.51
21
-68.28
0
LINE
8
BLACK
6
CONTINUOUS
10
108.51
20
-68.28
11
108.491
21
-68.5737
0
LINE
8
BLACK
6
CONTINUOUS
10
108.491
20
-68.5737
11
108.433
21
-68.8623
0
LINE
8
BLACK
6
CONTINUOUS
10
108.433
20
-68.8623
11
108.339
21
-69.141
0
LINE
8
BLACK
6
CONTINUOUS
10
108.339
20
-69.141
11
108.209
21
-69.405
0
LINE
8
BLACK
6
CONTINUOUS
10
108.209
20
-69.405
11
108.045
21
-69.6497
0
LINE
8
BLACK
6
CONTINUOUS
10
108.045
20
-69.6497
11
107.851
21
-69.871
0
LINE
8
BLACK
6
CONTINUOUS
10
107.851
20
-69.871
11
107.63
21
-70.065
0
LINE
8
BLACK
6
CONTINUOUS
10
107.63
20
-70.065
11
107.385
21
-70.2286
0
LINE
8
BLACK
6
CONTINUOUS
10
107.385
20
-70.2286
11
107.121
21
-70.3587
0
LINE
8
BLACK
6
CONTINUOUS
10
107.121
20
-70.3587
11
106.842
21
-70.4533
0
LINE
8
BLACK
6
CONTINUOUS
10
106.842
20
-70.4533
11
106.554
21
-70.5108
0
LINE
8
BLACK
6
CONTINUOUS
10
106.554
20
-70.5108
11
106.26
21
-70.53
0
LINE
8
BLACK
6
CONTINUOUS
10
106.26
20
-70.53
11
105.966
21
-70.5108
0
LINE
8
BLACK
6
CONTINUOUS
10
105.966
20
-70.5108
11
105.678
21
-70.4533
0
LINE
8
BLACK
6
CONTINUOUS
10
105.678
20
-70.4533
11
105.399
21
-70.3587
0
LINE
8
BLACK
6
CONTINUOUS
10
105.399
20
-70.3587
11
105.135
21
-70.2286
0
LINE
8
BLACK
6
CONTINUOUS
10
105.135
20
-70.2286
11
104.89
21
-70.065
0
LINE
8
BLACK
6
CONTINUOUS
10
104.89
20
-70.065
11
104.669
21
-69.871
0
LINE
8
BLACK
6
CONTINUOUS
10
104.669
20
-69.871
11
104.475
21
-69.6497
0
LINE
8
BLACK
6
CONTINUOUS
10
104.475
20
-69.6497
11
104.311
21
-69.405
0
LINE
8
BLACK
6
CONTINUOUS
10
104.311
20
-69.405
11
104.181
21
-69.141
0
LINE
8
BLACK
6
CONTINUOUS
10
104.181
20
-69.141
11
104.087
21
-68.8623
0
LINE
8
BLACK
6
CONTINUOUS
10
104.087
20
-68.8623
11
104.029
21
-68.5737
0
LINE
8
BLACK
6
CONTINUOUS
10
104.029
20
-68.5737
11
104.01
21
-68.28
0
LINE
8
BLACK
6
CONTINUOUS
10
104.01
20
-68.28
11
104.011
21
-68.2574
0
LINE
8
BLACK
6
CONTINUOUS
10
104.011
20
-68.2574
11
104.029
21
-67.9863
0
LINE
8
BLACK
6
CONTINUOUS
10
104.029
20
-67.9863
11
104.087
21
-67.6977
0
LINE
8
BLACK
6
CONTINUOUS
10
104.178
20
-68.8378
11
104.273
21
-69.1151
0
LINE
8
BLACK
6
CONTINUOUS
10
104.273
20
-69.1151
11
104.405
21
-69.377
0
LINE
8
BLACK
6
CONTINUOUS
10
104.405
20
-69.377
11
104.571
21
-69.6186
0
LINE
8
BLACK
6
CONTINUOUS
10
104.571
20
-69.6186
11
104.768
21
-69.8354
0
LINE
8
BLACK
6
CONTINUOUS
10
104.768
20
-69.8354
11
104.993
21
-70.0235
0
LINE
8
BLACK
6
CONTINUOUS
10
104.993
20
-70.0235
11
105.242
21
-70.1792
0
LINE
8
BLACK
6
CONTINUOUS
10
105.242
20
-70.1792
11
105.509
21
-70.2999
0
LINE
8
BLACK
6
CONTINUOUS
10
105.509
20
-70.2999
11
105.79
21
-70.3831
0
LINE
8
BLACK
6
CONTINUOUS
10
105.79
20
-70.3831
11
106.08
21
-70.4275
0
LINE
8
BLACK
6
CONTINUOUS
10
106.08
20
-70.4275
11
106.373
21
-70.4321
0
LINE
8
BLACK
6
CONTINUOUS
10
106.373
20
-70.4321
11
106.664
21
-70.3969
0
LINE
8
BLACK
6
CONTINUOUS
10
106.664
20
-70.3969
11
106.947
21
-70.3225
0
LINE
8
BLACK
6
CONTINUOUS
10
106.947
20
-70.3225
11
107.218
21
-70.2103
0
LINE
8
BLACK
6
CONTINUOUS
10
107.218
20
-70.2103
11
107.471
21
-70.0624
0
LINE
8
BLACK
6
CONTINUOUS
10
107.471
20
-70.0624
11
107.702
21
-69.8815
0
LINE
8
BLACK
6
CONTINUOUS
10
107.702
20
-69.8815
11
107.906
21
-69.671
0
LINE
8
BLACK
6
CONTINUOUS
10
107.906
20
-69.671
11
108.08
21
-69.4347
0
LINE
8
BLACK
6
CONTINUOUS
10
108.08
20
-69.4347
11
108.219
21
-69.1771
0
LINE
8
BLACK
6
CONTINUOUS
10
108.219
20
-69.1771
11
108.323
21
-68.9029
0
LINE
8
BLACK
6
CONTINUOUS
10
108.323
20
-68.9029
11
108.388
21
-68.6171
0
LINE
8
BLACK
6
CONTINUOUS
10
108.388
20
-68.6171
11
108.415
21
-68.3251
0
LINE
8
BLACK
6
CONTINUOUS
10
108.415
20
-68.3251
11
108.415
21
-68.28
0
LINE
8
BLACK
6
CONTINUOUS
10
108.415
20
-68.28
11
108.395
21
-67.9875
0
LINE
8
BLACK
6
CONTINUOUS
10
108.395
20
-67.9875
11
108.336
21
-67.7005
0
LINE
8
BLACK
6
CONTINUOUS
10
108.336
20
-67.7005
11
108.238
21
-67.4241
0
LINE
8
BLACK
6
CONTINUOUS
10
108.238
20
-67.4241
11
108.103
21
-67.1636
0
LINE
8
BLACK
6
CONTINUOUS
10
108.103
20
-67.1636
11
107.935
21
-66.9238
0
LINE
8
BLACK
6
CONTINUOUS
10
107.935
20
-66.9238
11
107.735
21
-66.7091
0
LINE
8
BLACK
6
CONTINUOUS
10
107.735
20
-66.7091
11
107.508
21
-66.5234
0
LINE
8
BLACK
6
CONTINUOUS
10
107.508
20
-66.5234
11
107.258
21
-66.3702
0
LINE
8
BLACK
6
CONTINUOUS
10
107.258
20
-66.3702
11
106.99
21
-66.2524
0
LINE
8
BLACK
6
CONTINUOUS
10
106.99
20
-66.2524
11
106.708
21
-66.1721
0
LINE
8
BLACK
6
CONTINUOUS
10
106.708
20
-66.1721
11
106.418
21
-66.1308
0
LINE
8
BLACK
6
CONTINUOUS
10
106.418
20
-66.1308
11
106.125
21
-66.1292
0
LINE
8
BLACK
6
CONTINUOUS
10
106.125
20
-66.1292
11
105.834
21
-66.1675
0
LINE
8
BLACK
6
CONTINUOUS
10
105.834
20
-66.1675
11
105.551
21
-66.2448
0
LINE
8
BLACK
6
CONTINUOUS
10
105.551
20
-66.2448
11
105.282
21
-66.3599
0
LINE
8
BLACK
6
CONTINUOUS
10
105.282
20
-66.3599
11
105.03
21
-66.5104
0
LINE
8
BLACK
6
CONTINUOUS
10
105.03
20
-66.5104
11
104.801
21
-66.6937
0
LINE
8
BLACK
6
CONTINUOUS
10
104.801
20
-66.6937
11
104.6
21
-66.9063
0
LINE
8
BLACK
6
CONTINUOUS
10
104.6
20
-66.9063
11
104.428
21
-67.1444
0
LINE
8
BLACK
6
CONTINUOUS
10
104.428
20
-67.1444
11
104.291
21
-67.4035
0
LINE
8
BLACK
6
CONTINUOUS
10
104.291
20
-67.4035
11
104.191
21
-67.6788
0
LINE
8
BLACK
6
CONTINUOUS
10
104.191
20
-67.6788
11
104.128
21
-67.9652
0
LINE
8
BLACK
6
CONTINUOUS
10
104.128
20
-67.9652
11
104.105
21
-68.2574
0
LINE
8
BLACK
6
CONTINUOUS
10
104.105
20
-68.2574
11
104.122
21
-68.5501
0
LINE
8
BLACK
6
CONTINUOUS
10
104.122
20
-68.5501
11
104.178
21
-68.8378
0
LINE
8
BLACK
6
CONTINUOUS
10
237.797
20
-67.6977
11
237.891
21
-67.419
0
LINE
8
BLACK
6
CONTINUOUS
10
237.891
20
-67.419
11
238.021
21
-67.155
0
LINE
8
BLACK
6
CONTINUOUS
10
238.021
20
-67.155
11
238.185
21
-66.9103
0
LINE
8
BLACK
6
CONTINUOUS
10
238.185
20
-66.9103
11
238.379
21
-66.689
0
LINE
8
BLACK
6
CONTINUOUS
10
238.379
20
-66.689
11
238.6
21
-66.495
0
LINE
8
BLACK
6
CONTINUOUS
10
238.6
20
-66.495
11
238.845
21
-66.3314
0
LINE
8
BLACK
6
CONTINUOUS
10
238.845
20
-66.3314
11
239.109
21
-66.2013
0
LINE
8
BLACK
6
CONTINUOUS
10
239.109
20
-66.2013
11
239.388
21
-66.1067
0
LINE
8
BLACK
6
CONTINUOUS
10
239.388
20
-66.1067
11
239.676
21
-66.0492
0
LINE
8
BLACK
6
CONTINUOUS
10
239.676
20
-66.0492
11
239.97
21
-66.03
0
LINE
8
BLACK
6
CONTINUOUS
10
239.97
20
-66.03
11
240.264
21
-66.0492
0
LINE
8
BLACK
6
CONTINUOUS
10
240.264
20
-66.0492
11
240.552
21
-66.1067
0
LINE
8
BLACK
6
CONTINUOUS
10
240.552
20
-66.1067
11
240.831
21
-66.2013
0
LINE
8
BLACK
6
CONTINUOUS
10
240.831
20
-66.2013
11
241.095
21
-66.3314
0
LINE
8
BLACK
6
CONTINUOUS
10
241.095
20
-66.3314
11
241.34
21
-66.495
0
LINE
8
BLACK
6
CONTINUOUS
10
241.34
20
-66.495
11
241.561
21
-66.689
0
LINE
8
BLACK
6
CONTINUOUS
10
241.561
20
-66.689
11
241.755
21
-66.9103
0
LINE
8
BLACK
6
CONTINUOUS
10
241.755
20
-66.9103
11
241.919
21
-67.155
0
LINE
8
BLACK
6
CONTINUOUS
10
241.919
20
-67.155
11
242.049
21
-67.419
0
LINE
8
BLACK
6
CONTINUOUS
10
242.049
20
-67.419
11
242.143
21
-67.6977
0
LINE
8
BLACK
6
CONTINUOUS
10
242.143
20
-67.6977
11
242.201
21
-67.9863
0
LINE
8
BLACK
6
CONTINUOUS
10
242.201
20
-67.9863
11
242.22
21
-68.28
0
LINE
8
BLACK
6
CONTINUOUS
10
242.22
20
-68.28
11
242.201
21
-68.5737
0
LINE
8
BLACK
6
CONTINUOUS
10
242.201
20
-68.5737
11
242.143
21
-68.8623
0
LINE
8
BLACK
6
CONTINUOUS
10
242.143
20
-68.8623
11
242.049
21
-69.141
0
LINE
8
BLACK
6
CONTINUOUS
10
242.049
20
-69.141
11
241.919
21
-69.405
0
LINE
8
BLACK
6
CONTINUOUS
10
241.919
20
-69.405
11
241.755
21
-69.6497
0
LINE
8
BLACK
6
CONTINUOUS
10
241.755
20
-69.6497
11
241.561
21
-69.871
0
LINE
8
BLACK
6
CONTINUOUS
10
241.561
20
-69.871
11
241.34
21
-70.065
0
LINE
8
BLACK
6
CONTINUOUS
10
241.34
20
-70.065
11
241.095
21
-70.2286
0
LINE
8
BLACK
6
CONTINUOUS
10
241.095
20
-70.2286
11
240.831
21
-70.3587
0
LINE
8
BLACK
6
CONTINUOUS
10
240.831
20
-70.3587
11
240.552
21
-70.4533
0
LINE
8
BLACK
6
CONTINUOUS
10
240.552
20
-70.4533
11
240.264
21
-70.5108
0
LINE
8
BLACK
6
CONTINUOUS
10
240.264
20
-70.5108
11
239.97
21
-70.53
0
LINE
8
BLACK
6
CONTINUOUS
10
239.97
20
-70.53
11
239.676
21
-70.5108
0
LINE
8
BLACK
6
CONTINUOUS
10
239.676
20
-70.5108
11
239.388
21
-70.4533
0
LINE
8
BLACK
6
CONTINUOUS
10
239.388
20
-70.4533
11
239.109
21
-70.3587
0
LINE
8
BLACK
6
CONTINUOUS
10
239.109
20
-70.3587
11
238.845
21
-70.2286
0
LINE
8
BLACK
6
CONTINUOUS
10
238.845
20
-70.2286
11
238.6
21
-70.065
0
LINE
8
BLACK
6
CONTINUOUS
10
238.6
20
-70.065
11
238.379
21
-69.871
0
LINE
8
BLACK
6
CONTINUOUS
10
238.379
20
-69.871
11
238.185
21
-69.6497
0
LINE
8
BLACK
6
CONTINUOUS
10
238.185
20
-69.6497
11
238.021
21
-69.405
0
LINE
8
BLACK
6
CONTINUOUS
10
238.021
20
-69.405
11
237.891
21
-69.141
0
LINE
8
BLACK
6
CONTINUOUS
10
237.891
20
-69.141
11
237.797
21
-68.8623
0
LINE
8
BLACK
6
CONTINUOUS
10
237.797
20
-68.8623
11
237.739
21
-68.5737
0
LINE
8
BLACK
6
CONTINUOUS
10
237.739
20
-68.5737
11
237.72
21
-68.28
0
LINE
8
BLACK
6
CONTINUOUS
10
237.72
20
-68.28
11
237.721
21
-68.2574
0
LINE
8
BLACK
6
CONTINUOUS
10
237.721
20
-68.2574
11
237.739
21
-67.9863
0
LINE
8
BLACK
6
CONTINUOUS
10
237.739
20
-67.9863
11
237.797
21
-67.6977
0
LINE
8
BLACK
6
CONTINUOUS
10
237.888
20
-68.8378
11
237.983
21
-69.1151
0
LINE
8
BLACK
6
CONTINUOUS
10
237.983
20
-69.1151
11
238.115
21
-69.377
0
LINE
8
BLACK
6
CONTINUOUS
10
238.115
20
-69.377
11
238.281
21
-69.6186
0
LINE
8
BLACK
6
CONTINUOUS
10
238.281
20
-69.6186
11
238.478
21
-69.8354
0
LINE
8
BLACK
6
CONTINUOUS
10
238.478
20
-69.8354
11
238.703
21
-70.0235
0
LINE
8
BLACK
6
CONTINUOUS
10
238.703
20
-70.0235
11
238.952
21
-70.1792
0
LINE
8
BLACK
6
CONTINUOUS
10
238.952
20
-70.1792
11
239.219
21
-70.2999
0
LINE
8
BLACK
6
CONTINUOUS
10
239.219
20
-70.2999
11
239.5
21
-70.3831
0
LINE
8
BLACK
6
CONTINUOUS
10
239.5
20
-70.3831
11
239.79
21
-70.4275
0
LINE
8
BLACK
6
CONTINUOUS
10
239.79
20
-70.4275
11
240.083
21
-70.4321
0
LINE
8
BLACK
6
CONTINUOUS
10
240.083
20
-70.4321
11
240.374
21
-70.3969
0
LINE
8
BLACK
6
CONTINUOUS
10
240.374
20
-70.3969
11
240.657
21
-70.3225
0
LINE
8
BLACK
6
CONTINUOUS
10
240.657
20
-70.3225
11
240.928
21
-70.2103
0
LINE
8
BLACK
6
CONTINUOUS
10
240.928
20
-70.2103
11
241.181
21
-70.0624
0
LINE
8
BLACK
6
CONTINUOUS
10
241.181
20
-70.0624
11
241.412
21
-69.8815
0
LINE
8
BLACK
6
CONTINUOUS
10
241.412
20
-69.8815
11
241.616
21
-69.671
0
LINE
8
BLACK
6
CONTINUOUS
10
241.616
20
-69.671
11
241.79
21
-69.4347
0
LINE
8
BLACK
6
CONTINUOUS
10
241.79
20
-69.4347
11
241.929
21
-69.1771
0
LINE
8
BLACK
6
CONTINUOUS
10
241.929
20
-69.1771
11
242.033
21
-68.9029
0
LINE
8
BLACK
6
CONTINUOUS
10
242.033
20
-68.9029
11
242.098
21
-68.6171
0
LINE
8
BLACK
6
CONTINUOUS
10
242.098
20
-68.6171
11
242.125
21
-68.3251
0
LINE
8
BLACK
6
CONTINUOUS
10
242.125
20
-68.3251
11
242.125
21
-68.28
0
LINE
8
BLACK
6
CONTINUOUS
10
242.125
20
-68.28
11
242.105
21
-67.9875
0
LINE
8
BLACK
6
CONTINUOUS
10
242.105
20
-67.9875
11
242.046
21
-67.7005
0
LINE
8
BLACK
6
CONTINUOUS
10
242.046
20
-67.7005
11
241.948
21
-67.4241
0
LINE
8
BLACK
6
CONTINUOUS
10
241.948
20
-67.4241
11
241.813
21
-67.1636
0
LINE
8
BLACK
6
CONTINUOUS
10
241.813
20
-67.1636
11
241.645
21
-66.9238
0
LINE
8
BLACK
6
CONTINUOUS
10
241.645
20
-66.9238
11
241.445
21
-66.7091
0
LINE
8
BLACK
6
CONTINUOUS
10
241.445
20
-66.7091
11
241.218
21
-66.5234
0
LINE
8
BLACK
6
CONTINUOUS
10
241.218
20
-66.5234
11
240.968
21
-66.3702
0
LINE
8
BLACK
6
CONTINUOUS
10
240.968
20
-66.3702
11
240.7
21
-66.2524
0
LINE
8
BLACK
6
CONTINUOUS
10
240.7
20
-66.2524
11
240.418
21
-66.1721
0
LINE
8
BLACK
6
CONTINUOUS
10
240.418
20
-66.1721
11
240.128
21
-66.1308
0
LINE
8
BLACK
6
CONTINUOUS
10
240.128
20
-66.1308
11
239.835
21
-66.1292
0
LINE
8
BLACK
6
CONTINUOUS
10
239.835
20
-66.1292
11
239.544
21
-66.1675
0
LINE
8
BLACK
6
CONTINUOUS
10
239.544
20
-66.1675
11
239.261
21
-66.2448
0
LINE
8
BLACK
6
CONTINUOUS
10
239.261
20
-66.2448
11
238.992
21
-66.3599
0
LINE
8
BLACK
6
CONTINUOUS
10
238.992
20
-66.3599
11
238.74
21
-66.5104
0
LINE
8
BLACK
6
CONTINUOUS
10
238.74
20
-66.5104
11
238.511
21
-66.6937
0
LINE
8
BLACK
6
CONTINUOUS
10
238.511
20
-66.6937
11
238.31
21
-66.9063
0
LINE
8
BLACK
6
CONTINUOUS
10
238.31
20
-66.9063
11
238.138
21
-67.1444
0
LINE
8
BLACK
6
CONTINUOUS
10
238.138
20
-67.1444
11
238.001
21
-67.4035
0
LINE
8
BLACK
6
CONTINUOUS
10
238.001
20
-67.4035
11
237.901
21
-67.6788
0
LINE
8
BLACK
6
CONTINUOUS
10
237.901
20
-67.6788
11
237.838
21
-67.9652
0
LINE
8
BLACK
6
CONTINUOUS
10
237.838
20
-67.9652
11
237.815
21
-68.2574
0
LINE
8
BLACK
6
CONTINUOUS
10
237.815
20
-68.2574
11
237.832
21
-68.5501
0
LINE
8
BLACK
6
CONTINUOUS
10
237.832
20
-68.5501
11
237.888
21
-68.8378
  0
ENDSEC
  0
EOF
