<?xml version="1.0" standalone="no"?>
 <!DOCTYPE svg PUBLIC "-//W3C//DTD SVG 1.1//EN" 
 "http://www.w3.org/Graphics/SVG/1.1/DTD/svg11.dtd"> 
<svg
  xmlns:svg="http://www.w3.org/2000/svg"
  xmlns="http://www.w3.org/2000/svg"
  xmlns:xlink="http://www.w3.org/1999/xlink"
  version="1.1"
  width="29.700220cm" height="21.000720cm" viewBox="0 0 116930 82680">
<title>SVG Picture created as lagom_window-PTH-drl_map.svg date 2022/11/03 13:51:52 </title>
  <desc>Picture generated by PCBNEW </desc>
<g style="fill:#000000; fill-opacity:1.000000;stroke:#000000; stroke-opacity:1.000000;
stroke-linecap:round; stroke-linejoin:round;"
 transform="translate(0 0) scale(1 1)">
</g>
<g style="fill:#000000; fill-opacity:0.0; 
stroke:#000000; stroke-width:0.000000; stroke-opacity:1; 
stroke-linecap:round; stroke-linejoin:round;">
</g>
<g style="fill:#000000; fill-opacity:0.0; 
stroke:#000000; stroke-width:48.561053; stroke-opacity:1; 
stroke-linecap:round; stroke-linejoin:round;">
<circle cx="43980.451825" cy="21440.540047" r="1068.343161" /> 
</g>
<g style="fill:#000000; fill-opacity:0.0; 
stroke:#000000; stroke-width:72.841579; stroke-opacity:1; 
stroke-linecap:round; stroke-linejoin:round;">
<path d="M112956 20746
L112956 28861
" />
<path d="M110637 31180
L6292 31180
" />
</g>
<g style="fill:#000000; fill-opacity:0.0; 
stroke:#000000; stroke-width:48.561053; stroke-opacity:1; 
stroke-linecap:round; stroke-linejoin:round;">
<circle cx="49773.785420" cy="27724.340275" r="1068.343161" /> 
<path d="M3973.428503 28861.882936 A2318.790270 2318.790270 0.0 0 0 6292.218772 31180.673206" />
</g>
<g style="fill:#000000; fill-opacity:0.0; 
stroke:#000000; stroke-width:72.841579; stroke-opacity:1; 
stroke-linecap:round; stroke-linejoin:round;">
<path d="M112956.571175 20746.116992 A2318.790270 2318.790270 0.0 0 0 110637.780906 18427.326723" />
<path d="M3973 28861
L3973 20746
" />
<path d="M6292 18427
L110637 18427
" />
</g>
<g style="fill:#000000; fill-opacity:0.0; 
stroke:#000000; stroke-width:48.561053; stroke-opacity:1; 
stroke-linecap:round; stroke-linejoin:round;">
<circle cx="102520.800936" cy="27704.915854" r="1068.343161" /> 
<circle cx="108911.435480" cy="21440.540047" r="1068.343161" /> 
<path d="M6292.218772 18427.326723 A2318.790270 2318.790270 0.0 0 0 3973.428503 20746.116992" />
</g>
<g style="fill:#000000; fill-opacity:0.0; 
stroke:#000000; stroke-width:72.841579; stroke-opacity:1; 
stroke-linecap:round; stroke-linejoin:round;">
<path d="M110637.780906 31180.673206 A2318.790270 2318.790270 0.0 0 0 112956.571175 28861.882936" />
</g>
<g style="fill:#000000; fill-opacity:0.0; 
stroke:#000000; stroke-width:97.122106; stroke-opacity:1; 
stroke-linecap:round; stroke-linejoin:round;">
</g>
<g style="fill:#000000; fill-opacity:0.0; 
stroke:#000000; stroke-width:78.740290; stroke-opacity:1; 
stroke-linecap:round; stroke-linejoin:round;">
<text x="4724.409158" y="32476.936211"
textLength="5853.017557" font-size="1049.868594" lengthAdjust="spacingAndGlyphs"
text-anchor="start" opacity="0">Drill Map:</text>
<g class="stroked-text"><desc>Drill Map:</desc>
<path d="M4951 32439
L4951 31652
L5138 31652
L5251 31689
L5326 31764
L5363 31839
L5401 31989
L5401 32101
L5363 32251
L5326 32326
L5251 32401
L5138 32439
L4951 32439
" />
<path d="M5738 32439
L5738 31914
" />
<path d="M5738 32064
L5776 31989
L5813 31952
L5888 31914
L5963 31914
" />
<path d="M6226 32439
L6226 31914
" />
<path d="M6226 31652
L6188 31689
L6226 31727
L6263 31689
L6226 31652
L6226 31727
" />
<path d="M6713 32439
L6638 32401
L6601 32326
L6601 31652
" />
<path d="M7125 32439
L7050 32401
L7013 32326
L7013 31652
" />
<path d="M8025 32439
L8025 31652
L8288 32214
L8550 31652
L8550 32439
" />
<path d="M9263 32439
L9263 32026
L9225 31952
L9150 31914
L9000 31914
L8925 31952
" />
<path d="M9263 32401
L9188 32439
L9000 32439
L8925 32401
L8888 32326
L8888 32251
L8925 32176
L9000 32139
L9188 32139
L9263 32101
" />
<path d="M9638 31914
L9638 32701
" />
<path d="M9638 31952
L9713 31914
L9863 31914
L9938 31952
L9975 31989
L10013 32064
L10013 32289
L9975 32364
L9938 32401
L9863 32439
L9713 32439
L9638 32401
" />
<path d="M10350 32364
L10388 32401
L10350 32439
L10313 32401
L10350 32364
L10350 32439
" />
<path d="M10350 31952
L10388 31989
L10350 32026
L10313 31989
L10350 31952
L10350 32026
" />
</g></g> 
</svg>
