<?xml version="1.0" standalone="no"?>
 <!DOCTYPE svg PUBLIC "-//W3C//DTD SVG 1.1//EN" 
 "http://www.w3.org/Graphics/SVG/1.1/DTD/svg11.dtd"> 
<svg
  xmlns:svg="http://www.w3.org/2000/svg"
  xmlns="http://www.w3.org/2000/svg"
  xmlns:xlink="http://www.w3.org/1999/xlink"
  version="1.1"
  width="22.456140cm" height="2.639060cm" viewBox="0 0 224561400 26390600">
<title>SVG Picture created as lagom_window-Edge_Cuts.svg date 2022/11/03 13:50:17 </title>
  <desc>Picture generated by PCBNEW </desc>
<g style="fill:#000000; fill-opacity:1.000000;stroke:#000000; stroke-opacity:1.000000;
stroke-linecap:round; stroke-linejoin:round;"
 transform="translate(0 0) scale(1 1)">
</g>
<g style="fill:#000000; fill-opacity:0.0; 
stroke:#000000; stroke-width:0.000000; stroke-opacity:1; 
stroke-linecap:round; stroke-linejoin:round;">
</g>
<g style="fill:#000000; fill-opacity:0.0; 
stroke:#000000; stroke-width:100000.000000; stroke-opacity:1; 
stroke-linecap:round; stroke-linejoin:round;">
<circle cx="82460000.000000" cy="6280000.000000" r="2200000.000000" /> 
</g>
<g style="fill:#000000; fill-opacity:0.0; 
stroke:#000000; stroke-width:150000.000000; stroke-opacity:1; 
stroke-linecap:round; stroke-linejoin:round;">
<path d="M224500000 4850000
L224500000 21562500
" />
<path d="M219725000 26337500
L4850000 26337500
" />
</g>
<g style="fill:#000000; fill-opacity:0.0; 
stroke:#000000; stroke-width:100000.000000; stroke-opacity:1; 
stroke-linecap:round; stroke-linejoin:round;">
<circle cx="94390000.000000" cy="19220000.000000" r="2200000.000000" /> 
<path d="M75000.000000 21562500.000000 A4775000.000000 4775000.000000 0.0 0 0 4850000.000000 26337500.000000" />
</g>
<g style="fill:#000000; fill-opacity:0.0; 
stroke:#000000; stroke-width:150000.000000; stroke-opacity:1; 
stroke-linecap:round; stroke-linejoin:round;">
<path d="M224500000.000000 4850000.000000 A4775000.000000 4775000.000000 0.0 0 0 219725000.000000 75000.000000" />
<path d="M75000 21562500
L75000 4850000
" />
<path d="M4850000 75000
L219725000 75000
" />
</g>
<g style="fill:#000000; fill-opacity:0.0; 
stroke:#000000; stroke-width:100000.000000; stroke-opacity:1; 
stroke-linecap:round; stroke-linejoin:round;">
<circle cx="203010000.000000" cy="19180000.000000" r="2200000.000000" /> 
<circle cx="216170000.000000" cy="6280000.000000" r="2200000.000000" /> 
<path d="M4850000.000000 75000.000000 A4775000.000000 4775000.000000 0.0 0 0 75000.000000 4850000.000000" />
</g>
<g style="fill:#000000; fill-opacity:0.0; 
stroke:#000000; stroke-width:150000.000000; stroke-opacity:1; 
stroke-linecap:round; stroke-linejoin:round;">
<path d="M219725000.000000 26337500.000000 A4775000.000000 4775000.000000 0.0 0 0 224500000.000000 21562500.000000" />
<g >
</g>
<g >
</g>
<g >
</g>
<g >
</g>
<g >
</g>
<g >
</g>
<g >
</g>
</g> 
</svg>
