<?xml version="1.0" standalone="no"?>
 <!DOCTYPE svg PUBLIC "-//W3C//DTD SVG 1.1//EN" 
 "http://www.w3.org/Graphics/SVG/1.1/DTD/svg11.dtd"> 
<svg
  xmlns:svg="http://www.w3.org/2000/svg"
  xmlns="http://www.w3.org/2000/svg"
  xmlns:xlink="http://www.w3.org/1999/xlink"
  version="1.1"
  width="29.700220cm" height="21.000720cm" viewBox="0 0 116930 82680">
<title>SVG Picture created as lagom_window-NPTH-drl_map.svg date 2022/11/03 13:51:52 </title>
  <desc>Picture generated by PCBNEW </desc>
<g style="fill:#000000; fill-opacity:1.000000;stroke:#000000; stroke-opacity:1.000000;
stroke-linecap:round; stroke-linejoin:round;"
 transform="translate(0 0) scale(1 1)">
</g>
<g style="fill:#000000; fill-opacity:0.0; 
stroke:#000000; stroke-width:0.000000; stroke-opacity:1; 
stroke-linecap:round; stroke-linejoin:round;">
</g>
<g style="fill:#000000; fill-opacity:0.0; 
stroke:#000000; stroke-width:48.561053; stroke-opacity:1; 
stroke-linecap:round; stroke-linejoin:round;">
<circle cx="43980.451825" cy="21440.540047" r="1068.343161" /> 
</g>
<g style="fill:#000000; fill-opacity:0.0; 
stroke:#000000; stroke-width:72.841579; stroke-opacity:1; 
stroke-linecap:round; stroke-linejoin:round;">
<path d="M112956 20746
L112956 28861
" />
<path d="M110637 31180
L6292 31180
" />
</g>
<g style="fill:#000000; fill-opacity:0.0; 
stroke:#000000; stroke-width:48.561053; stroke-opacity:1; 
stroke-linecap:round; stroke-linejoin:round;">
<circle cx="49773.785420" cy="27724.340275" r="1068.343161" /> 
<path d="M3973.428503 28861.882936 A2318.790270 2318.790270 0.0 0 0 6292.218772 31180.673206" />
</g>
<g style="fill:#000000; fill-opacity:0.0; 
stroke:#000000; stroke-width:72.841579; stroke-opacity:1; 
stroke-linecap:round; stroke-linejoin:round;">
<path d="M112956.571175 20746.116992 A2318.790270 2318.790270 0.0 0 0 110637.780906 18427.326723" />
<path d="M3973 28861
L3973 20746
" />
<path d="M6292 18427
L110637 18427
" />
</g>
<g style="fill:#000000; fill-opacity:0.0; 
stroke:#000000; stroke-width:48.561053; stroke-opacity:1; 
stroke-linecap:round; stroke-linejoin:round;">
<circle cx="102520.800936" cy="27704.915854" r="1068.343161" /> 
<circle cx="108911.435480" cy="21440.540047" r="1068.343161" /> 
<path d="M6292.218772 18427.326723 A2318.790270 2318.790270 0.0 0 0 3973.428503 20746.116992" />
</g>
<g style="fill:#000000; fill-opacity:0.0; 
stroke:#000000; stroke-width:72.841579; stroke-opacity:1; 
stroke-linecap:round; stroke-linejoin:round;">
<path d="M110637.780906 31180.673206 A2318.790270 2318.790270 0.0 0 0 112956.571175 28861.882936" />
</g>
<g style="fill:#000000; fill-opacity:0.0; 
stroke:#000000; stroke-width:97.122106; stroke-opacity:1; 
stroke-linecap:round; stroke-linejoin:round;">
</g>
<g style="fill:#000000; fill-opacity:0.0; 
stroke:#000000; stroke-width:106.834316; stroke-opacity:1; 
stroke-linecap:round; stroke-linejoin:round;">
<path d="M43447 20907
L44515 21975
" />
<path d="M44515 20907
L43447 21975
" />
<path d="M49240 27191
L50309 28259
" />
<path d="M50309 27191
L49240 28259
" />
<path d="M101987 27168
L103056 28236
" />
<path d="M103056 27168
L101987 28236
" />
<path d="M108378 20907
L109446 21975
" />
<path d="M109446 20907
L108378 21975
" />
</g>
<g style="fill:#000000; fill-opacity:0.0; 
stroke:#000000; stroke-width:97.122106; stroke-opacity:1; 
stroke-linecap:round; stroke-linejoin:round;">
</g>
<g style="fill:#000000; fill-opacity:0.0; 
stroke:#000000; stroke-width:78.740290; stroke-opacity:1; 
stroke-linecap:round; stroke-linejoin:round;">
<text x="4724.409158" y="32476.936211"
textLength="5853.017557" font-size="1049.868594" lengthAdjust="spacingAndGlyphs"
text-anchor="start" opacity="0">Drill Map:</text>
<g class="stroked-text"><desc>Drill Map:</desc>
<path d="M4951 32439
L4951 31652
L5138 31652
L5251 31689
L5326 31764
L5363 31839
L5401 31989
L5401 32101
L5363 32251
L5326 32326
L5251 32401
L5138 32439
L4951 32439
" />
<path d="M5738 32439
L5738 31914
" />
<path d="M5738 32064
L5776 31989
L5813 31952
L5888 31914
L5963 31914
" />
<path d="M6226 32439
L6226 31914
" />
<path d="M6226 31652
L6188 31689
L6226 31727
L6263 31689
L6226 31652
L6226 31727
" />
<path d="M6713 32439
L6638 32401
L6601 32326
L6601 31652
" />
<path d="M7125 32439
L7050 32401
L7013 32326
L7013 31652
" />
<path d="M8025 32439
L8025 31652
L8288 32214
L8550 31652
L8550 32439
" />
<path d="M9263 32439
L9263 32026
L9225 31952
L9150 31914
L9000 31914
L8925 31952
" />
<path d="M9263 32401
L9188 32439
L9000 32439
L8925 32401
L8888 32326
L8888 32251
L8925 32176
L9000 32139
L9188 32139
L9263 32101
" />
<path d="M9638 31914
L9638 32701
" />
<path d="M9638 31952
L9713 31914
L9863 31914
L9938 31952
L9975 31989
L10013 32064
L10013 32289
L9975 32364
L9938 32401
L9863 32439
L9713 32439
L9638 32401
" />
<path d="M10350 32364
L10388 32401
L10350 32439
L10313 32401
L10350 32364
L10350 32439
" />
<path d="M10350 31952
L10388 31989
L10350 32026
L10313 31989
L10350 31952
L10350 32026
" />
</g></g>
<g style="fill:#000000; fill-opacity:0.0; 
stroke:#000000; stroke-width:78.739805; stroke-opacity:1; 
stroke-linecap:round; stroke-linejoin:round;">
<path d="M3149 33343
L3937 34130
" />
<path d="M3937 33343
L3149 34130
" />
</g>
<g style="fill:#000000; fill-opacity:0.0; 
stroke:#000000; stroke-width:97.122106; stroke-opacity:1; 
stroke-linecap:round; stroke-linejoin:round;">
</g>
<g style="fill:#000000; fill-opacity:0.0; 
stroke:#000000; stroke-width:78.740290; stroke-opacity:1; 
stroke-linecap:round; stroke-linejoin:round;">
<text x="4724.409158" y="34130.479392"
textLength="26250.464734" font-size="1049.868594" lengthAdjust="spacingAndGlyphs"
text-anchor="start" opacity="0">2.200mm / 0.0866" (4 holes) (not plated)</text>
<g class="stroked-text"><desc>2.200mm / 0.0866" (4 holes) (not plated)</desc>
<path d="M4913 33380
L4951 33343
L5026 33305
L5213 33305
L5288 33343
L5326 33380
L5363 33455
L5363 33530
L5326 33643
L4876 34092
L5363 34092
" />
<path d="M5701 34017
L5738 34055
L5701 34092
L5663 34055
L5701 34017
L5701 34092
" />
<path d="M6038 33380
L6076 33343
L6151 33305
L6338 33305
L6413 33343
L6451 33380
L6488 33455
L6488 33530
L6451 33643
L6001 34092
L6488 34092
" />
<path d="M6976 33305
L7050 33305
L7125 33343
L7163 33380
L7200 33455
L7238 33605
L7238 33793
L7200 33943
L7163 34017
L7125 34055
L7050 34092
L6976 34092
L6901 34055
L6863 34017
L6826 33943
L6788 33793
L6788 33605
L6826 33455
L6863 33380
L6901 33343
L6976 33305
" />
<path d="M7725 33305
L7800 33305
L7875 33343
L7913 33380
L7950 33455
L7988 33605
L7988 33793
L7950 33943
L7913 34017
L7875 34055
L7800 34092
L7725 34092
L7650 34055
L7613 34017
L7575 33943
L7538 33793
L7538 33605
L7575 33455
L7613 33380
L7650 33343
L7725 33305
" />
<path d="M8325 34092
L8325 33568
" />
<path d="M8325 33643
L8363 33605
L8438 33568
L8550 33568
L8625 33605
L8663 33680
L8663 34092
" />
<path d="M8663 33680
L8700 33605
L8775 33568
L8888 33568
L8963 33605
L9000 33680
L9000 34092
" />
<path d="M9375 34092
L9375 33568
" />
<path d="M9375 33643
L9413 33605
L9488 33568
L9600 33568
L9675 33605
L9713 33680
L9713 34092
" />
<path d="M9713 33680
L9750 33605
L9825 33568
L9938 33568
L10013 33605
L10050 33680
L10050 34092
" />
<path d="M11587 33268
L10913 34280
" />
<path d="M12600 33305
L12675 33305
L12750 33343
L12787 33380
L12825 33455
L12862 33605
L12862 33793
L12825 33943
L12787 34017
L12750 34055
L12675 34092
L12600 34092
L12525 34055
L12487 34017
L12450 33943
L12412 33793
L12412 33605
L12450 33455
L12487 33380
L12525 33343
L12600 33305
" />
<path d="M13200 34017
L13237 34055
L13200 34092
L13162 34055
L13200 34017
L13200 34092
" />
<path d="M13725 33305
L13800 33305
L13875 33343
L13912 33380
L13950 33455
L13987 33605
L13987 33793
L13950 33943
L13912 34017
L13875 34055
L13800 34092
L13725 34092
L13650 34055
L13612 34017
L13575 33943
L13537 33793
L13537 33605
L13575 33455
L13612 33380
L13650 33343
L13725 33305
" />
<path d="M14437 33643
L14362 33605
L14325 33568
L14287 33493
L14287 33455
L14325 33380
L14362 33343
L14437 33305
L14587 33305
L14662 33343
L14700 33380
L14737 33455
L14737 33493
L14700 33568
L14662 33605
L14587 33643
L14437 33643
L14362 33680
L14325 33718
L14287 33793
L14287 33943
L14325 34017
L14362 34055
L14437 34092
L14587 34092
L14662 34055
L14700 34017
L14737 33943
L14737 33793
L14700 33718
L14662 33680
L14587 33643
" />
<path d="M15412 33305
L15262 33305
L15187 33343
L15149 33380
L15074 33493
L15037 33643
L15037 33943
L15074 34017
L15112 34055
L15187 34092
L15337 34092
L15412 34055
L15449 34017
L15487 33943
L15487 33755
L15449 33680
L15412 33643
L15337 33605
L15187 33605
L15112 33643
L15074 33680
L15037 33755
" />
<path d="M16162 33305
L16012 33305
L15937 33343
L15899 33380
L15824 33493
L15787 33643
L15787 33943
L15824 34017
L15862 34055
L15937 34092
L16087 34092
L16162 34055
L16199 34017
L16237 33943
L16237 33755
L16199 33680
L16162 33643
L16087 33605
L15937 33605
L15862 33643
L15824 33680
L15787 33755
" />
<path d="M16537 33305
L16537 33455
" />
<path d="M16837 33305
L16837 33455
" />
<path d="M17999 34392
L17962 34355
L17887 34242
L17849 34167
L17812 34055
L17774 33868
L17774 33718
L17812 33530
L17849 33418
L17887 33343
L17962 33230
L17999 33193
" />
<path d="M18637 33568
L18637 34092
" />
<path d="M18449 33268
L18262 33830
L18749 33830
" />
<path d="M19649 34092
L19649 33305
" />
<path d="M19986 34092
L19986 33680
L19949 33605
L19874 33568
L19761 33568
L19686 33605
L19649 33643
" />
<path d="M20474 34092
L20399 34055
L20361 34017
L20324 33943
L20324 33718
L20361 33643
L20399 33605
L20474 33568
L20586 33568
L20661 33605
L20699 33643
L20736 33718
L20736 33943
L20699 34017
L20661 34055
L20586 34092
L20474 34092
" />
<path d="M21186 34092
L21111 34055
L21074 33980
L21074 33305
" />
<path d="M21786 34055
L21711 34092
L21561 34092
L21486 34055
L21449 33980
L21449 33680
L21486 33605
L21561 33568
L21711 33568
L21786 33605
L21824 33680
L21824 33755
L21449 33830
" />
<path d="M22124 34055
L22199 34092
L22349 34092
L22424 34055
L22461 33980
L22461 33943
L22424 33868
L22349 33830
L22236 33830
L22161 33793
L22124 33718
L22124 33680
L22161 33605
L22236 33568
L22349 33568
L22424 33605
" />
<path d="M22724 34392
L22761 34355
L22836 34242
L22874 34167
L22911 34055
L22949 33868
L22949 33718
L22911 33530
L22874 33418
L22836 33343
L22761 33230
L22724 33193
" />
<path d="M24148 34392
L24111 34355
L24036 34242
L23998 34167
L23961 34055
L23923 33868
L23923 33718
L23961 33530
L23998 33418
L24036 33343
L24111 33230
L24148 33193
" />
<path d="M24448 33568
L24448 34092
" />
<path d="M24448 33643
L24486 33605
L24561 33568
L24673 33568
L24748 33605
L24786 33680
L24786 34092
" />
<path d="M25273 34092
L25198 34055
L25161 34017
L25123 33943
L25123 33718
L25161 33643
L25198 33605
L25273 33568
L25386 33568
L25461 33605
L25498 33643
L25536 33718
L25536 33943
L25498 34017
L25461 34055
L25386 34092
L25273 34092
" />
<path d="M25761 33568
L26061 33568
" />
<path d="M25873 33305
L25873 33980
L25911 34055
L25986 34092
L26061 34092
" />
<path d="M26923 33568
L26923 34355
" />
<path d="M26923 33605
L26998 33568
L27148 33568
L27223 33605
L27260 33643
L27298 33718
L27298 33943
L27260 34017
L27223 34055
L27148 34092
L26998 34092
L26923 34055
" />
<path d="M27748 34092
L27673 34055
L27635 33980
L27635 33305
" />
<path d="M28385 34092
L28385 33680
L28348 33605
L28273 33568
L28123 33568
L28048 33605
" />
<path d="M28385 34055
L28310 34092
L28123 34092
L28048 34055
L28010 33980
L28010 33905
L28048 33830
L28123 33793
L28310 33793
L28385 33755
" />
<path d="M28648 33568
L28948 33568
" />
<path d="M28760 33305
L28760 33980
L28798 34055
L28873 34092
L28948 34092
" />
<path d="M29510 34055
L29435 34092
L29285 34092
L29210 34055
L29173 33980
L29173 33680
L29210 33605
L29285 33568
L29435 33568
L29510 33605
L29548 33680
L29548 33755
L29173 33830
" />
<path d="M30223 34092
L30223 33305
" />
<path d="M30223 34055
L30148 34092
L29998 34092
L29923 34055
L29885 34017
L29848 33943
L29848 33718
L29885 33643
L29923 33605
L29998 33568
L30148 33568
L30223 33605
" />
<path d="M30523 34392
L30560 34355
L30635 34242
L30673 34167
L30710 34055
L30748 33868
L30748 33718
L30710 33530
L30673 33418
L30635 33343
L30560 33230
L30523 33193
" />
</g></g> 
</svg>
